<svg width="16" height="16" viewBox="0 0 16 16" fill="none" xmlns="http://www.w3.org/2000/svg">
<rect width="16" height="16" rx="8" fill="white"/>
<path d="M6.95591 9.60826C6.41101 9.05308 5.86612 8.4987 5.32043 7.94352C4.8222 7.43738 4.32396 6.93203 3.82573 6.42589V11.5767C3.82573 11.5767 3.92854 12.4782 3.12029 12.4782H2.00599C1.9965 7.83992 1.99966 4.45905 2.00599 4.06441C2.00757 3.97821 2.01311 3.77259 2.15388 3.64368C2.27013 3.53692 2.42514 3.52822 2.50976 3.52822C3.08787 3.53217 4.21008 3.52822 4.21008 3.52822C5.1243 4.55237 6.0401 5.5781 6.95591 6.60304C7.7689 5.57889 8.58347 4.55316 9.39646 3.52822C9.99751 3.52822 10.5978 3.52822 11.1988 3.52822C11.2463 3.54404 11.3736 3.59386 11.4645 3.72435C11.5555 3.85405 11.5594 3.99166 11.561 4.04069C11.561 4.05572 11.561 4.06758 11.561 4.07628C10.026 5.91974 8.49094 7.76321 6.9567 9.60747L6.95591 9.60826Z" fill="url(#paint0_linear_738_5315)"/>
<path d="M11.5602 8.38088V12.4791H10.321C10.2198 12.4585 10.0537 12.4079 9.92002 12.2695C9.76581 12.1089 9.73338 11.9136 9.71756 11.8068V7.98941H11.1522C11.1996 7.99811 11.2747 8.01709 11.3538 8.06928C11.4052 8.10171 11.4369 8.13492 11.4448 8.14362C11.5215 8.22666 11.5508 8.32077 11.561 8.38088H11.5602Z" fill="url(#paint1_linear_738_5315)"/>
<path d="M9.17899 10.5312C9.18057 11.1805 9.18215 11.829 9.18374 12.4783C8.74244 12.479 8.30194 12.479 7.86065 12.479C7.82506 12.479 7.63763 12.4719 7.48816 12.3185C7.34027 12.1659 7.33869 11.98 7.33869 11.9444C7.33869 11.3149 7.33869 10.6862 7.33869 10.0567C7.44624 10.0567 7.8646 10.0567 7.97216 10.0567C8.10897 10.0567 8.55897 10.0567 8.69499 10.0559C8.73058 10.0567 8.89903 10.0654 9.03585 10.2038C9.16555 10.3351 9.17662 10.4932 9.1782 10.5312H9.17899Z" fill="url(#paint2_linear_738_5315)"/>
<path d="M14 4.64411V12.479H12.7196C12.6714 12.4822 12.5978 12.4798 12.514 12.4545C12.4523 12.4348 12.4041 12.4079 12.3693 12.3857C12.3274 12.358 12.2744 12.3145 12.2277 12.2513C12.2277 12.2513 12.1486 12.1421 12.1289 11.9903C12.1265 11.9784 12.1257 11.9523 12.1233 11.9152V4.09526C12.1241 3.90862 12.1257 3.71961 12.1265 3.52901C12.1826 3.52664 13.1229 3.49975 13.5508 3.54878C13.6093 3.55511 13.7161 3.56934 13.8062 3.64685C13.9312 3.75361 13.9565 3.91336 13.966 3.97347C13.9802 4.066 13.9921 4.29772 13.9992 4.64411H14Z" fill="url(#paint3_linear_738_5315)"/>
<defs>
<linearGradient id="paint0_linear_738_5315" x1="2.00057" y1="8.00023" x2="14" y2="8.00023" gradientUnits="userSpaceOnUse">
<stop stop-color="#02579A"/>
<stop offset="1" stop-color="#218BDD"/>
</linearGradient>
<linearGradient id="paint1_linear_738_5315" x1="7.99228" y1="13.4651" x2="7.99228" y2="2.94815" gradientUnits="userSpaceOnUse">
<stop stop-color="#2C9400"/>
<stop offset="1" stop-color="#37ED81"/>
</linearGradient>
<linearGradient id="paint2_linear_738_5315" x1="8.00257" y1="14.305" x2="8.00257" y2="-5.1808" gradientUnits="userSpaceOnUse">
<stop stop-color="#2C9400"/>
<stop offset="1" stop-color="#37ED81"/>
</linearGradient>
<linearGradient id="paint3_linear_738_5315" x1="13.0621" y1="12.9725" x2="13.0621" y2="7.70311" gradientUnits="userSpaceOnUse">
<stop stop-color="#2C9400"/>
<stop offset="1" stop-color="#37ED81"/>
</linearGradient>
</defs>
</svg>
