<svg width="24" height="24" viewBox="0 0 24 24" fill="none" xmlns="http://www.w3.org/2000/svg">
<path d="M10.2392 14.7116C9.32055 13.7756 8.40189 12.8409 7.48189 11.9049C6.64189 11.0516 5.80189 10.1996 4.96189 9.34627V18.0303C4.96189 18.0303 5.13522 19.5503 3.77255 19.5503H1.89389C1.87789 11.7303 1.88322 6.03027 1.89389 5.36494C1.89655 5.2196 1.90589 4.87294 2.14322 4.6556C2.33922 4.4756 2.60055 4.46094 2.74322 4.46094C3.71789 4.4676 5.60989 4.46094 5.60989 4.46094C7.15122 6.1876 8.69522 7.91694 10.2392 9.64494C11.6099 7.91827 12.9832 6.18894 14.3539 4.46094C15.3672 4.46094 16.3792 4.46094 17.3926 4.46094C17.4726 4.4876 17.6872 4.5716 17.8406 4.7916C17.9939 5.01027 18.0006 5.24227 18.0032 5.32494C18.0032 5.35027 18.0032 5.37027 18.0032 5.38494C15.4152 8.49294 12.8272 11.6009 10.2406 14.7103L10.2392 14.7116Z" fill="url(#paint0_linear_738_5277)"/>
<path d="M18.0019 12.6423V19.5516H15.9126C15.7419 19.517 15.4619 19.4316 15.2366 19.1983C14.9766 18.9276 14.9219 18.5983 14.8952 18.4183V11.9823H17.3139C17.3939 11.997 17.5206 12.029 17.6539 12.117C17.7406 12.1716 17.7939 12.2276 17.8072 12.2423C17.9366 12.3823 17.9859 12.541 18.0032 12.6423H18.0019Z" fill="url(#paint1_linear_738_5277)"/>
<path d="M13.9872 16.2676C13.9899 17.3623 13.9926 18.4556 13.9952 19.5503C13.2512 19.5516 12.5086 19.5516 11.7646 19.5516C11.7046 19.5516 11.3886 19.5396 11.1366 19.2809C10.8872 19.0236 10.8846 18.7103 10.8846 18.6503C10.8846 17.5889 10.8846 16.5289 10.8846 15.4676C11.0659 15.4676 11.7712 15.4676 11.9526 15.4676C12.1832 15.4676 12.9419 15.4676 13.1712 15.4663C13.2312 15.4676 13.5152 15.4823 13.7459 15.7156C13.9646 15.9369 13.9832 16.2036 13.9859 16.2676H13.9872Z" fill="url(#paint2_linear_738_5277)"/>
<path d="M22.1152 6.34227V19.5516H19.9566C19.8752 19.5569 19.7512 19.5529 19.6099 19.5103C19.5059 19.4769 19.4246 19.4316 19.3659 19.3943C19.2952 19.3476 19.2059 19.2743 19.1272 19.1676C19.1272 19.1676 18.9939 18.9836 18.9606 18.7276C18.9566 18.7076 18.9552 18.6636 18.9512 18.6009V5.41694C18.9526 5.10227 18.9552 4.78361 18.9566 4.46227C19.0512 4.45827 20.6366 4.41294 21.3579 4.49561C21.4566 4.50627 21.6366 4.53027 21.7886 4.66094C21.9992 4.84094 22.0419 5.11027 22.0579 5.21161C22.0819 5.36761 22.1019 5.75827 22.1139 6.34227H22.1152Z" fill="url(#paint3_linear_738_5277)"/>
<defs>
<linearGradient id="paint0_linear_738_5277" x1="1.88475" y1="12.0005" x2="22.1152" y2="12.0005" gradientUnits="userSpaceOnUse">
<stop stop-color="#02579A"/>
<stop offset="1" stop-color="#218BDD"/>
</linearGradient>
<linearGradient id="paint1_linear_738_5277" x1="11.9865" y1="21.214" x2="11.9865" y2="3.48296" gradientUnits="userSpaceOnUse">
<stop stop-color="#2C9400"/>
<stop offset="1" stop-color="#37ED81"/>
</linearGradient>
<linearGradient id="paint2_linear_738_5277" x1="12.0038" y1="22.6301" x2="12.0038" y2="-10.2221" gradientUnits="userSpaceOnUse">
<stop stop-color="#2C9400"/>
<stop offset="1" stop-color="#37ED81"/>
</linearGradient>
<linearGradient id="paint3_linear_738_5277" x1="20.5339" y1="20.3836" x2="20.5339" y2="11.4996" gradientUnits="userSpaceOnUse">
<stop stop-color="#2C9400"/>
<stop offset="1" stop-color="#37ED81"/>
</linearGradient>
</defs>
</svg>
