<svg width="16" height="16" viewBox="0 0 16 16" fill="none" xmlns="http://www.w3.org/2000/svg">
<path d="M14.6668 12.1667V7.54346V7.54285C14.6668 7.09798 14.6668 6.87542 14.6127 6.66832C14.5647 6.4847 14.4857 6.31057 14.3791 6.15354C14.2589 5.97635 14.0915 5.82978 13.7563 5.53656L9.75635 2.03656C9.13417 1.49216 8.82309 1.21999 8.47298 1.11646C8.16449 1.02523 7.83584 1.02523 7.52734 1.11646C7.17743 1.21994 6.86666 1.49186 6.24516 2.03567L6.24414 2.03656L2.24414 5.53656L2.24335 5.53726C1.90876 5.83002 1.74136 5.97649 1.62118 6.15354C1.51458 6.31057 1.43562 6.4847 1.38764 6.66832C1.3335 6.87552 1.3335 7.09817 1.3335 7.54346V12.1667C1.3335 12.9433 1.3335 13.3315 1.46036 13.6378C1.62952 14.0462 1.95417 14.3707 2.36255 14.5398C2.66883 14.6667 3.05712 14.6667 3.83369 14.6667C4.61026 14.6667 4.99835 14.6667 5.30464 14.5398C5.71302 14.3707 6.03739 14.0462 6.20654 13.6378C6.33341 13.3315 6.3335 12.9432 6.3335 12.1667V11.3333C6.3335 10.4129 7.07969 9.66667 8.00016 9.66667C8.92064 9.66667 9.66683 10.4129 9.66683 11.3333V12.1667C9.66683 12.9432 9.66683 13.3315 9.7937 13.6378C9.96285 14.0462 10.2875 14.3707 10.6959 14.5398C11.0022 14.6667 11.3905 14.6667 12.167 14.6667C12.9436 14.6667 13.3317 14.6667 13.638 14.5398C14.0463 14.3707 14.3707 14.0462 14.5399 13.6378C14.6667 13.3315 14.6668 12.9433 14.6668 12.1667Z" stroke="#232323" stroke-width="2" stroke-linecap="round" stroke-linejoin="round"/>
</svg>
