<svg width="40" height="40" viewBox="0 0 40 40" fill="none" xmlns="http://www.w3.org/2000/svg">
<rect x="0.5" y="0.5" width="39" height="39" rx="19.5" stroke="#37ED81"/>
<path d="M17.9757 14.3166C18.134 14.3166 18.2924 14.3749 18.4174 14.4999C18.659 14.7416 18.659 15.1416 18.4174 15.3832L13.8007 19.9999L18.4174 24.6166C18.659 24.8582 18.659 25.2582 18.4174 25.4999C18.1757 25.7416 17.7757 25.7416 17.534 25.4999L12.4757 20.4416C12.234 20.1999 12.234 19.7999 12.4757 19.5582L17.534 14.4999C17.659 14.3749 17.8174 14.3166 17.9757 14.3166Z" fill="#37ED81"/>
<path d="M13.0585 19.375H27.0835C27.4252 19.375 27.7085 19.6583 27.7085 20C27.7085 20.3417 27.4252 20.625 27.0835 20.625L13.0585 20.625C12.7168 20.625 12.4335 20.3417 12.4335 20C12.4335 19.6583 12.7168 19.375 13.0585 19.375Z" fill="#37ED81"/>
</svg>
