<svg width="40" height="41" viewBox="0 0 40 41" fill="none" xmlns="http://www.w3.org/2000/svg">
<rect x="39.5" y="40" width="39" height="39" rx="19.5" transform="rotate(-180 39.5 40)" stroke="#37ED81"/>
<path d="M22.0243 26.1829C21.866 26.1829 21.7076 26.1246 21.5826 25.9996C21.341 25.7579 21.341 25.3579 21.5826 25.1163L26.1993 20.4996L21.5826 15.8829C21.341 15.6413 21.341 15.2413 21.5826 14.9996C21.8243 14.7579 22.2243 14.7579 22.466 14.9996L27.5243 20.0579C27.766 20.2996 27.766 20.6996 27.5243 20.9413L22.466 25.9996C22.341 26.1246 22.1826 26.1829 22.0243 26.1829Z" fill="#37ED81"/>
<path d="M26.9415 21.125L12.9165 21.125C12.5748 21.125 12.2915 20.8417 12.2915 20.5C12.2915 20.1583 12.5748 19.875 12.9165 19.875L26.9415 19.875C27.2832 19.875 27.5665 20.1583 27.5665 20.5C27.5665 20.8417 27.2832 21.125 26.9415 21.125Z" fill="#37ED81"/>
</svg>
