<svg width="41" height="40" viewBox="0 0 41 40" fill="none" xmlns="http://www.w3.org/2000/svg">
<rect x="0.5" width="40" height="40" rx="20" fill="#1A2032"/>
<path d="M31.0786 19.8336L30.4367 19.4458L31.0786 19.8336ZM20.6672 9.4222L20.2793 8.78029V8.78029L20.6672 9.4222ZM31.4168 20.0007C31.4168 26.0298 26.5293 30.9173 20.5002 30.9173V32.4173C27.3577 32.4173 32.9168 26.8582 32.9168 20.0007H31.4168ZM20.5002 30.9173C14.4711 30.9173 9.5835 26.0298 9.5835 20.0007H8.0835C8.0835 26.8582 13.6426 32.4173 20.5002 32.4173V30.9173ZM9.5835 20.0007C9.5835 13.9715 14.4711 9.08398 20.5002 9.08398V7.58398C13.6426 7.58398 8.0835 13.1431 8.0835 20.0007H9.5835ZM24.5835 22.7507C20.8095 22.7507 17.7502 19.6913 17.7502 15.9173H16.2502C16.2502 20.5197 19.9811 24.2507 24.5835 24.2507V22.7507ZM30.4367 19.4458C29.2388 21.4281 27.0653 22.7507 24.5835 22.7507V24.2507C27.612 24.2507 30.2624 22.6347 31.7205 20.2215L30.4367 19.4458ZM17.7502 15.9173C17.7502 13.4356 19.0727 11.262 21.0551 10.0641L20.2793 8.78029C17.8662 10.2385 16.2502 12.8888 16.2502 15.9173H17.7502ZM20.5002 9.08398C20.4722 9.08398 20.4321 9.07835 20.3873 9.05927C20.3428 9.04031 20.3059 9.01324 20.2781 8.98435C20.2253 8.92939 20.2172 8.88226 20.2161 8.87378C20.2147 8.8635 20.2154 8.85593 20.22 8.84486C20.2263 8.82996 20.2439 8.80166 20.2793 8.78029L21.0551 10.0641C21.5912 9.74016 21.7663 9.14461 21.7026 8.67302C21.6366 8.18414 21.2553 7.58398 20.5002 7.58398V9.08398ZM31.7205 20.2215C31.6992 20.2569 31.6709 20.2745 31.656 20.2808C31.6449 20.2854 31.6373 20.2861 31.627 20.2847C31.6186 20.2836 31.5714 20.2755 31.5165 20.2227C31.4876 20.195 31.4605 20.158 31.4415 20.1135C31.4225 20.0687 31.4168 20.0286 31.4168 20.0007H32.9168C32.9168 19.2455 32.3167 18.8642 31.8278 18.7982C31.3562 18.7345 30.7607 18.9096 30.4367 19.4458L31.7205 20.2215Z" fill="#EAEAEA"/>
</svg>
