<svg width="226" height="278" viewBox="0 0 226 278" fill="none" xmlns="http://www.w3.org/2000/svg">
<g filter="url(#filter0_d_1148_5827)">
<rect x="10" y="10.5" width="206" height="257" rx="24" fill="white" shape-rendering="crispEdges"/>
<g filter="url(#filter1_d_1148_5827)">
<circle cx="113" cy="110.5" r="55" fill="white"/>
<rect x="75" y="72.5" width="76" height="76" rx="38" stroke="#1E2D1F" stroke-width="4"/>
<path d="M113.258 113.74V116.584H98.916L98.7656 114.396L107.201 101.094H110.086L106.969 106.385L102.443 113.74H113.258ZM110.893 101.094V121H107.27V101.094H110.893ZM118.453 106.207L121.092 110.91L123.771 106.207H127.695L123.348 113.453L127.873 121H123.949L121.119 116.064L118.275 121H114.352L118.863 113.453L114.543 106.207H118.453Z" fill="#108A00"/>
</g>
<path d="M45.8027 190.547V200.5H44.4834V190.547H45.8027ZM49.2754 194.683V200.5H48.0107V193.104H49.207L49.2754 194.683ZM48.9746 196.521L48.4482 196.501C48.4528 195.995 48.528 195.528 48.6738 195.1C48.8197 194.667 49.0247 194.291 49.2891 193.972C49.5534 193.653 49.8678 193.407 50.2324 193.233C50.6016 193.056 51.0094 192.967 51.4561 192.967C51.8206 192.967 52.1488 193.017 52.4404 193.117C52.7321 193.213 52.9805 193.368 53.1855 193.582C53.3952 193.796 53.5547 194.074 53.6641 194.416C53.7734 194.753 53.8281 195.166 53.8281 195.653V200.5H52.5566V195.64C52.5566 195.252 52.4997 194.942 52.3857 194.71C52.2718 194.473 52.1055 194.302 51.8867 194.197C51.668 194.088 51.3991 194.033 51.0801 194.033C50.7656 194.033 50.4785 194.099 50.2188 194.231C49.9635 194.364 49.7425 194.546 49.5557 194.778C49.3734 195.011 49.2298 195.277 49.125 195.578C49.0247 195.874 48.9746 196.189 48.9746 196.521ZM58.709 199.598C59.0098 199.598 59.2878 199.536 59.543 199.413C59.7982 199.29 60.0078 199.121 60.1719 198.907C60.3359 198.688 60.4294 198.44 60.4521 198.162H61.6553C61.6325 198.6 61.4844 199.007 61.2109 199.386C60.9421 199.759 60.5889 200.062 60.1514 200.295C59.7139 200.523 59.2331 200.637 58.709 200.637C58.153 200.637 57.6676 200.539 57.2529 200.343C56.8428 200.147 56.501 199.878 56.2275 199.536C55.9587 199.194 55.7559 198.802 55.6191 198.36C55.487 197.914 55.4209 197.442 55.4209 196.945V196.658C55.4209 196.161 55.487 195.692 55.6191 195.25C55.7559 194.803 55.9587 194.409 56.2275 194.067C56.501 193.726 56.8428 193.457 57.2529 193.261C57.6676 193.065 58.153 192.967 58.709 192.967C59.2878 192.967 59.7936 193.085 60.2266 193.322C60.6595 193.555 60.999 193.874 61.2451 194.279C61.4958 194.68 61.6325 195.136 61.6553 195.646H60.4521C60.4294 195.341 60.3428 195.065 60.1924 194.819C60.0465 194.573 59.846 194.377 59.5908 194.231C59.3402 194.081 59.0462 194.006 58.709 194.006C58.3216 194.006 57.9958 194.083 57.7314 194.238C57.4717 194.389 57.2643 194.594 57.1094 194.854C56.959 195.109 56.8496 195.394 56.7812 195.708C56.7174 196.018 56.6855 196.335 56.6855 196.658V196.945C56.6855 197.269 56.7174 197.588 56.7812 197.902C56.8451 198.217 56.9521 198.502 57.1025 198.757C57.2575 199.012 57.4648 199.217 57.7246 199.372C57.9889 199.522 58.3171 199.598 58.709 199.598ZM64.3418 194.266V200.5H63.0771V193.104H64.3076L64.3418 194.266ZM66.6523 193.062L66.6455 194.238C66.5407 194.215 66.4404 194.202 66.3447 194.197C66.2536 194.188 66.1488 194.184 66.0303 194.184C65.7386 194.184 65.4811 194.229 65.2578 194.32C65.0345 194.411 64.8454 194.539 64.6904 194.703C64.5355 194.867 64.4124 195.063 64.3213 195.291C64.2347 195.514 64.1777 195.76 64.1504 196.029L63.7949 196.234C63.7949 195.788 63.8382 195.368 63.9248 194.977C64.016 194.585 64.1549 194.238 64.3418 193.938C64.5286 193.632 64.7656 193.395 65.0527 193.227C65.3444 193.053 65.6908 192.967 66.0918 192.967C66.1829 192.967 66.2878 192.978 66.4062 193.001C66.5247 193.019 66.6068 193.04 66.6523 193.062ZM70.7539 200.637C70.2389 200.637 69.7718 200.55 69.3525 200.377C68.9378 200.199 68.5801 199.951 68.2793 199.632C67.9831 199.313 67.7552 198.935 67.5957 198.497C67.4362 198.06 67.3564 197.581 67.3564 197.062V196.774C67.3564 196.173 67.4453 195.637 67.623 195.168C67.8008 194.694 68.0423 194.293 68.3477 193.965C68.653 193.637 68.9993 193.388 69.3867 193.22C69.7741 193.051 70.1751 192.967 70.5898 192.967C71.1185 192.967 71.5742 193.058 71.957 193.24C72.3444 193.423 72.6611 193.678 72.9072 194.006C73.1533 194.329 73.3356 194.712 73.4541 195.154C73.5726 195.592 73.6318 196.07 73.6318 196.59V197.157H68.1084V196.125H72.3672V196.029C72.349 195.701 72.2806 195.382 72.1621 195.072C72.0482 194.762 71.8659 194.507 71.6152 194.307C71.3646 194.106 71.0228 194.006 70.5898 194.006C70.3027 194.006 70.0384 194.067 69.7969 194.19C69.5553 194.309 69.348 194.487 69.1748 194.724C69.0016 194.961 68.8672 195.25 68.7715 195.592C68.6758 195.934 68.6279 196.328 68.6279 196.774V197.062C68.6279 197.412 68.6758 197.743 68.7715 198.053C68.8717 198.358 69.0153 198.627 69.2021 198.859C69.3936 199.092 69.6237 199.274 69.8926 199.406C70.166 199.538 70.4759 199.604 70.8223 199.604C71.2689 199.604 71.6471 199.513 71.957 199.331C72.2669 199.149 72.5381 198.905 72.7705 198.6L73.5361 199.208C73.3766 199.45 73.1738 199.68 72.9277 199.898C72.6816 200.117 72.3786 200.295 72.0186 200.432C71.6631 200.568 71.2415 200.637 70.7539 200.637ZM79.4697 199.235V195.428C79.4697 195.136 79.4105 194.883 79.292 194.669C79.1781 194.45 79.0049 194.282 78.7725 194.163C78.54 194.045 78.2529 193.985 77.9111 193.985C77.5921 193.985 77.3118 194.04 77.0703 194.149C76.8333 194.259 76.6465 194.402 76.5098 194.58C76.3776 194.758 76.3115 194.949 76.3115 195.154H75.0469C75.0469 194.89 75.1152 194.628 75.252 194.368C75.3887 194.108 75.5846 193.874 75.8398 193.664C76.0996 193.45 76.4095 193.281 76.7695 193.158C77.1341 193.031 77.5397 192.967 77.9863 192.967C78.5241 192.967 78.998 193.058 79.4082 193.24C79.8229 193.423 80.1465 193.698 80.3789 194.067C80.6159 194.432 80.7344 194.89 80.7344 195.441V198.887C80.7344 199.133 80.7549 199.395 80.7959 199.673C80.8415 199.951 80.9076 200.19 80.9941 200.391V200.5H79.6748C79.611 200.354 79.5609 200.16 79.5244 199.919C79.488 199.673 79.4697 199.445 79.4697 199.235ZM79.6885 196.016L79.7021 196.904H78.4238C78.0638 196.904 77.7425 196.934 77.46 196.993C77.1774 197.048 76.9404 197.132 76.749 197.246C76.5576 197.36 76.4118 197.504 76.3115 197.677C76.2113 197.845 76.1611 198.044 76.1611 198.271C76.1611 198.504 76.2135 198.716 76.3184 198.907C76.4232 199.099 76.5804 199.251 76.79 199.365C77.0042 199.475 77.2663 199.529 77.5762 199.529C77.9635 199.529 78.3053 199.447 78.6016 199.283C78.8978 199.119 79.1325 198.919 79.3057 198.682C79.4834 198.445 79.5791 198.215 79.5928 197.991L80.1328 198.6C80.1009 198.791 80.0143 199.003 79.873 199.235C79.7318 199.468 79.5426 199.691 79.3057 199.905C79.0732 200.115 78.7952 200.29 78.4717 200.432C78.1527 200.568 77.7926 200.637 77.3916 200.637C76.8903 200.637 76.4505 200.539 76.0723 200.343C75.6986 200.147 75.4069 199.885 75.1973 199.557C74.9922 199.224 74.8896 198.853 74.8896 198.442C74.8896 198.046 74.9671 197.697 75.1221 197.396C75.277 197.091 75.5003 196.838 75.792 196.638C76.0837 196.433 76.4346 196.278 76.8447 196.173C77.2549 196.068 77.7129 196.016 78.2188 196.016H79.6885ZM87.0303 198.538C87.0303 198.356 86.9893 198.187 86.9072 198.032C86.8298 197.873 86.668 197.729 86.4219 197.602C86.1803 197.469 85.8158 197.355 85.3281 197.26C84.918 197.173 84.5465 197.071 84.2139 196.952C83.8857 196.834 83.6055 196.69 83.373 196.521C83.1452 196.353 82.9697 196.155 82.8467 195.927C82.7236 195.699 82.6621 195.432 82.6621 195.127C82.6621 194.835 82.7259 194.56 82.8535 194.3C82.9857 194.04 83.1702 193.81 83.4072 193.609C83.6488 193.409 83.9382 193.252 84.2754 193.138C84.6126 193.024 84.9886 192.967 85.4033 192.967C85.9958 192.967 86.5016 193.072 86.9209 193.281C87.3402 193.491 87.6615 193.771 87.8848 194.122C88.1081 194.468 88.2197 194.854 88.2197 195.277H86.9551C86.9551 195.072 86.8936 194.874 86.7705 194.683C86.652 194.487 86.4766 194.325 86.2441 194.197C86.0163 194.07 85.736 194.006 85.4033 194.006C85.0524 194.006 84.7676 194.061 84.5488 194.17C84.3346 194.275 84.1774 194.409 84.0771 194.573C83.9814 194.737 83.9336 194.91 83.9336 195.093C83.9336 195.229 83.9564 195.353 84.002 195.462C84.0521 195.567 84.1387 195.665 84.2617 195.756C84.3848 195.842 84.5579 195.924 84.7812 196.002C85.0046 196.079 85.2894 196.157 85.6357 196.234C86.2419 196.371 86.7409 196.535 87.1328 196.727C87.5247 196.918 87.8164 197.153 88.0078 197.431C88.1992 197.709 88.2949 198.046 88.2949 198.442C88.2949 198.766 88.2266 199.062 88.0898 199.331C87.9577 199.6 87.764 199.832 87.5088 200.028C87.2581 200.22 86.9574 200.37 86.6064 200.479C86.2601 200.584 85.8704 200.637 85.4375 200.637C84.7858 200.637 84.2344 200.521 83.7832 200.288C83.332 200.056 82.9902 199.755 82.7578 199.386C82.5254 199.017 82.4092 198.627 82.4092 198.217H83.6807C83.6989 198.563 83.7992 198.839 83.9814 199.044C84.1637 199.244 84.387 199.388 84.6514 199.475C84.9157 199.557 85.1777 199.598 85.4375 199.598C85.7839 199.598 86.0732 199.552 86.3057 199.461C86.5426 199.37 86.7227 199.244 86.8457 199.085C86.9688 198.925 87.0303 198.743 87.0303 198.538ZM93.0254 200.637C92.5104 200.637 92.0433 200.55 91.624 200.377C91.2093 200.199 90.8516 199.951 90.5508 199.632C90.2546 199.313 90.0267 198.935 89.8672 198.497C89.7077 198.06 89.6279 197.581 89.6279 197.062V196.774C89.6279 196.173 89.7168 195.637 89.8945 195.168C90.0723 194.694 90.3138 194.293 90.6191 193.965C90.9245 193.637 91.2708 193.388 91.6582 193.22C92.0456 193.051 92.4466 192.967 92.8613 192.967C93.39 192.967 93.8457 193.058 94.2285 193.24C94.6159 193.423 94.9326 193.678 95.1787 194.006C95.4248 194.329 95.6071 194.712 95.7256 195.154C95.8441 195.592 95.9033 196.07 95.9033 196.59V197.157H90.3799V196.125H94.6387V196.029C94.6204 195.701 94.5521 195.382 94.4336 195.072C94.3197 194.762 94.1374 194.507 93.8867 194.307C93.6361 194.106 93.2943 194.006 92.8613 194.006C92.5742 194.006 92.3099 194.067 92.0684 194.19C91.8268 194.309 91.6195 194.487 91.4463 194.724C91.2731 194.961 91.1387 195.25 91.043 195.592C90.9473 195.934 90.8994 196.328 90.8994 196.774V197.062C90.8994 197.412 90.9473 197.743 91.043 198.053C91.1432 198.358 91.2868 198.627 91.4736 198.859C91.665 199.092 91.8952 199.274 92.1641 199.406C92.4375 199.538 92.7474 199.604 93.0938 199.604C93.5404 199.604 93.9186 199.513 94.2285 199.331C94.5384 199.149 94.8096 198.905 95.042 198.6L95.8076 199.208C95.6481 199.45 95.4453 199.68 95.1992 199.898C94.9531 200.117 94.6501 200.295 94.29 200.432C93.9346 200.568 93.513 200.637 93.0254 200.637ZM102.227 193.104V200.5H100.955V193.104H102.227ZM100.859 191.142C100.859 190.937 100.921 190.763 101.044 190.622C101.172 190.481 101.358 190.41 101.604 190.41C101.846 190.41 102.031 190.481 102.158 190.622C102.29 190.763 102.356 190.937 102.356 191.142C102.356 191.338 102.29 191.506 102.158 191.647C102.031 191.784 101.846 191.853 101.604 191.853C101.358 191.853 101.172 191.784 101.044 191.647C100.921 191.506 100.859 191.338 100.859 191.142ZM105.521 194.683V200.5H104.257V193.104H105.453L105.521 194.683ZM105.221 196.521L104.694 196.501C104.699 195.995 104.774 195.528 104.92 195.1C105.066 194.667 105.271 194.291 105.535 193.972C105.799 193.653 106.114 193.407 106.479 193.233C106.848 193.056 107.256 192.967 107.702 192.967C108.067 192.967 108.395 193.017 108.687 193.117C108.978 193.213 109.227 193.368 109.432 193.582C109.641 193.796 109.801 194.074 109.91 194.416C110.02 194.753 110.074 195.166 110.074 195.653V200.5H108.803V195.64C108.803 195.252 108.746 194.942 108.632 194.71C108.518 194.473 108.352 194.302 108.133 194.197C107.914 194.088 107.645 194.033 107.326 194.033C107.012 194.033 106.725 194.099 106.465 194.231C106.21 194.364 105.989 194.546 105.802 194.778C105.619 195.011 105.476 195.277 105.371 195.578C105.271 195.874 105.221 196.189 105.221 196.521ZM118.428 199.598C118.729 199.598 119.007 199.536 119.262 199.413C119.517 199.29 119.727 199.121 119.891 198.907C120.055 198.688 120.148 198.44 120.171 198.162H121.374C121.351 198.6 121.203 199.007 120.93 199.386C120.661 199.759 120.308 200.062 119.87 200.295C119.433 200.523 118.952 200.637 118.428 200.637C117.872 200.637 117.386 200.539 116.972 200.343C116.562 200.147 116.22 199.878 115.946 199.536C115.677 199.194 115.475 198.802 115.338 198.36C115.206 197.914 115.14 197.442 115.14 196.945V196.658C115.14 196.161 115.206 195.692 115.338 195.25C115.475 194.803 115.677 194.409 115.946 194.067C116.22 193.726 116.562 193.457 116.972 193.261C117.386 193.065 117.872 192.967 118.428 192.967C119.007 192.967 119.512 193.085 119.945 193.322C120.378 193.555 120.718 193.874 120.964 194.279C121.215 194.68 121.351 195.136 121.374 195.646H120.171C120.148 195.341 120.062 195.065 119.911 194.819C119.765 194.573 119.565 194.377 119.31 194.231C119.059 194.081 118.765 194.006 118.428 194.006C118.04 194.006 117.715 194.083 117.45 194.238C117.19 194.389 116.983 194.594 116.828 194.854C116.678 195.109 116.568 195.394 116.5 195.708C116.436 196.018 116.404 196.335 116.404 196.658V196.945C116.404 197.269 116.436 197.588 116.5 197.902C116.564 198.217 116.671 198.502 116.821 198.757C116.976 199.012 117.184 199.217 117.443 199.372C117.708 199.522 118.036 199.598 118.428 199.598ZM122.461 196.884V196.727C122.461 196.193 122.538 195.699 122.693 195.243C122.848 194.783 123.072 194.384 123.363 194.047C123.655 193.705 124.008 193.441 124.423 193.254C124.838 193.062 125.302 192.967 125.817 192.967C126.337 192.967 126.804 193.062 127.219 193.254C127.638 193.441 127.993 193.705 128.285 194.047C128.581 194.384 128.807 194.783 128.962 195.243C129.117 195.699 129.194 196.193 129.194 196.727V196.884C129.194 197.417 129.117 197.911 128.962 198.367C128.807 198.823 128.581 199.222 128.285 199.563C127.993 199.901 127.64 200.165 127.226 200.356C126.815 200.543 126.351 200.637 125.831 200.637C125.312 200.637 124.844 200.543 124.43 200.356C124.015 200.165 123.66 199.901 123.363 199.563C123.072 199.222 122.848 198.823 122.693 198.367C122.538 197.911 122.461 197.417 122.461 196.884ZM123.726 196.727V196.884C123.726 197.253 123.769 197.602 123.855 197.93C123.942 198.253 124.072 198.54 124.245 198.791C124.423 199.042 124.644 199.24 124.908 199.386C125.173 199.527 125.48 199.598 125.831 199.598C126.177 199.598 126.48 199.527 126.74 199.386C127.005 199.24 127.223 199.042 127.396 198.791C127.57 198.54 127.7 198.253 127.786 197.93C127.877 197.602 127.923 197.253 127.923 196.884V196.727C127.923 196.362 127.877 196.018 127.786 195.694C127.7 195.366 127.567 195.077 127.39 194.826C127.216 194.571 126.998 194.37 126.733 194.225C126.474 194.079 126.168 194.006 125.817 194.006C125.471 194.006 125.166 194.079 124.901 194.225C124.642 194.37 124.423 194.571 124.245 194.826C124.072 195.077 123.942 195.366 123.855 195.694C123.769 196.018 123.726 196.362 123.726 196.727ZM132.045 194.683V200.5H130.78V193.104H131.977L132.045 194.683ZM131.744 196.521L131.218 196.501C131.222 195.995 131.298 195.528 131.443 195.1C131.589 194.667 131.794 194.291 132.059 193.972C132.323 193.653 132.637 193.407 133.002 193.233C133.371 193.056 133.779 192.967 134.226 192.967C134.59 192.967 134.918 193.017 135.21 193.117C135.502 193.213 135.75 193.368 135.955 193.582C136.165 193.796 136.324 194.074 136.434 194.416C136.543 194.753 136.598 195.166 136.598 195.653V200.5H135.326V195.64C135.326 195.252 135.269 194.942 135.155 194.71C135.041 194.473 134.875 194.302 134.656 194.197C134.438 194.088 134.169 194.033 133.85 194.033C133.535 194.033 133.248 194.099 132.988 194.231C132.733 194.364 132.512 194.546 132.325 194.778C132.143 195.011 131.999 195.277 131.895 195.578C131.794 195.874 131.744 196.189 131.744 196.521ZM140.768 199.358L142.791 193.104H144.083L141.424 200.5H140.576L140.768 199.358ZM139.079 193.104L141.164 199.393L141.308 200.5H140.46L137.78 193.104H139.079ZM148.273 200.637C147.758 200.637 147.291 200.55 146.872 200.377C146.457 200.199 146.1 199.951 145.799 199.632C145.503 199.313 145.275 198.935 145.115 198.497C144.956 198.06 144.876 197.581 144.876 197.062V196.774C144.876 196.173 144.965 195.637 145.143 195.168C145.32 194.694 145.562 194.293 145.867 193.965C146.173 193.637 146.519 193.388 146.906 193.22C147.294 193.051 147.695 192.967 148.109 192.967C148.638 192.967 149.094 193.058 149.477 193.24C149.864 193.423 150.181 193.678 150.427 194.006C150.673 194.329 150.855 194.712 150.974 195.154C151.092 195.592 151.151 196.07 151.151 196.59V197.157H145.628V196.125H149.887V196.029C149.868 195.701 149.8 195.382 149.682 195.072C149.568 194.762 149.385 194.507 149.135 194.307C148.884 194.106 148.542 194.006 148.109 194.006C147.822 194.006 147.558 194.067 147.316 194.19C147.075 194.309 146.868 194.487 146.694 194.724C146.521 194.961 146.387 195.25 146.291 195.592C146.195 195.934 146.147 196.328 146.147 196.774V197.062C146.147 197.412 146.195 197.743 146.291 198.053C146.391 198.358 146.535 198.627 146.722 198.859C146.913 199.092 147.143 199.274 147.412 199.406C147.686 199.538 147.995 199.604 148.342 199.604C148.788 199.604 149.167 199.513 149.477 199.331C149.786 199.149 150.058 198.905 150.29 198.6L151.056 199.208C150.896 199.45 150.693 199.68 150.447 199.898C150.201 200.117 149.898 200.295 149.538 200.432C149.183 200.568 148.761 200.637 148.273 200.637ZM153.893 194.266V200.5H152.628V193.104H153.858L153.893 194.266ZM156.203 193.062L156.196 194.238C156.091 194.215 155.991 194.202 155.896 194.197C155.804 194.188 155.7 194.184 155.581 194.184C155.289 194.184 155.032 194.229 154.809 194.32C154.585 194.411 154.396 194.539 154.241 194.703C154.086 194.867 153.963 195.063 153.872 195.291C153.785 195.514 153.729 195.76 153.701 196.029L153.346 196.234C153.346 195.788 153.389 195.368 153.476 194.977C153.567 194.585 153.706 194.238 153.893 193.938C154.079 193.632 154.316 193.395 154.604 193.227C154.895 193.053 155.242 192.967 155.643 192.967C155.734 192.967 155.839 192.978 155.957 193.001C156.076 193.019 156.158 193.04 156.203 193.062ZM161.679 198.538C161.679 198.356 161.638 198.187 161.556 198.032C161.478 197.873 161.316 197.729 161.07 197.602C160.829 197.469 160.464 197.355 159.977 197.26C159.566 197.173 159.195 197.071 158.862 196.952C158.534 196.834 158.254 196.69 158.021 196.521C157.794 196.353 157.618 196.155 157.495 195.927C157.372 195.699 157.311 195.432 157.311 195.127C157.311 194.835 157.374 194.56 157.502 194.3C157.634 194.04 157.819 193.81 158.056 193.609C158.297 193.409 158.587 193.252 158.924 193.138C159.261 193.024 159.637 192.967 160.052 192.967C160.644 192.967 161.15 193.072 161.569 193.281C161.989 193.491 162.31 193.771 162.533 194.122C162.757 194.468 162.868 194.854 162.868 195.277H161.604C161.604 195.072 161.542 194.874 161.419 194.683C161.3 194.487 161.125 194.325 160.893 194.197C160.665 194.07 160.384 194.006 160.052 194.006C159.701 194.006 159.416 194.061 159.197 194.17C158.983 194.275 158.826 194.409 158.726 194.573C158.63 194.737 158.582 194.91 158.582 195.093C158.582 195.229 158.605 195.353 158.65 195.462C158.701 195.567 158.787 195.665 158.91 195.756C159.033 195.842 159.206 195.924 159.43 196.002C159.653 196.079 159.938 196.157 160.284 196.234C160.89 196.371 161.389 196.535 161.781 196.727C162.173 196.918 162.465 197.153 162.656 197.431C162.848 197.709 162.943 198.046 162.943 198.442C162.943 198.766 162.875 199.062 162.738 199.331C162.606 199.6 162.412 199.832 162.157 200.028C161.907 200.22 161.606 200.37 161.255 200.479C160.909 200.584 160.519 200.637 160.086 200.637C159.434 200.637 158.883 200.521 158.432 200.288C157.98 200.056 157.639 199.755 157.406 199.386C157.174 199.017 157.058 198.627 157.058 198.217H158.329C158.347 198.563 158.448 198.839 158.63 199.044C158.812 199.244 159.035 199.388 159.3 199.475C159.564 199.557 159.826 199.598 160.086 199.598C160.432 199.598 160.722 199.552 160.954 199.461C161.191 199.37 161.371 199.244 161.494 199.085C161.617 198.925 161.679 198.743 161.679 198.538ZM165.979 193.104V200.5H164.707V193.104H165.979ZM164.611 191.142C164.611 190.937 164.673 190.763 164.796 190.622C164.924 190.481 165.11 190.41 165.356 190.41C165.598 190.41 165.783 190.481 165.91 190.622C166.042 190.763 166.108 190.937 166.108 191.142C166.108 191.338 166.042 191.506 165.91 191.647C165.783 191.784 165.598 191.853 165.356 191.853C165.11 191.853 164.924 191.784 164.796 191.647C164.673 191.506 164.611 191.338 164.611 191.142ZM167.674 196.884V196.727C167.674 196.193 167.751 195.699 167.906 195.243C168.061 194.783 168.285 194.384 168.576 194.047C168.868 193.705 169.221 193.441 169.636 193.254C170.05 193.062 170.515 192.967 171.03 192.967C171.55 192.967 172.017 193.062 172.432 193.254C172.851 193.441 173.206 193.705 173.498 194.047C173.794 194.384 174.02 194.783 174.175 195.243C174.33 195.699 174.407 196.193 174.407 196.727V196.884C174.407 197.417 174.33 197.911 174.175 198.367C174.02 198.823 173.794 199.222 173.498 199.563C173.206 199.901 172.853 200.165 172.438 200.356C172.028 200.543 171.563 200.637 171.044 200.637C170.524 200.637 170.057 200.543 169.643 200.356C169.228 200.165 168.872 199.901 168.576 199.563C168.285 199.222 168.061 198.823 167.906 198.367C167.751 197.911 167.674 197.417 167.674 196.884ZM168.938 196.727V196.884C168.938 197.253 168.982 197.602 169.068 197.93C169.155 198.253 169.285 198.54 169.458 198.791C169.636 199.042 169.857 199.24 170.121 199.386C170.385 199.527 170.693 199.598 171.044 199.598C171.39 199.598 171.693 199.527 171.953 199.386C172.217 199.24 172.436 199.042 172.609 198.791C172.783 198.54 172.912 198.253 172.999 197.93C173.09 197.602 173.136 197.253 173.136 196.884V196.727C173.136 196.362 173.09 196.018 172.999 195.694C172.912 195.366 172.78 195.077 172.603 194.826C172.429 194.571 172.211 194.37 171.946 194.225C171.687 194.079 171.381 194.006 171.03 194.006C170.684 194.006 170.379 194.079 170.114 194.225C169.854 194.37 169.636 194.571 169.458 194.826C169.285 195.077 169.155 195.366 169.068 195.694C168.982 196.018 168.938 196.362 168.938 196.727ZM177.258 194.683V200.5H175.993V193.104H177.189L177.258 194.683ZM176.957 196.521L176.431 196.501C176.435 195.995 176.51 195.528 176.656 195.1C176.802 194.667 177.007 194.291 177.271 193.972C177.536 193.653 177.85 193.407 178.215 193.233C178.584 193.056 178.992 192.967 179.438 192.967C179.803 192.967 180.131 193.017 180.423 193.117C180.715 193.213 180.963 193.368 181.168 193.582C181.378 193.796 181.537 194.074 181.646 194.416C181.756 194.753 181.811 195.166 181.811 195.653V200.5H180.539V195.64C180.539 195.252 180.482 194.942 180.368 194.71C180.254 194.473 180.088 194.302 179.869 194.197C179.65 194.088 179.382 194.033 179.062 194.033C178.748 194.033 178.461 194.099 178.201 194.231C177.946 194.364 177.725 194.546 177.538 194.778C177.356 195.011 177.212 195.277 177.107 195.578C177.007 195.874 176.957 196.189 176.957 196.521ZM103.184 215.266V221.5H101.919V214.104H103.149L103.184 215.266ZM105.494 214.062L105.487 215.238C105.382 215.215 105.282 215.202 105.187 215.197C105.095 215.188 104.991 215.184 104.872 215.184C104.58 215.184 104.323 215.229 104.1 215.32C103.876 215.411 103.687 215.539 103.532 215.703C103.377 215.867 103.254 216.063 103.163 216.291C103.076 216.514 103.02 216.76 102.992 217.029L102.637 217.234C102.637 216.788 102.68 216.368 102.767 215.977C102.858 215.585 102.997 215.238 103.184 214.938C103.37 214.632 103.607 214.395 103.895 214.227C104.186 214.053 104.533 213.967 104.934 213.967C105.025 213.967 105.13 213.978 105.248 214.001C105.367 214.019 105.449 214.04 105.494 214.062ZM110.751 220.235V216.428C110.751 216.136 110.692 215.883 110.573 215.669C110.459 215.45 110.286 215.282 110.054 215.163C109.821 215.045 109.534 214.985 109.192 214.985C108.873 214.985 108.593 215.04 108.352 215.149C108.115 215.259 107.928 215.402 107.791 215.58C107.659 215.758 107.593 215.949 107.593 216.154H106.328C106.328 215.89 106.396 215.628 106.533 215.368C106.67 215.108 106.866 214.874 107.121 214.664C107.381 214.45 107.691 214.281 108.051 214.158C108.415 214.031 108.821 213.967 109.268 213.967C109.805 213.967 110.279 214.058 110.689 214.24C111.104 214.423 111.428 214.698 111.66 215.067C111.897 215.432 112.016 215.89 112.016 216.441V219.887C112.016 220.133 112.036 220.395 112.077 220.673C112.123 220.951 112.189 221.19 112.275 221.391V221.5H110.956C110.892 221.354 110.842 221.16 110.806 220.919C110.769 220.673 110.751 220.445 110.751 220.235ZM110.97 217.016L110.983 217.904H109.705C109.345 217.904 109.024 217.934 108.741 217.993C108.459 218.048 108.222 218.132 108.03 218.246C107.839 218.36 107.693 218.504 107.593 218.677C107.493 218.845 107.442 219.044 107.442 219.271C107.442 219.504 107.495 219.716 107.6 219.907C107.704 220.099 107.862 220.251 108.071 220.365C108.285 220.475 108.548 220.529 108.857 220.529C109.245 220.529 109.587 220.447 109.883 220.283C110.179 220.119 110.414 219.919 110.587 219.682C110.765 219.445 110.86 219.215 110.874 218.991L111.414 219.6C111.382 219.791 111.296 220.003 111.154 220.235C111.013 220.468 110.824 220.691 110.587 220.905C110.354 221.115 110.076 221.29 109.753 221.432C109.434 221.568 109.074 221.637 108.673 221.637C108.172 221.637 107.732 221.539 107.354 221.343C106.98 221.147 106.688 220.885 106.479 220.557C106.273 220.224 106.171 219.853 106.171 219.442C106.171 219.046 106.248 218.697 106.403 218.396C106.558 218.091 106.782 217.838 107.073 217.638C107.365 217.433 107.716 217.278 108.126 217.173C108.536 217.068 108.994 217.016 109.5 217.016H110.97ZM117.102 214.104V215.074H113.103V214.104H117.102ZM114.456 212.306H115.721V219.668C115.721 219.919 115.759 220.108 115.837 220.235C115.914 220.363 116.015 220.447 116.138 220.488C116.261 220.529 116.393 220.55 116.534 220.55C116.639 220.55 116.748 220.541 116.862 220.522C116.981 220.5 117.07 220.481 117.129 220.468L117.136 221.5C117.035 221.532 116.903 221.562 116.739 221.589C116.58 221.621 116.386 221.637 116.158 221.637C115.848 221.637 115.563 221.575 115.304 221.452C115.044 221.329 114.837 221.124 114.682 220.837C114.531 220.545 114.456 220.153 114.456 219.661V212.306ZM121.654 221.637C121.139 221.637 120.672 221.55 120.253 221.377C119.838 221.199 119.48 220.951 119.18 220.632C118.883 220.313 118.656 219.935 118.496 219.497C118.337 219.06 118.257 218.581 118.257 218.062V217.774C118.257 217.173 118.346 216.637 118.523 216.168C118.701 215.694 118.943 215.293 119.248 214.965C119.553 214.637 119.9 214.388 120.287 214.22C120.674 214.051 121.076 213.967 121.49 213.967C122.019 213.967 122.475 214.058 122.857 214.24C123.245 214.423 123.562 214.678 123.808 215.006C124.054 215.329 124.236 215.712 124.354 216.154C124.473 216.592 124.532 217.07 124.532 217.59V218.157H119.009V217.125H123.268V217.029C123.249 216.701 123.181 216.382 123.062 216.072C122.949 215.762 122.766 215.507 122.516 215.307C122.265 215.106 121.923 215.006 121.49 215.006C121.203 215.006 120.939 215.067 120.697 215.19C120.456 215.309 120.248 215.487 120.075 215.724C119.902 215.961 119.768 216.25 119.672 216.592C119.576 216.934 119.528 217.328 119.528 217.774V218.062C119.528 218.412 119.576 218.743 119.672 219.053C119.772 219.358 119.916 219.627 120.103 219.859C120.294 220.092 120.524 220.274 120.793 220.406C121.066 220.538 121.376 220.604 121.723 220.604C122.169 220.604 122.548 220.513 122.857 220.331C123.167 220.149 123.438 219.905 123.671 219.6L124.437 220.208C124.277 220.45 124.074 220.68 123.828 220.898C123.582 221.117 123.279 221.295 122.919 221.432C122.563 221.568 122.142 221.637 121.654 221.637Z" fill="#232323"/>
</g>
<defs>
<filter id="filter0_d_1148_5827" x="0" y="0.5" width="226" height="277" filterUnits="userSpaceOnUse" color-interpolation-filters="sRGB">
<feFlood flood-opacity="0" result="BackgroundImageFix"/>
<feColorMatrix in="SourceAlpha" type="matrix" values="0 0 0 0 0 0 0 0 0 0 0 0 0 0 0 0 0 0 127 0" result="hardAlpha"/>
<feOffset/>
<feGaussianBlur stdDeviation="5"/>
<feComposite in2="hardAlpha" operator="out"/>
<feColorMatrix type="matrix" values="0 0 0 0 0 0 0 0 0 0 0 0 0 0 0 0 0 0 0.25 0"/>
<feBlend mode="normal" in2="BackgroundImageFix" result="effect1_dropShadow_1148_5827"/>
<feBlend mode="normal" in="SourceGraphic" in2="effect1_dropShadow_1148_5827" result="shape"/>
</filter>
<filter id="filter1_d_1148_5827" x="48" y="45.5" width="130" height="130" filterUnits="userSpaceOnUse" color-interpolation-filters="sRGB">
<feFlood flood-opacity="0" result="BackgroundImageFix"/>
<feColorMatrix in="SourceAlpha" type="matrix" values="0 0 0 0 0 0 0 0 0 0 0 0 0 0 0 0 0 0 127 0" result="hardAlpha"/>
<feOffset/>
<feGaussianBlur stdDeviation="5"/>
<feComposite in2="hardAlpha" operator="out"/>
<feColorMatrix type="matrix" values="0 0 0 0 0 0 0 0 0 0 0 0 0 0 0 0 0 0 0.25 0"/>
<feBlend mode="normal" in2="BackgroundImageFix" result="effect1_dropShadow_1148_5827"/>
<feBlend mode="normal" in="SourceGraphic" in2="effect1_dropShadow_1148_5827" result="shape"/>
</filter>
</defs>
</svg>
