<svg width="226" height="278" viewBox="0 0 226 278" fill="none" xmlns="http://www.w3.org/2000/svg">
<g filter="url(#filter0_d_1148_5770)">
<rect x="10" y="10.5" width="206" height="257" rx="24" fill="white" shape-rendering="crispEdges"/>
<g filter="url(#filter1_d_1148_5770)">
<circle cx="113" cy="110.5" r="55" fill="white"/>
<rect x="75" y="72.5" width="76" height="76" rx="38" stroke="#1E2D1F" stroke-width="4"/>
<path d="M103.018 111.34L100.133 110.643L101.24 100.594H112.191V103.588H104.234L103.715 108.236C103.997 108.063 104.408 107.89 104.945 107.717C105.492 107.535 106.107 107.443 106.791 107.443C107.739 107.443 108.587 107.598 109.334 107.908C110.081 108.209 110.715 108.646 111.234 109.221C111.763 109.795 112.16 110.497 112.424 111.326C112.697 112.146 112.834 113.076 112.834 114.115C112.834 115.027 112.697 115.883 112.424 116.686C112.16 117.479 111.754 118.185 111.207 118.805C110.66 119.415 109.972 119.898 109.143 120.254C108.313 120.6 107.338 120.773 106.217 120.773C105.369 120.773 104.553 120.65 103.77 120.404C102.995 120.149 102.298 119.78 101.678 119.297C101.058 118.805 100.561 118.203 100.188 117.492C99.8229 116.781 99.6224 115.965 99.5859 115.045H103.154C103.218 115.656 103.382 116.175 103.646 116.604C103.911 117.032 104.257 117.36 104.686 117.588C105.123 117.816 105.629 117.93 106.203 117.93C106.723 117.93 107.169 117.834 107.543 117.643C107.926 117.442 108.24 117.164 108.486 116.809C108.732 116.453 108.915 116.034 109.033 115.551C109.152 115.068 109.211 114.539 109.211 113.965C109.211 113.409 109.143 112.903 109.006 112.447C108.869 111.982 108.66 111.581 108.377 111.244C108.094 110.907 107.739 110.647 107.311 110.465C106.891 110.283 106.399 110.191 105.834 110.191C105.077 110.191 104.494 110.305 104.084 110.533C103.683 110.761 103.327 111.03 103.018 111.34ZM118.453 105.707L121.092 110.41L123.771 105.707H127.695L123.348 112.953L127.873 120.5H123.949L121.119 115.564L118.275 120.5H114.352L118.863 112.953L114.543 105.707H118.453Z" fill="#108A00"/>
</g>
<path d="M59.625 190.547V200.5H58.3057V190.547H59.625ZM63.0977 194.683V200.5H61.833V193.104H63.0293L63.0977 194.683ZM62.7969 196.521L62.2705 196.501C62.2751 195.995 62.3503 195.528 62.4961 195.1C62.6419 194.667 62.847 194.291 63.1113 193.972C63.3757 193.653 63.6901 193.407 64.0547 193.233C64.4238 193.056 64.8317 192.967 65.2783 192.967C65.6429 192.967 65.971 193.017 66.2627 193.117C66.5544 193.213 66.8027 193.368 67.0078 193.582C67.2174 193.796 67.377 194.074 67.4863 194.416C67.5957 194.753 67.6504 195.166 67.6504 195.653V200.5H66.3789V195.64C66.3789 195.252 66.3219 194.942 66.208 194.71C66.0941 194.473 65.9277 194.302 65.709 194.197C65.4902 194.088 65.2214 194.033 64.9023 194.033C64.5879 194.033 64.3008 194.099 64.041 194.231C63.7858 194.364 63.5648 194.546 63.3779 194.778C63.1956 195.011 63.0521 195.277 62.9473 195.578C62.847 195.874 62.7969 196.189 62.7969 196.521ZM72.5312 199.598C72.832 199.598 73.11 199.536 73.3652 199.413C73.6204 199.29 73.8301 199.121 73.9941 198.907C74.1582 198.688 74.2516 198.44 74.2744 198.162H75.4775C75.4548 198.6 75.3066 199.007 75.0332 199.386C74.7643 199.759 74.4111 200.062 73.9736 200.295C73.5361 200.523 73.0553 200.637 72.5312 200.637C71.9753 200.637 71.4899 200.539 71.0752 200.343C70.665 200.147 70.3232 199.878 70.0498 199.536C69.7809 199.194 69.5781 198.802 69.4414 198.36C69.3092 197.914 69.2432 197.442 69.2432 196.945V196.658C69.2432 196.161 69.3092 195.692 69.4414 195.25C69.5781 194.803 69.7809 194.409 70.0498 194.067C70.3232 193.726 70.665 193.457 71.0752 193.261C71.4899 193.065 71.9753 192.967 72.5312 192.967C73.11 192.967 73.6159 193.085 74.0488 193.322C74.4818 193.555 74.8213 193.874 75.0674 194.279C75.318 194.68 75.4548 195.136 75.4775 195.646H74.2744C74.2516 195.341 74.165 195.065 74.0146 194.819C73.8688 194.573 73.6683 194.377 73.4131 194.231C73.1624 194.081 72.8685 194.006 72.5312 194.006C72.1439 194.006 71.818 194.083 71.5537 194.238C71.2939 194.389 71.0866 194.594 70.9316 194.854C70.7812 195.109 70.6719 195.394 70.6035 195.708C70.5397 196.018 70.5078 196.335 70.5078 196.658V196.945C70.5078 197.269 70.5397 197.588 70.6035 197.902C70.6673 198.217 70.7744 198.502 70.9248 198.757C71.0798 199.012 71.2871 199.217 71.5469 199.372C71.8112 199.522 72.1393 199.598 72.5312 199.598ZM78.1641 194.266V200.5H76.8994V193.104H78.1299L78.1641 194.266ZM80.4746 193.062L80.4678 194.238C80.363 194.215 80.2627 194.202 80.167 194.197C80.0758 194.188 79.971 194.184 79.8525 194.184C79.5609 194.184 79.3034 194.229 79.0801 194.32C78.8568 194.411 78.6676 194.539 78.5127 194.703C78.3577 194.867 78.2347 195.063 78.1436 195.291C78.057 195.514 78 195.76 77.9727 196.029L77.6172 196.234C77.6172 195.788 77.6605 195.368 77.7471 194.977C77.8382 194.585 77.9772 194.238 78.1641 193.938C78.3509 193.632 78.5879 193.395 78.875 193.227C79.1667 193.053 79.513 192.967 79.9141 192.967C80.0052 192.967 80.11 192.978 80.2285 193.001C80.347 193.019 80.429 193.04 80.4746 193.062ZM84.5762 200.637C84.0612 200.637 83.5941 200.55 83.1748 200.377C82.7601 200.199 82.4023 199.951 82.1016 199.632C81.8053 199.313 81.5775 198.935 81.418 198.497C81.2585 198.06 81.1787 197.581 81.1787 197.062V196.774C81.1787 196.173 81.2676 195.637 81.4453 195.168C81.623 194.694 81.8646 194.293 82.1699 193.965C82.4753 193.637 82.8216 193.388 83.209 193.22C83.5964 193.051 83.9974 192.967 84.4121 192.967C84.9408 192.967 85.3965 193.058 85.7793 193.24C86.1667 193.423 86.4834 193.678 86.7295 194.006C86.9756 194.329 87.1579 194.712 87.2764 195.154C87.3949 195.592 87.4541 196.07 87.4541 196.59V197.157H81.9307V196.125H86.1895V196.029C86.1712 195.701 86.1029 195.382 85.9844 195.072C85.8704 194.762 85.6882 194.507 85.4375 194.307C85.1868 194.106 84.8451 194.006 84.4121 194.006C84.125 194.006 83.8607 194.067 83.6191 194.19C83.3776 194.309 83.1702 194.487 82.9971 194.724C82.8239 194.961 82.6895 195.25 82.5938 195.592C82.498 195.934 82.4502 196.328 82.4502 196.774V197.062C82.4502 197.412 82.498 197.743 82.5938 198.053C82.694 198.358 82.8376 198.627 83.0244 198.859C83.2158 199.092 83.446 199.274 83.7148 199.406C83.9883 199.538 84.2982 199.604 84.6445 199.604C85.0911 199.604 85.4694 199.513 85.7793 199.331C86.0892 199.149 86.3604 198.905 86.5928 198.6L87.3584 199.208C87.1989 199.45 86.9961 199.68 86.75 199.898C86.5039 200.117 86.2008 200.295 85.8408 200.432C85.4854 200.568 85.0638 200.637 84.5762 200.637ZM93.292 199.235V195.428C93.292 195.136 93.2327 194.883 93.1143 194.669C93.0003 194.45 92.8271 194.282 92.5947 194.163C92.3623 194.045 92.0752 193.985 91.7334 193.985C91.4144 193.985 91.1341 194.04 90.8926 194.149C90.6556 194.259 90.4688 194.402 90.332 194.58C90.1999 194.758 90.1338 194.949 90.1338 195.154H88.8691C88.8691 194.89 88.9375 194.628 89.0742 194.368C89.2109 194.108 89.4069 193.874 89.6621 193.664C89.9219 193.45 90.2318 193.281 90.5918 193.158C90.9564 193.031 91.362 192.967 91.8086 192.967C92.3464 192.967 92.8203 193.058 93.2305 193.24C93.6452 193.423 93.9688 193.698 94.2012 194.067C94.4382 194.432 94.5566 194.89 94.5566 195.441V198.887C94.5566 199.133 94.5771 199.395 94.6182 199.673C94.6637 199.951 94.7298 200.19 94.8164 200.391V200.5H93.4971C93.4333 200.354 93.3831 200.16 93.3467 199.919C93.3102 199.673 93.292 199.445 93.292 199.235ZM93.5107 196.016L93.5244 196.904H92.2461C91.8861 196.904 91.5648 196.934 91.2822 196.993C90.9997 197.048 90.7627 197.132 90.5713 197.246C90.3799 197.36 90.234 197.504 90.1338 197.677C90.0335 197.845 89.9834 198.044 89.9834 198.271C89.9834 198.504 90.0358 198.716 90.1406 198.907C90.2454 199.099 90.4027 199.251 90.6123 199.365C90.8265 199.475 91.0885 199.529 91.3984 199.529C91.7858 199.529 92.1276 199.447 92.4238 199.283C92.7201 199.119 92.9548 198.919 93.1279 198.682C93.3057 198.445 93.4014 198.215 93.415 197.991L93.9551 198.6C93.9232 198.791 93.8366 199.003 93.6953 199.235C93.554 199.468 93.3649 199.691 93.1279 199.905C92.8955 200.115 92.6175 200.29 92.2939 200.432C91.9749 200.568 91.6149 200.637 91.2139 200.637C90.7126 200.637 90.2728 200.539 89.8945 200.343C89.5208 200.147 89.2292 199.885 89.0195 199.557C88.8145 199.224 88.7119 198.853 88.7119 198.442C88.7119 198.046 88.7894 197.697 88.9443 197.396C89.0993 197.091 89.3226 196.838 89.6143 196.638C89.9059 196.433 90.2568 196.278 90.667 196.173C91.0771 196.068 91.5352 196.016 92.041 196.016H93.5107ZM100.853 198.538C100.853 198.356 100.812 198.187 100.729 198.032C100.652 197.873 100.49 197.729 100.244 197.602C100.003 197.469 99.638 197.355 99.1504 197.26C98.7402 197.173 98.3688 197.071 98.0361 196.952C97.708 196.834 97.4277 196.69 97.1953 196.521C96.9674 196.353 96.792 196.155 96.6689 195.927C96.5459 195.699 96.4844 195.432 96.4844 195.127C96.4844 194.835 96.5482 194.56 96.6758 194.3C96.8079 194.04 96.9925 193.81 97.2295 193.609C97.471 193.409 97.7604 193.252 98.0977 193.138C98.4349 193.024 98.8109 192.967 99.2256 192.967C99.818 192.967 100.324 193.072 100.743 193.281C101.162 193.491 101.484 193.771 101.707 194.122C101.93 194.468 102.042 194.854 102.042 195.277H100.777C100.777 195.072 100.716 194.874 100.593 194.683C100.474 194.487 100.299 194.325 100.066 194.197C99.8385 194.07 99.5583 194.006 99.2256 194.006C98.8747 194.006 98.5898 194.061 98.3711 194.17C98.1569 194.275 97.9997 194.409 97.8994 194.573C97.8037 194.737 97.7559 194.91 97.7559 195.093C97.7559 195.229 97.7786 195.353 97.8242 195.462C97.8743 195.567 97.9609 195.665 98.084 195.756C98.207 195.842 98.3802 195.924 98.6035 196.002C98.8268 196.079 99.1117 196.157 99.458 196.234C100.064 196.371 100.563 196.535 100.955 196.727C101.347 196.918 101.639 197.153 101.83 197.431C102.021 197.709 102.117 198.046 102.117 198.442C102.117 198.766 102.049 199.062 101.912 199.331C101.78 199.6 101.586 199.832 101.331 200.028C101.08 200.22 100.78 200.37 100.429 200.479C100.082 200.584 99.6927 200.637 99.2598 200.637C98.6081 200.637 98.0566 200.521 97.6055 200.288C97.1543 200.056 96.8125 199.755 96.5801 199.386C96.3477 199.017 96.2314 198.627 96.2314 198.217H97.5029C97.5212 198.563 97.6214 198.839 97.8037 199.044C97.986 199.244 98.2093 199.388 98.4736 199.475C98.738 199.557 99 199.598 99.2598 199.598C99.6061 199.598 99.8955 199.552 100.128 199.461C100.365 199.37 100.545 199.244 100.668 199.085C100.791 198.925 100.853 198.743 100.853 198.538ZM106.848 200.637C106.333 200.637 105.866 200.55 105.446 200.377C105.032 200.199 104.674 199.951 104.373 199.632C104.077 199.313 103.849 198.935 103.689 198.497C103.53 198.06 103.45 197.581 103.45 197.062V196.774C103.45 196.173 103.539 195.637 103.717 195.168C103.895 194.694 104.136 194.293 104.441 193.965C104.747 193.637 105.093 193.388 105.48 193.22C105.868 193.051 106.269 192.967 106.684 192.967C107.212 192.967 107.668 193.058 108.051 193.24C108.438 193.423 108.755 193.678 109.001 194.006C109.247 194.329 109.429 194.712 109.548 195.154C109.666 195.592 109.726 196.07 109.726 196.59V197.157H104.202V196.125H108.461V196.029C108.443 195.701 108.374 195.382 108.256 195.072C108.142 194.762 107.96 194.507 107.709 194.307C107.458 194.106 107.117 194.006 106.684 194.006C106.396 194.006 106.132 194.067 105.891 194.19C105.649 194.309 105.442 194.487 105.269 194.724C105.095 194.961 104.961 195.25 104.865 195.592C104.77 195.934 104.722 196.328 104.722 196.774V197.062C104.722 197.412 104.77 197.743 104.865 198.053C104.965 198.358 105.109 198.627 105.296 198.859C105.487 199.092 105.717 199.274 105.986 199.406C106.26 199.538 106.57 199.604 106.916 199.604C107.363 199.604 107.741 199.513 108.051 199.331C108.361 199.149 108.632 198.905 108.864 198.6L109.63 199.208C109.47 199.45 109.268 199.68 109.021 199.898C108.775 200.117 108.472 200.295 108.112 200.432C107.757 200.568 107.335 200.637 106.848 200.637ZM116.049 193.104V200.5H114.777V193.104H116.049ZM114.682 191.142C114.682 190.937 114.743 190.763 114.866 190.622C114.994 190.481 115.181 190.41 115.427 190.41C115.668 190.41 115.853 190.481 115.98 190.622C116.113 190.763 116.179 190.937 116.179 191.142C116.179 191.338 116.113 191.506 115.98 191.647C115.853 191.784 115.668 191.853 115.427 191.853C115.181 191.853 114.994 191.784 114.866 191.647C114.743 191.506 114.682 191.338 114.682 191.142ZM119.344 194.683V200.5H118.079V193.104H119.275L119.344 194.683ZM119.043 196.521L118.517 196.501C118.521 195.995 118.596 195.528 118.742 195.1C118.888 194.667 119.093 194.291 119.357 193.972C119.622 193.653 119.936 193.407 120.301 193.233C120.67 193.056 121.078 192.967 121.524 192.967C121.889 192.967 122.217 193.017 122.509 193.117C122.8 193.213 123.049 193.368 123.254 193.582C123.464 193.796 123.623 194.074 123.732 194.416C123.842 194.753 123.896 195.166 123.896 195.653V200.5H122.625V195.64C122.625 195.252 122.568 194.942 122.454 194.71C122.34 194.473 122.174 194.302 121.955 194.197C121.736 194.088 121.467 194.033 121.148 194.033C120.834 194.033 120.547 194.099 120.287 194.231C120.032 194.364 119.811 194.546 119.624 194.778C119.442 195.011 119.298 195.277 119.193 195.578C119.093 195.874 119.043 196.189 119.043 196.521ZM133.152 196.597H130.493V195.523H133.152C133.667 195.523 134.084 195.441 134.403 195.277C134.722 195.113 134.955 194.885 135.101 194.594C135.251 194.302 135.326 193.969 135.326 193.596C135.326 193.254 135.251 192.933 135.101 192.632C134.955 192.331 134.722 192.09 134.403 191.907C134.084 191.72 133.667 191.627 133.152 191.627H130.801V200.5H129.481V190.547H133.152C133.904 190.547 134.54 190.677 135.06 190.937C135.579 191.196 135.973 191.556 136.242 192.017C136.511 192.472 136.646 192.994 136.646 193.582C136.646 194.22 136.511 194.765 136.242 195.216C135.973 195.667 135.579 196.011 135.06 196.248C134.54 196.48 133.904 196.597 133.152 196.597ZM142.401 199.235V195.428C142.401 195.136 142.342 194.883 142.224 194.669C142.11 194.45 141.937 194.282 141.704 194.163C141.472 194.045 141.185 193.985 140.843 193.985C140.524 193.985 140.243 194.04 140.002 194.149C139.765 194.259 139.578 194.402 139.441 194.58C139.309 194.758 139.243 194.949 139.243 195.154H137.979C137.979 194.89 138.047 194.628 138.184 194.368C138.32 194.108 138.516 193.874 138.771 193.664C139.031 193.45 139.341 193.281 139.701 193.158C140.066 193.031 140.471 192.967 140.918 192.967C141.456 192.967 141.93 193.058 142.34 193.24C142.755 193.423 143.078 193.698 143.311 194.067C143.548 194.432 143.666 194.89 143.666 195.441V198.887C143.666 199.133 143.687 199.395 143.728 199.673C143.773 199.951 143.839 200.19 143.926 200.391V200.5H142.606C142.543 200.354 142.493 200.16 142.456 199.919C142.42 199.673 142.401 199.445 142.401 199.235ZM142.62 196.016L142.634 196.904H141.355C140.995 196.904 140.674 196.934 140.392 196.993C140.109 197.048 139.872 197.132 139.681 197.246C139.489 197.36 139.343 197.504 139.243 197.677C139.143 197.845 139.093 198.044 139.093 198.271C139.093 198.504 139.145 198.716 139.25 198.907C139.355 199.099 139.512 199.251 139.722 199.365C139.936 199.475 140.198 199.529 140.508 199.529C140.895 199.529 141.237 199.447 141.533 199.283C141.829 199.119 142.064 198.919 142.237 198.682C142.415 198.445 142.511 198.215 142.524 197.991L143.064 198.6C143.033 198.791 142.946 199.003 142.805 199.235C142.663 199.468 142.474 199.691 142.237 199.905C142.005 200.115 141.727 200.29 141.403 200.432C141.084 200.568 140.724 200.637 140.323 200.637C139.822 200.637 139.382 200.539 139.004 200.343C138.63 200.147 138.339 199.885 138.129 199.557C137.924 199.224 137.821 198.853 137.821 198.442C137.821 198.046 137.899 197.697 138.054 197.396C138.209 197.091 138.432 196.838 138.724 196.638C139.015 196.433 139.366 196.278 139.776 196.173C140.187 196.068 140.645 196.016 141.15 196.016H142.62ZM148.752 193.104V194.074H144.753V193.104H148.752ZM146.106 191.306H147.371V198.668C147.371 198.919 147.41 199.108 147.487 199.235C147.565 199.363 147.665 199.447 147.788 199.488C147.911 199.529 148.043 199.55 148.185 199.55C148.289 199.55 148.399 199.541 148.513 199.522C148.631 199.5 148.72 199.481 148.779 199.468L148.786 200.5C148.686 200.532 148.554 200.562 148.39 200.589C148.23 200.621 148.036 200.637 147.809 200.637C147.499 200.637 147.214 200.575 146.954 200.452C146.694 200.329 146.487 200.124 146.332 199.837C146.182 199.545 146.106 199.153 146.106 198.661V191.306ZM151.609 193.104V200.5H150.338V193.104H151.609ZM150.242 191.142C150.242 190.937 150.304 190.763 150.427 190.622C150.554 190.481 150.741 190.41 150.987 190.41C151.229 190.41 151.413 190.481 151.541 190.622C151.673 190.763 151.739 190.937 151.739 191.142C151.739 191.338 151.673 191.506 151.541 191.647C151.413 191.784 151.229 191.853 150.987 191.853C150.741 191.853 150.554 191.784 150.427 191.647C150.304 191.506 150.242 191.338 150.242 191.142ZM156.709 200.637C156.194 200.637 155.727 200.55 155.308 200.377C154.893 200.199 154.535 199.951 154.234 199.632C153.938 199.313 153.71 198.935 153.551 198.497C153.391 198.06 153.312 197.581 153.312 197.062V196.774C153.312 196.173 153.4 195.637 153.578 195.168C153.756 194.694 153.997 194.293 154.303 193.965C154.608 193.637 154.954 193.388 155.342 193.22C155.729 193.051 156.13 192.967 156.545 192.967C157.074 192.967 157.529 193.058 157.912 193.24C158.299 193.423 158.616 193.678 158.862 194.006C159.108 194.329 159.291 194.712 159.409 195.154C159.528 195.592 159.587 196.07 159.587 196.59V197.157H154.063V196.125H158.322V196.029C158.304 195.701 158.236 195.382 158.117 195.072C158.003 194.762 157.821 194.507 157.57 194.307C157.32 194.106 156.978 194.006 156.545 194.006C156.258 194.006 155.993 194.067 155.752 194.19C155.51 194.309 155.303 194.487 155.13 194.724C154.957 194.961 154.822 195.25 154.727 195.592C154.631 195.934 154.583 196.328 154.583 196.774V197.062C154.583 197.412 154.631 197.743 154.727 198.053C154.827 198.358 154.97 198.627 155.157 198.859C155.349 199.092 155.579 199.274 155.848 199.406C156.121 199.538 156.431 199.604 156.777 199.604C157.224 199.604 157.602 199.513 157.912 199.331C158.222 199.149 158.493 198.905 158.726 198.6L159.491 199.208C159.332 199.45 159.129 199.68 158.883 199.898C158.637 200.117 158.334 200.295 157.974 200.432C157.618 200.568 157.197 200.637 156.709 200.637ZM162.328 194.683V200.5H161.063V193.104H162.26L162.328 194.683ZM162.027 196.521L161.501 196.501C161.506 195.995 161.581 195.528 161.727 195.1C161.872 194.667 162.077 194.291 162.342 193.972C162.606 193.653 162.921 193.407 163.285 193.233C163.654 193.056 164.062 192.967 164.509 192.967C164.873 192.967 165.201 193.017 165.493 193.117C165.785 193.213 166.033 193.368 166.238 193.582C166.448 193.796 166.607 194.074 166.717 194.416C166.826 194.753 166.881 195.166 166.881 195.653V200.5H165.609V195.64C165.609 195.252 165.552 194.942 165.438 194.71C165.325 194.473 165.158 194.302 164.939 194.197C164.721 194.088 164.452 194.033 164.133 194.033C163.818 194.033 163.531 194.099 163.271 194.231C163.016 194.364 162.795 194.546 162.608 194.778C162.426 195.011 162.283 195.277 162.178 195.578C162.077 195.874 162.027 196.189 162.027 196.521ZM171.898 193.104V194.074H167.899V193.104H171.898ZM169.253 191.306H170.518V198.668C170.518 198.919 170.556 199.108 170.634 199.235C170.711 199.363 170.812 199.447 170.935 199.488C171.058 199.529 171.19 199.55 171.331 199.55C171.436 199.55 171.545 199.541 171.659 199.522C171.778 199.5 171.867 199.481 171.926 199.468L171.933 200.5C171.832 200.532 171.7 200.562 171.536 200.589C171.377 200.621 171.183 200.637 170.955 200.637C170.645 200.637 170.36 200.575 170.101 200.452C169.841 200.329 169.633 200.124 169.479 199.837C169.328 199.545 169.253 199.153 169.253 198.661V191.306ZM81.2402 220.427V221.5H75.9697V220.427H81.2402ZM76.2363 211.547V221.5H74.917V211.547H76.2363ZM80.543 215.826V216.899H75.9697V215.826H80.543ZM81.1719 211.547V212.627H75.9697V211.547H81.1719ZM83.9473 215.683V221.5H82.6826V214.104H83.8789L83.9473 215.683ZM83.6465 217.521L83.1201 217.501C83.1247 216.995 83.1999 216.528 83.3457 216.1C83.4915 215.667 83.6966 215.291 83.9609 214.972C84.2253 214.653 84.5397 214.407 84.9043 214.233C85.2734 214.056 85.6813 213.967 86.1279 213.967C86.4925 213.967 86.8206 214.017 87.1123 214.117C87.404 214.213 87.6523 214.368 87.8574 214.582C88.0671 214.796 88.2266 215.074 88.3359 215.416C88.4453 215.753 88.5 216.166 88.5 216.653V221.5H87.2285V216.64C87.2285 216.252 87.1715 215.942 87.0576 215.71C86.9437 215.473 86.7773 215.302 86.5586 215.197C86.3398 215.088 86.071 215.033 85.752 215.033C85.4375 215.033 85.1504 215.099 84.8906 215.231C84.6354 215.364 84.4144 215.546 84.2275 215.778C84.0452 216.011 83.9017 216.277 83.7969 216.578C83.6966 216.874 83.6465 217.189 83.6465 217.521ZM95.2129 214.104H96.3613V221.343C96.3613 221.994 96.2292 222.55 95.9648 223.011C95.7005 223.471 95.3314 223.82 94.8574 224.057C94.388 224.298 93.8457 224.419 93.2305 224.419C92.9753 224.419 92.6745 224.378 92.3281 224.296C91.9863 224.218 91.6491 224.084 91.3164 223.893C90.9883 223.706 90.7126 223.453 90.4893 223.134L91.1523 222.382C91.4622 222.756 91.7858 223.015 92.123 223.161C92.4648 223.307 92.8021 223.38 93.1348 223.38C93.5358 223.38 93.8822 223.305 94.1738 223.154C94.4655 223.004 94.6911 222.781 94.8506 222.484C95.0146 222.193 95.0967 221.833 95.0967 221.404V215.73L95.2129 214.104ZM90.1201 217.884V217.74C90.1201 217.175 90.1862 216.662 90.3184 216.202C90.4551 215.737 90.6488 215.339 90.8994 215.006C91.1546 214.673 91.4622 214.418 91.8223 214.24C92.1823 214.058 92.5879 213.967 93.0391 213.967C93.5039 213.967 93.9095 214.049 94.2559 214.213C94.6068 214.372 94.903 214.607 95.1445 214.917C95.3906 215.222 95.5843 215.591 95.7256 216.024C95.8669 216.457 95.9648 216.947 96.0195 217.494V218.123C95.9694 218.665 95.8714 219.153 95.7256 219.586C95.5843 220.019 95.3906 220.388 95.1445 220.693C94.903 220.999 94.6068 221.233 94.2559 221.397C93.9049 221.557 93.4948 221.637 93.0254 221.637C92.5833 221.637 92.1823 221.543 91.8223 221.356C91.4668 221.17 91.1615 220.908 90.9062 220.57C90.651 220.233 90.4551 219.837 90.3184 219.381C90.1862 218.921 90.1201 218.422 90.1201 217.884ZM91.3848 217.74V217.884C91.3848 218.253 91.4212 218.599 91.4941 218.923C91.5716 219.246 91.6878 219.531 91.8428 219.777C92.0023 220.023 92.2051 220.217 92.4512 220.358C92.6973 220.495 92.9912 220.563 93.333 220.563C93.7523 220.563 94.0986 220.475 94.3721 220.297C94.6455 220.119 94.862 219.884 95.0215 219.593C95.1855 219.301 95.3132 218.984 95.4043 218.643V216.995C95.3542 216.744 95.2767 216.503 95.1719 216.271C95.0716 216.034 94.9395 215.824 94.7754 215.642C94.6159 215.455 94.4176 215.307 94.1807 215.197C93.9437 215.088 93.6657 215.033 93.3467 215.033C93.0003 215.033 92.7018 215.106 92.4512 215.252C92.2051 215.393 92.0023 215.589 91.8428 215.84C91.6878 216.086 91.5716 216.373 91.4941 216.701C91.4212 217.025 91.3848 217.371 91.3848 217.74ZM102.644 220.235V216.428C102.644 216.136 102.584 215.883 102.466 215.669C102.352 215.45 102.179 215.282 101.946 215.163C101.714 215.045 101.427 214.985 101.085 214.985C100.766 214.985 100.486 215.04 100.244 215.149C100.007 215.259 99.8203 215.402 99.6836 215.58C99.5514 215.758 99.4854 215.949 99.4854 216.154H98.2207C98.2207 215.89 98.2891 215.628 98.4258 215.368C98.5625 215.108 98.7585 214.874 99.0137 214.664C99.2734 214.45 99.5833 214.281 99.9434 214.158C100.308 214.031 100.714 213.967 101.16 213.967C101.698 213.967 102.172 214.058 102.582 214.24C102.997 214.423 103.32 214.698 103.553 215.067C103.79 215.432 103.908 215.89 103.908 216.441V219.887C103.908 220.133 103.929 220.395 103.97 220.673C104.015 220.951 104.081 221.19 104.168 221.391V221.5H102.849C102.785 221.354 102.735 221.16 102.698 220.919C102.662 220.673 102.644 220.445 102.644 220.235ZM102.862 217.016L102.876 217.904H101.598C101.238 217.904 100.916 217.934 100.634 217.993C100.351 218.048 100.114 218.132 99.9229 218.246C99.7314 218.36 99.5856 218.504 99.4854 218.677C99.3851 218.845 99.335 219.044 99.335 219.271C99.335 219.504 99.3874 219.716 99.4922 219.907C99.597 220.099 99.7542 220.251 99.9639 220.365C100.178 220.475 100.44 220.529 100.75 220.529C101.137 220.529 101.479 220.447 101.775 220.283C102.072 220.119 102.306 219.919 102.479 219.682C102.657 219.445 102.753 219.215 102.767 218.991L103.307 219.6C103.275 219.791 103.188 220.003 103.047 220.235C102.906 220.468 102.716 220.691 102.479 220.905C102.247 221.115 101.969 221.29 101.646 221.432C101.326 221.568 100.966 221.637 100.565 221.637C100.064 221.637 99.6243 221.539 99.2461 221.343C98.8724 221.147 98.5807 220.885 98.3711 220.557C98.166 220.224 98.0635 219.853 98.0635 219.442C98.0635 219.046 98.141 218.697 98.2959 218.396C98.4508 218.091 98.6742 217.838 98.9658 217.638C99.2575 217.433 99.6084 217.278 100.019 217.173C100.429 217.068 100.887 217.016 101.393 217.016H102.862ZM110.689 214.104H111.838V221.343C111.838 221.994 111.706 222.55 111.441 223.011C111.177 223.471 110.808 223.82 110.334 224.057C109.865 224.298 109.322 224.419 108.707 224.419C108.452 224.419 108.151 224.378 107.805 224.296C107.463 224.218 107.126 224.084 106.793 223.893C106.465 223.706 106.189 223.453 105.966 223.134L106.629 222.382C106.939 222.756 107.262 223.015 107.6 223.161C107.941 223.307 108.279 223.38 108.611 223.38C109.012 223.38 109.359 223.305 109.65 223.154C109.942 223.004 110.168 222.781 110.327 222.484C110.491 222.193 110.573 221.833 110.573 221.404V215.73L110.689 214.104ZM105.597 217.884V217.74C105.597 217.175 105.663 216.662 105.795 216.202C105.932 215.737 106.125 215.339 106.376 215.006C106.631 214.673 106.939 214.418 107.299 214.24C107.659 214.058 108.064 213.967 108.516 213.967C108.98 213.967 109.386 214.049 109.732 214.213C110.083 214.372 110.38 214.607 110.621 214.917C110.867 215.222 111.061 215.591 111.202 216.024C111.343 216.457 111.441 216.947 111.496 217.494V218.123C111.446 218.665 111.348 219.153 111.202 219.586C111.061 220.019 110.867 220.388 110.621 220.693C110.38 220.999 110.083 221.233 109.732 221.397C109.382 221.557 108.971 221.637 108.502 221.637C108.06 221.637 107.659 221.543 107.299 221.356C106.943 221.17 106.638 220.908 106.383 220.57C106.128 220.233 105.932 219.837 105.795 219.381C105.663 218.921 105.597 218.422 105.597 217.884ZM106.861 217.74V217.884C106.861 218.253 106.898 218.599 106.971 218.923C107.048 219.246 107.164 219.531 107.319 219.777C107.479 220.023 107.682 220.217 107.928 220.358C108.174 220.495 108.468 220.563 108.81 220.563C109.229 220.563 109.575 220.475 109.849 220.297C110.122 220.119 110.339 219.884 110.498 219.593C110.662 219.301 110.79 218.984 110.881 218.643V216.995C110.831 216.744 110.753 216.503 110.648 216.271C110.548 216.034 110.416 215.824 110.252 215.642C110.092 215.455 109.894 215.307 109.657 215.197C109.42 215.088 109.142 215.033 108.823 215.033C108.477 215.033 108.178 215.106 107.928 215.252C107.682 215.393 107.479 215.589 107.319 215.84C107.164 216.086 107.048 216.373 106.971 216.701C106.898 217.025 106.861 217.371 106.861 217.74ZM116.828 221.637C116.313 221.637 115.846 221.55 115.427 221.377C115.012 221.199 114.654 220.951 114.354 220.632C114.057 220.313 113.829 219.935 113.67 219.497C113.51 219.06 113.431 218.581 113.431 218.062V217.774C113.431 217.173 113.52 216.637 113.697 216.168C113.875 215.694 114.117 215.293 114.422 214.965C114.727 214.637 115.074 214.388 115.461 214.22C115.848 214.051 116.249 213.967 116.664 213.967C117.193 213.967 117.648 214.058 118.031 214.24C118.419 214.423 118.735 214.678 118.981 215.006C119.228 215.329 119.41 215.712 119.528 216.154C119.647 216.592 119.706 217.07 119.706 217.59V218.157H114.183V217.125H118.441V217.029C118.423 216.701 118.355 216.382 118.236 216.072C118.122 215.762 117.94 215.507 117.689 215.307C117.439 215.106 117.097 215.006 116.664 215.006C116.377 215.006 116.113 215.067 115.871 215.19C115.63 215.309 115.422 215.487 115.249 215.724C115.076 215.961 114.941 216.25 114.846 216.592C114.75 216.934 114.702 217.328 114.702 217.774V218.062C114.702 218.412 114.75 218.743 114.846 219.053C114.946 219.358 115.09 219.627 115.276 219.859C115.468 220.092 115.698 220.274 115.967 220.406C116.24 220.538 116.55 220.604 116.896 220.604C117.343 220.604 117.721 220.513 118.031 220.331C118.341 220.149 118.612 219.905 118.845 219.6L119.61 220.208C119.451 220.45 119.248 220.68 119.002 220.898C118.756 221.117 118.453 221.295 118.093 221.432C117.737 221.568 117.316 221.637 116.828 221.637ZM122.44 215.573V221.5H121.169V214.104H122.372L122.44 215.573ZM122.181 217.521L121.593 217.501C121.597 216.995 121.663 216.528 121.791 216.1C121.919 215.667 122.108 215.291 122.358 214.972C122.609 214.653 122.921 214.407 123.295 214.233C123.669 214.056 124.102 213.967 124.594 213.967C124.94 213.967 125.259 214.017 125.551 214.117C125.842 214.213 126.095 214.366 126.31 214.575C126.524 214.785 126.69 215.054 126.809 215.382C126.927 215.71 126.986 216.106 126.986 216.571V221.5H125.722V216.633C125.722 216.245 125.656 215.936 125.523 215.703C125.396 215.471 125.214 215.302 124.977 215.197C124.74 215.088 124.462 215.033 124.143 215.033C123.769 215.033 123.457 215.099 123.206 215.231C122.955 215.364 122.755 215.546 122.604 215.778C122.454 216.011 122.345 216.277 122.276 216.578C122.213 216.874 122.181 217.189 122.181 217.521ZM126.973 216.824L126.125 217.084C126.13 216.678 126.196 216.289 126.323 215.915C126.455 215.541 126.645 215.209 126.891 214.917C127.141 214.625 127.449 214.395 127.813 214.227C128.178 214.053 128.595 213.967 129.064 213.967C129.461 213.967 129.812 214.019 130.117 214.124C130.427 214.229 130.687 214.391 130.896 214.609C131.111 214.824 131.272 215.099 131.382 215.437C131.491 215.774 131.546 216.175 131.546 216.64V221.5H130.274V216.626C130.274 216.211 130.208 215.89 130.076 215.662C129.949 215.43 129.766 215.268 129.529 215.177C129.297 215.081 129.019 215.033 128.695 215.033C128.417 215.033 128.171 215.081 127.957 215.177C127.743 215.272 127.563 215.405 127.417 215.573C127.271 215.737 127.16 215.926 127.082 216.141C127.009 216.355 126.973 216.583 126.973 216.824ZM136.529 221.637C136.014 221.637 135.547 221.55 135.128 221.377C134.713 221.199 134.355 220.951 134.055 220.632C133.758 220.313 133.531 219.935 133.371 219.497C133.212 219.06 133.132 218.581 133.132 218.062V217.774C133.132 217.173 133.221 216.637 133.398 216.168C133.576 215.694 133.818 215.293 134.123 214.965C134.428 214.637 134.775 214.388 135.162 214.22C135.549 214.051 135.951 213.967 136.365 213.967C136.894 213.967 137.35 214.058 137.732 214.24C138.12 214.423 138.437 214.678 138.683 215.006C138.929 215.329 139.111 215.712 139.229 216.154C139.348 216.592 139.407 217.07 139.407 217.59V218.157H133.884V217.125H138.143V217.029C138.124 216.701 138.056 216.382 137.938 216.072C137.824 215.762 137.641 215.507 137.391 215.307C137.14 215.106 136.798 215.006 136.365 215.006C136.078 215.006 135.814 215.067 135.572 215.19C135.331 215.309 135.123 215.487 134.95 215.724C134.777 215.961 134.643 216.25 134.547 216.592C134.451 216.934 134.403 217.328 134.403 217.774V218.062C134.403 218.412 134.451 218.743 134.547 219.053C134.647 219.358 134.791 219.627 134.978 219.859C135.169 220.092 135.399 220.274 135.668 220.406C135.941 220.538 136.251 220.604 136.598 220.604C137.044 220.604 137.423 220.513 137.732 220.331C138.042 220.149 138.313 219.905 138.546 219.6L139.312 220.208C139.152 220.45 138.949 220.68 138.703 220.898C138.457 221.117 138.154 221.295 137.794 221.432C137.438 221.568 137.017 221.637 136.529 221.637ZM142.148 215.683V221.5H140.884V214.104H142.08L142.148 215.683ZM141.848 217.521L141.321 217.501C141.326 216.995 141.401 216.528 141.547 216.1C141.693 215.667 141.898 215.291 142.162 214.972C142.426 214.653 142.741 214.407 143.105 214.233C143.475 214.056 143.882 213.967 144.329 213.967C144.694 213.967 145.022 214.017 145.313 214.117C145.605 214.213 145.854 214.368 146.059 214.582C146.268 214.796 146.428 215.074 146.537 215.416C146.646 215.753 146.701 216.166 146.701 216.653V221.5H145.43V216.64C145.43 216.252 145.373 215.942 145.259 215.71C145.145 215.473 144.979 215.302 144.76 215.197C144.541 215.088 144.272 215.033 143.953 215.033C143.639 215.033 143.352 215.099 143.092 215.231C142.837 215.364 142.616 215.546 142.429 215.778C142.246 216.011 142.103 216.277 141.998 216.578C141.898 216.874 141.848 217.189 141.848 217.521ZM151.719 214.104V215.074H147.72V214.104H151.719ZM149.073 212.306H150.338V219.668C150.338 219.919 150.377 220.108 150.454 220.235C150.532 220.363 150.632 220.447 150.755 220.488C150.878 220.529 151.01 220.55 151.151 220.55C151.256 220.55 151.366 220.541 151.479 220.522C151.598 220.5 151.687 220.481 151.746 220.468L151.753 221.5C151.653 221.532 151.521 221.562 151.356 221.589C151.197 221.621 151.003 221.637 150.775 221.637C150.465 221.637 150.181 221.575 149.921 221.452C149.661 221.329 149.454 221.124 149.299 220.837C149.148 220.545 149.073 220.153 149.073 219.661V212.306Z" fill="#232323"/>
</g>
<defs>
<filter id="filter0_d_1148_5770" x="0" y="0.5" width="226" height="277" filterUnits="userSpaceOnUse" color-interpolation-filters="sRGB">
<feFlood flood-opacity="0" result="BackgroundImageFix"/>
<feColorMatrix in="SourceAlpha" type="matrix" values="0 0 0 0 0 0 0 0 0 0 0 0 0 0 0 0 0 0 127 0" result="hardAlpha"/>
<feOffset/>
<feGaussianBlur stdDeviation="5"/>
<feComposite in2="hardAlpha" operator="out"/>
<feColorMatrix type="matrix" values="0 0 0 0 0 0 0 0 0 0 0 0 0 0 0 0 0 0 0.25 0"/>
<feBlend mode="normal" in2="BackgroundImageFix" result="effect1_dropShadow_1148_5770"/>
<feBlend mode="normal" in="SourceGraphic" in2="effect1_dropShadow_1148_5770" result="shape"/>
</filter>
<filter id="filter1_d_1148_5770" x="48" y="45.5" width="130" height="130" filterUnits="userSpaceOnUse" color-interpolation-filters="sRGB">
<feFlood flood-opacity="0" result="BackgroundImageFix"/>
<feColorMatrix in="SourceAlpha" type="matrix" values="0 0 0 0 0 0 0 0 0 0 0 0 0 0 0 0 0 0 127 0" result="hardAlpha"/>
<feOffset/>
<feGaussianBlur stdDeviation="5"/>
<feComposite in2="hardAlpha" operator="out"/>
<feColorMatrix type="matrix" values="0 0 0 0 0 0 0 0 0 0 0 0 0 0 0 0 0 0 0.25 0"/>
<feBlend mode="normal" in2="BackgroundImageFix" result="effect1_dropShadow_1148_5770"/>
<feBlend mode="normal" in="SourceGraphic" in2="effect1_dropShadow_1148_5770" result="shape"/>
</filter>
</defs>
</svg>
