<svg width="218" height="248" viewBox="0 0 218 248" fill="none" xmlns="http://www.w3.org/2000/svg">
<g filter="url(#filter0_d_1433_7652)">
<rect x="6" y="6" width="206" height="236" rx="24" fill="white" shape-rendering="crispEdges"/>
<g filter="url(#filter1_d_1433_7652)">
<circle cx="109" cy="106" r="55" fill="white"/>
<rect x="71" y="68" width="76" height="76" rx="38" stroke="#108A00" stroke-width="4"/>
<path d="M97.8066 96.0938V98.0625L89.9863 116H86.1719L93.9922 98.9375H83.875V96.0938H97.8066ZM113.611 104.338V107.688C113.611 109.219 113.456 110.527 113.146 111.611C112.837 112.696 112.39 113.585 111.807 114.277C111.223 114.961 110.526 115.467 109.715 115.795C108.904 116.114 108.001 116.273 107.008 116.273C106.215 116.273 105.477 116.173 104.793 115.973C104.109 115.763 103.494 115.444 102.947 115.016C102.41 114.578 101.945 114.022 101.553 113.348C101.17 112.673 100.874 111.867 100.664 110.928C100.464 109.989 100.363 108.909 100.363 107.688V104.338C100.363 102.807 100.518 101.503 100.828 100.428C101.147 99.3522 101.598 98.4727 102.182 97.7891C102.765 97.1055 103.462 96.6087 104.273 96.2988C105.085 95.9798 105.987 95.8203 106.98 95.8203C107.783 95.8203 108.521 95.9206 109.195 96.1211C109.879 96.3216 110.49 96.6361 111.027 97.0645C111.574 97.4837 112.039 98.0306 112.422 98.7051C112.805 99.3704 113.096 100.173 113.297 101.111C113.507 102.041 113.611 103.117 113.611 104.338ZM110.002 108.18V103.832C110.002 103.066 109.956 102.401 109.865 101.836C109.783 101.262 109.66 100.774 109.496 100.373C109.332 99.972 109.127 99.6484 108.881 99.4023C108.635 99.1471 108.352 98.9603 108.033 98.8418C107.714 98.7233 107.363 98.6641 106.98 98.6641C106.507 98.6641 106.083 98.7598 105.709 98.9512C105.335 99.1335 105.021 99.4251 104.766 99.8262C104.51 100.227 104.314 100.76 104.178 101.426C104.05 102.082 103.986 102.884 103.986 103.832V108.18C103.986 108.945 104.027 109.615 104.109 110.189C104.201 110.764 104.328 111.256 104.492 111.666C104.665 112.076 104.87 112.413 105.107 112.678C105.354 112.933 105.636 113.124 105.955 113.252C106.274 113.37 106.625 113.43 107.008 113.43C107.491 113.43 107.915 113.334 108.279 113.143C108.653 112.951 108.967 112.65 109.223 112.24C109.478 111.821 109.669 111.279 109.797 110.613C109.934 109.939 110.002 109.128 110.002 108.18ZM116.332 100.975V99.9219C116.332 99.1654 116.496 98.4772 116.824 97.8574C117.152 97.2376 117.631 96.7409 118.26 96.3672C118.898 95.9935 119.673 95.8066 120.584 95.8066C121.514 95.8066 122.293 95.9935 122.922 96.3672C123.56 96.7409 124.038 97.2376 124.357 97.8574C124.686 98.4772 124.85 99.1654 124.85 99.9219V100.975C124.85 101.713 124.686 102.392 124.357 103.012C124.038 103.632 123.564 104.128 122.936 104.502C122.307 104.876 121.532 105.062 120.611 105.062C119.691 105.062 118.911 104.876 118.273 104.502C117.635 104.128 117.152 103.632 116.824 103.012C116.496 102.392 116.332 101.713 116.332 100.975ZM118.779 99.9219V100.975C118.779 101.321 118.843 101.649 118.971 101.959C119.107 102.26 119.312 102.506 119.586 102.697C119.859 102.889 120.201 102.984 120.611 102.984C121.021 102.984 121.354 102.889 121.609 102.697C121.874 102.506 122.07 102.26 122.197 101.959C122.334 101.649 122.402 101.321 122.402 100.975V99.9219C122.402 99.5664 122.334 99.2337 122.197 98.9238C122.07 98.6139 121.869 98.3633 121.596 98.1719C121.331 97.9805 120.994 97.8848 120.584 97.8848C120.183 97.8848 119.846 97.9805 119.572 98.1719C119.308 98.3633 119.107 98.6139 118.971 98.9238C118.843 99.2337 118.779 99.5664 118.779 99.9219ZM125.889 112.172V111.119C125.889 110.372 126.053 109.688 126.381 109.068C126.718 108.449 127.206 107.952 127.844 107.578C128.482 107.204 129.252 107.018 130.154 107.018C131.093 107.018 131.877 107.204 132.506 107.578C133.135 107.952 133.609 108.449 133.928 109.068C134.256 109.688 134.42 110.372 134.42 111.119V112.172C134.42 112.919 134.256 113.603 133.928 114.223C133.609 114.842 133.135 115.339 132.506 115.713C131.886 116.087 131.111 116.273 130.182 116.273C129.27 116.273 128.491 116.087 127.844 115.713C127.206 115.339 126.718 114.842 126.381 114.223C126.053 113.603 125.889 112.919 125.889 112.172ZM128.35 111.119V112.172C128.35 112.527 128.423 112.86 128.568 113.17C128.714 113.471 128.924 113.717 129.197 113.908C129.48 114.1 129.808 114.195 130.182 114.195C130.637 114.195 130.997 114.1 131.262 113.908C131.526 113.717 131.713 113.471 131.822 113.17C131.932 112.86 131.986 112.527 131.986 112.172V111.119C131.986 110.764 131.918 110.436 131.781 110.135C131.645 109.825 131.439 109.574 131.166 109.383C130.902 109.191 130.564 109.096 130.154 109.096C129.753 109.096 129.416 109.191 129.143 109.383C128.878 109.574 128.678 109.825 128.541 110.135C128.413 110.436 128.35 110.764 128.35 111.119ZM131.057 98.9375L121.336 114.496L119.545 113.498L129.266 97.9395L131.057 98.9375Z" fill="#108A00"/>
</g>
<path d="M32.957 179.047V189H31.6377V179.047H32.957ZM36.4297 183.183V189H35.165V181.604H36.3613L36.4297 183.183ZM36.1289 185.021L35.6025 185.001C35.6071 184.495 35.6823 184.028 35.8281 183.6C35.974 183.167 36.179 182.791 36.4434 182.472C36.7077 182.153 37.0221 181.907 37.3867 181.733C37.7559 181.556 38.1637 181.467 38.6104 181.467C38.9749 181.467 39.3031 181.517 39.5947 181.617C39.8864 181.713 40.1348 181.868 40.3398 182.082C40.5495 182.296 40.709 182.574 40.8184 182.916C40.9277 183.253 40.9824 183.666 40.9824 184.153V189H39.7109V184.14C39.7109 183.752 39.654 183.442 39.54 183.21C39.4261 182.973 39.2598 182.802 39.041 182.697C38.8223 182.588 38.5534 182.533 38.2344 182.533C37.9199 182.533 37.6328 182.599 37.373 182.731C37.1178 182.864 36.8968 183.046 36.71 183.278C36.5277 183.511 36.3841 183.777 36.2793 184.078C36.179 184.374 36.1289 184.689 36.1289 185.021ZM45.8633 188.098C46.1641 188.098 46.4421 188.036 46.6973 187.913C46.9525 187.79 47.1621 187.621 47.3262 187.407C47.4902 187.188 47.5837 186.94 47.6064 186.662H48.8096C48.7868 187.1 48.6387 187.507 48.3652 187.886C48.0964 188.259 47.7432 188.562 47.3057 188.795C46.8682 189.023 46.3874 189.137 45.8633 189.137C45.3073 189.137 44.8219 189.039 44.4072 188.843C43.9971 188.647 43.6553 188.378 43.3818 188.036C43.113 187.694 42.9102 187.302 42.7734 186.86C42.6413 186.414 42.5752 185.942 42.5752 185.445V185.158C42.5752 184.661 42.6413 184.192 42.7734 183.75C42.9102 183.303 43.113 182.909 43.3818 182.567C43.6553 182.226 43.9971 181.957 44.4072 181.761C44.8219 181.565 45.3073 181.467 45.8633 181.467C46.4421 181.467 46.9479 181.585 47.3809 181.822C47.8138 182.055 48.1533 182.374 48.3994 182.779C48.6501 183.18 48.7868 183.636 48.8096 184.146H47.6064C47.5837 183.841 47.4971 183.565 47.3467 183.319C47.2008 183.073 47.0003 182.877 46.7451 182.731C46.4945 182.581 46.2005 182.506 45.8633 182.506C45.4759 182.506 45.1501 182.583 44.8857 182.738C44.626 182.889 44.4186 183.094 44.2637 183.354C44.1133 183.609 44.0039 183.894 43.9355 184.208C43.8717 184.518 43.8398 184.835 43.8398 185.158V185.445C43.8398 185.769 43.8717 186.088 43.9355 186.402C43.9993 186.717 44.1064 187.002 44.2568 187.257C44.4118 187.512 44.6191 187.717 44.8789 187.872C45.1432 188.022 45.4714 188.098 45.8633 188.098ZM51.4961 182.766V189H50.2314V181.604H51.4619L51.4961 182.766ZM53.8066 181.562L53.7998 182.738C53.695 182.715 53.5947 182.702 53.499 182.697C53.4079 182.688 53.3031 182.684 53.1846 182.684C52.8929 182.684 52.6354 182.729 52.4121 182.82C52.1888 182.911 51.9997 183.039 51.8447 183.203C51.6898 183.367 51.5667 183.563 51.4756 183.791C51.389 184.014 51.332 184.26 51.3047 184.529L50.9492 184.734C50.9492 184.288 50.9925 183.868 51.0791 183.477C51.1702 183.085 51.3092 182.738 51.4961 182.438C51.6829 182.132 51.9199 181.895 52.207 181.727C52.4987 181.553 52.8451 181.467 53.2461 181.467C53.3372 181.467 53.4421 181.478 53.5605 181.501C53.679 181.519 53.7611 181.54 53.8066 181.562ZM57.9082 189.137C57.3932 189.137 56.9261 189.05 56.5068 188.877C56.0921 188.699 55.7344 188.451 55.4336 188.132C55.1374 187.813 54.9095 187.435 54.75 186.997C54.5905 186.56 54.5107 186.081 54.5107 185.562V185.274C54.5107 184.673 54.5996 184.137 54.7773 183.668C54.9551 183.194 55.1966 182.793 55.502 182.465C55.8073 182.137 56.1536 181.888 56.541 181.72C56.9284 181.551 57.3294 181.467 57.7441 181.467C58.2728 181.467 58.7285 181.558 59.1113 181.74C59.4987 181.923 59.8154 182.178 60.0615 182.506C60.3076 182.829 60.4899 183.212 60.6084 183.654C60.7269 184.092 60.7861 184.57 60.7861 185.09V185.657H55.2627V184.625H59.5215V184.529C59.5033 184.201 59.4349 183.882 59.3164 183.572C59.2025 183.262 59.0202 183.007 58.7695 182.807C58.5189 182.606 58.1771 182.506 57.7441 182.506C57.457 182.506 57.1927 182.567 56.9512 182.69C56.7096 182.809 56.5023 182.987 56.3291 183.224C56.1559 183.461 56.0215 183.75 55.9258 184.092C55.8301 184.434 55.7822 184.828 55.7822 185.274V185.562C55.7822 185.912 55.8301 186.243 55.9258 186.553C56.026 186.858 56.1696 187.127 56.3564 187.359C56.5479 187.592 56.778 187.774 57.0469 187.906C57.3203 188.038 57.6302 188.104 57.9766 188.104C58.4232 188.104 58.8014 188.013 59.1113 187.831C59.4212 187.649 59.6924 187.405 59.9248 187.1L60.6904 187.708C60.5309 187.95 60.3281 188.18 60.082 188.398C59.8359 188.617 59.5329 188.795 59.1729 188.932C58.8174 189.068 58.3958 189.137 57.9082 189.137ZM66.624 187.735V183.928C66.624 183.636 66.5648 183.383 66.4463 183.169C66.3324 182.95 66.1592 182.782 65.9268 182.663C65.6943 182.545 65.4072 182.485 65.0654 182.485C64.7464 182.485 64.4661 182.54 64.2246 182.649C63.9876 182.759 63.8008 182.902 63.6641 183.08C63.5319 183.258 63.4658 183.449 63.4658 183.654H62.2012C62.2012 183.39 62.2695 183.128 62.4062 182.868C62.543 182.608 62.7389 182.374 62.9941 182.164C63.2539 181.95 63.5638 181.781 63.9238 181.658C64.2884 181.531 64.694 181.467 65.1406 181.467C65.6784 181.467 66.1523 181.558 66.5625 181.74C66.9772 181.923 67.3008 182.198 67.5332 182.567C67.7702 182.932 67.8887 183.39 67.8887 183.941V187.387C67.8887 187.633 67.9092 187.895 67.9502 188.173C67.9958 188.451 68.0618 188.69 68.1484 188.891V189H66.8291C66.7653 188.854 66.7152 188.66 66.6787 188.419C66.6423 188.173 66.624 187.945 66.624 187.735ZM66.8428 184.516L66.8564 185.404H65.5781C65.2181 185.404 64.8968 185.434 64.6143 185.493C64.3317 185.548 64.0947 185.632 63.9033 185.746C63.7119 185.86 63.5661 186.004 63.4658 186.177C63.3656 186.345 63.3154 186.544 63.3154 186.771C63.3154 187.004 63.3678 187.216 63.4727 187.407C63.5775 187.599 63.7347 187.751 63.9443 187.865C64.1585 187.975 64.4206 188.029 64.7305 188.029C65.1178 188.029 65.4596 187.947 65.7559 187.783C66.0521 187.619 66.2868 187.419 66.46 187.182C66.6377 186.945 66.7334 186.715 66.7471 186.491L67.2871 187.1C67.2552 187.291 67.1686 187.503 67.0273 187.735C66.8861 187.968 66.6969 188.191 66.46 188.405C66.2275 188.615 65.9495 188.79 65.626 188.932C65.307 189.068 64.9469 189.137 64.5459 189.137C64.0446 189.137 63.6048 189.039 63.2266 188.843C62.8529 188.647 62.5612 188.385 62.3516 188.057C62.1465 187.724 62.0439 187.353 62.0439 186.942C62.0439 186.546 62.1214 186.197 62.2764 185.896C62.4313 185.591 62.6546 185.338 62.9463 185.138C63.238 184.933 63.5889 184.778 63.999 184.673C64.4092 184.568 64.8672 184.516 65.373 184.516H66.8428ZM74.1846 187.038C74.1846 186.856 74.1436 186.687 74.0615 186.532C73.984 186.373 73.8223 186.229 73.5762 186.102C73.3346 185.969 72.9701 185.855 72.4824 185.76C72.0723 185.673 71.7008 185.571 71.3682 185.452C71.04 185.334 70.7598 185.19 70.5273 185.021C70.2995 184.853 70.124 184.655 70.001 184.427C69.8779 184.199 69.8164 183.932 69.8164 183.627C69.8164 183.335 69.8802 183.06 70.0078 182.8C70.14 182.54 70.3245 182.31 70.5615 182.109C70.8031 181.909 71.0924 181.752 71.4297 181.638C71.7669 181.524 72.1429 181.467 72.5576 181.467C73.1501 181.467 73.6559 181.572 74.0752 181.781C74.4945 181.991 74.8158 182.271 75.0391 182.622C75.2624 182.968 75.374 183.354 75.374 183.777H74.1094C74.1094 183.572 74.0479 183.374 73.9248 183.183C73.8063 182.987 73.6309 182.825 73.3984 182.697C73.1706 182.57 72.8903 182.506 72.5576 182.506C72.2067 182.506 71.9219 182.561 71.7031 182.67C71.4889 182.775 71.3317 182.909 71.2314 183.073C71.1357 183.237 71.0879 183.41 71.0879 183.593C71.0879 183.729 71.1107 183.853 71.1562 183.962C71.2064 184.067 71.293 184.165 71.416 184.256C71.5391 184.342 71.7122 184.424 71.9355 184.502C72.1589 184.579 72.4437 184.657 72.79 184.734C73.3962 184.871 73.8952 185.035 74.2871 185.227C74.679 185.418 74.9707 185.653 75.1621 185.931C75.3535 186.209 75.4492 186.546 75.4492 186.942C75.4492 187.266 75.3809 187.562 75.2441 187.831C75.112 188.1 74.9183 188.332 74.6631 188.528C74.4124 188.72 74.1117 188.87 73.7607 188.979C73.4144 189.084 73.0247 189.137 72.5918 189.137C71.9401 189.137 71.3887 189.021 70.9375 188.788C70.4863 188.556 70.1445 188.255 69.9121 187.886C69.6797 187.517 69.5635 187.127 69.5635 186.717H70.835C70.8532 187.063 70.9535 187.339 71.1357 187.544C71.318 187.744 71.5413 187.888 71.8057 187.975C72.07 188.057 72.332 188.098 72.5918 188.098C72.9382 188.098 73.2275 188.052 73.46 187.961C73.6969 187.87 73.877 187.744 74 187.585C74.123 187.425 74.1846 187.243 74.1846 187.038ZM80.1797 189.137C79.6647 189.137 79.1976 189.05 78.7783 188.877C78.3636 188.699 78.0059 188.451 77.7051 188.132C77.4089 187.813 77.181 187.435 77.0215 186.997C76.862 186.56 76.7822 186.081 76.7822 185.562V185.274C76.7822 184.673 76.8711 184.137 77.0488 183.668C77.2266 183.194 77.4681 182.793 77.7734 182.465C78.0788 182.137 78.4251 181.888 78.8125 181.72C79.1999 181.551 79.6009 181.467 80.0156 181.467C80.5443 181.467 81 181.558 81.3828 181.74C81.7702 181.923 82.0869 182.178 82.333 182.506C82.5791 182.829 82.7614 183.212 82.8799 183.654C82.9984 184.092 83.0576 184.57 83.0576 185.09V185.657H77.5342V184.625H81.793V184.529C81.7747 184.201 81.7064 183.882 81.5879 183.572C81.474 183.262 81.2917 183.007 81.041 182.807C80.7904 182.606 80.4486 182.506 80.0156 182.506C79.7285 182.506 79.4642 182.567 79.2227 182.69C78.9811 182.809 78.7738 182.987 78.6006 183.224C78.4274 183.461 78.293 183.75 78.1973 184.092C78.1016 184.434 78.0537 184.828 78.0537 185.274V185.562C78.0537 185.912 78.1016 186.243 78.1973 186.553C78.2975 186.858 78.4411 187.127 78.6279 187.359C78.8193 187.592 79.0495 187.774 79.3184 187.906C79.5918 188.038 79.9017 188.104 80.248 188.104C80.6947 188.104 81.0729 188.013 81.3828 187.831C81.6927 187.649 81.9639 187.405 82.1963 187.1L82.9619 187.708C82.8024 187.95 82.5996 188.18 82.3535 188.398C82.1074 188.617 81.8044 188.795 81.4443 188.932C81.0889 189.068 80.6673 189.137 80.1797 189.137ZM89.3809 181.604V189H88.1094V181.604H89.3809ZM88.0137 179.642C88.0137 179.437 88.0752 179.263 88.1982 179.122C88.3258 178.981 88.5127 178.91 88.7588 178.91C89.0003 178.91 89.1849 178.981 89.3125 179.122C89.4447 179.263 89.5107 179.437 89.5107 179.642C89.5107 179.838 89.4447 180.006 89.3125 180.147C89.1849 180.284 89.0003 180.353 88.7588 180.353C88.5127 180.353 88.3258 180.284 88.1982 180.147C88.0752 180.006 88.0137 179.838 88.0137 179.642ZM92.6758 183.183V189H91.4111V181.604H92.6074L92.6758 183.183ZM92.375 185.021L91.8486 185.001C91.8532 184.495 91.9284 184.028 92.0742 183.6C92.2201 183.167 92.4251 182.791 92.6895 182.472C92.9538 182.153 93.2682 181.907 93.6328 181.733C94.002 181.556 94.4098 181.467 94.8564 181.467C95.221 181.467 95.5492 181.517 95.8408 181.617C96.1325 181.713 96.3809 181.868 96.5859 182.082C96.7956 182.296 96.9551 182.574 97.0645 182.916C97.1738 183.253 97.2285 183.666 97.2285 184.153V189H95.957V184.14C95.957 183.752 95.9001 183.442 95.7861 183.21C95.6722 182.973 95.5059 182.802 95.2871 182.697C95.0684 182.588 94.7995 182.533 94.4805 182.533C94.166 182.533 93.8789 182.599 93.6191 182.731C93.3639 182.864 93.1429 183.046 92.9561 183.278C92.7738 183.511 92.6302 183.777 92.5254 184.078C92.4251 184.374 92.375 184.689 92.375 185.021ZM102.287 185.384V185.227C102.287 184.693 102.365 184.199 102.52 183.743C102.674 183.283 102.898 182.884 103.189 182.547C103.481 182.205 103.834 181.941 104.249 181.754C104.664 181.562 105.129 181.467 105.644 181.467C106.163 181.467 106.63 181.562 107.045 181.754C107.464 181.941 107.82 182.205 108.111 182.547C108.408 182.884 108.633 183.283 108.788 183.743C108.943 184.199 109.021 184.693 109.021 185.227V185.384C109.021 185.917 108.943 186.411 108.788 186.867C108.633 187.323 108.408 187.722 108.111 188.063C107.82 188.401 107.466 188.665 107.052 188.856C106.642 189.043 106.177 189.137 105.657 189.137C105.138 189.137 104.671 189.043 104.256 188.856C103.841 188.665 103.486 188.401 103.189 188.063C102.898 187.722 102.674 187.323 102.52 186.867C102.365 186.411 102.287 185.917 102.287 185.384ZM103.552 185.227V185.384C103.552 185.753 103.595 186.102 103.682 186.43C103.768 186.753 103.898 187.04 104.071 187.291C104.249 187.542 104.47 187.74 104.734 187.886C104.999 188.027 105.306 188.098 105.657 188.098C106.004 188.098 106.307 188.027 106.566 187.886C106.831 187.74 107.049 187.542 107.223 187.291C107.396 187.04 107.526 186.753 107.612 186.43C107.703 186.102 107.749 185.753 107.749 185.384V185.227C107.749 184.862 107.703 184.518 107.612 184.194C107.526 183.866 107.394 183.577 107.216 183.326C107.043 183.071 106.824 182.87 106.56 182.725C106.3 182.579 105.994 182.506 105.644 182.506C105.297 182.506 104.992 182.579 104.728 182.725C104.468 182.87 104.249 183.071 104.071 183.326C103.898 183.577 103.768 183.866 103.682 184.194C103.595 184.518 103.552 184.862 103.552 185.227ZM111.871 182.766V189H110.606V181.604H111.837L111.871 182.766ZM114.182 181.562L114.175 182.738C114.07 182.715 113.97 182.702 113.874 182.697C113.783 182.688 113.678 182.684 113.56 182.684C113.268 182.684 113.01 182.729 112.787 182.82C112.564 182.911 112.375 183.039 112.22 183.203C112.065 183.367 111.942 183.563 111.851 183.791C111.764 184.014 111.707 184.26 111.68 184.529L111.324 184.734C111.324 184.288 111.368 183.868 111.454 183.477C111.545 183.085 111.684 182.738 111.871 182.438C112.058 182.132 112.295 181.895 112.582 181.727C112.874 181.553 113.22 181.467 113.621 181.467C113.712 181.467 113.817 181.478 113.936 181.501C114.054 181.519 114.136 181.54 114.182 181.562ZM120.006 181.604H121.154V188.843C121.154 189.494 121.022 190.05 120.758 190.511C120.493 190.971 120.124 191.32 119.65 191.557C119.181 191.798 118.639 191.919 118.023 191.919C117.768 191.919 117.467 191.878 117.121 191.796C116.779 191.718 116.442 191.584 116.109 191.393C115.781 191.206 115.506 190.953 115.282 190.634L115.945 189.882C116.255 190.256 116.579 190.515 116.916 190.661C117.258 190.807 117.595 190.88 117.928 190.88C118.329 190.88 118.675 190.805 118.967 190.654C119.258 190.504 119.484 190.281 119.644 189.984C119.808 189.693 119.89 189.333 119.89 188.904V183.23L120.006 181.604ZM114.913 185.384V185.24C114.913 184.675 114.979 184.162 115.111 183.702C115.248 183.237 115.442 182.839 115.692 182.506C115.948 182.173 116.255 181.918 116.615 181.74C116.975 181.558 117.381 181.467 117.832 181.467C118.297 181.467 118.702 181.549 119.049 181.713C119.4 181.872 119.696 182.107 119.938 182.417C120.184 182.722 120.377 183.091 120.519 183.524C120.66 183.957 120.758 184.447 120.812 184.994V185.623C120.762 186.165 120.664 186.653 120.519 187.086C120.377 187.519 120.184 187.888 119.938 188.193C119.696 188.499 119.4 188.733 119.049 188.897C118.698 189.057 118.288 189.137 117.818 189.137C117.376 189.137 116.975 189.043 116.615 188.856C116.26 188.67 115.954 188.408 115.699 188.07C115.444 187.733 115.248 187.337 115.111 186.881C114.979 186.421 114.913 185.922 114.913 185.384ZM116.178 185.24V185.384C116.178 185.753 116.214 186.099 116.287 186.423C116.365 186.746 116.481 187.031 116.636 187.277C116.795 187.523 116.998 187.717 117.244 187.858C117.49 187.995 117.784 188.063 118.126 188.063C118.545 188.063 118.892 187.975 119.165 187.797C119.438 187.619 119.655 187.384 119.814 187.093C119.979 186.801 120.106 186.484 120.197 186.143V184.495C120.147 184.244 120.07 184.003 119.965 183.771C119.865 183.534 119.732 183.324 119.568 183.142C119.409 182.955 119.211 182.807 118.974 182.697C118.737 182.588 118.459 182.533 118.14 182.533C117.793 182.533 117.495 182.606 117.244 182.752C116.998 182.893 116.795 183.089 116.636 183.34C116.481 183.586 116.365 183.873 116.287 184.201C116.214 184.525 116.178 184.871 116.178 185.24ZM127.437 187.735V183.928C127.437 183.636 127.377 183.383 127.259 183.169C127.145 182.95 126.972 182.782 126.739 182.663C126.507 182.545 126.22 182.485 125.878 182.485C125.559 182.485 125.279 182.54 125.037 182.649C124.8 182.759 124.613 182.902 124.477 183.08C124.344 183.258 124.278 183.449 124.278 183.654H123.014C123.014 183.39 123.082 183.128 123.219 182.868C123.355 182.608 123.551 182.374 123.807 182.164C124.066 181.95 124.376 181.781 124.736 181.658C125.101 181.531 125.507 181.467 125.953 181.467C126.491 181.467 126.965 181.558 127.375 181.74C127.79 181.923 128.113 182.198 128.346 182.567C128.583 182.932 128.701 183.39 128.701 183.941V187.387C128.701 187.633 128.722 187.895 128.763 188.173C128.808 188.451 128.874 188.69 128.961 188.891V189H127.642C127.578 188.854 127.528 188.66 127.491 188.419C127.455 188.173 127.437 187.945 127.437 187.735ZM127.655 184.516L127.669 185.404H126.391C126.031 185.404 125.709 185.434 125.427 185.493C125.144 185.548 124.907 185.632 124.716 185.746C124.524 185.86 124.379 186.004 124.278 186.177C124.178 186.345 124.128 186.544 124.128 186.771C124.128 187.004 124.18 187.216 124.285 187.407C124.39 187.599 124.547 187.751 124.757 187.865C124.971 187.975 125.233 188.029 125.543 188.029C125.93 188.029 126.272 187.947 126.568 187.783C126.865 187.619 127.099 187.419 127.272 187.182C127.45 186.945 127.546 186.715 127.56 186.491L128.1 187.1C128.068 187.291 127.981 187.503 127.84 187.735C127.699 187.968 127.509 188.191 127.272 188.405C127.04 188.615 126.762 188.79 126.438 188.932C126.119 189.068 125.759 189.137 125.358 189.137C124.857 189.137 124.417 189.039 124.039 188.843C123.665 188.647 123.374 188.385 123.164 188.057C122.959 187.724 122.856 187.353 122.856 186.942C122.856 186.546 122.934 186.197 123.089 185.896C123.244 185.591 123.467 185.338 123.759 185.138C124.05 184.933 124.401 184.778 124.812 184.673C125.222 184.568 125.68 184.516 126.186 184.516H127.655ZM131.955 183.183V189H130.69V181.604H131.887L131.955 183.183ZM131.654 185.021L131.128 185.001C131.132 184.495 131.208 184.028 131.354 183.6C131.499 183.167 131.704 182.791 131.969 182.472C132.233 182.153 132.548 181.907 132.912 181.733C133.281 181.556 133.689 181.467 134.136 181.467C134.5 181.467 134.828 181.517 135.12 181.617C135.412 181.713 135.66 181.868 135.865 182.082C136.075 182.296 136.234 182.574 136.344 182.916C136.453 183.253 136.508 183.666 136.508 184.153V189H135.236V184.14C135.236 183.752 135.179 183.442 135.065 183.21C134.951 182.973 134.785 182.802 134.566 182.697C134.348 182.588 134.079 182.533 133.76 182.533C133.445 182.533 133.158 182.599 132.898 182.731C132.643 182.864 132.422 183.046 132.235 183.278C132.053 183.511 131.91 183.777 131.805 184.078C131.704 184.374 131.654 184.689 131.654 185.021ZM139.803 181.604V189H138.531V181.604H139.803ZM138.436 179.642C138.436 179.437 138.497 179.263 138.62 179.122C138.748 178.981 138.935 178.91 139.181 178.91C139.422 178.91 139.607 178.981 139.734 179.122C139.867 179.263 139.933 179.437 139.933 179.642C139.933 179.838 139.867 180.006 139.734 180.147C139.607 180.284 139.422 180.353 139.181 180.353C138.935 180.353 138.748 180.284 138.62 180.147C138.497 180.006 138.436 179.838 138.436 179.642ZM144.793 188.098C145.094 188.098 145.372 188.036 145.627 187.913C145.882 187.79 146.092 187.621 146.256 187.407C146.42 187.188 146.513 186.94 146.536 186.662H147.739C147.716 187.1 147.568 187.507 147.295 187.886C147.026 188.259 146.673 188.562 146.235 188.795C145.798 189.023 145.317 189.137 144.793 189.137C144.237 189.137 143.752 189.039 143.337 188.843C142.927 188.647 142.585 188.378 142.312 188.036C142.043 187.694 141.84 187.302 141.703 186.86C141.571 186.414 141.505 185.942 141.505 185.445V185.158C141.505 184.661 141.571 184.192 141.703 183.75C141.84 183.303 142.043 182.909 142.312 182.567C142.585 182.226 142.927 181.957 143.337 181.761C143.752 181.565 144.237 181.467 144.793 181.467C145.372 181.467 145.878 181.585 146.311 181.822C146.743 182.055 147.083 182.374 147.329 182.779C147.58 183.18 147.716 183.636 147.739 184.146H146.536C146.513 183.841 146.427 183.565 146.276 183.319C146.131 183.073 145.93 182.877 145.675 182.731C145.424 182.581 145.13 182.506 144.793 182.506C144.406 182.506 144.08 182.583 143.815 182.738C143.556 182.889 143.348 183.094 143.193 183.354C143.043 183.609 142.934 183.894 142.865 184.208C142.801 184.518 142.77 184.835 142.77 185.158V185.445C142.77 185.769 142.801 186.088 142.865 186.402C142.929 186.717 143.036 187.002 143.187 187.257C143.341 187.512 143.549 187.717 143.809 187.872C144.073 188.022 144.401 188.098 144.793 188.098ZM155.73 181.604V182.574H151.731V181.604H155.73ZM153.085 179.806H154.35V187.168C154.35 187.419 154.388 187.608 154.466 187.735C154.543 187.863 154.644 187.947 154.767 187.988C154.89 188.029 155.022 188.05 155.163 188.05C155.268 188.05 155.377 188.041 155.491 188.022C155.61 188 155.699 187.981 155.758 187.968L155.765 189C155.664 189.032 155.532 189.062 155.368 189.089C155.209 189.121 155.015 189.137 154.787 189.137C154.477 189.137 154.192 189.075 153.933 188.952C153.673 188.829 153.465 188.624 153.311 188.337C153.16 188.045 153.085 187.653 153.085 187.161V179.806ZM158.479 182.766V189H157.214V181.604H158.444L158.479 182.766ZM160.789 181.562L160.782 182.738C160.677 182.715 160.577 182.702 160.481 182.697C160.39 182.688 160.285 182.684 160.167 182.684C159.875 182.684 159.618 182.729 159.395 182.82C159.171 182.911 158.982 183.039 158.827 183.203C158.672 183.367 158.549 183.563 158.458 183.791C158.371 184.014 158.314 184.26 158.287 184.529L157.932 184.734C157.932 184.288 157.975 183.868 158.062 183.477C158.153 183.085 158.292 182.738 158.479 182.438C158.665 182.132 158.902 181.895 159.189 181.727C159.481 181.553 159.827 181.467 160.229 181.467C160.32 181.467 160.424 181.478 160.543 181.501C160.661 181.519 160.743 181.54 160.789 181.562ZM166.046 187.735V183.928C166.046 183.636 165.987 183.383 165.868 183.169C165.754 182.95 165.581 182.782 165.349 182.663C165.116 182.545 164.829 182.485 164.487 182.485C164.168 182.485 163.888 182.54 163.646 182.649C163.41 182.759 163.223 182.902 163.086 183.08C162.954 183.258 162.888 183.449 162.888 183.654H161.623C161.623 183.39 161.691 183.128 161.828 182.868C161.965 182.608 162.161 182.374 162.416 182.164C162.676 181.95 162.986 181.781 163.346 181.658C163.71 181.531 164.116 181.467 164.562 181.467C165.1 181.467 165.574 181.558 165.984 181.74C166.399 181.923 166.723 182.198 166.955 182.567C167.192 182.932 167.311 183.39 167.311 183.941V187.387C167.311 187.633 167.331 187.895 167.372 188.173C167.418 188.451 167.484 188.69 167.57 188.891V189H166.251C166.187 188.854 166.137 188.66 166.101 188.419C166.064 188.173 166.046 187.945 166.046 187.735ZM166.265 184.516L166.278 185.404H165C164.64 185.404 164.319 185.434 164.036 185.493C163.754 185.548 163.517 185.632 163.325 185.746C163.134 185.86 162.988 186.004 162.888 186.177C162.787 186.345 162.737 186.544 162.737 186.771C162.737 187.004 162.79 187.216 162.895 187.407C162.999 187.599 163.157 187.751 163.366 187.865C163.58 187.975 163.842 188.029 164.152 188.029C164.54 188.029 164.882 187.947 165.178 187.783C165.474 187.619 165.709 187.419 165.882 187.182C166.06 186.945 166.155 186.715 166.169 186.491L166.709 187.1C166.677 187.291 166.59 187.503 166.449 187.735C166.308 187.968 166.119 188.191 165.882 188.405C165.649 188.615 165.371 188.79 165.048 188.932C164.729 189.068 164.369 189.137 163.968 189.137C163.466 189.137 163.027 189.039 162.648 188.843C162.275 188.647 161.983 188.385 161.773 188.057C161.568 187.724 161.466 187.353 161.466 186.942C161.466 186.546 161.543 186.197 161.698 185.896C161.853 185.591 162.076 185.338 162.368 185.138C162.66 184.933 163.011 184.778 163.421 184.673C163.831 184.568 164.289 184.516 164.795 184.516H166.265ZM171.187 189H169.922V180.824C169.922 180.291 170.018 179.842 170.209 179.478C170.405 179.108 170.685 178.83 171.05 178.644C171.414 178.452 171.847 178.356 172.349 178.356C172.494 178.356 172.64 178.366 172.786 178.384C172.937 178.402 173.082 178.429 173.224 178.466L173.155 179.498C173.06 179.475 172.95 179.459 172.827 179.45C172.709 179.441 172.59 179.437 172.472 179.437C172.203 179.437 171.97 179.491 171.774 179.601C171.583 179.705 171.437 179.86 171.337 180.065C171.237 180.271 171.187 180.523 171.187 180.824V189ZM172.827 181.604V182.574H168.753V181.604H172.827ZM175.186 189H173.921V180.961C173.921 180.4 174.028 179.926 174.242 179.539C174.461 179.152 174.773 178.858 175.179 178.657C175.584 178.457 176.065 178.356 176.621 178.356C176.954 178.356 177.277 178.397 177.592 178.479C177.906 178.557 178.23 178.655 178.562 178.773L178.344 179.84C178.139 179.758 177.897 179.68 177.619 179.607C177.341 179.53 177.04 179.491 176.717 179.491C176.174 179.491 175.783 179.614 175.541 179.86C175.304 180.102 175.186 180.469 175.186 180.961V189ZM176.696 181.604V182.574H172.752V181.604H176.696ZM179.185 181.604V189H177.92V181.604H179.185ZM184.209 188.098C184.51 188.098 184.788 188.036 185.043 187.913C185.298 187.79 185.508 187.621 185.672 187.407C185.836 187.188 185.929 186.94 185.952 186.662H187.155C187.132 187.1 186.984 187.507 186.711 187.886C186.442 188.259 186.089 188.562 185.651 188.795C185.214 189.023 184.733 189.137 184.209 189.137C183.653 189.137 183.168 189.039 182.753 188.843C182.343 188.647 182.001 188.378 181.728 188.036C181.459 187.694 181.256 187.302 181.119 186.86C180.987 186.414 180.921 185.942 180.921 185.445V185.158C180.921 184.661 180.987 184.192 181.119 183.75C181.256 183.303 181.459 182.909 181.728 182.567C182.001 182.226 182.343 181.957 182.753 181.761C183.168 181.565 183.653 181.467 184.209 181.467C184.788 181.467 185.294 181.585 185.727 181.822C186.16 182.055 186.499 182.374 186.745 182.779C186.996 183.18 187.132 183.636 187.155 184.146H185.952C185.929 183.841 185.843 183.565 185.692 183.319C185.547 183.073 185.346 182.877 185.091 182.731C184.84 182.581 184.546 182.506 184.209 182.506C183.822 182.506 183.496 182.583 183.231 182.738C182.972 182.889 182.764 183.094 182.609 183.354C182.459 183.609 182.35 183.894 182.281 184.208C182.217 184.518 182.186 184.835 182.186 185.158V185.445C182.186 185.769 182.217 186.088 182.281 186.402C182.345 186.717 182.452 187.002 182.603 187.257C182.757 187.512 182.965 187.717 183.225 187.872C183.489 188.022 183.817 188.098 184.209 188.098ZM93.1201 202.604H94.2686V209.843C94.2686 210.494 94.1364 211.05 93.8721 211.511C93.6077 211.971 93.2386 212.32 92.7646 212.557C92.2952 212.798 91.7529 212.919 91.1377 212.919C90.8825 212.919 90.5817 212.878 90.2354 212.796C89.8936 212.718 89.5563 212.584 89.2236 212.393C88.8955 212.206 88.6198 211.953 88.3965 211.634L89.0596 210.882C89.3695 211.256 89.693 211.515 90.0303 211.661C90.3721 211.807 90.7093 211.88 91.042 211.88C91.443 211.88 91.7894 211.805 92.0811 211.654C92.3727 211.504 92.5983 211.281 92.7578 210.984C92.9219 210.693 93.0039 210.333 93.0039 209.904V204.23L93.1201 202.604ZM88.0273 206.384V206.24C88.0273 205.675 88.0934 205.162 88.2256 204.702C88.3623 204.237 88.556 203.839 88.8066 203.506C89.0618 203.173 89.3695 202.918 89.7295 202.74C90.0895 202.558 90.4951 202.467 90.9463 202.467C91.4111 202.467 91.8167 202.549 92.1631 202.713C92.514 202.872 92.8102 203.107 93.0518 203.417C93.2979 203.722 93.4915 204.091 93.6328 204.524C93.7741 204.957 93.8721 205.447 93.9268 205.994V206.623C93.8766 207.165 93.7786 207.653 93.6328 208.086C93.4915 208.519 93.2979 208.888 93.0518 209.193C92.8102 209.499 92.514 209.733 92.1631 209.897C91.8122 210.057 91.402 210.137 90.9326 210.137C90.4906 210.137 90.0895 210.043 89.7295 209.856C89.374 209.67 89.0687 209.408 88.8135 209.07C88.5583 208.733 88.3623 208.337 88.2256 207.881C88.0934 207.421 88.0273 206.922 88.0273 206.384ZM89.292 206.24V206.384C89.292 206.753 89.3285 207.099 89.4014 207.423C89.4788 207.746 89.5951 208.031 89.75 208.277C89.9095 208.523 90.1123 208.717 90.3584 208.858C90.6045 208.995 90.8984 209.063 91.2402 209.063C91.6595 209.063 92.0059 208.975 92.2793 208.797C92.5527 208.619 92.7692 208.384 92.9287 208.093C93.0928 207.801 93.2204 207.484 93.3115 207.143V205.495C93.2614 205.244 93.1839 205.003 93.0791 204.771C92.9788 204.534 92.8467 204.324 92.6826 204.142C92.5231 203.955 92.3249 203.807 92.0879 203.697C91.8509 203.588 91.5729 203.533 91.2539 203.533C90.9076 203.533 90.609 203.606 90.3584 203.752C90.1123 203.893 89.9095 204.089 89.75 204.34C89.5951 204.586 89.4788 204.873 89.4014 205.201C89.3285 205.525 89.292 205.871 89.292 206.24ZM97.4541 203.766V210H96.1895V202.604H97.4199L97.4541 203.766ZM99.7646 202.562L99.7578 203.738C99.653 203.715 99.5527 203.702 99.457 203.697C99.3659 203.688 99.2611 203.684 99.1426 203.684C98.8509 203.684 98.5934 203.729 98.3701 203.82C98.1468 203.911 97.9577 204.039 97.8027 204.203C97.6478 204.367 97.5247 204.563 97.4336 204.791C97.347 205.014 97.29 205.26 97.2627 205.529L96.9072 205.734C96.9072 205.288 96.9505 204.868 97.0371 204.477C97.1283 204.085 97.2673 203.738 97.4541 203.438C97.641 203.132 97.8779 202.895 98.165 202.727C98.4567 202.553 98.8031 202.467 99.2041 202.467C99.2952 202.467 99.4001 202.478 99.5186 202.501C99.637 202.519 99.7191 202.54 99.7646 202.562ZM100.462 206.384V206.227C100.462 205.693 100.539 205.199 100.694 204.743C100.849 204.283 101.073 203.884 101.364 203.547C101.656 203.205 102.009 202.941 102.424 202.754C102.839 202.562 103.303 202.467 103.818 202.467C104.338 202.467 104.805 202.562 105.22 202.754C105.639 202.941 105.994 203.205 106.286 203.547C106.582 203.884 106.808 204.283 106.963 204.743C107.118 205.199 107.195 205.693 107.195 206.227V206.384C107.195 206.917 107.118 207.411 106.963 207.867C106.808 208.323 106.582 208.722 106.286 209.063C105.994 209.401 105.641 209.665 105.227 209.856C104.816 210.043 104.352 210.137 103.832 210.137C103.312 210.137 102.845 210.043 102.431 209.856C102.016 209.665 101.66 209.401 101.364 209.063C101.073 208.722 100.849 208.323 100.694 207.867C100.539 207.411 100.462 206.917 100.462 206.384ZM101.727 206.227V206.384C101.727 206.753 101.77 207.102 101.856 207.43C101.943 207.753 102.073 208.04 102.246 208.291C102.424 208.542 102.645 208.74 102.909 208.886C103.174 209.027 103.481 209.098 103.832 209.098C104.178 209.098 104.481 209.027 104.741 208.886C105.006 208.74 105.224 208.542 105.397 208.291C105.571 208.04 105.701 207.753 105.787 207.43C105.878 207.102 105.924 206.753 105.924 206.384V206.227C105.924 205.862 105.878 205.518 105.787 205.194C105.701 204.866 105.568 204.577 105.391 204.326C105.217 204.071 104.999 203.87 104.734 203.725C104.475 203.579 104.169 203.506 103.818 203.506C103.472 203.506 103.167 203.579 102.902 203.725C102.643 203.87 102.424 204.071 102.246 204.326C102.073 204.577 101.943 204.866 101.856 205.194C101.77 205.518 101.727 205.862 101.727 206.227ZM110.654 208.688L112.555 202.604H113.389L113.225 203.813L111.29 210H110.477L110.654 208.688ZM109.376 202.604L110.996 208.756L111.112 210H110.258L108.111 202.604H109.376ZM115.207 208.708L116.752 202.604H118.01L115.863 210H115.016L115.207 208.708ZM113.573 202.604L115.433 208.585L115.645 210H114.838L112.849 203.8L112.685 202.604H113.573ZM122.405 202.604V203.574H118.406V202.604H122.405ZM119.76 200.806H121.024V208.168C121.024 208.419 121.063 208.608 121.141 208.735C121.218 208.863 121.318 208.947 121.441 208.988C121.564 209.029 121.697 209.05 121.838 209.05C121.943 209.05 122.052 209.041 122.166 209.022C122.285 209 122.373 208.981 122.433 208.968L122.439 210C122.339 210.032 122.207 210.062 122.043 210.089C121.883 210.121 121.69 210.137 121.462 210.137C121.152 210.137 120.867 210.075 120.607 209.952C120.348 209.829 120.14 209.624 119.985 209.337C119.835 209.045 119.76 208.653 119.76 208.161V200.806ZM125.153 199.5V210H123.889V199.5H125.153ZM124.853 206.021L124.326 206.001C124.331 205.495 124.406 205.028 124.552 204.6C124.698 204.167 124.903 203.791 125.167 203.472C125.431 203.153 125.746 202.907 126.11 202.733C126.479 202.556 126.887 202.467 127.334 202.467C127.699 202.467 128.027 202.517 128.318 202.617C128.61 202.713 128.858 202.868 129.063 203.082C129.273 203.296 129.433 203.574 129.542 203.916C129.651 204.253 129.706 204.666 129.706 205.153V210H128.435V205.14C128.435 204.752 128.378 204.442 128.264 204.21C128.15 203.973 127.983 203.802 127.765 203.697C127.546 203.588 127.277 203.533 126.958 203.533C126.644 203.533 126.356 203.599 126.097 203.731C125.841 203.864 125.62 204.046 125.434 204.278C125.251 204.511 125.108 204.777 125.003 205.078C124.903 205.374 124.853 205.689 124.853 206.021Z" fill="#232323"/>
</g>
<defs>
<filter id="filter0_d_1433_7652" x="0" y="0" width="218" height="248" filterUnits="userSpaceOnUse" color-interpolation-filters="sRGB">
<feFlood flood-opacity="0" result="BackgroundImageFix"/>
<feColorMatrix in="SourceAlpha" type="matrix" values="0 0 0 0 0 0 0 0 0 0 0 0 0 0 0 0 0 0 127 0" result="hardAlpha"/>
<feOffset/>
<feGaussianBlur stdDeviation="3"/>
<feComposite in2="hardAlpha" operator="out"/>
<feColorMatrix type="matrix" values="0 0 0 0 0 0 0 0 0 0 0 0 0 0 0 0 0 0 0.15 0"/>
<feBlend mode="normal" in2="BackgroundImageFix" result="effect1_dropShadow_1433_7652"/>
<feBlend mode="normal" in="SourceGraphic" in2="effect1_dropShadow_1433_7652" result="shape"/>
</filter>
<filter id="filter1_d_1433_7652" x="48" y="45" width="122" height="122" filterUnits="userSpaceOnUse" color-interpolation-filters="sRGB">
<feFlood flood-opacity="0" result="BackgroundImageFix"/>
<feColorMatrix in="SourceAlpha" type="matrix" values="0 0 0 0 0 0 0 0 0 0 0 0 0 0 0 0 0 0 127 0" result="hardAlpha"/>
<feOffset/>
<feGaussianBlur stdDeviation="3"/>
<feComposite in2="hardAlpha" operator="out"/>
<feColorMatrix type="matrix" values="0 0 0 0 0 0 0 0 0 0 0 0 0 0 0 0 0 0 0.25 0"/>
<feBlend mode="normal" in2="BackgroundImageFix" result="effect1_dropShadow_1433_7652"/>
<feBlend mode="normal" in="SourceGraphic" in2="effect1_dropShadow_1433_7652" result="shape"/>
</filter>
</defs>
</svg>
