<svg width="226" height="256" viewBox="0 0 226 256" fill="none" xmlns="http://www.w3.org/2000/svg">
<g filter="url(#filter0_d_1148_5883)">
<rect x="10" y="10" width="206" height="236" rx="24" fill="white" shape-rendering="crispEdges"/>
<g filter="url(#filter1_d_1148_5883)">
<circle cx="113" cy="110" r="55" fill="white"/>
<rect x="75" y="72" width="76" height="76" rx="38" stroke="#1E2D1F" stroke-width="4"/>
<path d="M91.1562 117.697H91.416C92.5918 117.697 93.5853 117.547 94.3965 117.246C95.2168 116.945 95.8776 116.521 96.3789 115.975C96.8893 115.419 97.2585 114.758 97.4863 113.992C97.7233 113.217 97.8418 112.361 97.8418 111.422V107.812C97.8418 107.047 97.7643 106.377 97.6094 105.803C97.4544 105.219 97.2357 104.732 96.9531 104.34C96.6797 103.948 96.3561 103.656 95.9824 103.465C95.6087 103.264 95.2077 103.164 94.7793 103.164C94.3053 103.164 93.8861 103.273 93.5215 103.492C93.1569 103.711 92.847 104.012 92.5918 104.395C92.3457 104.768 92.1543 105.201 92.0176 105.693C91.89 106.186 91.8262 106.705 91.8262 107.252C91.8262 107.781 91.8854 108.286 92.0039 108.77C92.1315 109.253 92.3184 109.681 92.5645 110.055C92.8197 110.428 93.1387 110.725 93.5215 110.943C93.9043 111.153 94.3509 111.258 94.8613 111.258C95.3444 111.258 95.7819 111.167 96.1738 110.984C96.5749 110.793 96.9212 110.542 97.2129 110.232C97.5046 109.913 97.7279 109.562 97.8828 109.18C98.0469 108.788 98.138 108.391 98.1562 107.99L99.4277 108.537C99.4277 109.202 99.2865 109.859 99.0039 110.506C98.7305 111.153 98.3431 111.741 97.8418 112.27C97.3496 112.789 96.7754 113.208 96.1191 113.527C95.4629 113.837 94.7565 113.992 94 113.992C93.0612 113.992 92.2318 113.819 91.5117 113.473C90.7917 113.126 90.1855 112.648 89.6934 112.037C89.2103 111.417 88.8457 110.706 88.5996 109.904C88.3535 109.093 88.2305 108.227 88.2305 107.307C88.2305 106.35 88.3809 105.452 88.6816 104.613C88.9824 103.766 89.4154 103.023 89.9805 102.385C90.5547 101.738 91.2474 101.232 92.0586 100.867C92.8698 100.493 93.7812 100.307 94.793 100.307C95.8411 100.307 96.7754 100.512 97.5957 100.922C98.416 101.332 99.1133 101.902 99.6875 102.631C100.262 103.351 100.699 104.203 101 105.188C101.31 106.172 101.465 107.247 101.465 108.414V109.686C101.465 110.916 101.342 112.083 101.096 113.186C100.85 114.288 100.471 115.296 99.9609 116.207C99.4505 117.118 98.7988 117.907 98.0059 118.572C97.222 119.238 96.2832 119.753 95.1895 120.117C94.1048 120.473 92.8652 120.65 91.4707 120.65H91.1562V117.697ZM117.639 115.059C117.639 116.298 117.347 117.346 116.764 118.203C116.189 119.051 115.401 119.693 114.398 120.131C113.405 120.559 112.275 120.773 111.008 120.773C109.75 120.773 108.615 120.559 107.604 120.131C106.601 119.693 105.803 119.051 105.211 118.203C104.628 117.346 104.336 116.298 104.336 115.059C104.336 114.229 104.5 113.477 104.828 112.803C105.165 112.128 105.63 111.549 106.223 111.066C106.815 110.574 107.517 110.201 108.328 109.945C109.139 109.681 110.023 109.549 110.98 109.549C112.257 109.549 113.396 109.781 114.398 110.246C115.41 110.702 116.203 111.344 116.777 112.174C117.352 112.994 117.639 113.956 117.639 115.059ZM114.002 114.84C114.002 114.202 113.874 113.65 113.619 113.186C113.373 112.712 113.022 112.347 112.566 112.092C112.111 111.837 111.582 111.709 110.98 111.709C110.37 111.709 109.837 111.837 109.381 112.092C108.934 112.347 108.583 112.712 108.328 113.186C108.082 113.65 107.959 114.202 107.959 114.84C107.959 115.487 108.082 116.043 108.328 116.508C108.583 116.964 108.939 117.314 109.395 117.561C109.85 117.807 110.388 117.93 111.008 117.93C111.628 117.93 112.161 117.807 112.607 117.561C113.054 117.314 113.396 116.964 113.633 116.508C113.879 116.043 114.002 115.487 114.002 114.84ZM117.201 105.844C117.201 106.846 116.937 107.74 116.408 108.523C115.88 109.298 115.146 109.904 114.207 110.342C113.277 110.779 112.211 110.998 111.008 110.998C109.805 110.998 108.729 110.779 107.781 110.342C106.842 109.904 106.104 109.298 105.566 108.523C105.038 107.74 104.773 106.846 104.773 105.844C104.773 104.659 105.042 103.656 105.58 102.836C106.118 102.007 106.852 101.378 107.781 100.949C108.72 100.521 109.786 100.307 110.98 100.307C112.193 100.307 113.268 100.521 114.207 100.949C115.146 101.378 115.88 102.007 116.408 102.836C116.937 103.656 117.201 104.659 117.201 105.844ZM113.592 105.994C113.592 105.429 113.487 104.937 113.277 104.518C113.068 104.089 112.767 103.757 112.375 103.52C111.992 103.283 111.527 103.164 110.98 103.164C110.452 103.164 109.996 103.278 109.613 103.506C109.23 103.734 108.934 104.062 108.725 104.49C108.515 104.91 108.41 105.411 108.41 105.994C108.41 106.568 108.515 107.07 108.725 107.498C108.934 107.926 109.23 108.264 109.613 108.51C110.005 108.747 110.47 108.865 111.008 108.865C111.546 108.865 112.006 108.747 112.389 108.51C112.771 108.264 113.068 107.926 113.277 107.498C113.487 107.07 113.592 106.568 113.592 105.994ZM120.332 105.475V104.422C120.332 103.665 120.496 102.977 120.824 102.357C121.152 101.738 121.631 101.241 122.26 100.867C122.898 100.493 123.673 100.307 124.584 100.307C125.514 100.307 126.293 100.493 126.922 100.867C127.56 101.241 128.038 101.738 128.357 102.357C128.686 102.977 128.85 103.665 128.85 104.422V105.475C128.85 106.213 128.686 106.892 128.357 107.512C128.038 108.132 127.564 108.628 126.936 109.002C126.307 109.376 125.532 109.562 124.611 109.562C123.691 109.562 122.911 109.376 122.273 109.002C121.635 108.628 121.152 108.132 120.824 107.512C120.496 106.892 120.332 106.213 120.332 105.475ZM122.779 104.422V105.475C122.779 105.821 122.843 106.149 122.971 106.459C123.107 106.76 123.312 107.006 123.586 107.197C123.859 107.389 124.201 107.484 124.611 107.484C125.021 107.484 125.354 107.389 125.609 107.197C125.874 107.006 126.07 106.76 126.197 106.459C126.334 106.149 126.402 105.821 126.402 105.475V104.422C126.402 104.066 126.334 103.734 126.197 103.424C126.07 103.114 125.869 102.863 125.596 102.672C125.331 102.48 124.994 102.385 124.584 102.385C124.183 102.385 123.846 102.48 123.572 102.672C123.308 102.863 123.107 103.114 122.971 103.424C122.843 103.734 122.779 104.066 122.779 104.422ZM129.889 116.672V115.619C129.889 114.872 130.053 114.188 130.381 113.568C130.718 112.949 131.206 112.452 131.844 112.078C132.482 111.704 133.252 111.518 134.154 111.518C135.093 111.518 135.877 111.704 136.506 112.078C137.135 112.452 137.609 112.949 137.928 113.568C138.256 114.188 138.42 114.872 138.42 115.619V116.672C138.42 117.419 138.256 118.103 137.928 118.723C137.609 119.342 137.135 119.839 136.506 120.213C135.886 120.587 135.111 120.773 134.182 120.773C133.27 120.773 132.491 120.587 131.844 120.213C131.206 119.839 130.718 119.342 130.381 118.723C130.053 118.103 129.889 117.419 129.889 116.672ZM132.35 115.619V116.672C132.35 117.027 132.423 117.36 132.568 117.67C132.714 117.971 132.924 118.217 133.197 118.408C133.48 118.6 133.808 118.695 134.182 118.695C134.637 118.695 134.997 118.6 135.262 118.408C135.526 118.217 135.713 117.971 135.822 117.67C135.932 117.36 135.986 117.027 135.986 116.672V115.619C135.986 115.264 135.918 114.936 135.781 114.635C135.645 114.325 135.439 114.074 135.166 113.883C134.902 113.691 134.564 113.596 134.154 113.596C133.753 113.596 133.416 113.691 133.143 113.883C132.878 114.074 132.678 114.325 132.541 114.635C132.413 114.936 132.35 115.264 132.35 115.619ZM135.057 103.438L125.336 118.996L123.545 117.998L133.266 102.439L135.057 103.438Z" fill="#108A00"/>
</g>
<path d="M56.7129 196.097H54.0537V195.023H56.7129C57.2279 195.023 57.6449 194.941 57.9639 194.777C58.2829 194.613 58.5153 194.385 58.6611 194.094C58.8115 193.802 58.8867 193.469 58.8867 193.096C58.8867 192.754 58.8115 192.433 58.6611 192.132C58.5153 191.831 58.2829 191.59 57.9639 191.407C57.6449 191.22 57.2279 191.127 56.7129 191.127H54.3613V200H53.042V190.047H56.7129C57.4648 190.047 58.1006 190.177 58.6201 190.437C59.1396 190.696 59.5339 191.056 59.8027 191.517C60.0716 191.972 60.2061 192.494 60.2061 193.082C60.2061 193.72 60.0716 194.265 59.8027 194.716C59.5339 195.167 59.1396 195.511 58.6201 195.748C58.1006 195.98 57.4648 196.097 56.7129 196.097ZM65.9619 198.735V194.928C65.9619 194.636 65.9027 194.383 65.7842 194.169C65.6702 193.95 65.4971 193.782 65.2646 193.663C65.0322 193.545 64.7451 193.485 64.4033 193.485C64.0843 193.485 63.804 193.54 63.5625 193.649C63.3255 193.759 63.1387 193.902 63.002 194.08C62.8698 194.258 62.8037 194.449 62.8037 194.654H61.5391C61.5391 194.39 61.6074 194.128 61.7441 193.868C61.8809 193.608 62.0768 193.374 62.332 193.164C62.5918 192.95 62.9017 192.781 63.2617 192.658C63.6263 192.531 64.0319 192.467 64.4785 192.467C65.0163 192.467 65.4902 192.558 65.9004 192.74C66.3151 192.923 66.6387 193.198 66.8711 193.567C67.1081 193.932 67.2266 194.39 67.2266 194.941V198.387C67.2266 198.633 67.2471 198.895 67.2881 199.173C67.3337 199.451 67.3997 199.69 67.4863 199.891V200H66.167C66.1032 199.854 66.0531 199.66 66.0166 199.419C65.9801 199.173 65.9619 198.945 65.9619 198.735ZM66.1807 195.516L66.1943 196.404H64.916C64.556 196.404 64.2347 196.434 63.9521 196.493C63.6696 196.548 63.4326 196.632 63.2412 196.746C63.0498 196.86 62.904 197.004 62.8037 197.177C62.7035 197.345 62.6533 197.544 62.6533 197.771C62.6533 198.004 62.7057 198.216 62.8105 198.407C62.9154 198.599 63.0726 198.751 63.2822 198.865C63.4964 198.975 63.7585 199.029 64.0684 199.029C64.4557 199.029 64.7975 198.947 65.0938 198.783C65.39 198.619 65.6247 198.419 65.7979 198.182C65.9756 197.945 66.0713 197.715 66.085 197.491L66.625 198.1C66.5931 198.291 66.5065 198.503 66.3652 198.735C66.224 198.968 66.0348 199.191 65.7979 199.405C65.5654 199.615 65.2874 199.79 64.9639 199.932C64.6449 200.068 64.2848 200.137 63.8838 200.137C63.3825 200.137 62.9427 200.039 62.5645 199.843C62.1908 199.647 61.8991 199.385 61.6895 199.057C61.4844 198.724 61.3818 198.353 61.3818 197.942C61.3818 197.546 61.4593 197.197 61.6143 196.896C61.7692 196.591 61.9925 196.338 62.2842 196.138C62.5758 195.933 62.9268 195.778 63.3369 195.673C63.7471 195.568 64.2051 195.516 64.7109 195.516H66.1807ZM72.3125 192.604V193.574H68.3135V192.604H72.3125ZM69.667 190.806H70.9316V198.168C70.9316 198.419 70.9704 198.608 71.0479 198.735C71.1253 198.863 71.2256 198.947 71.3486 198.988C71.4717 199.029 71.6038 199.05 71.7451 199.05C71.8499 199.05 71.9593 199.041 72.0732 199.022C72.1917 199 72.2806 198.981 72.3398 198.968L72.3467 200C72.2464 200.032 72.1143 200.062 71.9502 200.089C71.7907 200.121 71.597 200.137 71.3691 200.137C71.0592 200.137 70.7744 200.075 70.5146 199.952C70.2549 199.829 70.0475 199.624 69.8926 199.337C69.7422 199.045 69.667 198.653 69.667 198.161V190.806ZM75.1699 192.604V200H73.8984V192.604H75.1699ZM73.8027 190.642C73.8027 190.437 73.8643 190.263 73.9873 190.122C74.1149 189.981 74.3018 189.91 74.5479 189.91C74.7894 189.91 74.974 189.981 75.1016 190.122C75.2337 190.263 75.2998 190.437 75.2998 190.642C75.2998 190.838 75.2337 191.006 75.1016 191.147C74.974 191.284 74.7894 191.353 74.5479 191.353C74.3018 191.353 74.1149 191.284 73.9873 191.147C73.8643 191.006 73.8027 190.838 73.8027 190.642ZM80.2695 200.137C79.7546 200.137 79.2874 200.05 78.8682 199.877C78.4535 199.699 78.0957 199.451 77.7949 199.132C77.4987 198.813 77.2708 198.435 77.1113 197.997C76.9518 197.56 76.8721 197.081 76.8721 196.562V196.274C76.8721 195.673 76.9609 195.137 77.1387 194.668C77.3164 194.194 77.5579 193.793 77.8633 193.465C78.1686 193.137 78.515 192.888 78.9023 192.72C79.2897 192.551 79.6908 192.467 80.1055 192.467C80.6341 192.467 81.0898 192.558 81.4727 192.74C81.86 192.923 82.1768 193.178 82.4229 193.506C82.6689 193.829 82.8512 194.212 82.9697 194.654C83.0882 195.092 83.1475 195.57 83.1475 196.09V196.657H77.624V195.625H81.8828V195.529C81.8646 195.201 81.7962 194.882 81.6777 194.572C81.5638 194.262 81.3815 194.007 81.1309 193.807C80.8802 193.606 80.5384 193.506 80.1055 193.506C79.8184 193.506 79.554 193.567 79.3125 193.69C79.071 193.809 78.8636 193.987 78.6904 194.224C78.5173 194.461 78.3828 194.75 78.2871 195.092C78.1914 195.434 78.1436 195.828 78.1436 196.274V196.562C78.1436 196.912 78.1914 197.243 78.2871 197.553C78.3874 197.858 78.5309 198.127 78.7178 198.359C78.9092 198.592 79.1393 198.774 79.4082 198.906C79.6816 199.038 79.9915 199.104 80.3379 199.104C80.7845 199.104 81.1628 199.013 81.4727 198.831C81.7826 198.649 82.0537 198.405 82.2861 198.1L83.0518 198.708C82.8923 198.95 82.6895 199.18 82.4434 199.398C82.1973 199.617 81.8942 199.795 81.5342 199.932C81.1787 200.068 80.7572 200.137 80.2695 200.137ZM85.8887 194.183V200H84.624V192.604H85.8203L85.8887 194.183ZM85.5879 196.021L85.0615 196.001C85.0661 195.495 85.1413 195.028 85.2871 194.6C85.4329 194.167 85.638 193.791 85.9023 193.472C86.1667 193.153 86.4811 192.907 86.8457 192.733C87.2148 192.556 87.6227 192.467 88.0693 192.467C88.4339 192.467 88.762 192.517 89.0537 192.617C89.3454 192.713 89.5938 192.868 89.7988 193.082C90.0085 193.296 90.168 193.574 90.2773 193.916C90.3867 194.253 90.4414 194.666 90.4414 195.153V200H89.1699V195.14C89.1699 194.752 89.113 194.442 88.999 194.21C88.8851 193.973 88.7188 193.802 88.5 193.697C88.2812 193.588 88.0124 193.533 87.6934 193.533C87.3789 193.533 87.0918 193.599 86.832 193.731C86.5768 193.864 86.3558 194.046 86.1689 194.278C85.9867 194.511 85.8431 194.777 85.7383 195.078C85.638 195.374 85.5879 195.689 85.5879 196.021ZM95.459 192.604V193.574H91.46V192.604H95.459ZM92.8135 190.806H94.0781V198.168C94.0781 198.419 94.1169 198.608 94.1943 198.735C94.2718 198.863 94.3721 198.947 94.4951 198.988C94.6182 199.029 94.7503 199.05 94.8916 199.05C94.9964 199.05 95.1058 199.041 95.2197 199.022C95.3382 199 95.4271 198.981 95.4863 198.968L95.4932 200C95.3929 200.032 95.2607 200.062 95.0967 200.089C94.9372 200.121 94.7435 200.137 94.5156 200.137C94.2057 200.137 93.9209 200.075 93.6611 199.952C93.4014 199.829 93.194 199.624 93.0391 199.337C92.8887 199.045 92.8135 198.653 92.8135 198.161V190.806ZM105.911 197.484C105.911 197.252 105.875 197.047 105.802 196.869C105.733 196.687 105.61 196.523 105.433 196.377C105.259 196.231 105.018 196.092 104.708 195.96C104.403 195.828 104.015 195.693 103.546 195.557C103.054 195.411 102.609 195.249 102.213 195.071C101.816 194.889 101.477 194.682 101.194 194.449C100.912 194.217 100.695 193.95 100.545 193.649C100.395 193.349 100.319 193.005 100.319 192.617C100.319 192.23 100.399 191.872 100.559 191.544C100.718 191.216 100.946 190.931 101.242 190.689C101.543 190.443 101.901 190.252 102.315 190.115C102.73 189.979 103.193 189.91 103.703 189.91C104.451 189.91 105.084 190.054 105.604 190.341C106.128 190.623 106.526 190.995 106.8 191.455C107.073 191.911 107.21 192.398 107.21 192.918H105.897C105.897 192.544 105.818 192.214 105.658 191.927C105.499 191.635 105.257 191.407 104.934 191.243C104.61 191.075 104.2 190.99 103.703 190.99C103.234 190.99 102.846 191.061 102.541 191.202C102.236 191.343 102.008 191.535 101.857 191.776C101.712 192.018 101.639 192.294 101.639 192.604C101.639 192.813 101.682 193.005 101.769 193.178C101.86 193.346 101.999 193.504 102.186 193.649C102.377 193.795 102.618 193.93 102.91 194.053C103.206 194.176 103.56 194.294 103.97 194.408C104.535 194.568 105.022 194.745 105.433 194.941C105.843 195.137 106.18 195.358 106.444 195.604C106.713 195.846 106.911 196.122 107.039 196.432C107.171 196.737 107.237 197.083 107.237 197.471C107.237 197.876 107.155 198.243 106.991 198.571C106.827 198.899 106.592 199.18 106.287 199.412C105.982 199.645 105.615 199.825 105.187 199.952C104.763 200.075 104.289 200.137 103.765 200.137C103.304 200.137 102.851 200.073 102.404 199.945C101.962 199.818 101.559 199.626 101.194 199.371C100.834 199.116 100.545 198.801 100.326 198.428C100.112 198.049 100.005 197.612 100.005 197.115H101.317C101.317 197.457 101.383 197.751 101.516 197.997C101.648 198.239 101.828 198.439 102.056 198.599C102.288 198.758 102.55 198.877 102.842 198.954C103.138 199.027 103.446 199.063 103.765 199.063C104.225 199.063 104.615 199 104.934 198.872C105.253 198.744 105.494 198.562 105.658 198.325C105.827 198.088 105.911 197.808 105.911 197.484ZM113.089 198.735V194.928C113.089 194.636 113.03 194.383 112.911 194.169C112.797 193.95 112.624 193.782 112.392 193.663C112.159 193.545 111.872 193.485 111.53 193.485C111.211 193.485 110.931 193.54 110.689 193.649C110.452 193.759 110.266 193.902 110.129 194.08C109.997 194.258 109.931 194.449 109.931 194.654H108.666C108.666 194.39 108.734 194.128 108.871 193.868C109.008 193.608 109.204 193.374 109.459 193.164C109.719 192.95 110.029 192.781 110.389 192.658C110.753 192.531 111.159 192.467 111.605 192.467C112.143 192.467 112.617 192.558 113.027 192.74C113.442 192.923 113.766 193.198 113.998 193.567C114.235 193.932 114.354 194.39 114.354 194.941V198.387C114.354 198.633 114.374 198.895 114.415 199.173C114.461 199.451 114.527 199.69 114.613 199.891V200H113.294C113.23 199.854 113.18 199.66 113.144 199.419C113.107 199.173 113.089 198.945 113.089 198.735ZM113.308 195.516L113.321 196.404H112.043C111.683 196.404 111.362 196.434 111.079 196.493C110.797 196.548 110.56 196.632 110.368 196.746C110.177 196.86 110.031 197.004 109.931 197.177C109.83 197.345 109.78 197.544 109.78 197.771C109.78 198.004 109.833 198.216 109.938 198.407C110.042 198.599 110.2 198.751 110.409 198.865C110.623 198.975 110.885 199.029 111.195 199.029C111.583 199.029 111.924 198.947 112.221 198.783C112.517 198.619 112.752 198.419 112.925 198.182C113.103 197.945 113.198 197.715 113.212 197.491L113.752 198.1C113.72 198.291 113.633 198.503 113.492 198.735C113.351 198.968 113.162 199.191 112.925 199.405C112.692 199.615 112.414 199.79 112.091 199.932C111.772 200.068 111.412 200.137 111.011 200.137C110.509 200.137 110.07 200.039 109.691 199.843C109.318 199.647 109.026 199.385 108.816 199.057C108.611 198.724 108.509 198.353 108.509 197.942C108.509 197.546 108.586 197.197 108.741 196.896C108.896 196.591 109.119 196.338 109.411 196.138C109.703 195.933 110.054 195.778 110.464 195.673C110.874 195.568 111.332 195.516 111.838 195.516H113.308ZM119.439 192.604V193.574H115.44V192.604H119.439ZM116.794 190.806H118.059V198.168C118.059 198.419 118.097 198.608 118.175 198.735C118.252 198.863 118.353 198.947 118.476 198.988C118.599 199.029 118.731 199.05 118.872 199.05C118.977 199.05 119.086 199.041 119.2 199.022C119.319 199 119.408 198.981 119.467 198.968L119.474 200C119.373 200.032 119.241 200.062 119.077 200.089C118.918 200.121 118.724 200.137 118.496 200.137C118.186 200.137 117.901 200.075 117.642 199.952C117.382 199.829 117.174 199.624 117.02 199.337C116.869 199.045 116.794 198.653 116.794 198.161V190.806ZM122.297 192.604V200H121.025V192.604H122.297ZM120.93 190.642C120.93 190.437 120.991 190.263 121.114 190.122C121.242 189.981 121.429 189.91 121.675 189.91C121.916 189.91 122.101 189.981 122.229 190.122C122.361 190.263 122.427 190.437 122.427 190.642C122.427 190.838 122.361 191.006 122.229 191.147C122.101 191.284 121.916 191.353 121.675 191.353C121.429 191.353 121.242 191.284 121.114 191.147C120.991 191.006 120.93 190.838 120.93 190.642ZM128.634 198.038C128.634 197.856 128.593 197.687 128.511 197.532C128.433 197.373 128.271 197.229 128.025 197.102C127.784 196.969 127.419 196.855 126.932 196.76C126.521 196.673 126.15 196.571 125.817 196.452C125.489 196.334 125.209 196.19 124.977 196.021C124.749 195.853 124.573 195.655 124.45 195.427C124.327 195.199 124.266 194.932 124.266 194.627C124.266 194.335 124.329 194.06 124.457 193.8C124.589 193.54 124.774 193.31 125.011 193.109C125.252 192.909 125.542 192.752 125.879 192.638C126.216 192.524 126.592 192.467 127.007 192.467C127.599 192.467 128.105 192.572 128.524 192.781C128.944 192.991 129.265 193.271 129.488 193.622C129.712 193.968 129.823 194.354 129.823 194.777H128.559C128.559 194.572 128.497 194.374 128.374 194.183C128.256 193.987 128.08 193.825 127.848 193.697C127.62 193.57 127.34 193.506 127.007 193.506C126.656 193.506 126.371 193.561 126.152 193.67C125.938 193.775 125.781 193.909 125.681 194.073C125.585 194.237 125.537 194.41 125.537 194.593C125.537 194.729 125.56 194.853 125.605 194.962C125.656 195.067 125.742 195.165 125.865 195.256C125.988 195.342 126.161 195.424 126.385 195.502C126.608 195.579 126.893 195.657 127.239 195.734C127.845 195.871 128.344 196.035 128.736 196.227C129.128 196.418 129.42 196.653 129.611 196.931C129.803 197.209 129.898 197.546 129.898 197.942C129.898 198.266 129.83 198.562 129.693 198.831C129.561 199.1 129.368 199.332 129.112 199.528C128.862 199.72 128.561 199.87 128.21 199.979C127.864 200.084 127.474 200.137 127.041 200.137C126.389 200.137 125.838 200.021 125.387 199.788C124.936 199.556 124.594 199.255 124.361 198.886C124.129 198.517 124.013 198.127 124.013 197.717H125.284C125.302 198.063 125.403 198.339 125.585 198.544C125.767 198.744 125.991 198.888 126.255 198.975C126.519 199.057 126.781 199.098 127.041 199.098C127.387 199.098 127.677 199.052 127.909 198.961C128.146 198.87 128.326 198.744 128.449 198.585C128.572 198.425 128.634 198.243 128.634 198.038ZM133.446 200H132.182V191.824C132.182 191.291 132.277 190.842 132.469 190.478C132.665 190.108 132.945 189.83 133.31 189.644C133.674 189.452 134.107 189.356 134.608 189.356C134.754 189.356 134.9 189.366 135.046 189.384C135.196 189.402 135.342 189.429 135.483 189.466L135.415 190.498C135.319 190.475 135.21 190.459 135.087 190.45C134.968 190.441 134.85 190.437 134.731 190.437C134.463 190.437 134.23 190.491 134.034 190.601C133.843 190.705 133.697 190.86 133.597 191.065C133.496 191.271 133.446 191.523 133.446 191.824V200ZM135.019 192.604V193.574H131.013V192.604H135.019ZM140.788 198.735V194.928C140.788 194.636 140.729 194.383 140.61 194.169C140.496 193.95 140.323 193.782 140.091 193.663C139.858 193.545 139.571 193.485 139.229 193.485C138.91 193.485 138.63 193.54 138.389 193.649C138.152 193.759 137.965 193.902 137.828 194.08C137.696 194.258 137.63 194.449 137.63 194.654H136.365C136.365 194.39 136.434 194.128 136.57 193.868C136.707 193.608 136.903 193.374 137.158 193.164C137.418 192.95 137.728 192.781 138.088 192.658C138.452 192.531 138.858 192.467 139.305 192.467C139.842 192.467 140.316 192.558 140.727 192.74C141.141 192.923 141.465 193.198 141.697 193.567C141.934 193.932 142.053 194.39 142.053 194.941V198.387C142.053 198.633 142.073 198.895 142.114 199.173C142.16 199.451 142.226 199.69 142.312 199.891V200H140.993C140.929 199.854 140.879 199.66 140.843 199.419C140.806 199.173 140.788 198.945 140.788 198.735ZM141.007 195.516L141.021 196.404H139.742C139.382 196.404 139.061 196.434 138.778 196.493C138.496 196.548 138.259 196.632 138.067 196.746C137.876 196.86 137.73 197.004 137.63 197.177C137.53 197.345 137.479 197.544 137.479 197.771C137.479 198.004 137.532 198.216 137.637 198.407C137.742 198.599 137.899 198.751 138.108 198.865C138.323 198.975 138.585 199.029 138.895 199.029C139.282 199.029 139.624 198.947 139.92 198.783C140.216 198.619 140.451 198.419 140.624 198.182C140.802 197.945 140.897 197.715 140.911 197.491L141.451 198.1C141.419 198.291 141.333 198.503 141.191 198.735C141.05 198.968 140.861 199.191 140.624 199.405C140.392 199.615 140.114 199.79 139.79 199.932C139.471 200.068 139.111 200.137 138.71 200.137C138.209 200.137 137.769 200.039 137.391 199.843C137.017 199.647 136.725 199.385 136.516 199.057C136.311 198.724 136.208 198.353 136.208 197.942C136.208 197.546 136.285 197.197 136.44 196.896C136.595 196.591 136.819 196.338 137.11 196.138C137.402 195.933 137.753 195.778 138.163 195.673C138.573 195.568 139.031 195.516 139.537 195.516H141.007ZM147.002 199.098C147.303 199.098 147.581 199.036 147.836 198.913C148.091 198.79 148.301 198.621 148.465 198.407C148.629 198.188 148.722 197.94 148.745 197.662H149.948C149.925 198.1 149.777 198.507 149.504 198.886C149.235 199.259 148.882 199.562 148.444 199.795C148.007 200.023 147.526 200.137 147.002 200.137C146.446 200.137 145.961 200.039 145.546 199.843C145.136 199.647 144.794 199.378 144.521 199.036C144.252 198.694 144.049 198.302 143.912 197.86C143.78 197.414 143.714 196.942 143.714 196.445V196.158C143.714 195.661 143.78 195.192 143.912 194.75C144.049 194.303 144.252 193.909 144.521 193.567C144.794 193.226 145.136 192.957 145.546 192.761C145.961 192.565 146.446 192.467 147.002 192.467C147.581 192.467 148.087 192.585 148.52 192.822C148.952 193.055 149.292 193.374 149.538 193.779C149.789 194.18 149.925 194.636 149.948 195.146H148.745C148.722 194.841 148.636 194.565 148.485 194.319C148.34 194.073 148.139 193.877 147.884 193.731C147.633 193.581 147.339 193.506 147.002 193.506C146.615 193.506 146.289 193.583 146.024 193.738C145.765 193.889 145.557 194.094 145.402 194.354C145.252 194.609 145.143 194.894 145.074 195.208C145.01 195.518 144.979 195.835 144.979 196.158V196.445C144.979 196.769 145.01 197.088 145.074 197.402C145.138 197.717 145.245 198.002 145.396 198.257C145.55 198.512 145.758 198.717 146.018 198.872C146.282 199.022 146.61 199.098 147.002 199.098ZM154.467 192.604V193.574H150.468V192.604H154.467ZM151.821 190.806H153.086V198.168C153.086 198.419 153.125 198.608 153.202 198.735C153.28 198.863 153.38 198.947 153.503 198.988C153.626 199.029 153.758 199.05 153.899 199.05C154.004 199.05 154.114 199.041 154.228 199.022C154.346 199 154.435 198.981 154.494 198.968L154.501 200C154.401 200.032 154.269 200.062 154.104 200.089C153.945 200.121 153.751 200.137 153.523 200.137C153.214 200.137 152.929 200.075 152.669 199.952C152.409 199.829 152.202 199.624 152.047 199.337C151.896 199.045 151.821 198.653 151.821 198.161V190.806ZM157.324 192.604V200H156.053V192.604H157.324ZM155.957 190.642C155.957 190.437 156.019 190.263 156.142 190.122C156.269 189.981 156.456 189.91 156.702 189.91C156.944 189.91 157.128 189.981 157.256 190.122C157.388 190.263 157.454 190.437 157.454 190.642C157.454 190.838 157.388 191.006 157.256 191.147C157.128 191.284 156.944 191.353 156.702 191.353C156.456 191.353 156.269 191.284 156.142 191.147C156.019 191.006 155.957 190.838 155.957 190.642ZM159.02 196.384V196.227C159.02 195.693 159.097 195.199 159.252 194.743C159.407 194.283 159.63 193.884 159.922 193.547C160.214 193.205 160.567 192.941 160.981 192.754C161.396 192.562 161.861 192.467 162.376 192.467C162.896 192.467 163.363 192.562 163.777 192.754C164.197 192.941 164.552 193.205 164.844 193.547C165.14 193.884 165.366 194.283 165.521 194.743C165.675 195.199 165.753 195.693 165.753 196.227V196.384C165.753 196.917 165.675 197.411 165.521 197.867C165.366 198.323 165.14 198.722 164.844 199.063C164.552 199.401 164.199 199.665 163.784 199.856C163.374 200.043 162.909 200.137 162.39 200.137C161.87 200.137 161.403 200.043 160.988 199.856C160.574 199.665 160.218 199.401 159.922 199.063C159.63 198.722 159.407 198.323 159.252 197.867C159.097 197.411 159.02 196.917 159.02 196.384ZM160.284 196.227V196.384C160.284 196.753 160.327 197.102 160.414 197.43C160.501 197.753 160.631 198.04 160.804 198.291C160.981 198.542 161.202 198.74 161.467 198.886C161.731 199.027 162.039 199.098 162.39 199.098C162.736 199.098 163.039 199.027 163.299 198.886C163.563 198.74 163.782 198.542 163.955 198.291C164.128 198.04 164.258 197.753 164.345 197.43C164.436 197.102 164.481 196.753 164.481 196.384V196.227C164.481 195.862 164.436 195.518 164.345 195.194C164.258 194.866 164.126 194.577 163.948 194.326C163.775 194.071 163.556 193.87 163.292 193.725C163.032 193.579 162.727 193.506 162.376 193.506C162.03 193.506 161.724 193.579 161.46 193.725C161.2 193.87 160.981 194.071 160.804 194.326C160.631 194.577 160.501 194.866 160.414 195.194C160.327 195.518 160.284 195.862 160.284 196.227ZM168.604 194.183V200H167.339V192.604H168.535L168.604 194.183ZM168.303 196.021L167.776 196.001C167.781 195.495 167.856 195.028 168.002 194.6C168.148 194.167 168.353 193.791 168.617 193.472C168.882 193.153 169.196 192.907 169.561 192.733C169.93 192.556 170.338 192.467 170.784 192.467C171.149 192.467 171.477 192.517 171.769 192.617C172.06 192.713 172.309 192.868 172.514 193.082C172.723 193.296 172.883 193.574 172.992 193.916C173.102 194.253 173.156 194.666 173.156 195.153V200H171.885V195.14C171.885 194.752 171.828 194.442 171.714 194.21C171.6 193.973 171.434 193.802 171.215 193.697C170.996 193.588 170.727 193.533 170.408 193.533C170.094 193.533 169.807 193.599 169.547 193.731C169.292 193.864 169.071 194.046 168.884 194.278C168.701 194.511 168.558 194.777 168.453 195.078C168.353 195.374 168.303 195.689 168.303 196.021Z" fill="#232323"/>
</g>
<defs>
<filter id="filter0_d_1148_5883" x="0" y="0" width="226" height="256" filterUnits="userSpaceOnUse" color-interpolation-filters="sRGB">
<feFlood flood-opacity="0" result="BackgroundImageFix"/>
<feColorMatrix in="SourceAlpha" type="matrix" values="0 0 0 0 0 0 0 0 0 0 0 0 0 0 0 0 0 0 127 0" result="hardAlpha"/>
<feOffset/>
<feGaussianBlur stdDeviation="5"/>
<feComposite in2="hardAlpha" operator="out"/>
<feColorMatrix type="matrix" values="0 0 0 0 0 0 0 0 0 0 0 0 0 0 0 0 0 0 0.25 0"/>
<feBlend mode="normal" in2="BackgroundImageFix" result="effect1_dropShadow_1148_5883"/>
<feBlend mode="normal" in="SourceGraphic" in2="effect1_dropShadow_1148_5883" result="shape"/>
</filter>
<filter id="filter1_d_1148_5883" x="48" y="45" width="130" height="130" filterUnits="userSpaceOnUse" color-interpolation-filters="sRGB">
<feFlood flood-opacity="0" result="BackgroundImageFix"/>
<feColorMatrix in="SourceAlpha" type="matrix" values="0 0 0 0 0 0 0 0 0 0 0 0 0 0 0 0 0 0 127 0" result="hardAlpha"/>
<feOffset/>
<feGaussianBlur stdDeviation="5"/>
<feComposite in2="hardAlpha" operator="out"/>
<feColorMatrix type="matrix" values="0 0 0 0 0 0 0 0 0 0 0 0 0 0 0 0 0 0 0.25 0"/>
<feBlend mode="normal" in2="BackgroundImageFix" result="effect1_dropShadow_1148_5883"/>
<feBlend mode="normal" in="SourceGraphic" in2="effect1_dropShadow_1148_5883" result="shape"/>
</filter>
</defs>
</svg>
