<svg width="142" height="44" viewBox="0 0 142 44" fill="none" xmlns="http://www.w3.org/2000/svg">
<path d="M28.0595 19.1674C28.0595 19.1674 19.8014 17.402 19.5882 23.0644C19.375 28.7267 23.4946 32.2606 26.2926 33.9991C21.9519 31.9985 16.6149 27.9072 16.6055 21.7712C16.5976 16.1641 24.8889 13.3471 28.0579 19.1674H28.0595Z" fill="url(#paint0_linear_1433_8062)"/>
<path d="M28.0328 20.2989C28.0328 20.2989 35.6998 18.6532 35.8977 23.9319C36.0957 29.2107 30.4201 32.3792 27.8224 33.9999C31.8524 32.1349 38.6582 28.4467 38.667 22.7263C38.6743 17.4991 30.9765 14.8729 28.0342 20.2989H28.0328Z" fill="url(#paint1_linear_1433_8062)"/>
<path d="M35.6099 17.2012C36.7968 17.2012 37.7589 16.239 37.7589 15.0521C37.7589 13.8652 36.7968 12.9031 35.6099 12.9031C34.4231 12.9031 33.4609 13.8652 33.4609 15.0521C33.4609 16.239 34.4231 17.2012 35.6099 17.2012Z" fill="#F47344"/>
<path d="M24.0375 14.8192C25.3682 14.8192 26.447 13.7404 26.447 12.4096C26.447 11.0788 25.3682 10 24.0375 10C22.7067 10 21.6279 11.0788 21.6279 12.4096C21.6279 13.7404 22.7067 14.8192 24.0375 14.8192Z" fill="#F47344"/>
<path d="M116.11 18.6106H122.32C123.324 18.6106 124.088 18.9063 124.611 19.4978C125.133 20.0892 125.395 20.8664 125.395 21.8292V27.6887C125.395 28.9266 124.776 29.5455 123.538 29.5455H118.029C116.213 29.5455 115.306 28.4108 115.306 26.1413C115.306 25.0822 115.533 24.25 115.987 23.6448C116.44 23.0396 117.121 22.737 118.029 22.737H122.981V22.0355C122.981 20.9901 122.472 20.4675 121.454 20.4675H116.11V18.6106ZM122.981 24.5939H118.957C118.187 24.5939 117.802 25.1097 117.802 26.1413C117.802 27.1729 118.187 27.6887 118.957 27.6887H122.362C122.774 27.6887 122.981 27.4823 122.981 27.0697V24.5939Z" fill="url(#paint2_linear_1433_8062)"/>
<path d="M112.857 29.5476H111.351C110.044 29.5476 109.047 29.2725 108.359 28.7223C107.671 28.1721 107.327 27.2574 107.327 25.9783V20.4695H105.821V18.6127H107.327V15.1052H109.741V18.6127H112.857V20.4695H109.741V25.4831C109.741 26.2809 109.948 26.8517 110.36 27.1956C110.773 27.5257 111.406 27.6907 112.258 27.6907H112.857V29.5476Z" fill="url(#paint3_linear_1433_8062)"/>
<path d="M94.0878 18.6106H100.298C101.302 18.6106 102.065 18.9063 102.588 19.4978C103.111 20.0892 103.372 20.8664 103.372 21.8292V27.6887C103.372 28.9266 102.753 29.5455 101.515 29.5455H96.0066C94.191 29.5455 93.2832 28.4108 93.2832 26.1413C93.2832 25.0822 93.5102 24.25 93.964 23.6448C94.4179 23.0396 95.0988 22.737 96.0066 22.737H100.958V22.0355C100.958 20.9901 100.449 20.4675 99.4314 20.4675H94.0878V18.6106ZM100.958 24.5939H96.935C96.1648 24.5939 95.7796 25.1097 95.7796 26.1413C95.7796 27.1729 96.1648 27.6887 96.935 27.6887H100.339C100.752 27.6887 100.958 27.4823 100.958 27.0697V24.5939Z" fill="url(#paint4_linear_1433_8062)"/>
<path d="M75.2559 29.5455V20.4675C75.2559 19.2296 75.8748 18.6106 77.1127 18.6106H86.5826C87.9305 18.6106 88.9759 18.8926 89.7186 19.4565C90.4614 20.0204 90.8327 20.9833 90.8327 22.345V29.5455H88.4188V22.9846C88.4188 22.1318 88.24 21.4991 87.8824 21.0864C87.5248 20.6738 86.9402 20.4675 86.1287 20.4675H84.2512V29.5455H81.8373V20.4675H78.2887C77.8761 20.4675 77.6698 20.6738 77.6698 21.0864V29.5455H75.2559Z" fill="url(#paint5_linear_1433_8062)"/>
<path d="M56.6611 29.5392L62.2848 16.1358C62.5546 15.4965 62.8599 15.0561 63.2008 14.8146C63.5558 14.5731 64.067 14.4524 64.7345 14.4524C65.3735 14.4524 65.8706 14.5802 66.2256 14.836C66.5949 15.0775 66.9144 15.5107 67.1842 16.1358L72.8079 29.5392H69.8469L68.3132 25.7675H61.1345L59.6221 29.5392H56.6611ZM64.3085 17.6914L61.8588 23.7645H67.5889L65.1605 17.6914C65.0043 17.2794 64.8623 17.0734 64.7345 17.0734C64.6067 17.0734 64.4647 17.2794 64.3085 17.6914Z" fill="url(#paint6_linear_1433_8062)"/>
<path d="M53.859 29.5473H47.7933C46.9405 29.5473 46.2322 29.4303 45.6683 29.1965C45.1181 28.9627 44.6986 28.5982 44.4097 28.103C44.1209 27.5941 43.9214 27.0302 43.8114 26.4112C43.7151 25.7922 43.667 25.0082 43.667 24.0592C43.667 21.9409 44.0659 20.4829 44.8636 19.6852C45.6751 18.8874 47.0368 18.4885 48.9487 18.4885C50.6542 18.4885 51.954 18.8049 52.8481 19.4376C53.7559 20.0566 54.2097 21.1844 54.2097 22.8212C54.2097 24.1967 53.6458 24.8844 52.518 24.8844H46.1634C46.1634 25.8335 46.3147 26.5419 46.6173 27.0095C46.9337 27.4634 47.5664 27.6904 48.5154 27.6904H53.859V29.5473ZM46.1634 23.0276H51.1769C51.5345 23.0276 51.7133 22.8144 51.7133 22.388C51.7133 21.714 51.4451 21.2051 50.9087 20.8612C50.386 20.5173 49.7327 20.3454 48.9487 20.3454C47.9309 20.3454 47.2088 20.5586 46.7824 20.985C46.3697 21.3976 46.1634 22.0785 46.1634 23.0276Z" fill="url(#paint7_linear_1433_8062)"/>
<defs>
<linearGradient id="paint0_linear_1433_8062" x1="22.3325" y1="15.9519" x2="22.3325" y2="33.9991" gradientUnits="userSpaceOnUse">
<stop stop-color="#0292C0"/>
<stop offset="1" stop-color="#006D8F"/>
</linearGradient>
<linearGradient id="paint1_linear_1433_8062" x1="33.3499" y1="17.3013" x2="33.3499" y2="34.1259" gradientUnits="userSpaceOnUse">
<stop stop-color="#0292C0"/>
<stop offset="1" stop-color="#006D8F"/>
</linearGradient>
<linearGradient id="paint2_linear_1433_8062" x1="120.252" y1="18.6106" x2="120.252" y2="29.628" gradientUnits="userSpaceOnUse">
<stop stop-color="#0292C0"/>
<stop offset="1" stop-color="#006D8F"/>
</linearGradient>
<linearGradient id="paint3_linear_1433_8062" x1="109.271" y1="15.1052" x2="109.271" y2="29.6565" gradientUnits="userSpaceOnUse">
<stop stop-color="#0292C0"/>
<stop offset="1" stop-color="#006D8F"/>
</linearGradient>
<linearGradient id="paint4_linear_1433_8062" x1="98.2298" y1="18.6106" x2="98.2298" y2="29.628" gradientUnits="userSpaceOnUse">
<stop stop-color="#0292C0"/>
<stop offset="1" stop-color="#006D8F"/>
</linearGradient>
<linearGradient id="paint5_linear_1433_8062" x1="82.8932" y1="18.6106" x2="82.8932" y2="29.628" gradientUnits="userSpaceOnUse">
<stop stop-color="#0292C0"/>
<stop offset="1" stop-color="#006D8F"/>
</linearGradient>
<linearGradient id="paint6_linear_1433_8062" x1="64.5779" y1="14.4524" x2="64.5779" y2="29.653" gradientUnits="userSpaceOnUse">
<stop stop-color="#0292C0"/>
<stop offset="1" stop-color="#006D8F"/>
</linearGradient>
<linearGradient id="paint7_linear_1433_8062" x1="48.8361" y1="18.4885" x2="48.8361" y2="29.6306" gradientUnits="userSpaceOnUse">
<stop stop-color="#0292C0"/>
<stop offset="1" stop-color="#006D8F"/>
</linearGradient>
</defs>
</svg>
