<svg width="71" height="44" viewBox="0 0 71 44" fill="none" xmlns="http://www.w3.org/2000/svg">
<path d="M66.1936 5.40852C66.1936 5.45982 66.1936 5.52395 66.1805 5.56243C66.1149 6.06264 66.1148 6.56285 66.1541 7.07589C66.1804 7.20415 66.2066 7.33241 66.3116 7.43502C66.4821 7.6274 66.7444 7.58893 66.8494 7.35806C66.9019 7.24263 66.9019 7.12719 66.8756 7.01176C66.7444 6.52437 66.7182 6.01134 66.7051 5.51112C66.7051 5.48547 66.7051 5.44699 66.7051 5.40852C66.8494 5.39569 66.9807 5.38286 67.0986 5.38286C67.1906 5.37004 67.2692 5.35721 67.3348 5.31873C67.5315 5.21613 67.5315 4.99809 67.3216 4.89548C67.243 4.857 67.138 4.84417 67.0462 4.84417C66.7182 4.857 66.3904 4.857 66.0623 4.857C65.9444 4.857 65.8262 4.86983 65.7081 4.88265C65.6425 4.89548 65.5639 4.89548 65.5115 4.93396C65.4195 4.97243 65.3671 5.03656 65.3671 5.12634C65.3802 5.21613 65.4195 5.26743 65.5115 5.30591C65.5639 5.34439 65.6294 5.35721 65.695 5.35721C65.8524 5.37004 66.023 5.39569 66.1936 5.40852ZM69.8009 5.99851C69.8009 6.01134 69.814 6.02416 69.814 6.02416C69.8665 6.37046 69.9191 6.70394 69.9584 7.03741C69.9715 7.15284 69.9846 7.25545 70.0633 7.34523C70.2338 7.56327 70.4963 7.53762 70.6143 7.30676C70.6667 7.19132 70.6798 7.07589 70.6536 6.94763C70.575 6.56285 70.5355 6.17807 70.4568 5.80612C70.4044 5.57525 70.3388 5.35721 70.2732 5.152C70.2338 5.02374 70.1421 4.93395 69.9846 4.92113C69.8272 4.89548 69.7091 4.97243 69.6435 5.08787C69.5648 5.19047 69.4992 5.29308 69.4467 5.40852C69.3549 5.61373 69.2762 5.81895 69.1713 6.01134C69.1581 6.06264 69.1451 6.10112 69.1189 6.13959C69.1058 6.11394 69.0927 6.10112 69.0927 6.10112C68.9221 5.78047 68.7646 5.45982 68.5941 5.152C68.5678 5.12634 68.5547 5.10069 68.5416 5.07504C68.463 4.95961 68.3711 4.89548 68.2268 4.89548C68.0956 4.9083 67.9906 4.98526 67.9251 5.10069C67.8988 5.152 67.8988 5.19047 67.8857 5.24178C67.8333 5.65221 67.7676 6.06264 67.7152 6.47307C67.6889 6.70394 67.6758 6.9348 67.6758 7.16567C67.6628 7.21697 67.6758 7.2811 67.702 7.33241C67.7283 7.43501 67.8071 7.49915 67.9119 7.51197C68.0432 7.5248 68.1349 7.48632 68.1743 7.38371C68.2136 7.30676 68.2268 7.24263 68.2399 7.1785C68.2924 6.94763 68.3317 6.72959 68.3711 6.51155C68.3973 6.38329 68.4104 6.28068 68.4498 6.13959C68.476 6.1909 68.5023 6.22938 68.5285 6.26785C68.6465 6.42177 68.7646 6.57568 68.909 6.70394C69.0533 6.80654 69.1713 6.79372 69.2893 6.67828C69.3156 6.65263 69.3288 6.63981 69.3549 6.61415C69.4731 6.43459 69.6174 6.25503 69.7354 6.07546C69.7617 6.04981 69.7747 6.02416 69.8009 5.99851Z" fill="#EAEAEA"/>
<path d="M39.5754 5.6605C39.4842 5.90425 39.4669 6.07986 39.5089 6.22582C39.5555 6.4243 39.6761 6.48928 39.8399 6.4388C41.3807 6.06627 44.7594 7.12367 46.0103 7.41838C46.3053 7.48026 46.5453 7.10791 46.344 6.77407C46.0502 6.45077 42.673 5.0666 41.3844 4.99113C40.8793 4.96322 39.9763 4.83658 39.5754 5.6605Z" fill="#EAEAEA"/>
<path d="M52.78 1.17982C52.9442 1.27249 53.036 1.36089 53.0813 1.45966C53.1488 1.58922 53.1132 1.67886 52.9998 1.7246C51.9813 2.21062 50.626 4.30303 50.0789 5.02468C49.9464 5.19069 49.6404 5.09422 49.5942 4.82122C49.6037 4.51254 50.8051 2.24181 51.4756 1.62334C51.7391 1.38187 52.1744 0.908078 52.78 1.17982Z" fill="#EAEAEA"/>
<path d="M44.669 0.149796C44.8663 0.00441888 45.0714 -0.0465256 45.176 0.0479512C46.7127 1.3329 47.5276 3.36773 48.0322 5.23057C48.0513 5.27397 48.0524 5.33625 48.0372 5.40122C48.0309 5.45675 47.9894 5.51541 47.9235 5.5608C47.8531 5.61091 47.7925 5.62617 47.764 5.58299C47.0905 4.68732 43.2438 1.20242 44.669 0.149796Z" fill="#EAEAEA"/>
<path d="M12.1277 22.4276C12.496 22.1595 12.8964 21.9363 13.3201 21.7631C13.7634 21.6392 14.2359 21.6597 14.6662 21.8217C15.0964 21.9837 15.4611 22.2782 15.7049 22.6608C15.923 23.0424 16.0083 23.483 15.9481 23.9162C15.8879 24.3493 15.6854 24.7516 15.371 25.0625C15.1273 25.3145 14.8506 25.534 14.5483 25.7154C13.2009 26.5665 11.8415 27.3709 10.4822 28.222C10.2041 28.435 9.909 28.6261 9.59983 28.7933C9.12956 29.0226 8.59212 29.084 8.08043 28.9669C7.56875 28.8499 7.11501 28.5616 6.79767 28.1521C6.56044 27.8621 6.36023 27.545 6.20146 27.2077C4.91366 24.5612 3.57817 21.9263 2.33806 19.2331C1.7657 18.0673 1.30066 16.7265 0.847546 15.4324C0.651507 15.0564 0.613226 14.6205 0.740852 14.2173C0.868478 13.8141 1.15194 13.4755 1.53095 13.2735C1.90996 13.0715 2.3546 13.0221 2.77032 13.1357C3.18604 13.2493 3.54004 13.517 3.75702 13.8818C4.42397 14.7484 5.01436 15.6689 5.52179 16.6333C6.80959 18.965 8.03778 21.2967 9.27788 23.5585C9.35009 23.6835 9.42971 23.8041 9.51636 23.9199C10.4497 23.5362 11.3276 23.0345 12.1277 22.4276Z" fill="#EAEAEA"/>
<path d="M25.4428 21.6142C22.4976 24.9835 17.561 24.1324 15.0808 19.7954C13.316 16.7175 13.006 11.6343 16.8456 8.42817C17.6655 7.75694 18.6459 7.29969 19.6954 7.09907C20.9822 6.9187 22.2944 7.14066 23.4444 7.73324C24.5944 8.32582 25.5234 9.25867 26.0987 10.3985C28.1973 14.1293 27.8992 18.886 25.4428 21.6142ZM24.2504 13.7562C23.9375 12.8394 23.3098 12.0567 22.4737 11.541C22.0006 11.2113 21.4257 11.051 20.8459 11.0871C20.266 11.1232 19.7166 11.3535 19.29 11.7392C17.5849 13.2199 17.2271 16.7292 18.4672 18.8161C18.6253 19.1564 18.8574 19.4588 19.1475 19.7022C19.4376 19.9456 19.7786 20.1241 20.1466 20.2251C20.5146 20.3262 20.9007 20.3474 21.278 20.2873C21.6553 20.2271 22.0145 20.0871 22.3307 19.877C23.255 19.1763 23.9331 18.2115 24.2707 17.1167C24.6084 16.0218 24.5888 14.8513 24.2147 13.7679L24.2504 13.7562Z" fill="#EAEAEA"/>
<path d="M37.4622 15.2252C37.1608 15.2886 36.8492 15.2924 36.5461 15.2363C36.2431 15.1802 35.9545 15.0655 35.6975 14.8988C35.4726 14.773 35.279 14.6001 35.1306 14.3924C34.9823 14.1847 34.8829 13.9475 34.8396 13.6977C34.7962 13.448 34.8101 13.192 34.88 12.9481C34.95 12.7042 35.0746 12.4785 35.2444 12.2872C35.5405 11.9028 35.9606 11.6276 36.4368 11.5061C37.6801 11.1533 38.96 10.9382 40.2525 10.8649C40.5365 10.8326 40.8242 10.8561 41.0987 10.934C41.3733 11.012 41.6292 11.1427 41.8513 11.3187C42.0734 11.4946 42.2575 11.7122 42.3924 11.9586C42.5273 12.205 42.6106 12.4753 42.6373 12.7536C43.0099 14.1206 43.0508 15.5539 42.7565 16.9391C41.6834 21.416 37.9869 22.9549 33.8373 21.5209C32.6726 21.1375 31.6512 20.4231 30.904 19.469C29.9074 18.32 29.2008 16.9583 28.8411 15.4934C28.5497 14.1889 28.5816 12.8353 28.9343 11.5454C29.2869 10.2555 29.95 9.06675 30.8682 8.07845C31.7396 7.00428 32.8706 6.15891 34.1593 5.61846C34.9736 5.17961 35.9265 5.05483 36.8303 5.2687C37.0354 5.32418 37.2214 5.43228 37.3693 5.58179C37.5172 5.73131 37.6215 5.91678 37.6714 6.11899C37.7213 6.32119 37.715 6.53276 37.653 6.73176C37.591 6.93075 37.4758 7.10992 37.3192 7.25068C37.0215 7.51423 36.6979 7.74853 36.3533 7.9502C35.2932 8.61027 34.3707 9.46082 33.6346 10.4568C33.1521 11.1013 32.8198 11.8414 32.6612 12.6249C32.5025 13.4084 32.5214 14.2164 32.7165 14.9921C32.9869 16.0497 33.587 16.999 34.4335 17.7085C37.0568 20.0403 40.4671 17.7901 39.8709 14.6073C39.0005 14.8172 38.2374 15.0387 37.4622 15.2252Z" fill="#EAEAEA"/>
<path d="M53.4884 21.8007C49.6131 24.1325 45.2012 21.8007 44.2353 16.9041C43.5318 13.4065 44.8673 8.50982 49.5416 6.64443C50.5361 6.25608 51.6148 6.11973 52.6776 6.24803C53.9545 6.47658 55.1259 7.09121 56.0265 8.00528C56.9271 8.91934 57.5117 10.0867 57.6976 11.3429C58.4846 15.505 56.696 19.947 53.4884 21.8007ZM54.8359 13.9544C54.8347 12.9859 54.4843 12.0487 53.8462 11.3079C53.5051 10.8497 53.0121 10.5214 52.451 10.3789C51.8899 10.2365 51.2958 10.2887 50.7697 10.5268C48.6712 11.4128 47.1926 14.6306 47.7291 16.9974C47.7701 17.3688 47.8935 17.727 48.0908 18.0469C48.2881 18.3668 48.5546 18.6407 48.8714 18.8495C49.1882 19.0582 49.5479 19.1968 49.9252 19.2555C50.3026 19.3141 50.6885 19.2915 51.0559 19.1892C52.1652 18.8103 53.1257 18.1022 53.8033 17.1637C54.481 16.2252 54.842 15.1032 54.8359 13.9544Z" fill="#EAEAEA"/>
<path d="M61.6166 22.7801C61.5582 23.2068 61.3287 23.5933 60.9787 23.8546C60.6287 24.1158 60.187 24.2305 59.7505 24.1733C59.3141 24.1161 58.9188 23.8917 58.6516 23.5495C58.3843 23.2074 58.2672 22.7754 58.3256 22.3487C58.3841 21.922 58.6136 21.5355 58.9635 21.2742C59.3135 21.0129 59.7553 20.8983 60.1917 20.9555C60.6282 21.0127 61.0234 21.237 61.2907 21.5792C61.5579 21.9214 61.6753 22.3534 61.6166 22.7801ZM60.5792 7.05247C60.806 6.71382 61.1387 6.45593 61.5277 6.31726C61.9166 6.17859 62.341 6.16657 62.7375 6.283C63.1406 6.38161 63.4967 6.61262 63.7464 6.93735C63.996 7.26209 64.1239 7.66082 64.1088 8.06678C64.0562 8.71795 63.9566 9.36468 63.8107 10.0021C63.4172 12.159 63.0356 14.3158 62.6183 16.4494C62.4275 17.3005 62.1771 18.1166 61.9028 18.9793C61.8074 19.249 61.648 19.4927 61.4378 19.6905C61.3071 19.8393 61.1403 19.9534 60.9524 20.0223C60.7646 20.0913 60.5621 20.1128 60.3636 20.0849C60.1651 20.057 59.9769 19.9806 59.8166 19.8628C59.6563 19.7449 59.529 19.5894 59.4465 19.4107C59.3047 19.0901 59.2277 18.7456 59.2199 18.3964C59.2199 16.9507 59.2199 15.4934 59.3153 14.036C59.4775 11.9562 59.7962 9.89088 60.2692 7.85692C60.3249 7.58442 60.4298 7.32383 60.5792 7.08745V7.05247Z" fill="#EAEAEA"/>
<path fill-rule="evenodd" clip-rule="evenodd" d="M7.08986 32.1488C6.94907 32.4561 6.91046 32.7987 6.97926 33.1284C7.02503 33.563 7.12556 33.9905 7.27856 34.4011C7.46958 34.9039 7.68333 35.4011 7.94689 36.0139C8.0075 36.1549 8.07084 36.3021 8.13712 36.457C8.49254 37.2872 8.9385 38.3482 9.53335 39.8837C9.70172 40.3199 9.85123 40.7597 10.0018 41.2025C10.0626 41.3814 10.1236 41.5609 10.1861 41.7408C10.4101 42.3804 10.7954 42.955 11.3062 43.4104C11.5231 43.6607 11.8108 43.8431 12.1334 43.9343C12.4623 44.0273 12.8121 44.0214 13.1375 43.9174C13.4629 43.8133 13.7487 43.6159 13.9578 43.3508C14.1628 43.0909 14.2847 42.7777 14.3084 42.4505C14.4414 41.8131 14.396 41.1522 14.1768 40.5377C13.8289 39.5174 13.4326 38.4956 12.9756 37.4962L12.9735 37.4918C12.2217 35.9282 11.4575 34.3754 10.6572 32.822L10.6512 32.8111C10.4169 32.4064 10.1124 32.0446 9.75141 31.742C9.51705 31.4719 9.19378 31.2897 8.83678 31.2269C8.47217 31.1628 8.09613 31.2274 7.77579 31.4093C7.47275 31.5785 7.23253 31.8374 7.08986 32.1488Z" fill="#EAEAEA"/>
<path fill-rule="evenodd" clip-rule="evenodd" d="M18.5724 28.2986C17.3936 28.0001 16.1625 27.9566 14.9649 28.1712C14.0373 28.2605 13.125 28.4697 12.4915 28.8841C12.1693 29.095 11.9088 29.3658 11.7639 29.71C11.6182 30.0561 11.5996 30.4519 11.719 30.8929C11.937 31.7007 12.2201 32.4861 12.5022 33.269L12.5479 33.3958L12.549 33.3986C13.3984 35.673 14.2559 37.9397 15.1212 40.1986C15.2221 40.5546 15.3648 40.898 15.5464 41.2219L15.5498 41.2279C15.7897 41.6303 16.0974 41.9902 16.4599 42.2925C16.6412 42.4587 16.8654 42.5737 17.1085 42.6251C17.354 42.6769 17.6093 42.6619 17.8466 42.5815C18.084 42.5012 18.2942 42.3587 18.4544 42.1695C18.612 41.9834 18.7152 41.7592 18.7531 41.5206C18.9095 40.8724 18.8594 40.1929 18.6094 39.5733C18.5314 39.3648 18.4702 39.1517 18.4057 38.9274C18.3842 38.8526 18.3624 38.7765 18.3394 38.699C20.3201 37.942 22.4276 36.9241 23.1687 34.5561C23.4589 33.7378 23.4831 32.8517 23.2379 32.0193C22.9925 31.186 22.489 30.4474 21.7968 29.9052C20.8547 29.1462 19.7542 28.5978 18.5724 28.2986ZM15.3049 31.2031C15.3439 31.1921 15.3832 31.1819 15.4226 31.1724C16.7121 30.9742 18.0314 31.2383 19.1376 31.9159C19.6251 32.2474 19.8248 32.6157 19.8591 32.9701C19.8945 33.335 19.7588 33.7304 19.4862 34.1105C18.9711 34.8285 18.0311 35.4032 17.182 35.5103C16.563 34.1165 15.9344 32.6663 15.3049 31.2031Z" fill="#EAEAEA"/>
<path d="M26.4313 25.7473C27.8351 25.1134 29.574 25.0039 30.9347 25.4496C31.2774 25.5472 31.5747 25.7583 31.7758 26.0468C31.9756 26.3335 32.0678 26.679 32.037 27.0244C32.035 27.2486 31.9787 27.4692 31.8728 27.6682C31.765 27.8708 31.6089 28.045 31.4177 28.1762C31.2265 28.3073 31.0058 28.3916 30.7743 28.4217C30.5427 28.4519 30.3072 28.4271 30.0875 28.3494L30.0708 28.3435L30.0551 28.3354C29.9427 28.2779 29.8233 28.2346 29.6998 28.2064L29.692 28.2047C28.7348 27.9561 27.8319 28.368 27.5021 28.8741C27.3448 29.1154 27.3253 29.359 27.4563 29.5806C27.5966 29.8179 27.9407 30.0842 28.637 30.274C28.8285 30.3254 29.0248 30.375 29.2239 30.4254C29.7745 30.5648 30.3467 30.7096 30.9 30.9103L30.9021 30.9111C33.4547 31.8607 34.4053 33.8274 34.0798 35.6772C33.7579 37.5065 32.1954 39.1713 29.8457 39.564C28.9907 39.7493 28.1009 39.7132 27.2644 39.4593C26.4258 39.2046 25.6699 38.7399 25.0718 38.1111L25.0562 38.0947C24.8674 37.8578 24.7404 37.5795 24.6841 37.2842C24.6323 37.0177 24.6596 36.7423 24.7626 36.4904C24.865 36.24 25.0382 36.0233 25.2617 35.8654C25.4978 35.6864 25.7824 35.579 26.0803 35.5566C26.3772 35.5343 26.6743 35.5974 26.935 35.738C27.1954 35.861 27.4376 36.0179 27.655 36.2045L27.6591 36.2079C28.0437 36.5518 28.509 36.6414 28.9552 36.5584C29.4079 36.4742 29.8336 36.2123 30.1074 35.8648C30.3794 35.5195 30.4886 35.1093 30.359 34.7111C30.2286 34.31 29.8365 33.8606 28.975 33.4849C28.7498 33.3914 28.5163 33.316 28.2734 33.2426C28.2079 33.2228 28.1413 33.2031 28.0739 33.1831C27.8943 33.1298 27.7095 33.0749 27.5283 33.0144C27.4035 32.9728 27.2797 32.9334 27.1571 32.8943C26.822 32.7876 26.4953 32.6836 26.1809 32.5441C25.4966 32.3163 24.9054 31.8789 24.4953 31.2966C24.0835 30.712 23.8763 30.0129 23.9045 29.3037C23.9067 27.5754 25.02 26.3847 26.4313 25.7473Z" fill="#EAEAEA"/>
<path d="M44.2286 25.5632C43.9564 25.4332 43.6554 25.3715 43.3528 25.3836C43.0501 25.3958 42.7553 25.4814 42.495 25.6329C42.2363 25.7833 42.0197 25.9939 41.8645 26.246C41.7222 26.4583 41.6237 26.6957 41.5746 26.945C41.5256 27.1941 41.5267 27.4501 41.578 27.6986C41.6287 28.018 41.6849 28.3286 41.7404 28.6349C41.8323 29.1418 41.9217 29.6373 41.9807 30.1425L41.9829 30.1553C42.1172 30.9476 42.1875 31.7489 42.1938 32.5519L42.1944 32.5633C42.2403 33.4305 41.9381 34.2808 41.3526 34.9338L41.3433 34.9454C41.1529 35.1841 40.8981 35.3663 40.6076 35.4716C40.3172 35.5769 40.0026 35.6011 39.6989 35.5415C39.3952 35.4819 39.1145 35.3409 38.8881 35.1342C38.6618 34.9275 38.4984 34.6625 38.4169 34.3704C38.2429 33.7547 38.1423 33.1214 38.1166 32.4832L38.4138 27.8569C38.4182 27.7965 38.4232 27.7345 38.4283 27.6719C38.4396 27.5314 38.4512 27.3883 38.456 27.2548C38.463 27.0584 38.457 26.8564 38.4102 26.6652C38.3623 26.4698 38.2712 26.2839 38.1096 26.1256C37.9496 25.9689 37.7337 25.8533 37.4618 25.7746C36.9703 25.6355 36.5547 25.6399 36.2084 25.7836C35.8619 25.9273 35.6245 26.1941 35.4565 26.5023C35.2898 26.8079 35.1828 27.1697 35.1017 27.5321C35.0416 27.801 34.9933 28.0833 34.9474 28.352C34.9315 28.4446 34.916 28.5355 34.9003 28.6238L34.8999 28.6264C34.6543 30.1 34.5812 31.5962 34.682 33.086C34.7008 33.8911 34.8725 34.6858 35.1885 35.4295C35.545 36.3891 36.1907 37.2205 37.0404 37.814C37.8919 38.4087 38.908 38.7364 39.9542 38.7537C41.0004 38.771 42.0273 38.4771 42.8989 37.911C43.7691 37.3457 44.4435 36.5355 44.8329 35.5876C45.3776 34.3801 45.6334 33.0669 45.5806 31.7481C45.5486 30.7853 45.495 29.8151 45.4417 28.8498C45.4156 28.3763 45.3894 27.9038 45.366 27.4342C45.3542 26.9633 45.1954 26.5072 44.9108 26.1271C44.7347 25.8868 44.5004 25.693 44.2286 25.5632Z" fill="#EAEAEA"/>
<path d="M53.8628 32.8173C53.8352 32.8516 53.8061 32.8871 53.7757 32.924C53.5543 31.6752 53.3491 30.4268 53.1436 29.1765C53.0699 28.7279 52.9958 28.2774 52.9213 27.8282L52.9129 27.7781L52.8857 27.7348C52.8344 27.6533 52.8293 27.5734 52.8293 27.403V27.3833L52.8262 27.3638C52.7706 27.0119 52.6078 26.6844 52.3591 26.4242C52.1111 26.1647 51.7891 25.9841 51.4347 25.9057C51.0811 25.8204 50.7093 25.8392 50.3664 25.9598C50.0244 26.0801 49.7263 26.2963 49.5093 26.5813C49.3289 26.8 49.181 27.0426 49.0702 27.3018C48.8187 27.8602 48.565 28.42 48.3106 28.9813L48.3062 28.991C47.6711 30.3923 47.0317 31.803 46.4109 33.2248L46.409 33.2294C46.0279 34.1513 45.7133 35.1227 45.3998 36.0911C45.3372 36.2844 45.2746 36.4776 45.2115 36.6703C45.0983 36.9759 45.0489 37.3005 45.0658 37.625C45.0452 37.9155 45.1163 38.2053 45.2697 38.4552C45.4261 38.7102 45.6604 38.9108 45.9395 39.0289C46.2353 39.1557 46.566 39.1826 46.8793 39.1054C47.1919 39.0283 47.4696 38.8519 47.6684 38.6039C47.9225 38.2984 48.1409 37.9652 48.3191 37.6122C48.8451 36.5604 49.3476 35.4958 49.8479 34.4358C50.0415 34.0258 50.2296 33.6586 50.4436 33.2587C50.4584 33.308 50.4734 33.3561 50.4888 33.4043C50.7132 34.3698 51.0917 35.2946 51.6106 36.1448C51.7089 36.3249 51.8456 36.4823 52.0116 36.6062C52.1796 36.7316 52.3736 36.8196 52.5798 36.8643C52.7861 36.909 52.9999 36.9092 53.2063 36.8649C53.4124 36.8207 53.6069 36.7326 53.775 36.6078L54.1077 36.3643L56.69 34.2376L56.5373 35.1891C56.3278 36.497 56.1197 37.794 55.8987 39.0913C55.7541 39.6663 55.7543 40.2669 55.8993 40.8417C55.9622 41.1652 56.1221 41.463 56.3589 41.6972C56.5977 41.9333 56.9035 42.0937 57.2367 42.1577C57.5699 42.2216 57.9151 42.1862 58.2274 42.0559C58.5352 41.9276 58.7971 41.713 58.98 41.4395C59.4058 40.923 59.6708 40.2977 59.7436 39.638C59.8532 38.7064 59.977 37.7621 60.1009 36.8181C60.2436 35.73 60.3863 34.6422 60.5068 33.5753L60.5072 33.572C60.6232 32.4041 60.6793 31.2314 60.6754 30.058C60.7008 29.6872 60.6064 29.3178 60.4052 29.0021C60.2033 28.6853 59.9044 28.439 59.5509 28.2981C59.1833 28.1347 58.7719 28.091 58.3769 28.1736C57.9846 28.2556 57.6295 28.4578 57.3631 28.7507C56.8868 29.1814 56.44 29.6423 56.0255 30.1304L56.0227 30.1337C55.5702 30.685 55.1208 31.2471 54.6743 31.8056C54.4028 32.1451 54.1321 32.4838 53.8628 32.8173Z" fill="#EAEAEA"/>
</svg>
