<svg width="178" height="44" viewBox="0 0 178 44" fill="none" xmlns="http://www.w3.org/2000/svg">
<path d="M84.6331 16.6104C85.6929 16.6209 86.5176 16.5032 87.1942 17.2638C87.928 18.0886 87.859 18.8317 87.4624 19.7781C87.0033 20.8734 86.198 20.8494 85.4316 20.463C83.6941 19.5868 82.3784 20.7518 80.9463 21.2492C80.4508 21.4213 79.6957 22.1797 79.781 22.4047C79.9942 22.9662 80.5044 23.4536 81.2315 23.6761C83.2087 24.2811 85.1308 25.0687 87.1214 25.6206C88.6583 26.0467 89.8377 26.772 89.783 28.4232C89.7287 30.062 89.0155 31.2164 87.1403 31.8289C82.9842 33.1864 78.7948 32.665 74.9377 30.4711C74.3862 30.1574 74.4615 31.1001 74.1305 31.2802C69.8578 33.6045 66.6384 32.0821 66.1713 26.2639C64.9056 28.3279 63.034 29.5695 61.4824 31.1269C60.4874 32.1255 59.1337 32.6924 57.8027 32.0362C56.5631 31.4251 55.9202 30.3303 55.9952 28.7503C56.1436 25.6231 56.0742 22.4838 56.0257 19.3505C56.0017 17.8019 56.8938 17.4587 58.1596 17.6423C59.4391 17.8279 59.395 18.5796 59.3297 19.7629C59.1799 22.4791 58.2727 25.2224 59.273 27.9527C62.0713 26.5691 63.9601 24.0953 66.3472 22.2234C67.0326 21.686 67.2299 20.508 67.574 19.5956C67.9778 18.5253 68.6193 17.8634 69.8481 18.1621C71.1124 18.4695 70.8277 19.5205 70.8931 20.4141C70.9662 21.4119 70.3793 22.1551 69.9254 22.9267C69.0518 24.4114 69.2957 26.016 69.4089 27.5619C69.4947 28.7332 71.4206 29.6144 71.9082 29.2115C73.1381 28.1954 73.7801 30.1098 74.9377 30.4711C75.2294 30.5622 75.9932 30.7085 76.2934 30.5045C77.0016 30.0232 77.7842 28.3847 78.4073 28.6698C80.6025 29.6744 82.7713 29.1442 84.9855 28.7761C83.3703 27.3044 81.2299 27.2985 79.4083 26.4618C77.2241 25.4585 76.8698 23.6107 76.6488 21.9366C76.4178 20.1864 77.7262 18.5539 79.3648 17.8072C80.9088 17.1036 82.537 16.2007 84.6331 16.6104Z" fill="#5BACD6"/>
<path d="M32.9424 29.8626C29.7736 27.911 26.3023 26.7791 23.3546 24.5912C22.1762 23.7166 21.1365 22.6345 19.7306 21.6494C19.5196 24.4868 19.2922 27.0295 19.164 29.577C19.1252 30.348 18.9447 31.0231 18.6447 31.7213C18.281 32.5679 17.6698 32.813 16.8208 32.7215C15.715 32.6024 16.1188 31.7429 16.0828 31.1651C15.7604 25.9788 16.4762 20.8227 16.5754 15.648C16.5897 14.9 16.8069 14.2944 17.5918 14.1382C18.4779 13.9619 19.1832 14.137 19.6623 15.0963C22.1741 20.1262 26.6659 22.9083 31.5805 25.2486C33.0756 25.9606 33.5315 25.7365 33.4897 24.1165C33.4263 21.6561 33.4934 19.1926 33.4669 16.7309C33.4559 15.7055 33.5648 14.7004 34.4938 14.1204C35.6769 13.3818 36.6357 13.5162 37.0644 15.0651C37.6975 17.3531 37.4052 19.646 37.0081 21.8918C36.4284 25.1698 35.5405 28.3982 36.0224 31.776C36.1512 32.6785 35.4883 33.3477 34.8188 33.4759C34.2262 33.5893 33.5286 33.1933 33.3843 32.2095C33.2819 31.5117 32.8945 30.8284 32.9424 29.8626Z" fill="#5BACD6"/>
<path d="M98.4964 31.9264C98.2859 27.6983 98.6412 23.716 99.0125 19.738C99.14 18.3721 98.5647 17.8431 97.2972 18.1497C95.806 18.5105 94.3596 17.9118 92.8849 18.1133C91.1018 18.357 90.7571 17.3617 90.7804 15.8437C90.8111 13.8428 92.2612 14.7167 93.1569 14.6326C95.2033 14.4404 97.4672 15.7884 99.2489 13.7482C99.3306 13.6546 99.5916 13.6107 99.7108 13.6658C103.929 15.6171 108.401 14.1045 112.72 14.6186C113.468 14.7077 114.913 13.9448 114.769 15.5186C114.67 16.6013 114.126 17.657 112.499 17.6556C109.474 17.6531 106.433 17.3285 103.416 18.0726C102.41 18.3209 102.384 18.2861 102.377 19.4775C102.351 23.6348 101.766 27.7868 101.485 31.9469C101.444 32.5593 101.234 32.9435 100.788 33.1017C99.7868 33.4565 99.0405 32.9963 98.4964 31.9264Z" fill="#5BACD6"/>
<path d="M135.402 28.4229C136.375 27.8867 137.422 27.7686 137.838 26.853C138.301 25.8329 139.073 26.118 139.743 26.3583C140.513 26.6348 140.541 27.3833 140.44 28.0731C140.088 30.476 134.569 33.297 132.438 32.056C131.118 31.2866 130.82 29.8336 130.73 28.3745C130.394 22.9367 131.57 17.5473 131.251 12.111C131.174 10.8039 132.242 10.1907 133.125 10.3316C134.566 10.5612 134.92 11.8268 134.796 13.2086C134.382 17.8327 133.768 22.4432 133.802 27.0992C133.809 28.0673 133.694 29.0919 135.402 28.4229Z" fill="#5BACD6"/>
<path fill-rule="evenodd" clip-rule="evenodd" d="M146.248 25.317C146.632 25.8707 146.862 26.203 147.128 26.717C148.019 27.4138 148.658 28.0741 149.297 28.8854C150.995 31.0423 152.974 32.9532 155.79 33.7811C158.706 34.6383 161.578 32.9009 161.945 29.9105C162.047 29.0773 162.118 28.1014 161.1 27.7706C160.076 27.438 159.591 28.1533 159.263 29.0235C158.887 30.02 158.075 30.8412 157.049 30.6516C155.288 30.3261 153.604 29.1659 152.947 27.7419C152.633 27.0607 153.392 26.7728 154.202 26.4655C154.671 26.2876 155.158 26.1032 155.463 25.832C155.557 25.7479 155.691 25.7088 155.826 25.6693C155.939 25.6361 156.053 25.6027 156.146 25.542C158.316 24.1309 159.831 21.239 159.333 19.4813C158.796 17.5821 155.954 15.8794 153.207 16.0598C150.228 16.2555 147.897 17.6205 145.767 19.4725C144.979 17.6215 145.022 15.7561 145.065 13.8705C145.094 12.5902 145.123 11.3007 144.893 10C144.537 10.2343 144.1 10.3296 143.675 10.4223C142.79 10.6154 141.956 10.7974 142 12.1983C142.01 12.5245 142.016 12.8557 142.021 13.1874C142.034 14.0546 142.048 14.9257 142.151 15.723C142.657 19.6269 142.696 23.4599 142.075 27.3514L142.07 27.3795C141.859 28.7025 141.624 30.1693 142.421 31.5099C142.484 31.616 142.542 31.7299 142.6 31.8434C142.86 32.3523 143.114 32.8516 143.797 32.5989C143.845 32.5811 143.895 32.5636 143.946 32.5457C144.434 32.3745 145.013 32.1715 145.112 31.3231C145.273 29.951 145.562 28.5933 145.865 27.1673C145.993 26.5648 146.123 25.9501 146.248 25.317ZM151.831 20.0081C151.291 20.1667 150.739 20.3288 150.162 20.4139C148.998 20.8458 148.346 21.6235 147.648 22.4574C147.479 22.6591 147.308 22.864 147.125 23.0682C147.37 23.0877 147.595 23.0913 147.803 23.0946C148.205 23.1009 148.543 23.1062 148.833 23.2248C151.625 24.3678 153.404 23.893 155.562 21.7122C156.77 20.4916 156.074 20.0705 154.99 19.7318C153.915 19.3958 152.897 19.695 151.831 20.0081Z" fill="#5BACD6"/>
<path fill-rule="evenodd" clip-rule="evenodd" d="M122.553 28.222C122.622 29.7362 122.697 31.374 124.145 32.7135C126.787 32.031 127.373 31.0053 126.117 29.0332C125.485 28.0406 125.563 27.0974 125.658 26.1619C125.679 25.9499 125.7 25.7374 125.721 25.5248C125.935 23.3649 126.152 21.1817 126.743 19.1135C127.235 17.3939 126.337 16.8702 125.174 16.6722C124.362 16.5338 123.598 16.297 122.834 16.0599C122.5 15.9562 122.165 15.8526 121.827 15.757C118.847 14.9164 116.183 15.742 115.309 17.957C113.862 21.6235 112.56 25.326 112.762 29.3988C112.84 30.9812 113.44 31.8135 114.788 32.4634C116.066 33.0791 116.873 32.3817 117.644 31.7144C117.724 31.6456 117.803 31.5771 117.882 31.5105C119.035 30.5416 120.139 29.5166 121.209 28.5226C121.645 28.1176 122.076 27.7177 122.502 27.3288C122.526 27.6193 122.54 27.9182 122.553 28.222ZM117.708 20.8788C117.621 21.0142 117.533 21.1524 117.441 21.2908C117.406 22.262 117.029 23.1367 116.655 24.0035C116.101 25.2878 115.554 26.5549 116.138 28.0935C118.086 26.5295 119.591 24.711 121.08 22.9125C121.311 22.6339 121.541 22.3557 121.773 22.079C121.796 22.0511 121.82 22.0223 121.845 21.9928C122.345 21.4003 123.101 20.5042 122.234 19.6583C121.282 18.7295 120.016 18.9064 118.963 19.4481C118.452 19.7104 118.098 20.2665 117.708 20.8788Z" fill="#5BACD6"/>
<path fill-rule="evenodd" clip-rule="evenodd" d="M49.5168 31.2975C54.357 27.5487 54.5629 20.4536 49.5863 17.709C49.3878 17.6472 49.1921 17.5829 48.999 17.5195C47.4285 17.0036 46.0236 16.5421 44.616 17.8915C41.685 20.7012 41.0013 24.4079 40.3288 28.0533C40.2854 28.2887 40.242 28.5238 40.1981 28.7583C39.7004 31.4162 42.3251 34.0608 44.6041 33.5286C46.3638 33.1177 48.0516 32.4324 49.5168 31.2975ZM46.4186 21.6334C45.2724 23.1765 44.3641 24.7657 43.7112 26.74C43.6561 27.0819 43.5346 27.4145 43.4173 27.7356C43.1259 28.5334 42.8606 29.2599 43.7059 29.8808C44.4668 30.4398 45.2323 29.9962 45.9178 29.5989C46.0836 29.5028 46.2447 29.4094 46.3999 29.3336C50.3541 27.4021 51.521 24.2011 48.8868 21.4396C47.9448 20.4522 47.3958 20.3179 46.4186 21.6334Z" fill="#5BACD6"/>
</svg>
