<svg width="214" height="43" viewBox="0 0 214 43" fill="none" xmlns="http://www.w3.org/2000/svg">
<path d="M209.198 34.3637V29.1821H213.508V30.3779H210.369V31.1916H212.022V32.3874H210.369V33.1679H213.508V34.3637H209.198Z" fill="#DEDEDE"/>
<path d="M203.713 34.3637V31.1916H207.126C207.198 31.1916 207.234 31.1584 207.234 31.092V30.4775C207.234 30.4554 207.223 30.4332 207.2 30.4111C207.178 30.3889 207.153 30.3779 207.126 30.3779H203.713V29.1821H207.823C207.879 29.1821 207.939 29.207 208.006 29.2569C208.078 29.3011 208.142 29.3593 208.197 29.4312C208.258 29.5032 208.308 29.5835 208.346 29.672C208.385 29.7551 208.404 29.8354 208.404 29.9129V31.2248C208.404 31.4131 208.399 31.5376 208.388 31.5985C208.377 31.6594 208.363 31.7065 208.346 31.7397L208.338 31.748C208.344 31.7646 208.357 31.7895 208.38 31.8227C208.407 31.8559 208.435 31.8947 208.463 31.939C208.49 31.9777 208.515 32.0192 208.537 32.0635C208.559 32.1023 208.571 32.1383 208.571 32.1715V33.6329C208.571 33.7104 208.551 33.7935 208.512 33.882C208.479 33.9651 208.432 34.0426 208.371 34.1145C208.316 34.1865 208.255 34.2474 208.189 34.2972C208.122 34.3415 208.056 34.3637 207.989 34.3637H203.713ZM204.892 32.3874V33.1679H207.283C207.355 33.1679 207.391 33.1347 207.391 33.0683V32.487C207.391 32.4649 207.38 32.4427 207.358 32.4206C207.336 32.3984 207.311 32.3874 207.283 32.3874H204.892Z" fill="#DEDEDE"/>
<path d="M199.964 29.1821C200.031 29.1821 200.097 29.207 200.164 29.2569C200.23 29.3011 200.291 29.3593 200.346 29.4312C200.407 29.5032 200.454 29.5835 200.488 29.672C200.526 29.7551 200.546 29.8354 200.546 29.9129V33.3755C200.546 33.5527 200.523 33.7049 200.479 33.8322C200.44 33.9595 200.385 34.062 200.313 34.1395C200.247 34.217 200.166 34.2751 200.072 34.3138C199.984 34.3471 199.892 34.3637 199.798 34.3637H195.713V31.3411H196.892V33.1513H199.275C199.342 33.1513 199.375 33.1181 199.375 33.0517V30.4692C199.375 30.4471 199.364 30.4249 199.342 30.4028C199.325 30.3806 199.303 30.3696 199.275 30.3696H195.713V29.1821H199.964Z" fill="#DEDEDE"/>
<path d="M190.788 34.3637V29.1821H191.959V33.1679H195.098V34.3637H190.788Z" fill="#DEDEDE"/>
<path d="M185.335 29.1821H186.506V33.1679H188.997V29.1821H190.176V33.4336C190.176 33.5831 190.148 33.716 190.093 33.8322C190.038 33.9485 189.966 34.0481 189.877 34.1312C189.789 34.2087 189.692 34.2668 189.586 34.3055C189.481 34.3443 189.376 34.3637 189.271 34.3637H186.24C186.129 34.3637 186.019 34.3471 185.908 34.3138C185.803 34.2751 185.706 34.2197 185.617 34.1478C185.534 34.0703 185.465 33.9734 185.41 33.8571C185.36 33.7409 185.335 33.5997 185.335 33.4336V29.1821Z" fill="#DEDEDE"/>
<path d="M179.868 30.1121C179.868 29.9461 179.893 29.8049 179.943 29.6887C179.998 29.5724 180.067 29.4783 180.15 29.4063C180.239 29.3288 180.336 29.2735 180.441 29.2403C180.552 29.2015 180.663 29.1821 180.773 29.1821H183.804C183.909 29.1821 184.014 29.2015 184.12 29.2403C184.225 29.279 184.322 29.3399 184.41 29.4229C184.499 29.5004 184.571 29.5973 184.626 29.7136C184.682 29.8298 184.709 29.9627 184.709 30.1121V33.4336C184.709 33.5831 184.682 33.716 184.626 33.8322C184.571 33.9485 184.499 34.0481 184.41 34.1312C184.322 34.2087 184.225 34.2668 184.12 34.3055C184.014 34.3443 183.909 34.3637 183.804 34.3637H180.773C180.663 34.3637 180.552 34.3471 180.441 34.3138C180.336 34.2751 180.239 34.2197 180.15 34.1478C180.067 34.0703 179.998 33.9734 179.943 33.8571C179.893 33.7409 179.868 33.5997 179.868 33.4336V30.1121ZM183.53 33.1679V30.3779H181.039V33.1679H183.53Z" fill="#DEDEDE"/>
<path d="M175.581 34.3637H174.402V29.1821H175.581V31.1916H178.081V29.1821H179.252V34.3637H178.081V32.3874H175.581V34.3637Z" fill="#DEDEDE"/>
<path d="M173.782 30.3779H170.228C170.2 30.3779 170.175 30.3889 170.153 30.4111C170.131 30.4332 170.12 30.4554 170.12 30.4775V31.0754C170.12 31.1418 170.156 31.175 170.228 31.175H173.035C173.129 31.175 173.22 31.1916 173.309 31.2248C173.397 31.2581 173.477 31.3134 173.549 31.3909C173.621 31.4684 173.677 31.5681 173.716 31.6899C173.76 31.8116 173.782 31.9639 173.782 32.1466V33.6329C173.782 33.7104 173.763 33.7935 173.724 33.882C173.691 33.9651 173.644 34.0426 173.583 34.1145C173.527 34.1865 173.466 34.2474 173.4 34.2972C173.334 34.3415 173.267 34.3637 173.201 34.3637H168.949V33.1679H172.503C172.57 33.1679 172.603 33.1347 172.603 33.0683V32.4704C172.603 32.4483 172.592 32.4261 172.57 32.404C172.553 32.3818 172.531 32.3708 172.503 32.3708H169.647C169.464 32.3597 169.301 32.2822 169.157 32.1383C169.018 31.9888 168.949 31.7424 168.949 31.3992V29.9212C168.949 29.8437 168.969 29.7634 169.007 29.6804C169.046 29.5918 169.093 29.5115 169.149 29.4395C169.209 29.362 169.276 29.3011 169.348 29.2569C169.42 29.207 169.486 29.1821 169.547 29.1821H173.782V30.3779Z" fill="#DEDEDE"/>
<path d="M163.023 34.3637V30.3779H161.471V29.1821H165.78V30.3779H164.194V34.3637H163.023Z" fill="#DEDEDE"/>
<path d="M157.882 34.3637V33.1679H158.787V30.3779H157.882V29.1821H160.863V30.3779H159.958V33.1679H160.863V34.3637H157.882Z" fill="#DEDEDE"/>
<path d="M151.505 32.105L149.312 29.1821H150.849L152.103 30.8429L153.331 29.1821H154.876L152.675 32.105V34.3637H151.505V32.105Z" fill="#DEDEDE"/>
<path d="M150.533 34.3637H149.288L148.964 33.6661H146.531L146.224 34.3637H144.97L147.162 29.1821H148.333L150.533 34.3637ZM148.49 32.4621L147.751 30.7598L147.021 32.4621H148.49Z" fill="#DEDEDE"/>
<path d="M142.785 34.3637L142.27 33.1762L141.763 34.3637H140.593L138.4 29.1821H139.663L141.182 32.7444L141.597 31.7563L140.609 29.1821H141.905L143.366 32.7776L144.894 29.1821H146.156L143.956 34.3637H142.785Z" fill="#DEDEDE"/>
<path d="M131.099 34.3637V29.1821H135.408V30.3779H132.269V31.1916H133.922V32.3874H132.269V33.1679H135.408V34.3637H131.099Z" fill="#DEDEDE"/>
<path d="M126.807 34.3637H125.628V29.1821H126.807V31.1916H129.306V29.1821H130.477V34.3637H129.306V32.3874H126.807V34.3637Z" fill="#DEDEDE"/>
<path d="M122.256 34.3637V30.3779H120.703V29.1821H125.013V30.3779H123.427V34.3637H122.256Z" fill="#DEDEDE"/>
<path d="M116.355 35.5311V33.1646H117.535V34.3603L116.962 35.5311H116.355Z" fill="#DEDEDE"/>
<path d="M114.288 34.3637V30.3779H112.735V29.1821H117.045V30.3779H115.459V34.3637H114.288Z" fill="#DEDEDE"/>
<path d="M110.863 34.3637L108.455 31.2165V34.3637H107.275V29.1821H108.554L110.946 32.3542V29.1821H112.116V34.3637H110.863Z" fill="#DEDEDE"/>
<path d="M102.359 34.3637V29.1821H106.669V30.3779H103.53V31.1916H105.183V32.3874H103.53V33.1679H106.669V34.3637H102.359Z" fill="#DEDEDE"/>
<path d="M99.2652 34.3637H98.6425L97.3388 31.8891V34.3637H96.168V29.1821H97.289L98.958 32.3791L100.619 29.1821H101.74V34.3637H100.569V31.8891L99.2652 34.3637Z" fill="#DEDEDE"/>
<path d="M91.251 34.3637V29.1821H95.5606V30.3779H92.4218V31.1916H94.0742V32.3874H92.4218V33.1679H95.5606V34.3637H91.251Z" fill="#DEDEDE"/>
<path d="M88.0174 32.3874V31.1916H90.633V33.4336C90.633 33.5831 90.6054 33.716 90.55 33.8322C90.4947 33.9485 90.4227 34.0481 90.3341 34.1312C90.2455 34.2087 90.1487 34.2668 90.0435 34.3055C89.9383 34.3443 89.8331 34.3637 89.7279 34.3637H86.6971C86.5864 34.3637 86.4757 34.3471 86.3649 34.3138C86.2598 34.2751 86.1629 34.2197 86.0743 34.1478C85.9913 34.0703 85.9221 33.9734 85.8667 33.8571C85.8169 33.7409 85.792 33.5997 85.792 33.4336V30.1121C85.792 29.9461 85.8169 29.8049 85.8667 29.6887C85.9221 29.5724 85.9913 29.4783 86.0743 29.4063C86.1629 29.3288 86.2598 29.2735 86.3649 29.2403C86.4757 29.2015 86.5864 29.1821 86.6971 29.1821H90.633V30.3779H86.9628V33.1679H89.4539V32.3874H88.0174Z" fill="#DEDEDE"/>
<path d="M85.4326 34.3637H84.1871L83.8632 33.6661H81.4302L81.123 34.3637H79.8691L82.0613 29.1821H83.2321L85.4326 34.3637ZM83.3899 32.4621L82.6509 30.7598L81.9202 32.4621H83.3899Z" fill="#DEDEDE"/>
<path d="M78.1663 34.3637L75.7582 31.2165V34.3637H74.5791V29.1821H75.8579L78.2493 32.3542V29.1821H79.4202V34.3637H78.1663Z" fill="#DEDEDE"/>
<path d="M74.127 34.3637H72.8814L72.5576 33.6661H70.1246L69.8173 34.3637H68.5635L70.7557 29.1821H71.9265L74.127 34.3637ZM72.0842 32.4621L71.3452 30.7598L70.6145 32.4621H72.0842Z" fill="#DEDEDE"/>
<path d="M65.6412 34.3637H65.0184L63.7148 31.8891V34.3637H62.5439V29.1821H63.6649L65.334 32.3791L66.9947 29.1821H68.1157V34.3637H66.9449V31.8891L65.6412 34.3637Z" fill="#DEDEDE"/>
<path d="M58.1175 34.3637L55.7094 31.2165V34.3637H54.5303V29.1821H55.809L58.2005 32.3542V29.1821H59.3713V34.3637H58.1175Z" fill="#DEDEDE"/>
<path d="M50.9385 34.3637V33.1679H51.8436V30.3779H50.9385V29.1821H53.9195V30.3779H53.0144V33.1679H53.9195V34.3637H50.9385Z" fill="#DEDEDE"/>
<path d="M50.4873 34.3637H49.2417L48.9179 33.6661H46.4849L46.1777 34.3637H44.9238L47.116 29.1821H48.2868L50.4873 34.3637ZM48.4446 32.4621L47.7056 30.7598L46.9748 32.4621H48.4446Z" fill="#DEDEDE"/>
<path d="M40.2676 31.3411H43.8216C43.8935 31.3411 43.9295 31.3079 43.9295 31.2415V30.4775C43.9295 30.4554 43.9184 30.4332 43.8963 30.4111C43.8741 30.3889 43.8492 30.3779 43.8216 30.3779H40.2676V29.1821H44.5191C44.5855 29.1821 44.6519 29.207 44.7184 29.2569C44.7848 29.3011 44.8457 29.3593 44.901 29.4312C44.9619 29.5032 45.009 29.5835 45.0422 29.672C45.081 29.7551 45.1003 29.8354 45.1003 29.9129V31.557C45.1003 31.7341 45.0782 31.8864 45.0339 32.0137C44.9951 32.141 44.9398 32.2434 44.8678 32.3209C44.7959 32.3984 44.7156 32.4566 44.627 32.4953C44.5384 32.5285 44.4471 32.5451 44.353 32.5451H41.4467V34.3637H40.2676V31.3411Z" fill="#DEDEDE"/>
<path d="M58.7728 16.9106H51.7431C51.1974 16.9106 50.748 17.3671 50.748 17.9276V23.9814C50.748 24.5899 51.2295 25.0784 51.8154 25.0784H58.6043C59.3586 25.0784 59.9685 24.4538 59.9685 23.6771V18.1438C59.9685 17.4632 59.4308 16.9187 58.7728 16.9187V16.9106ZM57.545 22.2437C57.545 22.7802 57.1197 23.2126 56.5981 23.2126H53.7814C53.3401 23.2126 52.987 22.8443 52.987 22.3959V19.425C52.987 18.9286 53.3721 18.5362 53.8536 18.5362H56.9752C57.2802 18.5362 57.537 18.7924 57.537 19.1127V22.2437H57.545Z" fill="#DEDEDE"/>
<path d="M61.0293 16.9204V18.7061H67.7701V20.3156H61.1497V25.0561H63.2762V22.1574H64.809L67.7059 25.0721H71.0121L68.059 22.1574H68.7009C69.5275 22.1574 70.1936 21.4847 70.1936 20.652V18.4338C70.1936 17.6251 69.5516 16.9765 68.7491 16.9685L61.0293 16.9204Z" fill="#DEDEDE"/>
<path d="M203.523 16.9204V18.7061H210.264V20.3156H203.644V25.0561H205.77V22.1574H207.303L210.2 25.0721H213.506L210.553 22.1574H211.195C212.022 22.1574 212.688 21.4847 212.688 20.652V18.4338C212.688 17.6251 212.046 16.9765 211.243 16.9685L203.523 16.9204Z" fill="#DEDEDE"/>
<path d="M71.4883 16.9106V25.0464H80.0587V23.3328H73.9117V21.7713H77.0093V20.2979H73.9117V18.5922H79.8821V16.9347L71.4883 16.9106Z" fill="#DEDEDE"/>
<path d="M95.7959 16.9146V25.0503H104.366V23.3367H98.2194V21.7752H101.325V20.3018H98.2194V18.5962H104.19V16.9386L95.7959 16.9146Z" fill="#DEDEDE"/>
<path d="M164.828 16.9146V25.0503H173.399V23.3367H167.252V21.7752H170.349V20.3018H167.252V18.5962H173.222V16.9386L164.828 16.9146Z" fill="#DEDEDE"/>
<path d="M194.257 16.9146V25.0503H202.827V23.3367H196.68V21.7752H199.786V20.3018H196.68V18.5962H202.651V16.9386L194.257 16.9146Z" fill="#DEDEDE"/>
<path d="M83.8965 16.9146L83.9206 25.1624H86.1354L86.0873 21.0385L88.1897 25.0823L90.22 25.1063L92.4108 21.2467V25.0583H94.5373V16.9226H91.7607L89.3935 21.8632L86.9138 16.9146H83.8965Z" fill="#DEDEDE"/>
<path d="M105.034 16.9204V18.6501H112.385V23.2464H107.377V20.2035H105.01V25.0401H113.436C114.046 25.0401 114.543 24.5437 114.543 23.9351V17.9694C114.543 17.4089 114.094 16.9605 113.532 16.9524L105.026 16.9204H105.034Z" fill="#DEDEDE"/>
<path d="M118.085 16.9204H115.445V25.0561H118.085V16.9204Z" fill="#DEDEDE"/>
<path d="M41.6238 16.9052C40.8694 16.9052 40.2676 17.5137 40.2676 18.2585V23.2872C40.2676 24.2642 41.062 25.0569 42.0411 25.0569H47.6102C48.6936 25.0569 49.5683 24.1841 49.5683 23.1031V22.1021H47.3214V23.2792H42.2978V18.6588H47.2812V19.4676H49.6244V18.3786C49.6244 17.5698 48.9664 16.9132 48.1559 16.9052L41.6238 16.8892V16.9052Z" fill="#DEDEDE"/>
<path d="M120.485 16.9052C119.731 16.9052 119.129 17.5137 119.129 18.2585V23.2872C119.129 24.2642 119.923 25.0569 120.902 25.0569H126.472C127.555 25.0569 128.43 24.1841 128.43 23.1031V22.1021H126.183V23.2792H121.159V18.6588H126.143V19.4676H128.486V18.3786C128.486 17.5698 127.828 16.9132 127.017 16.9052L120.485 16.8892V16.9052Z" fill="#DEDEDE"/>
<path d="M155.881 16.9052C155.126 16.9052 154.524 17.5137 154.524 18.2585V23.2872C154.524 24.2642 155.319 25.0569 156.298 25.0569H161.867C162.95 25.0569 163.825 24.1841 163.825 23.1031V22.1021H161.578V23.2792H156.555V18.6588H161.538V19.4676H163.881V18.3786C163.881 17.5698 163.223 16.9132 162.413 16.9052L155.881 16.8892V16.9052Z" fill="#DEDEDE"/>
<path d="M135.713 16.936H133.321L129.036 25.0157H131.869L132.639 23.6784H136.499L137.189 25.0958H140.062L135.705 16.936H135.713ZM133.209 22.149L134.525 19.9309L135.865 22.149H133.209Z" fill="#DEDEDE"/>
<path d="M140.506 16.9204L140.458 25.0561H148.988V23.2464H142.785V16.9364L140.506 16.9204Z" fill="#DEDEDE"/>
<path d="M174.188 25.0558H176.627V20.1631L181.201 25.0558H183.6V16.936H181.322V21.7006L176.884 16.936H174.284L174.188 25.0558Z" fill="#DEDEDE"/>
<path d="M184.721 16.9601V18.7057H187.714V25.1198H189.84V18.6897H193.115V16.936L184.721 16.9601Z" fill="#DEDEDE"/>
<path d="M32.0832 19.9257C31.3737 16.8648 29.7964 14.5779 27.5271 13.3113C26.7589 12.8833 25.8735 12.6312 24.9763 12.5901C23.6042 12.5256 22.5781 12.5784 21.9272 12.7426C21.9096 12.7426 21.8979 12.7543 21.8803 12.7601C21.9506 12.6311 22.021 12.4904 22.0796 12.338C22.2673 11.9041 22.6015 11.347 22.7892 11.2238C22.9182 11.1417 23.0354 11.0245 23.0882 10.8779C23.2348 10.4557 22.9885 10.0511 22.6074 9.95725C22.4549 9.92207 21.5402 9.71098 20.5726 9.85758C21.2646 9.15392 22.1148 8.49131 23.1527 7.95771C23.3521 7.85802 23.4987 7.67623 23.5397 7.45341C23.5984 7.11917 23.4049 6.80253 23.1058 6.69111L20.344 5.65909C20.1446 5.58286 19.9218 5.60631 19.74 5.71773C19.6462 5.77637 17.7522 6.98431 16.3918 10.7782C16.3683 10.2739 16.2921 9.64061 16.0751 8.95454C15.6119 7.46514 14.4157 5.40694 11.3431 4.0524L11.302 4.03481C10.44 3.72403 8.0652 2.63336 7.4026 1.33159C7.31464 1.16154 7.16218 1.02082 6.97453 0.979769C6.51716 0.868356 6.13016 1.19086 6.10084 1.60133C6.09497 1.7362 5.89561 4.90852 6.71067 7.54723C6.79863 7.93424 7.54919 10.8192 10.6804 12.6018C10.27 12.5491 9.86538 12.5315 9.4901 12.5491C9.18518 12.5256 7.8072 12.467 6.22984 13.1061C4.62316 13.757 2.4946 15.2757 1.4743 18.8233C1.35703 19.1752 0.113906 22.9925 1.36289 27.1734C1.45085 27.5604 2.44769 31.6944 4.11301 34.1807C4.57038 34.8609 5.0043 35.5528 5.41477 36.2623C5.49099 36.3972 5.56136 36.5086 5.59654 36.5614C9.71292 42.261 12.8911 42.0792 14.0638 41.7332C14.3746 41.6394 14.662 41.4635 14.8906 41.2172C15.4536 40.6133 16.3331 40.3963 16.468 40.367C17.3476 40.2731 18.3503 41.141 18.6786 41.4342C19.2474 41.9326 19.9921 42.0264 20.473 42.0264C20.6606 42.0264 20.8131 42.0147 20.8951 42.003C22.2028 41.9913 24.1965 40.4549 24.5893 40.1441C24.818 39.9624 26.0494 38.6723 26.1725 38.5257C26.413 38.2384 32.0129 31.4247 32.4703 24.1535C32.4703 24.0773 32.6051 22.1892 32.0832 19.9257Z" fill="#020819"/>
<path d="M20.097 6.3126C20.097 6.3126 17.4758 7.93101 16.2679 13.7596C16.2679 13.7596 10.58 9.34418 10.3338 7.48536C10.3338 7.48536 13.8872 11.59 15.6463 11.8304C15.6463 11.8304 16.5435 7.10422 11.0609 4.6942C11.0609 4.6942 7.71851 3.48625 6.78617 1.65674C6.78617 1.65674 6.58093 4.82906 7.37254 7.37981C7.37254 7.37981 8.06449 10.7574 11.8232 12.4168C11.8232 12.4168 15.4118 13.8065 16.221 13.8828C16.221 13.8828 16.0979 14.6685 16.1448 15.0438C16.1448 15.0438 12.0694 13.1029 9.47766 13.2436C9.47766 13.2436 3.95982 12.6572 2.13032 19.0371C2.13032 19.0371 0.787521 22.8661 2.02478 27.006C2.02478 27.006 3.23272 32.2482 5.19709 34.4882C5.19709 34.4882 5.36713 32.7642 6.47539 33.2803C6.47539 33.2803 7.44291 33.7611 7.9941 33.3506C8.47493 32.9871 10.5155 32.1544 11.7293 31.9668C12.3568 31.8729 12.8728 31.4273 13.0604 30.8175C13.0839 30.7354 13.1073 30.6474 13.1308 30.5536C13.1308 30.5536 13.8579 28.2667 14.4443 27.4282C14.5264 27.3109 14.5791 27.1702 14.5909 27.0236C14.626 26.5779 14.7492 25.6163 15.1127 25.0357C15.1127 25.0357 15.0776 24.2441 14.5967 23.4642C14.1159 22.6902 12.9959 19.6528 12.9959 19.6528C12.9959 19.6528 12.7203 18.8611 13.5999 18.4272C14.4795 17.9933 17.7925 16.6329 17.7925 16.6329C17.7925 16.6329 18.2557 16.4101 19.4109 16.4805L20.1204 15.7709C20.1204 15.7709 19.6044 14.4105 20.226 13.8769C20.226 13.8769 17.9039 14.6744 17.1651 15.0262C17.0771 15.0673 16.9833 14.991 17.0068 14.8972C17.2706 13.8183 18.5665 9.55528 22.8647 7.33876L20.1028 6.30674L20.097 6.3126Z" fill="#DEDEDE"/>
<path d="M19.1792 13.2934C19.1792 13.2934 20.8504 13.6569 21.4367 12.0854C21.4367 12.0854 21.9176 10.9479 22.4394 10.6371C22.4394 10.6371 20.3871 10.1387 19.402 11.1179C19.402 11.1179 18.5576 11.9271 18.5576 13.3931C18.5576 13.3931 19.6424 11.804 20.5044 11.6691C20.5044 11.6691 19.1792 12.7012 19.1792 13.2875V13.2934Z" fill="#DEDEDE"/>
<path d="M6.14941 36.1625C6.14941 36.1625 7.27526 34.6848 12.9807 33.7701C13.3912 33.7056 13.7899 33.559 14.1359 33.3186C14.3294 33.1896 14.5053 33.0312 14.6284 32.8553C14.7398 32.6911 14.8688 32.5387 15.0096 32.3921C15.7426 31.6415 17.6717 29.5657 17.6248 28.5161C17.6248 28.5161 22.5445 31.577 23.5942 31.8761C23.7525 31.923 23.8639 32.0754 23.8463 32.2455C23.8346 32.3393 23.7994 32.4273 23.7466 32.5094C23.6352 32.6853 23.4241 33.1778 23.4241 33.8287C23.4241 34.5207 23.471 35.6817 23.5942 36.4674C23.7056 37.1946 23.3772 37.8982 22.7615 38.3028C22.697 38.3439 22.656 38.4142 22.656 38.4904C22.6501 38.813 22.7674 39.6339 24.1688 39.6046C24.1688 39.6046 21.9816 41.3461 20.8558 41.3109C20.8558 41.3109 19.7886 41.481 19.1318 40.9122C18.4751 40.3434 17.4255 39.5518 16.3583 39.6867C16.3583 39.6867 15.1679 39.9154 14.388 40.748C14.2473 40.9005 14.0714 41.0177 13.872 41.0764C12.8986 41.3578 10.0488 41.5514 6.15528 36.1625H6.14941Z" fill="#DEDEDE"/>
<path d="M25.6484 38.0892C25.6484 38.0892 31.3363 31.2461 31.7878 24.104C31.7878 24.104 32.3214 16.7743 27.1906 13.9127C26.5045 13.5316 25.7305 13.3146 24.9448 13.2794C24.0769 13.2384 22.8338 13.2267 22.095 13.4143L22.74 13.5844C22.869 13.6195 22.9687 13.7251 22.9863 13.86L23.0625 14.4053C23.0625 14.4053 23.5785 14.8744 23.2912 15.15C23.2912 15.15 23.1974 15.2673 23.4202 15.4608C23.5375 15.5604 23.6371 15.666 23.7016 15.754C23.7661 15.8419 23.7251 15.9709 23.6196 16.012L23.5023 16.053C23.5023 16.053 23.5433 16.141 23.5668 16.2348C23.5902 16.3286 23.5374 16.4342 23.4436 16.4693C23.3615 16.4987 23.297 16.5573 23.4436 16.657C23.4436 16.657 23.5609 16.7743 23.4202 16.8505C23.3674 16.8798 23.3263 16.9384 23.3322 16.9971C23.3381 17.1495 23.3205 17.3958 23.1387 17.4017C22.8748 17.4134 22.5875 17.0323 22.1243 17.0909C22.1243 17.0909 21.7314 17.2082 21.6669 17.6538C21.6669 17.6538 22.2181 17.6186 22.4585 18.0467C22.6579 18.3985 23.4495 19.8469 23.7134 20.3336C23.7955 20.486 23.9127 20.6209 24.0535 20.7147C24.2177 20.8203 24.4112 20.8672 24.4405 20.533C24.4405 20.533 24.4053 19.5302 24.2939 19.1784C24.2939 19.1784 24.2118 18.9497 24.5226 18.9615C24.5226 18.9615 24.933 18.3575 25.2849 18.5744C25.3611 18.6214 25.449 18.6507 25.5429 18.6507H25.5956C25.7129 18.6507 25.8243 18.6917 25.9123 18.7621L26.2817 19.0494C26.3755 19.1198 26.4342 19.2312 26.4342 19.3485C26.4342 19.4892 26.3462 19.6593 26.0237 19.8117C26.0237 19.8117 25.7598 19.9935 25.7129 20.6268C25.666 21.2601 25.1734 24.1451 23.0566 22.4915L22.1946 21.6412L22.0774 21.5357C22.0774 21.5357 22.2357 22.0517 21.9718 22.5677C21.708 23.0837 21.2037 23.7639 20.9281 24.4324C20.6525 25.1009 20.4707 25.7107 20.4707 25.7107C20.4707 25.7107 22.0246 26.6665 23.5492 28.367C24.3584 29.2642 24.9448 29.9268 25.3142 30.3431C25.8185 30.9119 26.0941 31.6625 26.0471 32.4248C26.0296 32.7473 25.9709 33.1226 25.8419 33.5272C25.8419 33.5272 25.0034 36.5939 25.2086 37.6905L25.6367 38.0892H25.6484Z" fill="#DEDEDE"/>
<path d="M16.7102 23.7396L17.4021 23.1298C17.4549 23.0829 17.49 23.0125 17.49 22.9363L17.5194 21.3941C17.5194 21.2885 17.5018 21.1889 17.4607 21.095C17.3845 20.9191 17.2672 20.5966 17.2555 20.2976C17.2438 19.9985 17.2731 19.6232 17.2907 19.4121C17.2965 19.33 17.2203 19.2655 17.1382 19.2773C16.6691 19.3711 15.338 19.6877 15.4143 20.3972C15.5081 21.2592 15.8071 22.6255 15.8071 22.6255L16.2763 23.9448C16.4346 23.9155 16.5812 23.8452 16.7043 23.7338L16.7102 23.7396Z" fill="#DEDEDE"/>
</svg>
