<svg width="463" height="36" viewBox="0 0 463 36" fill="none" xmlns="http://www.w3.org/2000/svg">
<path fill-rule="evenodd" clip-rule="evenodd" d="M85.7334 32.0211C85.9179 32.603 86.1035 33.1838 86.288 33.7658C86.2618 33.7885 86.2345 33.8113 86.2083 33.8341C85.878 33.5881 85.4954 33.3877 85.2289 33.0859C84.7233 32.5142 84.2837 31.8821 83.7803 31.2968C83.8487 31.4995 83.9238 31.6999 83.9808 31.9049C84.1664 32.5803 84.3566 33.2533 84.5217 33.9309C84.6094 34.2919 84.3076 34.5686 83.9523 34.5219C83.6721 34.4855 83.4922 34.3534 83.3396 34.1211C83.0595 33.694 82.7531 33.284 82.3989 32.8843C82.465 33.1918 82.5367 33.4947 82.5948 33.8033C82.6586 34.1427 82.7235 34.4832 82.7588 34.8249C82.8101 35.3168 82.2657 35.7279 81.7931 35.5719C81.7555 35.5594 81.7213 35.5378 81.6826 35.5287C81.0324 35.3795 80.6281 35.0071 80.5609 34.317C80.5495 34.2019 80.5074 34.0892 80.4755 33.9764C80.4709 33.9628 80.4459 33.9548 80.4208 33.94C80.3297 34.3318 80.2671 34.7281 80.1418 35.1039C80.0518 35.367 79.8787 35.6027 79.7307 35.8692C78.9643 35.5173 78.7968 34.801 78.5998 34.1074C78.5292 33.8546 78.4859 33.5927 78.3971 33.333C78.4256 33.8546 78.2901 34.3295 78.076 34.7941C77.9017 35.1711 77.2845 35.3886 76.9269 35.1904C76.3427 34.8659 76.1855 34.3124 76.1001 33.7134C76.0887 33.6257 76.083 33.5369 76.0694 33.4492C76.0648 33.4253 76.0398 33.4025 76.0933 33.407C75.8929 34.0664 75.722 34.7383 75.4783 35.3806C75.3884 35.6198 75.1253 35.7929 74.9397 36.0001C74.3828 35.4262 74.2359 34.7417 73.999 34.0789C73.9295 34.4012 73.8714 34.7269 73.7883 35.0469C73.7621 35.1472 73.6949 35.2679 73.6095 35.3157C73.2656 35.5059 72.9114 35.6744 72.555 35.8384C72.5037 35.8623 72.4081 35.8248 72.35 35.7894C71.7191 35.4068 71.6439 35.2109 71.7874 34.4639C71.8751 34.0117 71.9377 33.5528 71.9537 33.0688C71.7088 33.4594 71.4697 33.8535 71.2168 34.2372C71.0585 34.4775 70.9378 34.7406 70.5837 34.7964C70.1942 34.8568 69.8434 34.5777 69.9243 34.186C70.0905 33.3774 70.2739 32.5723 70.4493 31.766C70.4607 31.7136 70.4732 31.6624 70.4379 31.5883C70.2249 31.8901 70.0108 32.1908 69.8001 32.4948C69.5769 32.8171 69.3924 33.177 69.126 33.4583C68.8606 33.7373 68.5144 33.9411 68.2035 34.178C68.1705 34.1609 68.1386 34.1461 68.1067 34.129C68.2559 33.5482 68.4051 32.9674 68.5543 32.3866C68.0042 32.8183 67.5476 33.3797 66.7435 33.2897C66.4828 32.6099 66.4326 31.9175 66.6422 31.1647C66.8278 30.4985 67.1763 29.9393 67.5578 29.4007C68.1443 28.575 68.7627 27.7676 69.4289 27.0057C70.0507 26.2951 70.5233 25.4968 71.0073 24.6973C71.5277 23.8364 71.9548 22.9344 72.3204 22.0006C72.3261 21.9858 72.3215 21.9664 72.3215 21.9186C72.1985 22.0723 72.0903 22.2056 71.9844 22.3377C71.4822 22.4276 71.3148 22.1384 71.3193 21.6157C71.095 21.9311 70.9276 22.1805 70.7442 22.4151C70.6964 22.4766 70.5791 22.5438 70.5199 22.5256C70.242 22.439 69.9915 22.4948 69.7489 22.6212C69.5063 22.7488 69.2877 22.7272 69.0656 22.57C68.9062 22.4561 68.7171 22.381 68.5679 22.258C68.3231 22.053 68.1215 22.1179 67.8926 22.2842C67.6956 22.4288 67.4735 22.5381 67.2777 22.652C66.7435 22.3297 66.5294 21.8468 66.5773 21.2364C65.943 21.512 65.361 21.7648 64.7757 22.0154C64.6128 22.086 64.4465 22.1475 64.278 22.1999C64.2211 22.2192 64.1436 22.217 64.089 22.1942C63.6835 22.0177 63.269 21.8548 62.8829 21.643C62.7326 21.5599 62.6165 21.3765 62.5356 21.2137C62.4035 20.946 62.2395 20.9187 61.9981 21.0531C61.382 21.397 60.7271 21.5599 60.0154 21.5587C59.4391 21.5576 58.9756 21.3446 58.6385 20.9119C58.4575 20.6795 58.3094 20.6329 58.0498 20.7319C57.756 20.8424 57.4359 20.8868 57.1467 21.0075C56.6559 21.2114 56.2687 20.9654 55.8883 20.7433C55.4646 20.4962 55.0752 20.1921 54.6584 19.9336C54.5627 19.8721 54.401 19.8516 54.2951 19.8858C53.761 20.0589 53.2462 20.2764 52.6609 20.2491C52.2714 20.2297 51.7646 19.9325 51.6405 19.5669C51.6097 19.4735 51.5926 19.3676 51.5368 19.2925C51.4845 19.2207 51.3877 19.133 51.3114 19.1342C51.005 19.1364 50.701 19.1786 50.3946 19.19C50.283 19.1945 50.1532 19.1877 50.0609 19.1342C49.6863 18.9201 49.3218 18.6843 48.9551 18.4554C48.9221 18.4338 48.8834 18.4099 48.8674 18.3769C48.5304 17.6799 47.8174 17.5125 47.1934 17.3462C46.5329 17.1697 46.2026 16.7335 45.9145 16.2279C45.7175 15.8794 45.4498 15.7758 45.0991 15.7758C44.8668 15.7746 44.6959 15.6858 44.5251 15.5275C44.0593 15.097 43.6072 14.6609 43.2542 14.1268C43.1802 14.0152 42.9763 13.9616 42.8237 13.9366C42.1655 13.8238 41.4993 13.7783 40.8684 13.5186C40.5301 13.3786 40.4174 13.1143 40.2739 12.8148C41.1189 12.5814 41.9434 12.3536 42.769 12.1247C42.7679 12.111 42.7656 12.0985 42.7645 12.0837C42.3739 12.1293 41.9844 12.193 41.5938 12.2181C40.6281 12.283 39.6601 12.3809 38.6943 12.3661C37.8584 12.3536 37.0476 12.1076 36.2641 11.8058C36.2094 11.7842 36.1775 11.7033 36.1354 11.6498C36.2083 11.6009 36.2755 11.5257 36.3552 11.5063C37.2742 11.307 38.1978 11.1806 39.1442 11.1601C39.6874 11.1487 40.2272 10.9551 40.7681 10.8447C40.7636 10.8162 40.7567 10.7855 40.7522 10.757C40.472 10.7843 40.1919 10.8242 39.9117 10.8356C38.4985 10.8982 37.0863 10.9779 35.673 10.9927C35.2893 10.9973 34.8884 10.8265 34.524 10.667C34.3771 10.6021 34.3087 10.3561 34.1937 10.1751C34.8132 9.78899 35.4783 9.82657 36.132 9.76507C35.9179 9.76507 35.7038 9.7628 35.4908 9.76621C35.2733 9.77077 35.0547 9.78329 34.8371 9.78899C34.0161 9.81063 33.195 9.84935 32.3727 9.84479C31.6621 9.84251 30.9538 9.78329 30.2443 9.76165C29.7386 9.74685 29.4961 9.34598 29.0906 9.02598C29.3355 8.9007 29.5188 8.7743 29.7216 8.70711C30.2625 8.52831 30.8182 8.49301 31.3888 8.54539C31.7703 8.58184 32.1598 8.55222 32.5242 8.55222C31.5129 8.48845 30.5666 8.07164 29.5781 7.82907C29.1669 7.72886 28.7684 7.56828 28.3538 7.49654C27.8994 7.42024 27.6819 7.15831 27.5874 6.74378C28.0441 6.48868 28.5144 6.57979 28.9904 6.67886C30.012 6.89296 31.0323 7.12187 32.0618 7.29611C32.6335 7.39177 33.2234 7.39177 33.8054 7.43163C34.1493 7.4544 34.4944 7.47262 34.8451 7.45554C34.2188 7.33938 33.597 7.18336 32.9661 7.11503C32.1051 7.02051 31.3387 6.67886 30.57 6.32697C30.053 6.09009 29.5405 5.8441 29.0235 5.61064C28.6408 5.43868 28.5144 5.09476 28.3857 4.70642C31.0198 5.33277 33.6266 5.95343 36.2345 6.57295C36.2413 6.55018 36.2481 6.52854 36.2561 6.50576C35.9316 6.38505 35.6127 6.24383 35.2813 6.14703C33.5104 5.62887 31.9115 4.72578 30.2944 3.87622C29.8662 3.65187 29.5724 3.16901 29.2182 2.80573C29.233 2.78523 29.2467 2.76587 29.2615 2.74651C30.9515 3.2977 32.6221 3.92633 34.3383 4.38072C36.0568 4.83397 37.8209 5.11412 39.5644 5.46943C39.5735 5.43755 39.5826 5.40224 39.5906 5.36922C39.3059 5.27128 39.02 5.17562 38.7353 5.07426C37.3483 4.57546 35.9441 4.11765 34.5832 3.55621C34.0354 3.32959 33.5719 2.88772 33.0868 2.52216C32.8294 2.3297 32.6039 2.0951 32.3716 1.86961C32.3147 1.81267 32.2907 1.72157 32.2167 1.58035C36.3871 2.67135 40.488 3.74412 44.5877 4.81803C44.598 4.79297 44.6082 4.76678 44.6174 4.74287C42.7406 3.93886 40.8649 3.13599 38.9882 2.33198C38.9984 2.29667 39.0087 2.26023 39.0178 2.22379C39.0508 2.21809 39.0838 2.20898 39.1157 2.20784C40.1759 2.18393 41.2351 2.1714 42.2942 2.13724C42.9387 2.1156 43.507 2.39461 44.0878 2.58821C46.1001 3.26467 48.0965 3.98441 50.0997 4.68706C50.135 4.69959 50.1771 4.69731 50.2579 4.70756C50.1384 4.39097 50.0268 4.09601 49.8958 3.75209C50.1019 3.76461 50.2636 3.78739 50.4254 3.78284C52.0129 3.74525 53.54 4.10854 55.0661 4.47068C56.5864 4.83169 58.1249 4.9376 59.6806 4.83169C60.4003 4.78158 61.1257 4.77247 61.8421 4.70073C62.5777 4.62784 63.3066 4.47068 64.0434 4.39894C64.5012 4.35566 64.9681 4.39894 65.4316 4.41147C65.9657 4.42627 66.4998 4.45702 67.0339 4.46841C68.9711 4.50941 70.9037 4.60279 72.8089 4.99113C73.1802 5.06629 73.3077 4.76678 73.4227 4.55382C73.5195 4.37616 73.5435 4.17687 73.5924 3.98327C73.6471 3.76234 73.7291 3.55052 73.8065 3.33756C73.9671 2.88886 74.0206 2.40942 74.1778 1.95844C74.319 1.55075 74.048 1.23529 73.712 0.918696C73.8976 0.592993 74.4169 0.364088 74.7529 0.249067C75.7118 -0.0754974 76.6581 -0.172295 77.4997 0.521248C77.7867 0.758123 78.0361 1.07813 78.2081 1.40953C78.5759 2.11674 78.6511 2.93669 79.0314 3.63934C79.143 3.84319 79.2581 4.04249 79.3594 4.24975C79.4631 4.46271 79.5895 4.66884 79.8013 4.78841C79.8605 4.82258 79.9448 4.83852 80.0108 4.82714C80.5176 4.73603 81.0187 4.61418 81.5277 4.54357C82.2509 4.44108 82.9763 4.35453 83.704 4.29417C85.2619 4.1632 86.8187 4.0368 88.3778 3.94455C88.8265 3.91836 89.2831 3.99124 89.7307 4.05502C90.9879 4.22812 92.2486 4.23837 93.515 4.24406C95.2938 4.25203 97.0066 3.93658 98.7092 3.45144C100.039 3.07221 101.396 2.80345 102.824 2.85811C102.733 3.15193 102.643 3.44346 102.534 3.79194C103.144 3.54824 103.696 3.32161 104.252 3.10638C106.064 2.41056 107.873 1.70676 109.692 1.03372C109.969 0.930087 110.296 0.947166 110.598 0.94375C111.577 0.9335 112.554 0.939197 113.546 0.939197C111.84 2.0541 109.843 2.58935 108.128 3.68604C112.153 2.47433 116.179 1.26262 120.204 0.0509121C120.229 0.0771051 120.256 0.104441 120.281 0.130634C120.11 0.339038 119.961 0.570219 119.763 0.747876C119.345 1.12369 118.921 1.4995 118.457 1.81837C118.115 2.05524 117.717 2.22265 117.329 2.38322C115.977 2.94352 114.62 3.48902 113.197 4.0664C114.993 3.80447 116.684 3.37172 118.345 2.85583C120.002 2.33995 121.614 1.68285 123.337 1.05422C123.097 1.34348 122.889 1.55758 122.724 1.80129C122.448 2.20443 122.035 2.40942 121.629 2.63149C120.816 3.08018 120.019 3.55849 119.184 3.96163C118.485 4.29872 117.742 4.54585 117.02 4.83511C116.879 4.88977 116.741 4.95127 116.602 5.00935C116.613 5.03782 116.622 5.06629 116.631 5.09476C119.136 4.40008 121.641 3.70312 124.168 3.00161C124.114 3.58354 123.756 3.88191 123.327 4.09601C122.515 4.50143 121.704 4.92052 120.864 5.25761C120.348 5.46488 119.776 5.53435 119.23 5.66076C118.858 5.74731 118.485 5.82702 118.118 5.96824C118.672 5.9113 119.233 5.89649 119.777 5.79172C121.17 5.52182 122.56 5.228 123.941 4.90913C124.338 4.81803 124.695 4.85675 125.067 4.96835C125.006 5.35441 124.861 5.60837 124.437 5.73364C123.283 6.07073 122.147 6.46932 121.002 6.83602C120.816 6.89524 120.617 6.91004 120.388 6.95446C121.502 6.98179 122.634 6.60142 123.672 7.29724C123.342 7.73797 123.007 8.07962 122.438 8.10353C121.749 8.132 121.061 8.22652 120.37 8.23905C119.093 8.26183 117.815 8.24475 116.539 8.2698C117.278 8.39279 118.06 8.17186 118.741 8.61372C118.657 9.25602 118.111 9.39723 117.646 9.45417C116.16 9.63183 114.665 9.62044 113.172 9.49289C112.849 9.46442 112.523 9.44734 112.187 9.46784C112.367 9.50884 112.549 9.54072 112.727 9.59311C113.311 9.76393 113.908 9.78557 114.513 9.80721C115.24 9.83112 115.965 9.92906 116.69 10.0133C116.799 10.0259 116.898 10.1341 117.053 10.2309C115.943 10.6898 114.894 11.0326 113.77 11.0087C112.664 10.9836 111.56 10.9176 110.379 10.8652C111.266 11.077 112.086 11.2717 112.897 11.4642C112.813 12.1167 112.292 12.242 111.825 12.381C111.356 12.5222 110.863 12.5928 110.378 12.6805C110.191 12.7146 110.051 12.7807 109.96 12.9606C109.66 13.5539 109.184 14.0106 108.693 14.432C108.521 14.58 108.213 14.5629 107.975 14.6461C107.849 14.6893 107.718 14.7634 107.631 14.8602C107.512 14.9889 107.422 15.1471 107.341 15.3043C107.111 15.7507 106.781 16.0445 106.285 16.2006C105.846 16.3384 105.438 16.573 105.022 16.7734C104.956 16.8041 104.891 16.869 104.861 16.9351C104.572 17.5694 103.909 17.7619 103.414 18.1491C103.326 18.2197 103.145 18.173 103.008 18.173C102.701 18.1764 102.396 18.1741 102.077 18.1741C102.047 18.2641 102.013 18.3552 101.984 18.4475C101.803 19.0408 101.438 19.2902 100.824 19.3175C100.304 19.3414 99.8354 19.1661 99.3583 19.0157C99.1966 18.9656 99.0804 18.9599 98.9335 19.0806C98.5691 19.3813 98.1967 19.6762 97.7981 19.9291C97.3893 20.1899 96.9725 20.4506 96.4326 20.2172C96.1423 20.0874 95.812 20.076 95.5159 19.9758C95.3212 19.9097 95.2187 19.9735 95.1219 20.1181C94.7563 20.675 94.2393 20.8811 93.5753 20.9062C92.8636 20.9324 92.2395 20.7114 91.62 20.4336C91.4401 20.3527 91.3387 20.3743 91.2715 20.5417C90.972 21.2774 90.2113 21.364 89.6327 21.7034C89.5826 21.7341 89.4813 21.6931 89.4095 21.6669C88.7604 21.4209 88.109 21.1704 87.4587 20.9221C87.3779 20.8914 87.2947 20.8595 87.1945 20.8219C87.1672 20.9699 87.1114 21.1043 87.1239 21.233C87.1626 21.6282 86.9463 21.8753 86.6889 22.1236C86.5602 22.2477 86.4532 22.2898 86.304 22.1885C86.2801 22.1714 86.2504 22.1612 86.2288 22.1418C85.7049 21.6783 85.2118 21.7819 84.7369 22.2215C84.5012 22.439 84.2461 22.4664 83.9534 22.3274C83.7325 22.2227 83.4968 22.1634 83.2428 22.2682C83.1859 22.2921 83.0606 22.2283 83.0094 22.168C82.826 21.9516 82.6609 21.717 82.4536 21.4437C82.4069 21.6749 82.3693 21.8571 82.3352 22.0279C81.9263 22.2716 81.6485 22.0974 81.3854 21.7751C81.4856 21.9744 81.5927 22.1714 81.6838 22.373C82.2429 23.6143 83.0207 24.7258 83.7826 25.843C84.0309 26.2063 84.3646 26.5149 84.6709 26.8349C85.5216 27.7186 86.3416 28.6263 87.0078 29.6637C87.6466 30.6556 87.9963 31.6908 87.5533 32.8707C86.7777 32.9857 86.3005 32.4356 85.7334 32.0211Z" fill="#DEDEDE"/>
<path d="M422.802 17.8672C422.862 18.8011 423.061 19.6158 423.398 20.3112C423.756 20.9868 424.213 21.5431 424.769 21.9803C425.346 22.4174 425.991 22.7453 426.707 22.9638C427.442 23.1625 428.217 23.2619 429.031 23.2619C430.065 23.2619 430.999 23.1824 431.833 23.0234C432.668 22.8446 433.462 22.5565 434.217 22.1591L434.843 24.0368C433.929 24.4541 433.025 24.7422 432.131 24.9011C431.237 25.0601 430.164 25.1396 428.912 25.1396C427.581 25.1396 426.399 24.9607 425.365 24.6031C424.332 24.2454 423.468 23.7288 422.772 23.0532C422.077 22.3777 421.54 21.563 421.163 20.6093C420.805 19.6555 420.626 18.5925 420.626 17.4202C420.626 16.2677 420.825 15.2146 421.223 14.2608C421.64 13.2872 422.206 12.4626 422.921 11.7871C423.657 11.1115 424.511 10.5849 425.485 10.2074C426.478 9.82988 427.551 9.64111 428.704 9.64111C429.876 9.64111 430.889 9.80007 431.744 10.118C432.598 10.416 433.303 10.8333 433.86 11.3698C434.436 11.9063 434.863 12.552 435.141 13.3071C435.42 14.0423 435.559 14.8569 435.559 15.7511C435.559 16.1485 435.539 16.5161 435.499 16.8539C435.479 17.1718 435.42 17.5096 435.32 17.8672H422.802ZM433.502 16.0491C433.502 14.3999 433.095 13.2276 432.28 12.5322C431.485 11.8367 430.214 11.489 428.465 11.489C427.79 11.489 427.134 11.5884 426.498 11.7871C425.862 11.9858 425.286 12.2739 424.769 12.6514C424.253 13.0289 423.816 13.5058 423.458 14.082C423.12 14.6582 422.912 15.3139 422.832 16.0491H433.502Z" fill="#DEDEDE"/>
<path d="M417.735 12.3235C417.1 12.0056 416.444 11.7871 415.768 11.6678C415.093 11.5486 414.377 11.489 413.622 11.489C411.635 11.489 410.076 11.9957 408.943 13.009C407.81 14.0025 407.244 15.4729 407.244 17.4202C407.244 18.3143 407.393 19.119 407.691 19.8343C408.009 20.5496 408.436 21.1656 408.973 21.6822C409.509 22.179 410.135 22.5664 410.85 22.8446C411.586 23.1029 412.361 23.2321 413.175 23.2321C414.129 23.2321 415.013 23.1526 415.828 22.9936C416.643 22.8148 417.427 22.5366 418.182 22.1591L418.898 23.9176C417.984 24.3746 417.06 24.6925 416.126 24.8713C415.192 25.0502 414.159 25.1396 413.026 25.1396C411.794 25.1396 410.682 24.9508 409.688 24.5733C408.714 24.1759 407.88 23.6394 407.184 22.9638C406.509 22.2684 405.982 21.4537 405.605 20.5198C405.247 19.586 405.068 18.5726 405.068 17.4798C405.068 16.3074 405.277 15.2444 405.694 14.2907C406.131 13.317 406.718 12.4924 407.453 11.8169C408.208 11.1214 409.092 10.5849 410.105 10.2074C411.139 9.82988 412.251 9.64111 413.443 9.64111C414.576 9.64111 415.54 9.72059 416.335 9.87955C417.149 10.0186 417.934 10.267 418.689 10.6247L417.735 12.3235Z" fill="#DEDEDE"/>
<path d="M389.053 10.8631C390.066 10.426 391.04 10.118 391.974 9.93916C392.928 9.74046 393.991 9.64111 395.163 9.64111C397.329 9.64111 398.918 10.0385 399.932 10.8333C400.945 11.6281 401.452 12.9296 401.452 14.7377V21.2054C401.452 22.0001 401.591 22.5466 401.869 22.8446C402.147 23.1228 402.674 23.2817 403.449 23.3215V24.8415C403.21 24.9409 402.962 25.0104 402.704 25.0502C402.445 25.1098 402.147 25.1396 401.809 25.1396C401.213 25.1396 400.746 24.9508 400.409 24.5733C400.071 24.1958 399.862 23.5301 399.783 22.5764C398.908 23.5103 397.895 24.1759 396.743 24.5733C395.61 24.9508 394.418 25.1396 393.166 25.1396C391.378 25.1396 390.066 24.7422 389.232 23.9474C388.417 23.1327 388.01 22.0498 388.01 20.6987C388.01 20.0231 388.099 19.4171 388.278 18.8806C388.477 18.3441 388.815 17.7977 389.291 17.2413C389.967 17.0426 390.662 16.8638 391.378 16.7048C392.093 16.5459 392.848 16.4167 393.643 16.3174C394.458 16.218 395.332 16.1385 396.266 16.0789C397.2 16.0193 398.223 15.9697 399.336 15.9299V14.8271C399.336 14.2509 399.266 13.7542 399.127 13.3369C398.988 12.9196 398.749 12.5818 398.412 12.3235C398.074 12.0454 397.627 11.8467 397.07 11.7274C396.514 11.5884 395.829 11.5188 395.014 11.5188C394.08 11.5188 393.186 11.6082 392.331 11.7871C391.497 11.9659 390.593 12.254 389.619 12.6514L389.053 10.8631ZM399.336 17.5096C397.388 17.5493 395.759 17.6586 394.448 17.8374C393.156 17.9964 392.004 18.205 390.99 18.4633C390.712 18.8011 390.513 19.1389 390.394 19.4767C390.275 19.7946 390.215 20.1423 390.215 20.5198C390.215 22.3479 391.268 23.2619 393.375 23.2619C394.507 23.2619 395.56 23.1029 396.534 22.785C397.508 22.4472 398.441 21.8412 399.336 20.9669V17.5096Z" fill="#DEDEDE"/>
<path d="M370.682 10.5055C371.258 10.3465 371.805 10.2173 372.321 10.118C372.838 9.99877 373.355 9.90936 373.871 9.84975C374.408 9.77027 374.944 9.72059 375.481 9.70072C376.037 9.66098 376.633 9.64111 377.269 9.64111C379.932 9.64111 381.968 10.2968 383.379 11.6082C384.79 12.8998 385.495 14.7874 385.495 17.2711C385.495 18.3838 385.326 19.4171 384.988 20.3708C384.67 21.3246 384.184 22.1591 383.528 22.8744C382.892 23.5699 382.097 24.1262 381.144 24.5435C380.19 24.9409 379.087 25.1396 377.835 25.1396C376.822 25.1396 375.938 25.0303 375.183 24.8117C374.428 24.5932 373.643 24.156 372.828 23.5003V31.6966H370.682V10.5055ZM372.828 21.2352C373.623 21.9306 374.418 22.4373 375.212 22.7552C376.027 23.0532 376.901 23.2023 377.835 23.2023C378.63 23.2023 379.365 23.0731 380.041 22.8148C380.716 22.5366 381.293 22.1492 381.769 21.6524C382.266 21.1358 382.644 20.5099 382.902 19.7747C383.18 19.0395 383.319 18.205 383.319 17.2711C383.319 16.2776 383.17 15.4232 382.872 14.7079C382.574 13.9727 382.157 13.3667 381.62 12.8898C381.084 12.413 380.438 12.0553 379.683 11.8169C378.928 11.5784 378.094 11.4592 377.18 11.4592C376.285 11.4592 375.52 11.5089 374.885 11.6082C374.269 11.7076 373.583 11.8665 372.828 12.0851V21.2352Z" fill="#DEDEDE"/>
<path d="M365.924 12.2937C365.168 11.9758 364.443 11.7573 363.748 11.638C363.052 11.5188 362.297 11.4592 361.483 11.4592C360.012 11.4592 358.959 11.6678 358.323 12.0851C357.687 12.4825 357.37 13.009 357.37 13.6648C357.37 14.4794 357.747 15.0457 358.502 15.3636C359.257 15.6617 360.31 15.9001 361.661 16.0789C362.496 16.1982 363.261 16.367 363.956 16.5856C364.672 16.7843 365.288 17.0724 365.804 17.45C366.321 17.8076 366.728 18.2646 367.026 18.821C367.324 19.3575 367.473 20.0032 367.473 20.7583C367.473 22.2883 366.838 23.401 365.566 24.0964C364.314 24.7919 362.615 25.1396 360.469 25.1396C359.416 25.1396 358.482 25.07 357.668 24.9309C356.873 24.8117 356.068 24.5832 355.253 24.2454L355.82 22.3379C356.575 22.6757 357.31 22.9142 358.025 23.0532C358.76 23.1923 359.535 23.2619 360.35 23.2619C363.728 23.2619 365.417 22.4174 365.417 20.7285C365.417 19.8939 365.069 19.278 364.374 18.8806C363.678 18.4832 362.536 18.1951 360.946 18.0162C359.178 17.8175 357.787 17.3804 356.773 16.7048C355.78 16.0293 355.283 15.0556 355.283 13.784C355.283 13.2077 355.402 12.6713 355.641 12.1745C355.899 11.6579 356.287 11.2208 356.803 10.8631C357.32 10.4856 357.966 10.1875 358.741 9.96897C359.535 9.7504 360.459 9.64111 361.512 9.64111C362.546 9.64111 363.45 9.70072 364.225 9.81994C365 9.93916 365.814 10.1677 366.669 10.5055L365.924 12.2937Z" fill="#DEDEDE"/>
<path d="M352.794 17.3903C352.794 18.5825 352.575 19.6555 352.138 20.6093C351.721 21.563 351.134 22.3777 350.379 23.0532C349.644 23.7288 348.77 24.2454 347.757 24.6031C346.763 24.9607 345.69 25.1396 344.538 25.1396C343.385 25.1396 342.302 24.9607 341.289 24.6031C340.295 24.2454 339.421 23.7288 338.666 23.0532C337.931 22.3777 337.345 21.563 336.908 20.6093C336.49 19.6555 336.282 18.5825 336.282 17.3903C336.282 16.1982 336.49 15.1252 336.908 14.1714C337.345 13.2177 337.931 12.403 338.666 11.7274C339.421 11.0519 340.295 10.5353 341.289 10.1776C342.302 9.81994 343.385 9.64111 344.538 9.64111C345.69 9.64111 346.763 9.81994 347.757 10.1776C348.77 10.5353 349.644 11.0519 350.379 11.7274C351.134 12.403 351.721 13.2177 352.138 14.1714C352.575 15.1252 352.794 16.1982 352.794 17.3903ZM338.457 17.3903C338.457 18.2845 338.607 19.0992 338.905 19.8343C339.203 20.5695 339.62 21.2054 340.156 21.7418C340.693 22.2585 341.329 22.6558 342.064 22.934C342.819 23.2122 343.644 23.3513 344.538 23.3513C345.432 23.3513 346.246 23.2122 346.982 22.934C347.737 22.6558 348.382 22.2585 348.919 21.7418C349.455 21.2054 349.873 20.5695 350.171 19.8343C350.469 19.0992 350.618 18.2845 350.618 17.3903C350.618 16.4962 350.469 15.6815 350.171 14.9464C349.873 14.2112 349.455 13.5853 348.919 13.0687C348.382 12.5322 347.737 12.1248 346.982 11.8467C346.246 11.5685 345.432 11.4294 344.538 11.4294C343.644 11.4294 342.819 11.5685 342.064 11.8467C341.329 12.1248 340.693 12.5322 340.156 13.0687C339.62 13.5853 339.203 14.2112 338.905 14.9464C338.607 15.6815 338.457 16.4962 338.457 17.3903Z" fill="#DEDEDE"/>
<path d="M325.241 9.93916L325.42 12.6812C325.777 12.1447 326.175 11.6877 326.612 11.3102C327.069 10.9128 327.546 10.5949 328.043 10.3564C328.539 10.0981 329.046 9.91929 329.563 9.81994C330.099 9.70072 330.626 9.64111 331.142 9.64111C332.036 9.64111 332.831 9.79014 333.527 10.0882C334.242 10.3664 334.888 10.873 335.464 11.6082L333.974 12.9792C333.556 12.4825 333.08 12.1248 332.543 11.9063C332.007 11.6678 331.42 11.5486 330.785 11.5486C329.652 11.5486 328.659 11.8467 327.804 12.4428C326.95 13.019 326.205 13.7939 325.569 14.7675V24.8415H323.423V9.93916H325.241Z" fill="#DEDEDE"/>
<path d="M307.603 17.8672C307.663 18.8011 307.862 19.6158 308.2 20.3112C308.557 20.9868 309.014 21.5431 309.571 21.9803C310.147 22.4174 310.793 22.7453 311.508 22.9638C312.243 23.1625 313.018 23.2619 313.833 23.2619C314.866 23.2619 315.8 23.1824 316.634 23.0234C317.469 22.8446 318.264 22.5565 319.019 22.1591L319.645 24.0368C318.731 24.4541 317.827 24.7422 316.932 24.9011C316.038 25.0601 314.965 25.1396 313.713 25.1396C312.382 25.1396 311.2 24.9607 310.167 24.6031C309.133 24.2454 308.269 23.7288 307.574 23.0532C306.878 22.3777 306.342 21.563 305.964 20.6093C305.607 19.6555 305.428 18.5925 305.428 17.4202C305.428 16.2677 305.626 15.2146 306.024 14.2608C306.441 13.2872 307.007 12.4626 307.723 11.7871C308.458 11.1115 309.312 10.5849 310.286 10.2074C311.279 9.82988 312.352 9.64111 313.505 9.64111C314.677 9.64111 315.691 9.80007 316.545 10.118C317.399 10.416 318.105 10.8333 318.661 11.3698C319.237 11.9063 319.664 12.552 319.943 13.3071C320.221 14.0423 320.36 14.8569 320.36 15.7511C320.36 16.1485 320.34 16.5161 320.3 16.8539C320.28 17.1718 320.221 17.5096 320.121 17.8672H307.603ZM318.303 16.0491C318.303 14.3999 317.896 13.2276 317.081 12.5322C316.287 11.8367 315.015 11.489 313.266 11.489C312.591 11.489 311.935 11.5884 311.299 11.7871C310.663 11.9858 310.087 12.2739 309.571 12.6514C309.054 13.0289 308.617 13.5058 308.259 14.082C307.921 14.6582 307.713 15.3139 307.633 16.0491H318.303Z" fill="#DEDEDE"/>
<path d="M295.793 5.46924L304.139 24.8423H301.784L299.012 18.3151H289.803L287.09 24.8423H284.795L293.171 5.46924H295.793ZM290.578 16.4672H298.237L294.631 7.7642H294.214L290.578 16.4672Z" fill="#DEDEDE"/>
<path d="M261.304 17.8672C261.363 18.8011 261.562 19.6158 261.9 20.3112C262.257 20.9868 262.714 21.5431 263.271 21.9803C263.847 22.4174 264.493 22.7453 265.208 22.9638C265.943 23.1625 266.718 23.2619 267.533 23.2619C268.566 23.2619 269.5 23.1824 270.335 23.0234C271.169 22.8446 271.964 22.5565 272.719 22.1591L273.345 24.0368C272.431 24.4541 271.527 24.7422 270.633 24.9011C269.738 25.0601 268.665 25.1396 267.414 25.1396C266.082 25.1396 264.9 24.9607 263.867 24.6031C262.834 24.2454 261.969 23.7288 261.274 23.0532C260.578 22.3777 260.042 21.563 259.664 20.6093C259.307 19.6555 259.128 18.5925 259.128 17.4202C259.128 16.2677 259.327 15.2146 259.724 14.2608C260.141 13.2872 260.708 12.4626 261.423 11.7871C262.158 11.1115 263.012 10.5849 263.986 10.2074C264.98 9.82988 266.053 9.64111 267.205 9.64111C268.377 9.64111 269.391 9.80007 270.245 10.118C271.1 10.416 271.805 10.8333 272.361 11.3698C272.937 11.9063 273.365 12.552 273.643 13.3071C273.921 14.0423 274.06 14.8569 274.06 15.7511C274.06 16.1485 274.04 16.5161 274 16.8539C273.981 17.1718 273.921 17.5096 273.822 17.8672H261.304ZM272.004 16.0491C272.004 14.3999 271.596 13.2276 270.782 12.5322C269.987 11.8367 268.715 11.489 266.967 11.489C266.291 11.489 265.635 11.5884 264.999 11.7871C264.364 11.9858 263.787 12.2739 263.271 12.6514C262.754 13.0289 262.317 13.5058 261.959 14.082C261.622 14.6582 261.413 15.3139 261.333 16.0491H272.004Z" fill="#DEDEDE"/>
<path d="M243.575 9.93916L243.813 12.6216C244.509 11.5486 245.363 10.7836 246.377 10.3266C247.41 9.86962 248.562 9.64111 249.834 9.64111C251.821 9.64111 253.351 10.1875 254.424 11.2804C255.517 12.3732 256.063 13.9926 256.063 16.1385V24.8415H253.917V16.1087C253.917 14.6384 253.589 13.5058 252.934 12.711C252.278 11.8963 251.245 11.489 249.834 11.489C248.423 11.489 247.261 11.7573 246.347 12.2937C245.433 12.8302 244.628 13.6648 243.933 14.7973V24.8415H241.787V9.93916H243.575Z" fill="#DEDEDE"/>
<path d="M237.832 9.93777V24.8401H235.686V9.93777H237.832ZM236.759 3.58936C237.276 3.58936 237.683 3.75825 237.981 4.09604C238.299 4.43382 238.458 4.83122 238.458 5.28823C238.458 5.74523 238.299 6.14263 237.981 6.48041C237.683 6.8182 237.276 6.9871 236.759 6.9871C236.242 6.9871 235.825 6.8182 235.507 6.48041C235.209 6.14263 235.06 5.74523 235.06 5.28823C235.06 4.83122 235.209 4.43382 235.507 4.09604C235.825 3.75825 236.242 3.58936 236.759 3.58936Z" fill="#DEDEDE"/>
<path d="M223.428 9.93916L223.607 12.6812C223.965 12.1447 224.362 11.6877 224.799 11.3102C225.256 10.9128 225.733 10.5949 226.23 10.3564C226.727 10.0981 227.234 9.91929 227.75 9.81994C228.287 9.70072 228.813 9.64111 229.33 9.64111C230.224 9.64111 231.019 9.79014 231.714 10.0882C232.429 10.3664 233.075 10.873 233.651 11.6082L232.161 12.9792C231.744 12.4825 231.267 12.1248 230.731 11.9063C230.194 11.6678 229.608 11.5486 228.972 11.5486C227.84 11.5486 226.846 11.8467 225.992 12.4428C225.137 13.019 224.392 13.7939 223.756 14.7675V24.8415H221.61V9.93916H223.428Z" fill="#DEDEDE"/>
<path d="M219.212 11.1612H215.367C216.122 11.6182 216.669 12.1546 217.007 12.7706C217.344 13.3866 217.513 14.0721 217.513 14.8271C217.513 15.5623 217.364 16.2478 217.066 16.8837C216.788 17.4996 216.371 18.046 215.814 18.5229C215.258 18.9799 214.572 19.3475 213.758 19.6257C212.943 19.884 212.019 20.0132 210.986 20.0132C210.231 20.0132 209.506 19.9436 208.81 19.8045C208.115 19.6654 207.499 19.4568 206.962 19.1786C206.485 19.3773 206.138 19.6456 205.919 19.9834C205.701 20.3013 205.591 20.649 205.591 21.0265C205.591 21.5431 205.81 22.0101 206.247 22.4273C206.684 22.8446 207.449 23.0532 208.542 23.0532H212.476C213.37 23.0532 214.205 23.093 214.98 23.1725C215.775 23.2519 216.589 23.401 217.424 23.6195C217.781 24.0765 218.07 24.5932 218.288 25.1694C218.507 25.7456 218.616 26.3516 218.616 26.9875C218.616 28.0803 218.338 28.9744 217.781 29.6699C217.245 30.3653 216.55 30.9118 215.695 31.3092C214.861 31.7264 213.937 32.0145 212.923 32.1735C211.91 32.3325 210.946 32.4119 210.032 32.4119C207.866 32.4119 206.207 31.9947 205.055 31.1601C203.922 30.3455 203.356 29.2228 203.356 27.7922C203.356 26.2225 204.041 24.9806 205.412 24.0666C204.777 23.7686 204.34 23.3712 204.101 22.8744C203.863 22.3578 203.743 21.8412 203.743 21.3246C203.743 20.7285 203.902 20.1622 204.22 19.6257C204.558 19.0693 205.045 18.5925 205.681 18.1951C204.886 17.2612 204.489 16.1385 204.489 14.8271C204.489 13.2376 205.065 11.9758 206.217 11.0419C207.39 10.1081 209.059 9.64111 211.224 9.64111H219.212V11.1612ZM209.049 24.8415C208.651 24.8415 208.294 24.8316 207.976 24.8117C207.678 24.772 207.36 24.7322 207.022 24.6925C205.85 25.2687 205.263 26.1927 205.263 27.4643C205.263 28.5771 205.711 29.3818 206.605 29.8785C207.519 30.3951 208.761 30.6535 210.33 30.6535C210.887 30.6535 211.532 30.6038 212.268 30.5044C213.003 30.4249 213.698 30.2461 214.354 29.9679C215.01 29.7096 215.566 29.352 216.023 28.895C216.48 28.438 216.708 27.8319 216.708 27.0769C216.708 26.7987 216.659 26.4907 216.559 26.1529C216.48 25.8152 216.331 25.4972 216.112 25.1992C215.477 25.0601 214.9 24.9607 214.384 24.9011C213.887 24.8614 213.331 24.8415 212.715 24.8415H209.049ZM206.426 14.8271C206.426 15.9796 206.813 16.8539 207.588 17.45C208.383 18.0262 209.516 18.3143 210.986 18.3143C212.297 18.3143 213.38 18.0361 214.235 17.4798C215.089 16.9035 215.516 16.0193 215.516 14.8271C215.516 14.231 215.397 13.7144 215.159 13.2773C214.92 12.8203 214.592 12.4428 214.175 12.1447C213.778 11.8467 213.301 11.6281 212.744 11.489C212.208 11.33 211.622 11.2506 210.986 11.2506C209.575 11.2506 208.463 11.5685 207.648 12.2043C206.833 12.8203 206.426 13.6946 206.426 14.8271Z" fill="#DEDEDE"/>
<path d="M188.371 17.8672C188.431 18.8011 188.629 19.6158 188.967 20.3112C189.325 20.9868 189.782 21.5431 190.338 21.9803C190.914 22.4174 191.56 22.7453 192.275 22.9638C193.011 23.1625 193.786 23.2619 194.6 23.2619C195.633 23.2619 196.567 23.1824 197.402 23.0234C198.236 22.8446 199.031 22.5565 199.786 22.1591L200.412 24.0368C199.498 24.4541 198.594 24.7422 197.7 24.9011C196.806 25.0601 195.733 25.1396 194.481 25.1396C193.15 25.1396 191.967 24.9607 190.934 24.6031C189.901 24.2454 189.037 23.7288 188.341 23.0532C187.646 22.3777 187.109 21.563 186.732 20.6093C186.374 19.6555 186.195 18.5925 186.195 17.4202C186.195 16.2677 186.394 15.2146 186.791 14.2608C187.209 13.2872 187.775 12.4626 188.49 11.7871C189.225 11.1115 190.08 10.5849 191.053 10.2074C192.047 9.82988 193.12 9.64111 194.272 9.64111C195.445 9.64111 196.458 9.80007 197.312 10.118C198.167 10.416 198.872 10.8333 199.429 11.3698C200.005 11.9063 200.432 12.552 200.71 13.3071C200.988 14.0423 201.127 14.8569 201.127 15.7511C201.127 16.1485 201.108 16.5161 201.068 16.8539C201.048 17.1718 200.988 17.5096 200.889 17.8672H188.371ZM199.071 16.0491C199.071 14.3999 198.664 13.2276 197.849 12.5322C197.054 11.8367 195.783 11.489 194.034 11.489C193.358 11.489 192.703 11.5884 192.067 11.7871C191.431 11.9858 190.855 12.2739 190.338 12.6514C189.822 13.0289 189.384 13.5058 189.027 14.082C188.689 14.6582 188.48 15.3139 188.401 16.0491H199.071Z" fill="#DEDEDE"/>
<path d="M175.152 9.93916L175.331 12.6812C175.689 12.1447 176.086 11.6877 176.523 11.3102C176.98 10.9128 177.457 10.5949 177.954 10.3564C178.45 10.0981 178.957 9.91929 179.474 9.81994C180.01 9.70072 180.537 9.64111 181.053 9.64111C181.948 9.64111 182.742 9.79014 183.438 10.0882C184.153 10.3664 184.799 10.873 185.375 11.6082L183.885 12.9792C183.468 12.4825 182.991 12.1248 182.454 11.9063C181.918 11.6678 181.332 11.5486 180.696 11.5486C179.563 11.5486 178.57 11.8467 177.715 12.4428C176.861 13.019 176.116 13.7939 175.48 14.7675V24.8415H173.334V9.93916H175.152Z" fill="#DEDEDE"/>
<path d="M157.513 17.8672C157.573 18.8011 157.771 19.6158 158.109 20.3112C158.467 20.9868 158.924 21.5431 159.48 21.9803C160.056 22.4174 160.702 22.7453 161.418 22.9638C162.153 23.1625 162.928 23.2619 163.742 23.2619C164.776 23.2619 165.709 23.1824 166.544 23.0234C167.379 22.8446 168.173 22.5565 168.928 22.1591L169.554 24.0368C168.64 24.4541 167.736 24.7422 166.842 24.9011C165.948 25.0601 164.875 25.1396 163.623 25.1396C162.292 25.1396 161.11 24.9607 160.076 24.6031C159.043 24.2454 158.179 23.7288 157.483 23.0532C156.788 22.3777 156.251 21.563 155.874 20.6093C155.516 19.6555 155.337 18.5925 155.337 17.4202C155.337 16.2677 155.536 15.2146 155.933 14.2608C156.351 13.2872 156.917 12.4626 157.632 11.7871C158.368 11.1115 159.222 10.5849 160.196 10.2074C161.189 9.82988 162.262 9.64111 163.414 9.64111C164.587 9.64111 165.6 9.80007 166.455 10.118C167.309 10.416 168.014 10.8333 168.571 11.3698C169.147 11.9063 169.574 12.552 169.852 13.3071C170.13 14.0423 170.27 14.8569 170.27 15.7511C170.27 16.1485 170.25 16.5161 170.21 16.8539C170.19 17.1718 170.13 17.5096 170.031 17.8672H157.513ZM168.213 16.0491C168.213 14.3999 167.806 13.2276 166.991 12.5322C166.196 11.8367 164.925 11.489 163.176 11.489C162.5 11.489 161.845 11.5884 161.209 11.7871C160.573 11.9858 159.997 12.2739 159.48 12.6514C158.964 13.0289 158.527 13.5058 158.169 14.082C157.831 14.6582 157.622 15.3139 157.543 16.0491H168.213Z" fill="#DEDEDE"/>
<path d="M146.066 5.46924C147.139 5.46924 148.132 5.60833 149.046 5.8865C149.96 6.14481 150.755 6.53227 151.431 7.04889C152.106 7.54564 152.633 8.1616 153.01 8.89678C153.408 9.63197 153.606 10.4764 153.606 11.4302C153.606 12.4038 153.418 13.2681 153.04 14.0232C152.663 14.7783 152.136 15.4141 151.46 15.9307C150.785 16.4473 149.99 16.8447 149.076 17.1229C148.162 17.3812 147.159 17.5104 146.066 17.5104H141.744V24.8423H139.509V5.46924H146.066ZM141.744 15.573H145.619C147.487 15.573 148.907 15.2551 149.881 14.6193C150.874 13.9835 151.371 12.9204 151.371 11.4302C151.371 10.0592 150.874 9.04581 149.881 8.3901C148.907 7.71453 147.487 7.37674 145.619 7.37674H141.744V15.573Z" fill="#DEDEDE"/>
</svg>
