<svg width="40" height="40" viewBox="0 0 40 40" fill="none" xmlns="http://www.w3.org/2000/svg">
<g clip-path="url(#clip0_574_218)">
<path d="M13.75 36.25H26.25" stroke="#37ED81" stroke-width="1.4" stroke-linecap="round" stroke-linejoin="round"/>
<path d="M20 31.25V22.5" stroke="#37ED81" stroke-width="1.4" stroke-linecap="round" stroke-linejoin="round"/>
<path d="M15 17.5L20 22.5L25 17.5" stroke="#37ED81" stroke-width="1.4" stroke-linecap="round" stroke-linejoin="round"/>
<path d="M12.2968 26.0935C10.8108 24.9327 9.60724 23.4502 8.77642 21.7575C7.94561 20.0647 7.50919 18.2057 7.49995 16.3201C7.46245 9.54507 12.9249 3.90601 19.6984 3.74976C22.3234 3.68618 24.9018 4.45085 27.0677 5.93529C29.2336 7.41973 30.8771 9.54854 31.7649 12.0197C32.6527 14.4908 32.7398 17.1788 32.0138 19.7022C31.2878 22.2256 29.7856 24.4564 27.7203 26.0779C27.2647 26.4311 26.8956 26.8834 26.6408 27.4005C26.3861 27.9175 26.2524 28.4858 26.2499 29.0623V29.9998C26.2499 30.3313 26.1183 30.6492 25.8838 30.8836C25.6494 31.1181 25.3315 31.2498 24.9999 31.2498H14.9999C14.6684 31.2498 14.3505 31.1181 14.1161 30.8836C13.8816 30.6492 13.7499 30.3313 13.7499 29.9998V29.0623C13.7494 28.4895 13.6182 27.9244 13.3664 27.41C13.1146 26.8956 12.7488 26.4453 12.2968 26.0935Z" stroke="#37ED81" stroke-width="1.4" stroke-linecap="round" stroke-linejoin="round"/>
</g>
<defs>
<clipPath id="clip0_574_218">
<rect width="40" height="40" fill="white"/>
</clipPath>
</defs>
</svg>
