<svg width="34" height="32" viewBox="0 0 34 32" fill="none" xmlns="http://www.w3.org/2000/svg">
<path d="M9.00002 30.7497C8.6685 30.7497 8.35056 30.618 8.11614 30.3836C7.88172 30.1492 7.75002 29.8312 7.75002 29.4997V22.8294C7.08319 23.1449 6.34741 23.2867 5.61109 23.2415C4.87478 23.1964 4.16183 22.9657 3.53855 22.5711C2.91528 22.1765 2.4019 21.6307 2.04617 20.9844C1.69044 20.3381 1.50391 19.6124 1.50391 18.8747C1.50391 18.137 1.69044 17.4113 2.04617 16.765C2.4019 16.1188 2.91528 15.5729 3.53855 15.1783C4.16183 14.7837 4.87478 14.5531 5.61109 14.5079C6.34741 14.4628 7.08319 14.6045 7.75002 14.92V8.24972C7.75002 7.9182 7.88172 7.60026 8.11614 7.36584C8.35056 7.13141 8.6685 6.99972 9.00002 6.99972H16.2953C15.9795 6.33288 15.8374 5.59699 15.8824 4.86051C15.9273 4.12402 16.1578 3.41086 16.5524 2.78737C16.9469 2.16388 17.4928 1.65031 18.1392 1.29444C18.7855 0.938569 19.5114 0.751953 20.2492 0.751953C20.9871 0.751953 21.713 0.938569 22.3593 1.29444C23.0057 1.65031 23.5516 2.16388 23.9461 2.78737C24.3407 3.41086 24.5712 4.12402 24.6161 4.86051C24.6611 5.59699 24.519 6.33288 24.2031 6.99972H31.5C31.8315 6.99972 32.1495 7.13141 32.3839 7.36584C32.6183 7.60026 32.75 7.9182 32.75 8.24972V14.92C32.0832 14.6045 31.3474 14.4628 30.6111 14.5079C29.8748 14.5531 29.1618 14.7837 28.5386 15.1783C27.9153 15.5729 27.4019 16.1188 27.0462 16.765C26.6904 17.4113 26.5039 18.137 26.5039 18.8747C26.5039 19.6124 26.6904 20.3381 27.0462 20.9844C27.4019 21.6307 27.9153 22.1765 28.5386 22.5711C29.1618 22.9657 29.8748 23.1964 30.6111 23.2415C31.3474 23.2867 32.0832 23.1449 32.75 22.8294V29.4997C32.75 29.8312 32.6183 30.1492 32.3839 30.3836C32.1495 30.618 31.8315 30.7497 31.5 30.7497H9.00002Z" stroke="#37ED81" stroke-width="1.4" stroke-linecap="round" stroke-linejoin="round"/>
</svg>
