<svg width="32" height="32" viewBox="0 0 32 32" fill="none" xmlns="http://www.w3.org/2000/svg">
<path d="M12.2502 15.8346C11.2509 14.0262 10.8363 11.9527 11.0633 9.89915C11.2904 7.84559 12.1479 5.91275 13.5181 4.36636C14.8882 2.81996 16.7037 1.73592 18.715 1.26325C20.7263 0.790589 22.8346 0.952507 24.7502 1.72675L18.5002 8.50018L19.3845 12.6158L23.5002 13.5002L30.2736 7.25018C31.0478 9.16571 31.2098 11.274 30.7371 13.2853C30.2644 15.2966 29.1804 17.1121 27.634 18.4823C26.0876 19.8524 24.1548 20.71 22.1012 20.937C20.0476 21.1641 17.9741 20.7494 16.1658 19.7502L7.40641 29.9064C6.70193 30.6109 5.74644 31.0067 4.75016 31.0067C3.75387 31.0067 2.79839 30.6109 2.09391 29.9064C1.38943 29.202 0.993652 28.2465 0.993652 27.2502C0.993652 26.2539 1.38943 25.2984 2.09391 24.5939L12.2502 15.8346Z" stroke="#37ED81" stroke-width="1.4" stroke-linecap="round" stroke-linejoin="round"/>
</svg>
