<svg width="214" height="43" viewBox="0 0 214 43" fill="none" xmlns="http://www.w3.org/2000/svg">
<path d="M209.198 34.3635V29.182H213.508V30.3777H210.369V31.1915H212.022V32.3872H210.369V33.1678H213.508V34.3635H209.198Z" fill="#232323"/>
<path d="M203.713 34.3635V31.1915H207.126C207.198 31.1915 207.234 31.1583 207.234 31.0919V30.4774C207.234 30.4552 207.223 30.4331 207.2 30.411C207.178 30.3888 207.153 30.3777 207.126 30.3777H203.713V29.182H207.823C207.879 29.182 207.939 29.2069 208.006 29.2567C208.078 29.301 208.142 29.3592 208.197 29.4311C208.258 29.5031 208.308 29.5834 208.346 29.6719C208.385 29.755 208.404 29.8352 208.404 29.9127V31.2247C208.404 31.4129 208.399 31.5375 208.388 31.5984C208.377 31.6593 208.363 31.7063 208.346 31.7396L208.338 31.7479C208.344 31.7645 208.357 31.7894 208.38 31.8226C208.407 31.8558 208.435 31.8946 208.463 31.9388C208.49 31.9776 208.515 32.0191 208.537 32.0634C208.559 32.1022 208.571 32.1381 208.571 32.1714V33.6328C208.571 33.7103 208.551 33.7933 208.512 33.8819C208.479 33.965 208.432 34.0425 208.371 34.1144C208.316 34.1864 208.255 34.2473 208.189 34.2971C208.122 34.3414 208.056 34.3635 207.989 34.3635H203.713ZM204.892 32.3872V33.1678H207.283C207.355 33.1678 207.391 33.1346 207.391 33.0682V32.4869C207.391 32.4647 207.38 32.4426 207.358 32.4205C207.336 32.3983 207.311 32.3872 207.283 32.3872H204.892Z" fill="#232323"/>
<path d="M199.964 29.182C200.031 29.182 200.097 29.2069 200.164 29.2567C200.23 29.301 200.291 29.3592 200.346 29.4311C200.407 29.5031 200.454 29.5834 200.488 29.6719C200.526 29.755 200.546 29.8352 200.546 29.9127V33.3754C200.546 33.5525 200.523 33.7048 200.479 33.8321C200.44 33.9594 200.385 34.0618 200.313 34.1393C200.247 34.2168 200.166 34.275 200.072 34.3137C199.984 34.3469 199.892 34.3635 199.798 34.3635H195.713V31.341H196.892V33.1512H199.275C199.342 33.1512 199.375 33.118 199.375 33.0515V30.4691C199.375 30.4469 199.364 30.4248 199.342 30.4027C199.325 30.3805 199.303 30.3694 199.275 30.3694H195.713V29.182H199.964Z" fill="#232323"/>
<path d="M190.788 34.3635V29.182H191.959V33.1678H195.098V34.3635H190.788Z" fill="#232323"/>
<path d="M185.335 29.182H186.506V33.1678H188.997V29.182H190.176V33.4335C190.176 33.583 190.148 33.7158 190.093 33.8321C190.038 33.9484 189.966 34.048 189.877 34.131C189.789 34.2085 189.692 34.2667 189.586 34.3054C189.481 34.3442 189.376 34.3635 189.271 34.3635H186.24C186.129 34.3635 186.019 34.3469 185.908 34.3137C185.803 34.275 185.706 34.2196 185.617 34.1476C185.534 34.0701 185.465 33.9733 185.41 33.857C185.36 33.7408 185.335 33.5996 185.335 33.4335V29.182Z" fill="#232323"/>
<path d="M179.868 30.1121C179.868 29.9461 179.893 29.8049 179.943 29.6887C179.998 29.5724 180.067 29.4783 180.15 29.4063C180.239 29.3288 180.336 29.2735 180.441 29.2403C180.552 29.2015 180.663 29.1821 180.773 29.1821H183.804C183.909 29.1821 184.014 29.2015 184.12 29.2403C184.225 29.279 184.322 29.3399 184.41 29.4229C184.499 29.5004 184.571 29.5973 184.626 29.7136C184.682 29.8298 184.709 29.9627 184.709 30.1121V33.4336C184.709 33.5831 184.682 33.716 184.626 33.8322C184.571 33.9485 184.499 34.0481 184.41 34.1312C184.322 34.2087 184.225 34.2668 184.12 34.3055C184.014 34.3443 183.909 34.3637 183.804 34.3637H180.773C180.663 34.3637 180.552 34.3471 180.441 34.3138C180.336 34.2751 180.239 34.2197 180.15 34.1478C180.067 34.0703 179.998 33.9734 179.943 33.8571C179.893 33.7409 179.868 33.5997 179.868 33.4336V30.1121ZM183.53 33.1679V30.3779H181.039V33.1679H183.53Z" fill="#232323"/>
<path d="M175.581 34.3635H174.402V29.182H175.581V31.1915H178.081V29.182H179.252V34.3635H178.081V32.3872H175.581V34.3635Z" fill="#232323"/>
<path d="M173.782 30.3777H170.228C170.2 30.3777 170.175 30.3888 170.153 30.411C170.131 30.4331 170.12 30.4552 170.12 30.4774V31.0753C170.12 31.1417 170.156 31.1749 170.228 31.1749H173.035C173.129 31.1749 173.22 31.1915 173.309 31.2247C173.397 31.2579 173.477 31.3133 173.549 31.3908C173.621 31.4683 173.677 31.5679 173.716 31.6897C173.76 31.8115 173.782 31.9638 173.782 32.1464V33.6328C173.782 33.7103 173.763 33.7933 173.724 33.8819C173.691 33.965 173.644 34.0425 173.583 34.1144C173.527 34.1864 173.466 34.2473 173.4 34.2971C173.334 34.3414 173.267 34.3635 173.201 34.3635H168.949V33.1678H172.503C172.57 33.1678 172.603 33.1346 172.603 33.0682V32.4703C172.603 32.4481 172.592 32.426 172.57 32.4039C172.553 32.3817 172.531 32.3706 172.503 32.3706H169.647C169.464 32.3596 169.301 32.2821 169.157 32.1381C169.018 31.9887 168.949 31.7423 168.949 31.3991V29.921C168.949 29.8435 168.969 29.7633 169.007 29.6802C169.046 29.5917 169.093 29.5114 169.149 29.4394C169.209 29.3619 169.276 29.301 169.348 29.2567C169.42 29.2069 169.486 29.182 169.547 29.182H173.782V30.3777Z" fill="#232323"/>
<path d="M163.023 34.3638V30.378H161.471V29.1823H165.78V30.378H164.194V34.3638H163.023Z" fill="#232323"/>
<path d="M157.882 34.3635V33.1678H158.787V30.3777H157.882V29.182H160.863V30.3777H159.958V33.1678H160.863V34.3635H157.882Z" fill="#232323"/>
<path d="M151.505 32.1049L149.312 29.182H150.849L152.103 30.8428L153.331 29.182H154.876L152.675 32.1049V34.3635H151.505V32.1049Z" fill="#232323"/>
<path d="M150.533 34.3635H149.288L148.964 33.666H146.531L146.224 34.3635H144.97L147.162 29.182H148.333L150.533 34.3635ZM148.49 32.462L147.751 30.7597L147.021 32.462H148.49Z" fill="#232323"/>
<path d="M142.785 34.3638L142.27 33.1763L141.763 34.3638H140.593L138.4 29.1823H139.663L141.182 32.7446L141.597 31.7564L140.609 29.1823H141.905L143.366 32.7778L144.894 29.1823H146.156L143.956 34.3638H142.785Z" fill="#232323"/>
<path d="M131.099 34.3635V29.182H135.408V30.3777H132.269V31.1915H133.922V32.3872H132.269V33.1678H135.408V34.3635H131.099Z" fill="#232323"/>
<path d="M126.807 34.3637H125.628V29.1821H126.807V31.1916H129.306V29.1821H130.477V34.3637H129.306V32.3874H126.807V34.3637Z" fill="#232323"/>
<path d="M122.256 34.3635V30.3777H120.703V29.182H125.013V30.3777H123.427V34.3635H122.256Z" fill="#232323"/>
<path d="M116.355 35.531V33.1644H117.535V34.3602L116.962 35.531H116.355Z" fill="#232323"/>
<path d="M114.288 34.3635V30.3777H112.735V29.182H117.045V30.3777H115.459V34.3635H114.288Z" fill="#232323"/>
<path d="M110.863 34.3637L108.455 31.2165V34.3637H107.275V29.1821H108.554L110.946 32.3542V29.1821H112.116V34.3637H110.863Z" fill="#232323"/>
<path d="M102.359 34.3635V29.182H106.669V30.3777H103.53V31.1915H105.183V32.3872H103.53V33.1678H106.669V34.3635H102.359Z" fill="#232323"/>
<path d="M99.2652 34.3635H98.6425L97.3388 31.889V34.3635H96.168V29.182H97.289L98.958 32.3789L100.619 29.182H101.74V34.3635H100.569V31.889L99.2652 34.3635Z" fill="#232323"/>
<path d="M91.251 34.3635V29.182H95.5606V30.3777H92.4218V31.1915H94.0742V32.3872H92.4218V33.1678H95.5606V34.3635H91.251Z" fill="#232323"/>
<path d="M88.0174 32.3872V31.1915H90.633V33.4335C90.633 33.583 90.6054 33.7158 90.55 33.8321C90.4947 33.9484 90.4227 34.048 90.3341 34.131C90.2455 34.2085 90.1487 34.2667 90.0435 34.3054C89.9383 34.3442 89.8331 34.3635 89.7279 34.3635H86.6971C86.5864 34.3635 86.4757 34.3469 86.3649 34.3137C86.2598 34.275 86.1629 34.2196 86.0743 34.1476C85.9913 34.0701 85.9221 33.9733 85.8667 33.857C85.8169 33.7408 85.792 33.5996 85.792 33.4335V30.112C85.792 29.946 85.8169 29.8048 85.8667 29.6885C85.9221 29.5723 85.9913 29.4782 86.0743 29.4062C86.1629 29.3287 86.2598 29.2733 86.3649 29.2401C86.4757 29.2014 86.5864 29.182 86.6971 29.182H90.633V30.3777H86.9628V33.1678H89.4539V32.3872H88.0174Z" fill="#232323"/>
<path d="M85.4326 34.3635H84.1871L83.8632 33.666H81.4302L81.123 34.3635H79.8691L82.0613 29.182H83.2321L85.4326 34.3635ZM83.3899 32.462L82.6509 30.7597L81.9202 32.462H83.3899Z" fill="#232323"/>
<path d="M78.1663 34.3635L75.7582 31.2164V34.3635H74.5791V29.182H75.8579L78.2493 32.354V29.182H79.4202V34.3635H78.1663Z" fill="#232323"/>
<path d="M74.127 34.3635H72.8814L72.5576 33.666H70.1246L69.8173 34.3635H68.5635L70.7557 29.182H71.9265L74.127 34.3635ZM72.0842 32.462L71.3452 30.7597L70.6145 32.462H72.0842Z" fill="#232323"/>
<path d="M65.6412 34.3635H65.0184L63.7148 31.889V34.3635H62.5439V29.182H63.6649L65.334 32.3789L66.9947 29.182H68.1157V34.3635H66.9449V31.889L65.6412 34.3635Z" fill="#232323"/>
<path d="M58.1175 34.3637L55.7094 31.2165V34.3637H54.5303V29.1821H55.809L58.2005 32.3542V29.1821H59.3713V34.3637H58.1175Z" fill="#232323"/>
<path d="M50.9385 34.3635V33.1678H51.8436V30.3777H50.9385V29.182H53.9195V30.3777H53.0144V33.1678H53.9195V34.3635H50.9385Z" fill="#232323"/>
<path d="M50.4873 34.3635H49.2417L48.9179 33.666H46.4849L46.1777 34.3635H44.9238L47.116 29.182H48.2868L50.4873 34.3635ZM48.4446 32.462L47.7056 30.7597L46.9748 32.462H48.4446Z" fill="#232323"/>
<path d="M40.2676 31.3411H43.8216C43.8935 31.3411 43.9295 31.3079 43.9295 31.2415V30.4775C43.9295 30.4554 43.9184 30.4332 43.8963 30.4111C43.8741 30.3889 43.8492 30.3779 43.8216 30.3779H40.2676V29.1821H44.5191C44.5855 29.1821 44.6519 29.207 44.7184 29.2569C44.7848 29.3011 44.8457 29.3593 44.901 29.4312C44.9619 29.5032 45.009 29.5835 45.0422 29.672C45.081 29.7551 45.1003 29.8354 45.1003 29.9129V31.557C45.1003 31.7341 45.0782 31.8864 45.0339 32.0137C44.9951 32.141 44.9398 32.2434 44.8678 32.3209C44.7959 32.3984 44.7156 32.4566 44.627 32.4953C44.5384 32.5285 44.4471 32.5451 44.353 32.5451H41.4467V34.3637H40.2676V31.3411Z" fill="#232323"/>
<path d="M58.7728 16.9105H51.7431C51.1974 16.9105 50.748 17.367 50.748 17.9275V23.9812C50.748 24.5898 51.2295 25.0783 51.8154 25.0783H58.6043C59.3586 25.0783 59.9685 24.4537 59.9685 23.677V18.1437C59.9685 17.4631 59.4308 16.9185 58.7728 16.9185V16.9105ZM57.545 22.2436C57.545 22.7801 57.1197 23.2125 56.5981 23.2125H53.7814C53.3401 23.2125 52.987 22.8442 52.987 22.3957V19.4249C52.987 18.9284 53.3721 18.5361 53.8536 18.5361H56.9752C57.2802 18.5361 57.537 18.7923 57.537 19.1126V22.2436H57.545Z" fill="#232323"/>
<path d="M61.0293 16.9203V18.706H67.7701V20.3155H61.1497V25.056H63.2762V22.1573H64.809L67.7059 25.072H71.0121L68.059 22.1573H68.7009C69.5275 22.1573 70.1936 21.4846 70.1936 20.6518V18.4337C70.1936 17.6249 69.5516 16.9763 68.7491 16.9683L61.0293 16.9203Z" fill="#232323"/>
<path d="M203.523 16.9203V18.706H210.264V20.3155H203.644V25.056H205.77V22.1573H207.303L210.2 25.072H213.506L210.553 22.1573H211.195C212.022 22.1573 212.688 21.4846 212.688 20.6518V18.4337C212.688 17.6249 212.046 16.9763 211.243 16.9683L203.523 16.9203Z" fill="#232323"/>
<path d="M71.4883 16.9105V25.0462H80.0587V23.3326H73.9117V21.7711H77.0093V20.2977H73.9117V18.5921H79.8821V16.9345L71.4883 16.9105Z" fill="#232323"/>
<path d="M95.7959 16.9144V25.0502H104.366V23.3365H98.2194V21.775H101.325V20.3017H98.2194V18.596H104.19V16.9385L95.7959 16.9144Z" fill="#232323"/>
<path d="M164.828 16.9144V25.0502H173.399V23.3365H167.252V21.775H170.349V20.3017H167.252V18.596H173.222V16.9385L164.828 16.9144Z" fill="#232323"/>
<path d="M194.257 16.9144V25.0502H202.827V23.3365H196.68V21.775H199.786V20.3017H196.68V18.596H202.651V16.9385L194.257 16.9144Z" fill="#232323"/>
<path d="M83.8965 16.9144L83.9206 25.1623H86.1354L86.0873 21.0383L88.1897 25.0822L90.22 25.1062L92.4108 21.2465V25.0582H94.5373V16.9224H91.7607L89.3935 21.8631L86.9138 16.9144H83.8965Z" fill="#232323"/>
<path d="M105.034 16.9203V18.6499H112.385V23.2463H107.377V20.2034H105.01V25.04H113.436C114.046 25.04 114.543 24.5435 114.543 23.935V17.9693C114.543 17.4087 114.094 16.9603 113.532 16.9523L105.026 16.9203H105.034Z" fill="#232323"/>
<path d="M118.085 16.9203H115.445V25.056H118.085V16.9203Z" fill="#232323"/>
<path d="M41.6238 16.905C40.8694 16.905 40.2676 17.5136 40.2676 18.2583V23.2871C40.2676 24.264 41.062 25.0568 42.0411 25.0568H47.6102C48.6936 25.0568 49.5683 24.184 49.5683 23.1029V22.102H47.3214V23.2791H42.2978V18.6587H47.2812V19.4675H49.6244V18.3785C49.6244 17.5697 48.9664 16.9131 48.1559 16.905L41.6238 16.889V16.905Z" fill="#232323"/>
<path d="M120.485 16.905C119.731 16.905 119.129 17.5136 119.129 18.2583V23.2871C119.129 24.264 119.923 25.0568 120.902 25.0568H126.472C127.555 25.0568 128.43 24.184 128.43 23.1029V22.102H126.183V23.2791H121.159V18.6587H126.143V19.4675H128.486V18.3785C128.486 17.5697 127.828 16.9131 127.017 16.905L120.485 16.889V16.905Z" fill="#232323"/>
<path d="M155.881 16.905C155.126 16.905 154.524 17.5136 154.524 18.2583V23.2871C154.524 24.264 155.319 25.0568 156.298 25.0568H161.867C162.95 25.0568 163.825 24.184 163.825 23.1029V22.102H161.578V23.2791H156.555V18.6587H161.538V19.4675H163.881V18.3785C163.881 17.5697 163.223 16.9131 162.413 16.905L155.881 16.889V16.905Z" fill="#232323"/>
<path d="M135.713 16.9359H133.321L129.036 25.0156H131.869L132.639 23.6783H136.499L137.189 25.0957H140.062L135.705 16.9359H135.713ZM133.209 22.1489L134.525 19.9308L135.865 22.1489H133.209Z" fill="#232323"/>
<path d="M140.506 16.9203L140.458 25.056H148.988V23.2463H142.785V16.9363L140.506 16.9203Z" fill="#232323"/>
<path d="M174.188 25.0556H176.627V20.163L181.201 25.0556H183.6V16.9359H181.322V21.7004L176.884 16.9359H174.284L174.188 25.0556Z" fill="#232323"/>
<path d="M184.721 16.9599V18.7056H187.714V25.1197H189.84V18.6896H193.115V16.9359L184.721 16.9599Z" fill="#232323"/>
<path d="M32.0832 19.9256C31.3737 16.8647 29.7964 14.5778 27.5271 13.3112C26.7589 12.8832 25.8735 12.631 24.9763 12.59C23.6042 12.5255 22.5781 12.5783 21.9272 12.7424C21.9096 12.7424 21.8979 12.7542 21.8803 12.76C21.9506 12.631 22.021 12.4903 22.0796 12.3379C22.2673 11.9039 22.6015 11.3469 22.7892 11.2237C22.9182 11.1416 23.0354 11.0243 23.0882 10.8778C23.2348 10.4556 22.9885 10.0509 22.6074 9.95713C22.4549 9.92194 21.5402 9.71086 20.5726 9.85745C21.2646 9.1538 22.1148 8.49119 23.1527 7.95758C23.3521 7.8579 23.4987 7.67611 23.5397 7.45329C23.5984 7.11905 23.4049 6.8024 23.1058 6.69099L20.344 5.65896C20.1446 5.58273 19.9218 5.60619 19.74 5.71761C19.6462 5.77624 17.7522 6.98419 16.3918 10.7781C16.3683 10.2738 16.2921 9.64049 16.0751 8.95442C15.6119 7.46501 14.4157 5.40682 11.3431 4.05228L11.302 4.03469C10.44 3.7239 8.0652 2.63324 7.4026 1.33147C7.31464 1.16142 7.16218 1.02069 6.97453 0.979647C6.51716 0.868234 6.13016 1.19074 6.10084 1.60121C6.09497 1.73608 5.89561 4.9084 6.71067 7.54711C6.79863 7.93412 7.54919 10.8191 10.6804 12.6017C10.27 12.5489 9.86538 12.5313 9.4901 12.5489C9.18518 12.5255 7.8072 12.4669 6.22984 13.106C4.62316 13.7569 2.4946 15.2756 1.4743 18.8232C1.35703 19.175 0.113906 22.9924 1.36289 27.1733C1.45085 27.5603 2.44769 31.6943 4.11301 34.1805C4.57038 34.8607 5.0043 35.5527 5.41477 36.2622C5.49099 36.3971 5.56136 36.5085 5.59654 36.5612C9.71292 42.2609 12.8911 42.0791 14.0638 41.7331C14.3746 41.6393 14.662 41.4634 14.8906 41.2171C15.4536 40.6131 16.3331 40.3962 16.468 40.3668C17.3476 40.273 18.3503 41.1409 18.6786 41.4341C19.2474 41.9325 19.9921 42.0263 20.473 42.0263C20.6606 42.0263 20.8131 42.0146 20.8951 42.0029C22.2028 41.9911 24.1965 40.4548 24.5893 40.144C24.818 39.9622 26.0494 38.6722 26.1725 38.5256C26.413 38.2383 32.0129 31.4245 32.4703 24.1534C32.4703 24.0772 32.6051 22.189 32.0832 19.9256Z" fill="#020819"/>
<path d="M20.097 6.31248C20.097 6.31248 17.4758 7.93089 16.2679 13.7595C16.2679 13.7595 10.58 9.34406 10.3338 7.48523C10.3338 7.48523 13.8872 11.5899 15.6463 11.8303C15.6463 11.8303 16.5435 7.1041 11.0609 4.69407C11.0609 4.69407 7.71851 3.48612 6.78617 1.65662C6.78617 1.65662 6.58093 4.82893 7.37254 7.37969C7.37254 7.37969 8.06449 10.7572 11.8232 12.4167C11.8232 12.4167 15.4118 13.8064 16.221 13.8827C16.221 13.8827 16.0979 14.6684 16.1448 15.0437C16.1448 15.0437 12.0694 13.1028 9.47766 13.2435C9.47766 13.2435 3.95982 12.6571 2.13032 19.0369C2.13032 19.0369 0.787521 22.866 2.02478 27.0059C2.02478 27.0059 3.23272 32.2481 5.19709 34.4881C5.19709 34.4881 5.36713 32.7641 6.47539 33.2801C6.47539 33.2801 7.44291 33.761 7.9941 33.3505C8.47493 32.9869 10.5155 32.1543 11.7293 31.9666C12.3568 31.8728 12.8728 31.4272 13.0604 30.8173C13.0839 30.7352 13.1073 30.6473 13.1308 30.5535C13.1308 30.5535 13.8579 28.2666 14.4443 27.4281C14.5264 27.3108 14.5791 27.17 14.5909 27.0234C14.626 26.5778 14.7492 25.6161 15.1127 25.0356C15.1127 25.0356 15.0776 24.244 14.5967 23.4641C14.1159 22.6901 12.9959 19.6526 12.9959 19.6526C12.9959 19.6526 12.7203 18.861 13.5999 18.4271C14.4795 17.9932 17.7925 16.6328 17.7925 16.6328C17.7925 16.6328 18.2557 16.41 19.4109 16.4803L20.1204 15.7708C20.1204 15.7708 19.6044 14.4104 20.226 13.8768C20.226 13.8768 17.9039 14.6743 17.1651 15.0261C17.0771 15.0671 16.9833 14.9909 17.0068 14.8971C17.2706 13.8182 18.5665 9.55516 22.8647 7.33864L20.1028 6.30662L20.097 6.31248Z" fill="#F9F9F9"/>
<path d="M19.1792 13.2933C19.1792 13.2933 20.8504 13.6568 21.4367 12.0853C21.4367 12.0853 21.9176 10.9477 22.4394 10.637C22.4394 10.637 20.3871 10.1385 19.402 11.1178C19.402 11.1178 18.5576 11.927 18.5576 13.393C18.5576 13.393 19.6424 11.8039 20.5044 11.669C20.5044 11.669 19.1792 12.701 19.1792 13.2874V13.2933Z" fill="#FCFCFC"/>
<path d="M6.14941 36.1624C6.14941 36.1624 7.27526 34.6847 12.9807 33.77C13.3912 33.7055 13.7899 33.5589 14.1359 33.3185C14.3294 33.1894 14.5053 33.0311 14.6284 32.8552C14.7398 32.691 14.8688 32.5386 15.0096 32.392C15.7426 31.6414 17.6717 29.5656 17.6248 28.516C17.6248 28.516 22.5445 31.5769 23.5942 31.8759C23.7525 31.9229 23.8639 32.0753 23.8463 32.2454C23.8346 32.3392 23.7994 32.4272 23.7466 32.5092C23.6352 32.6852 23.4241 33.1777 23.4241 33.8286C23.4241 34.5205 23.471 35.6816 23.5942 36.4673C23.7056 37.1944 23.3772 37.8981 22.7615 38.3027C22.697 38.3437 22.656 38.4141 22.656 38.4903C22.6501 38.8128 22.7674 39.6338 24.1688 39.6045C24.1688 39.6045 21.9816 41.346 20.8558 41.3108C20.8558 41.3108 19.7886 41.4809 19.1318 40.9121C18.4751 40.3433 17.4255 39.5517 16.3583 39.6865C16.3583 39.6865 15.1679 39.9152 14.388 40.7479C14.2473 40.9003 14.0714 41.0176 13.872 41.0763C12.8986 41.3577 10.0488 41.5512 6.15528 36.1624H6.14941Z" fill="#F9F9F9"/>
<path d="M25.6484 38.0891C25.6484 38.0891 31.3363 31.246 31.7878 24.1039C31.7878 24.1039 32.3214 16.7741 27.1906 13.9126C26.5045 13.5315 25.7305 13.3145 24.9448 13.2793C24.0769 13.2383 22.8338 13.2265 22.095 13.4142L22.74 13.5842C22.869 13.6194 22.9687 13.725 22.9863 13.8598L23.0625 14.4052C23.0625 14.4052 23.5785 14.8743 23.2912 15.1499C23.2912 15.1499 23.1974 15.2671 23.4202 15.4606C23.5375 15.5603 23.6371 15.6659 23.7016 15.7538C23.7661 15.8418 23.7251 15.9708 23.6196 16.0118L23.5023 16.0529C23.5023 16.0529 23.5433 16.1408 23.5668 16.2347C23.5902 16.3285 23.5374 16.434 23.4436 16.4692C23.3615 16.4985 23.297 16.5572 23.4436 16.6569C23.4436 16.6569 23.5609 16.7741 23.4202 16.8504C23.3674 16.8797 23.3263 16.9383 23.3322 16.997C23.3381 17.1494 23.3205 17.3957 23.1387 17.4016C22.8748 17.4133 22.5875 17.0321 22.1243 17.0908C22.1243 17.0908 21.7314 17.2081 21.6669 17.6537C21.6669 17.6537 22.2181 17.6185 22.4585 18.0466C22.6579 18.3984 23.4495 19.8468 23.7134 20.3335C23.7955 20.4859 23.9127 20.6208 24.0535 20.7146C24.2177 20.8202 24.4112 20.8671 24.4405 20.5328C24.4405 20.5328 24.4053 19.5301 24.2939 19.1783C24.2939 19.1783 24.2118 18.9496 24.5226 18.9613C24.5226 18.9613 24.933 18.3574 25.2849 18.5743C25.3611 18.6212 25.449 18.6506 25.5429 18.6506H25.5956C25.7129 18.6506 25.8243 18.6916 25.9123 18.762L26.2817 19.0493C26.3755 19.1197 26.4342 19.2311 26.4342 19.3484C26.4342 19.4891 26.3462 19.6591 26.0237 19.8116C26.0237 19.8116 25.7598 19.9934 25.7129 20.6267C25.666 21.2599 25.1734 24.145 23.0566 22.4914L22.1946 21.6411L22.0774 21.5356C22.0774 21.5356 22.2357 22.0516 21.9718 22.5676C21.708 23.0836 21.2037 23.7638 20.9281 24.4323C20.6525 25.1008 20.4707 25.7106 20.4707 25.7106C20.4707 25.7106 22.0246 26.6664 23.5492 28.3669C24.3584 29.2641 24.9448 29.9267 25.3142 30.343C25.8185 30.9118 26.0941 31.6624 26.0471 32.4247C26.0296 32.7472 25.9709 33.1224 25.8419 33.527C25.8419 33.527 25.0034 36.5938 25.2086 37.6903L25.6367 38.0891H25.6484Z" fill="#F9F9F9"/>
<path d="M16.7102 23.7395L17.4021 23.1297C17.4549 23.0828 17.49 23.0124 17.49 22.9361L17.5194 21.394C17.5194 21.2884 17.5018 21.1887 17.4607 21.0949C17.3845 20.919 17.2672 20.5965 17.2555 20.2974C17.2438 19.9984 17.2731 19.6231 17.2907 19.412C17.2965 19.3299 17.2203 19.2654 17.1382 19.2771C16.6691 19.371 15.338 19.6876 15.4143 20.3971C15.5081 21.2591 15.8071 22.6254 15.8071 22.6254L16.2763 23.9447C16.4346 23.9154 16.5812 23.845 16.7043 23.7336L16.7102 23.7395Z" fill="#FCFCFC"/>
</svg>
