<svg width="164" height="36" viewBox="0 0 164 36" fill="none" xmlns="http://www.w3.org/2000/svg">
<path d="M17.9621 13.7548C17.9621 13.7548 5.57503 11.1068 5.25529 19.6003C4.93554 28.0937 11.1149 33.3944 15.3118 36.0021C8.80087 33.0012 0.795469 26.8644 0.781258 17.6605C0.769416 9.24991 13.2062 5.0245 17.9597 13.7548H17.9621Z" fill="#232323"/>
<path d="M17.9219 15.4534C17.9219 15.4534 29.4224 12.9849 29.7192 20.9029C30.0161 28.821 21.5028 33.5737 17.6063 36.0048C23.6512 33.2072 33.8598 27.675 33.873 19.0945C33.884 11.2537 22.3373 7.31457 17.9241 15.4534H17.9219Z" fill="#232323"/>
<path d="M29.2879 10.8064C31.0682 10.8064 32.5114 9.36321 32.5114 7.5829C32.5114 5.80259 31.0682 4.35938 29.2879 4.35938C27.5076 4.35938 26.0645 5.80259 26.0645 7.5829C26.0645 9.36321 27.5076 10.8064 29.2879 10.8064Z" fill="#232323"/>
<path d="M11.9297 7.23257C13.9258 7.23257 15.544 5.61438 15.544 3.61824C15.544 1.6221 13.9258 0.00390625 11.9297 0.00390625C9.93359 0.00390625 8.31543 1.6221 8.31543 3.61824C8.31543 5.61438 9.93359 7.23257 11.9297 7.23257Z" fill="#232323"/>
<path d="M149.887 14.3125H159.202C160.708 14.3125 161.853 14.7561 162.637 15.6432C163.421 16.5304 163.813 17.6961 163.813 19.1403V27.9295C163.813 29.7863 162.884 30.7147 161.028 30.7147H152.765C150.041 30.7147 148.68 29.0126 148.68 25.6084C148.68 24.0197 149.02 22.7715 149.701 21.8637C150.382 20.9559 151.403 20.502 152.765 20.502H160.192V19.4498C160.192 17.8818 159.429 17.0978 157.902 17.0978H149.887V14.3125ZM160.192 23.2873H154.157C153.002 23.2873 152.424 24.061 152.424 25.6084C152.424 27.1558 153.002 27.9295 154.157 27.9295H159.264C159.883 27.9295 160.192 27.62 160.192 27.001V23.2873Z" fill="#232323"/>
<path d="M145.006 30.72H142.747C140.787 30.72 139.291 30.3074 138.26 29.4821C137.228 28.6568 136.712 27.2848 136.712 25.366V17.103H134.453V14.3177H136.712V9.05664H140.333V14.3177H145.006V17.103H140.333V24.6233C140.333 25.8199 140.643 26.6762 141.261 27.192C141.88 27.6871 142.829 27.9347 144.109 27.9347H145.006V30.72Z" fill="#232323"/>
<path d="M116.853 14.3125H126.169C127.675 14.3125 128.82 14.7561 129.604 15.6432C130.388 16.5304 130.78 17.6961 130.78 19.1403V27.9295C130.78 29.7863 129.851 30.7147 127.994 30.7147H119.732C117.008 30.7147 115.646 29.0126 115.646 25.6084C115.646 24.0197 115.987 22.7715 116.668 21.8637C117.349 20.9559 118.37 20.502 119.732 20.502H127.159V19.4498C127.159 17.8818 126.395 17.0978 124.869 17.0978H116.853V14.3125ZM127.159 23.2873H121.124C119.969 23.2873 119.391 24.061 119.391 25.6084C119.391 27.1558 119.969 27.9295 121.124 27.9295H126.23C126.849 27.9295 127.159 27.62 127.159 27.001V23.2873Z" fill="#232323"/>
<path d="M88.6064 30.7147V17.0978C88.6064 15.2409 89.5349 14.3125 91.3917 14.3125H105.596C107.618 14.3125 109.186 14.7355 110.3 15.5814C111.414 16.4273 111.972 17.8715 111.972 19.914V30.7147H108.351V20.8734C108.351 19.5942 108.083 18.6452 107.546 18.0262C107.01 17.4073 106.133 17.0978 104.916 17.0978H102.099V30.7147H98.4786V17.0978H93.1557C92.5367 17.0978 92.2273 17.4073 92.2273 18.0262V30.7147H88.6064Z" fill="#232323"/>
<path d="M60.7129 30.7062L69.1483 10.6013C69.553 9.64238 70.011 8.9818 70.5223 8.61955C71.0548 8.2573 71.8216 8.07617 72.8228 8.07617C73.7814 8.07617 74.5269 8.26795 75.0595 8.65151C75.6133 9.01376 76.0926 9.66368 76.4973 10.6013L84.9328 30.7062H80.4914L78.1908 25.0487H67.4229L65.1543 30.7062H60.7129ZM72.1838 12.9346L68.5093 22.0442H77.1044L73.4619 12.9346C73.2275 12.3166 73.0145 12.0077 72.8228 12.0077C72.6311 12.0077 72.4181 12.3166 72.1838 12.9346Z" fill="#232323"/>
<path d="M56.5105 30.7188H47.4121C46.1329 30.7188 45.0704 30.5434 44.2245 30.1927C43.3993 29.8419 42.77 29.2952 42.3368 28.5525C41.9035 27.7891 41.6043 26.9432 41.4393 26.0148C41.2949 25.0863 41.2227 23.9103 41.2227 22.4867C41.2227 19.3094 41.821 17.1225 43.0176 15.9258C44.2348 14.7292 46.2774 14.1309 49.1451 14.1309C51.7034 14.1309 53.6531 14.6054 54.9941 15.5545C56.3558 16.4829 57.0366 18.1747 57.0366 20.6299C57.0366 22.693 56.1907 23.7246 54.499 23.7246H44.9673C44.9673 25.1482 45.1942 26.2108 45.6481 26.9122C46.1226 27.5931 47.0717 27.9335 48.4952 27.9335H56.5105V30.7188ZM44.9673 20.9393H52.4874C53.0238 20.9393 53.292 20.6195 53.292 19.98C53.292 18.969 52.8897 18.2056 52.0851 17.6898C51.3011 17.174 50.3211 16.9161 49.1451 16.9161C47.6184 16.9161 46.5352 17.2359 45.8957 17.8755C45.2767 18.4945 44.9673 19.5157 44.9673 20.9393Z" fill="#232323"/>
</svg>
