<svg width="463" height="36" viewBox="0 0 463 36" fill="none" xmlns="http://www.w3.org/2000/svg">
<path fill-rule="evenodd" clip-rule="evenodd" d="M85.7329 32.021C85.9174 32.6029 86.103 33.1837 86.2875 33.7656C86.2613 33.7884 86.234 33.8112 86.2078 33.834C85.8776 33.588 85.4949 33.3876 85.2284 33.0858C84.7228 32.5141 84.2832 31.882 83.7799 31.2967C83.8482 31.4994 83.9233 31.6998 83.9803 31.9048C84.1659 32.5801 84.3561 33.2532 84.5212 33.9308C84.6089 34.2918 84.3071 34.5685 83.9518 34.5218C83.6717 34.4854 83.4917 34.3533 83.3391 34.121C83.059 33.6939 82.7526 33.2839 82.3985 32.8842C82.4645 33.1917 82.5363 33.4946 82.5943 33.8032C82.6581 34.1426 82.723 34.4831 82.7583 34.8247C82.8096 35.3167 82.2652 35.7278 81.7926 35.5718C81.755 35.5593 81.7209 35.5377 81.6821 35.5285C81.0319 35.3794 80.6276 35.007 80.5604 34.3168C80.549 34.2018 80.5069 34.0891 80.475 33.9763C80.4704 33.9627 80.4454 33.9547 80.4203 33.9399C80.3292 34.3316 80.2666 34.7279 80.1413 35.1038C80.0513 35.3668 79.8782 35.6026 79.7302 35.869C78.9638 35.5172 78.7964 34.8008 78.5993 34.1073C78.5287 33.8545 78.4855 33.5925 78.3966 33.3329C78.4251 33.8545 78.2896 34.3294 78.0755 34.794C77.9012 35.1709 77.284 35.3885 76.9264 35.1903C76.3422 34.8657 76.185 34.3123 76.0996 33.7133C76.0882 33.6256 76.0825 33.5367 76.0689 33.449C76.0643 33.4251 76.0393 33.4024 76.0928 33.4069C75.8924 34.0663 75.7215 34.7382 75.4778 35.3805C75.3879 35.6196 75.1248 35.7928 74.9392 36C74.3823 35.426 74.2354 34.7416 73.9985 34.0788C73.929 34.4011 73.8709 34.7268 73.7878 35.0468C73.7616 35.147 73.6944 35.2677 73.609 35.3156C73.2651 35.5058 72.9109 35.6743 72.5545 35.8383C72.5032 35.8622 72.4076 35.8246 72.3495 35.7893C71.7186 35.4067 71.6434 35.2108 71.7869 34.4637C71.8746 34.0116 71.9372 33.5527 71.9532 33.0687C71.7083 33.4593 71.4692 33.8533 71.2164 34.2371C71.0581 34.4774 70.9373 34.7405 70.5832 34.7963C70.1937 34.8566 69.8429 34.5776 69.9238 34.1859C70.0901 33.3773 70.2734 32.5722 70.4488 31.7659C70.4602 31.7135 70.4727 31.6622 70.4374 31.5882C70.2244 31.89 70.0103 32.1907 69.7997 32.4947C69.5765 32.817 69.392 33.1769 69.1255 33.4582C68.8601 33.7372 68.5139 33.941 68.203 34.1779C68.17 34.1608 68.1381 34.146 68.1062 34.1289C68.2554 33.5481 68.4046 32.9673 68.5538 32.3865C68.0037 32.8181 67.5471 33.3796 66.7431 33.2896C66.4823 32.6097 66.4322 31.9173 66.6417 31.1646C66.8273 30.4984 67.1758 29.9392 67.5573 29.4005C68.1438 28.5749 68.7622 27.7675 69.4284 27.0056C70.0502 26.295 70.5228 25.4966 71.0068 24.6972C71.5273 23.8362 71.9543 22.9343 72.3199 22.0005C72.3256 21.9857 72.321 21.9663 72.321 21.9185C72.198 22.0722 72.0898 22.2055 71.9839 22.3376C71.4817 22.4275 71.3143 22.1383 71.3188 21.6155C71.0945 21.931 70.9271 22.1804 70.7437 22.415C70.6959 22.4765 70.5786 22.5437 70.5194 22.5255C70.2415 22.4389 69.991 22.4947 69.7484 22.6211C69.5058 22.7487 69.2872 22.727 69.0651 22.5699C68.9057 22.456 68.7166 22.3808 68.5675 22.2578C68.3226 22.0528 68.121 22.1178 67.8921 22.284C67.6951 22.4287 67.473 22.538 67.2772 22.6519C66.7431 22.3296 66.529 21.8467 66.5768 21.2363C65.9425 21.5119 65.3605 21.7647 64.7752 22.0153C64.6123 22.0859 64.4461 22.1474 64.2775 22.1998C64.2206 22.2191 64.1431 22.2168 64.0885 22.1941C63.683 22.0175 63.2685 21.8547 62.8824 21.6429C62.7321 21.5597 62.616 21.3764 62.5351 21.2135C62.403 20.9459 62.239 20.9186 61.9976 21.053C61.3815 21.3969 60.7267 21.5597 60.0149 21.5586C59.4386 21.5575 58.9751 21.3445 58.6381 20.9117C58.457 20.6794 58.3089 20.6327 58.0493 20.7318C57.7555 20.8423 57.4355 20.8867 57.1462 21.0074C56.6554 21.2113 56.2682 20.9653 55.8878 20.7432C55.4642 20.4961 55.0747 20.192 54.6579 19.9335C54.5622 19.872 54.4005 19.8515 54.2946 19.8857C53.7605 20.0588 53.2457 20.2763 52.6604 20.249C52.2709 20.2296 51.7641 19.9324 51.64 19.5668C51.6092 19.4734 51.5922 19.3675 51.5364 19.2923C51.484 19.2206 51.3872 19.1329 51.3109 19.134C51.0045 19.1363 50.7005 19.1785 50.3941 19.1898C50.2825 19.1944 50.1527 19.1876 50.0604 19.134C49.6858 18.9199 49.3213 18.6842 48.9546 18.4553C48.9216 18.4337 48.8829 18.4098 48.867 18.3767C48.5299 17.6798 47.817 17.5124 47.1929 17.3461C46.5324 17.1696 46.2021 16.7334 45.914 16.2278C45.717 15.8793 45.4494 15.7757 45.0986 15.7757C44.8663 15.7745 44.6954 15.6857 44.5246 15.5274C44.0588 15.0969 43.6067 14.6607 43.2537 14.1266C43.1797 14.015 42.9758 13.9615 42.8232 13.9365C42.165 13.8237 41.4988 13.7782 40.8679 13.5185C40.5296 13.3784 40.4169 13.1142 40.2734 12.8147C41.1184 12.5813 41.9429 12.3535 42.7686 12.1246C42.7674 12.1109 42.7651 12.0984 42.764 12.0836C42.3734 12.1291 41.9839 12.1929 41.5933 12.218C40.6276 12.2829 39.6596 12.3808 38.6939 12.366C37.858 12.3535 37.0471 12.1075 36.2636 11.8057C36.2089 11.7841 36.1771 11.7032 36.1349 11.6497C36.2078 11.6007 36.275 11.5256 36.3547 11.5062C37.2737 11.3069 38.1973 11.1805 39.1437 11.16C39.6869 11.1486 40.2267 10.955 40.7676 10.8446C40.7631 10.8161 40.7563 10.7853 40.7517 10.7569C40.4716 10.7842 40.1914 10.8241 39.9113 10.8354C38.498 10.8981 37.0858 10.9778 35.6726 10.9926C35.2888 10.9972 34.8879 10.8263 34.5235 10.6669C34.3766 10.602 34.3082 10.356 34.1932 10.1749C34.8127 9.78887 35.4778 9.82645 36.1315 9.76495C35.9174 9.76495 35.7033 9.76267 35.4903 9.76609C35.2728 9.77065 35.0542 9.78317 34.8367 9.78887C34.0156 9.8105 33.1945 9.84922 32.3722 9.84467C31.6616 9.84239 30.9533 9.78317 30.2438 9.76153C29.7382 9.74673 29.4956 9.34586 29.0902 9.02585C29.335 8.90058 29.5184 8.77417 29.7211 8.70698C30.262 8.52819 30.8178 8.49289 31.3883 8.54527C31.7698 8.58172 32.1593 8.5521 32.5237 8.5521C31.5124 8.48833 30.5661 8.07152 29.5776 7.82895C29.1665 7.72874 28.7679 7.56816 28.3533 7.49642C27.899 7.42011 27.6814 7.15819 27.5869 6.74365C28.0436 6.48856 28.5139 6.57967 28.9899 6.67874C30.0115 6.89284 31.0319 7.12174 32.0613 7.29598C32.633 7.39165 33.2229 7.39164 33.8049 7.4315C34.1488 7.45428 34.4939 7.4725 34.8446 7.45542C34.2183 7.33926 33.5965 7.18324 32.9656 7.11491C32.1046 7.02039 31.3382 6.67874 30.5695 6.32684C30.0525 6.08997 29.54 5.84398 29.023 5.61052C28.6403 5.43856 28.5139 5.09464 28.3852 4.7063C31.0193 5.33265 33.6261 5.95331 36.234 6.57283C36.2408 6.55005 36.2477 6.52842 36.2556 6.50564C35.9311 6.38493 35.6122 6.24371 35.2808 6.14691C33.5099 5.62875 31.911 4.72566 30.2939 3.8761C29.8657 3.65175 29.5719 3.16889 29.2177 2.80561C29.2325 2.78511 29.2462 2.76574 29.261 2.74638C30.951 3.29757 32.6216 3.92621 34.3379 4.3806C36.0563 4.83385 37.8204 5.114 39.5639 5.46931C39.573 5.43743 39.5821 5.40212 39.5901 5.36909C39.3054 5.27116 39.0196 5.1755 38.7348 5.07414C37.3478 4.57534 35.9436 4.11753 34.5827 3.55609C34.0349 3.32946 33.5714 2.8876 33.0863 2.52204C32.8289 2.32958 32.6034 2.09498 32.3711 1.86949C32.3142 1.81255 32.2903 1.72145 32.2162 1.58023C36.3866 2.67122 40.4875 3.74399 44.5873 4.8179C44.5975 4.79285 44.6078 4.76666 44.6169 4.74274C42.7401 3.93873 40.8644 3.13586 38.9877 2.33185C38.9979 2.29655 39.0082 2.26011 39.0173 2.22366C39.0503 2.21797 39.0833 2.20886 39.1152 2.20772C40.1755 2.18381 41.2346 2.17128 42.2937 2.13711C42.9382 2.11548 43.5065 2.39449 44.0873 2.58809C46.0996 3.26455 48.096 3.98429 50.0992 4.68694C50.1345 4.69947 50.1766 4.69719 50.2575 4.70744C50.1379 4.39084 50.0263 4.09589 49.8953 3.75196C50.1014 3.76449 50.2632 3.78727 50.4249 3.78271C52.0124 3.74513 53.5395 4.10842 55.0656 4.47056C56.5859 4.83157 58.1244 4.93748 59.6801 4.83157C60.3998 4.78146 61.1252 4.77235 61.8416 4.7006C62.5772 4.62772 63.3061 4.47056 64.0429 4.39882C64.5007 4.35554 64.9676 4.39882 65.4311 4.41135C65.9652 4.42615 66.4994 4.4569 67.0335 4.46829C68.9706 4.50928 70.9032 4.60267 72.8084 4.991C73.1797 5.06617 73.3072 4.76666 73.4223 4.5537C73.5191 4.37604 73.543 4.17675 73.5919 3.98315C73.6466 3.76222 73.7286 3.55039 73.806 3.33743C73.9666 2.88874 74.0201 2.4093 74.1773 1.95832C74.3185 1.55062 74.0475 1.23517 73.7115 0.918574C73.8971 0.592871 74.4164 0.363966 74.7524 0.248945C75.7113 -0.0756195 76.6577 -0.172417 77.4992 0.521126C77.7862 0.758001 78.0356 1.07801 78.2076 1.40941C78.5754 2.11662 78.6506 2.93657 79.031 3.63922C79.1426 3.84307 79.2576 4.04236 79.3589 4.24963C79.4626 4.46259 79.589 4.66872 79.8008 4.78829C79.86 4.82246 79.9443 4.8384 80.0103 4.82701C80.5171 4.73591 81.0182 4.61406 81.5273 4.54345C82.2504 4.44096 82.9758 4.3544 83.7035 4.29405C85.2615 4.16308 86.8182 4.03667 88.3773 3.94443C88.826 3.91824 89.2826 3.99112 89.7302 4.05489C90.9875 4.22799 92.2481 4.23825 93.5145 4.24394C95.2933 4.25191 97.0061 3.93645 98.7087 3.45131C100.039 3.07209 101.395 2.80332 102.823 2.85799C102.732 3.1518 102.642 3.44334 102.534 3.79182C103.143 3.54811 103.696 3.32149 104.251 3.10625C106.063 2.41043 107.873 1.70664 109.691 1.0336C109.968 0.929964 110.295 0.947044 110.598 0.943628C111.576 0.933378 112.553 0.939075 113.545 0.939075C111.839 2.05398 109.843 2.58923 108.128 3.68591C112.152 2.47421 116.178 1.2625 120.204 0.0507901C120.229 0.076983 120.255 0.104319 120.28 0.130512C120.109 0.338916 119.96 0.570097 119.762 0.747753C119.344 1.12356 118.921 1.49937 118.457 1.81825C118.114 2.05512 117.717 2.22253 117.328 2.3831C115.977 2.9434 114.619 3.4889 113.197 4.06628C114.993 3.80435 116.684 3.3716 118.344 2.85571C120.001 2.33983 121.614 1.68272 123.337 1.05409C123.097 1.34335 122.888 1.55746 122.723 1.80116C122.447 2.20431 122.034 2.4093 121.629 2.63137C120.815 3.08006 120.018 3.55837 119.184 3.96151C118.484 4.2986 117.742 4.54572 117.02 4.83498C116.879 4.88965 116.741 4.95114 116.602 5.00922C116.612 5.03769 116.621 5.06617 116.63 5.09464C119.136 4.39996 121.64 3.703 124.167 3.00148C124.114 3.58342 123.756 3.88179 123.327 4.09589C122.515 4.50131 121.704 4.9204 120.863 5.25749C120.347 5.46476 119.776 5.53422 119.229 5.66063C118.858 5.74718 118.484 5.8269 118.118 5.96812C118.671 5.91118 119.233 5.89637 119.777 5.7916C121.17 5.5217 122.559 5.22788 123.94 4.90901C124.338 4.81791 124.694 4.85662 125.067 4.96823C125.005 5.35429 124.861 5.60825 124.437 5.73352C123.282 6.07061 122.147 6.4692 121.001 6.8359C120.815 6.89512 120.616 6.90992 120.387 6.95433C121.501 6.98167 122.633 6.6013 123.672 7.29712C123.341 7.73785 123.007 8.07949 122.437 8.10341C121.748 8.13188 121.06 8.2264 120.369 8.23893C119.092 8.26171 117.815 8.24462 116.538 8.26968C117.277 8.39267 118.06 8.17174 118.741 8.6136C118.656 9.2559 118.111 9.39711 117.645 9.45405C116.16 9.63171 114.665 9.62032 113.172 9.49277C112.848 9.4643 112.523 9.44722 112.187 9.46772C112.367 9.50871 112.549 9.5406 112.726 9.59299C113.311 9.76381 113.907 9.78545 114.512 9.80709C115.24 9.831 115.964 9.92894 116.69 10.0132C116.799 10.0257 116.898 10.1339 117.053 10.2307C115.942 10.6897 114.894 11.0325 113.77 11.0085C112.664 10.9835 111.559 10.9174 110.378 10.8651C111.265 11.0769 112.085 11.2716 112.896 11.4641C112.813 12.1166 112.291 12.2419 111.825 12.3808C111.355 12.522 110.862 12.5926 110.377 12.6803C110.19 12.7145 110.05 12.7806 109.959 12.9605C109.66 13.5538 109.184 14.0105 108.693 14.4318C108.521 14.5799 108.212 14.5628 107.974 14.6459C107.849 14.6892 107.718 14.7632 107.63 14.86C107.512 14.9887 107.422 15.147 107.341 15.3042C107.111 15.7506 106.781 16.0444 106.284 16.2004C105.846 16.3382 105.438 16.5728 105.021 16.7733C104.955 16.804 104.89 16.8689 104.861 16.935C104.571 17.5693 103.909 17.7618 103.413 18.149C103.325 18.2196 103.144 18.1729 103.008 18.1729C102.7 18.1763 102.395 18.174 102.076 18.174C102.047 18.264 102.012 18.3551 101.984 18.4473C101.803 19.0407 101.437 19.2901 100.823 19.3174C100.303 19.3413 99.835 19.1659 99.3578 19.0156C99.1961 18.9655 99.0799 18.9598 98.933 19.0805C98.5686 19.3812 98.1962 19.6761 97.7976 19.9289C97.3888 20.1897 96.972 20.4505 96.4322 20.2171C96.1418 20.0872 95.8115 20.0759 95.5154 19.9756C95.3207 19.9096 95.2182 19.9734 95.1214 20.118C94.7558 20.6749 94.2388 20.881 93.5749 20.9061C92.8631 20.9322 92.239 20.7113 91.6195 20.4334C91.4396 20.3526 91.3382 20.3742 91.271 20.5416C90.9715 21.2773 90.2108 21.3639 89.6323 21.7032C89.5821 21.734 89.4808 21.693 89.409 21.6668C88.7599 21.4208 88.1085 21.1703 87.4582 20.922C87.3774 20.8913 87.2943 20.8594 87.194 20.8218C87.1667 20.9698 87.1109 21.1042 87.1234 21.2329C87.1621 21.6281 86.9458 21.8752 86.6884 22.1235C86.5597 22.2476 86.4527 22.2897 86.3035 22.1884C86.2796 22.1713 86.25 22.161 86.2283 22.1417C85.7045 21.6782 85.2113 21.7818 84.7365 22.2214C84.5007 22.4389 84.2456 22.4662 83.9529 22.3273C83.732 22.2225 83.4963 22.1633 83.2423 22.2681C83.1854 22.292 83.0601 22.2282 83.0089 22.1679C82.8255 21.9515 82.6604 21.7169 82.4531 21.4436C82.4064 21.6748 82.3688 21.857 82.3347 22.0278C81.9258 22.2715 81.648 22.0973 81.3849 21.775C81.4851 21.9743 81.5922 22.1713 81.6833 22.3729C82.2424 23.6142 83.0203 24.7257 83.7821 25.8429C84.0304 26.2061 84.3641 26.5148 84.6704 26.8348C85.5211 27.7185 86.3411 28.6261 87.0073 29.6636C87.6462 30.6555 87.9958 31.6907 87.5528 32.8705C86.7772 32.9855 86.3001 32.4355 85.7329 32.021Z" fill="#232323"/>
<path d="M422.801 17.8667C422.86 18.8006 423.059 19.6152 423.397 20.3107C423.755 20.9862 424.212 21.5426 424.768 21.9797C425.344 22.4169 425.99 22.7447 426.705 22.9633C427.44 23.162 428.215 23.2613 429.03 23.2613C430.063 23.2613 430.997 23.1819 431.832 23.0229C432.666 22.8441 433.461 22.556 434.216 22.1586L434.842 24.0363C433.928 24.4535 433.024 24.7416 432.13 24.9006C431.236 25.0595 430.163 25.139 428.911 25.139C427.579 25.139 426.397 24.9602 425.364 24.6025C424.331 24.2449 423.466 23.7283 422.771 23.0527C422.076 22.3771 421.539 21.5625 421.162 20.6087C420.804 19.655 420.625 18.5919 420.625 17.4196C420.625 16.2672 420.824 15.2141 421.221 14.2603C421.638 13.2867 422.205 12.4621 422.92 11.7865C423.655 11.1109 424.51 10.5844 425.483 10.2069C426.477 9.82933 427.55 9.64056 428.702 9.64056C429.874 9.64056 430.888 9.79952 431.742 10.1174C432.597 10.4155 433.302 10.8328 433.858 11.3692C434.435 11.9057 434.862 12.5515 435.14 13.3065C435.418 14.0417 435.557 14.8564 435.557 15.7505C435.557 16.1479 435.537 16.5155 435.498 16.8533C435.478 17.1712 435.418 17.509 435.319 17.8667H422.801ZM433.501 16.0486C433.501 14.3994 433.093 13.2271 432.279 12.5316C431.484 11.8362 430.212 11.4885 428.464 11.4885C427.788 11.4885 427.132 11.5878 426.497 11.7865C425.861 11.9852 425.284 12.2733 424.768 12.6508C424.251 13.0284 423.814 13.5052 423.456 14.0815C423.119 14.6577 422.91 15.3134 422.831 16.0486H433.501Z" fill="#232323"/>
<path d="M417.734 12.323C417.099 12.0051 416.443 11.7865 415.767 11.6673C415.092 11.5481 414.376 11.4885 413.621 11.4885C411.634 11.4885 410.075 11.9951 408.942 13.0085C407.809 14.002 407.243 15.4724 407.243 17.4196C407.243 18.3137 407.392 19.1185 407.69 19.8338C408.008 20.5491 408.435 21.1651 408.972 21.6817C409.508 22.1784 410.134 22.5659 410.85 22.8441C411.585 23.1024 412.36 23.2315 413.174 23.2315C414.128 23.2315 415.012 23.152 415.827 22.9931C416.642 22.8143 417.426 22.5361 418.181 22.1586L418.897 23.917C417.983 24.374 417.059 24.692 416.125 24.8708C415.191 25.0496 414.158 25.139 413.025 25.139C411.793 25.139 410.681 24.9503 409.687 24.5727C408.713 24.1753 407.879 23.6389 407.184 22.9633C406.508 22.2678 405.981 21.4532 405.604 20.5193C405.246 19.5854 405.067 18.5721 405.067 17.4792C405.067 16.3069 405.276 15.2439 405.693 14.2901C406.13 13.3165 406.717 12.4919 407.452 11.8163C408.207 11.1209 409.091 10.5844 410.104 10.2069C411.138 9.82933 412.25 9.64056 413.443 9.64056C414.575 9.64056 415.539 9.72004 416.334 9.879C417.148 10.0181 417.933 10.2665 418.688 10.6241L417.734 12.323Z" fill="#232323"/>
<path d="M389.052 10.8626C390.065 10.4254 391.039 10.1174 391.973 9.93861C392.927 9.73991 393.99 9.64056 395.162 9.64056C397.328 9.64056 398.917 10.038 399.931 10.8328C400.944 11.6275 401.451 12.929 401.451 14.7372V21.2048C401.451 21.9996 401.59 22.546 401.868 22.8441C402.146 23.1222 402.673 23.2812 403.448 23.3209V24.841C403.209 24.9403 402.961 25.0099 402.703 25.0496C402.444 25.1092 402.146 25.139 401.808 25.139C401.212 25.139 400.745 24.9503 400.408 24.5727C400.07 24.1952 399.861 23.5296 399.782 22.5758C398.907 23.5097 397.894 24.1753 396.742 24.5727C395.609 24.9503 394.417 25.139 393.165 25.139C391.377 25.139 390.065 24.7416 389.231 23.9468C388.416 23.1322 388.009 22.0493 388.009 20.6981C388.009 20.0225 388.098 19.4165 388.277 18.88C388.476 18.3435 388.814 17.7971 389.29 17.2408C389.966 17.0421 390.661 16.8632 391.377 16.7043C392.092 16.5453 392.847 16.4162 393.642 16.3168C394.457 16.2175 395.331 16.138 396.265 16.0784C397.199 16.0188 398.222 15.9691 399.335 15.9294V14.8266C399.335 14.2504 399.265 13.7536 399.126 13.3364C398.987 12.9191 398.748 12.5813 398.411 12.323C398.073 12.0448 397.626 11.8461 397.069 11.7269C396.513 11.5878 395.828 11.5183 395.013 11.5183C394.079 11.5183 393.185 11.6077 392.33 11.7865C391.496 11.9653 390.592 12.2534 389.618 12.6508L389.052 10.8626ZM399.335 17.509C397.387 17.5488 395.758 17.658 394.447 17.8369C393.155 17.9958 392.003 18.2045 390.989 18.4628C390.711 18.8006 390.512 19.1383 390.393 19.4761C390.274 19.794 390.214 20.1418 390.214 20.5193C390.214 22.3473 391.267 23.2613 393.374 23.2613C394.506 23.2613 395.559 23.1024 396.533 22.7845C397.507 22.4467 398.44 21.8406 399.335 20.9664V17.509Z" fill="#232323"/>
<path d="M370.682 10.5049C371.258 10.3459 371.804 10.2168 372.321 10.1174C372.838 9.99822 373.354 9.90881 373.871 9.8492C374.407 9.76972 374.944 9.72004 375.48 9.70017C376.037 9.66043 376.633 9.64056 377.268 9.64056C379.931 9.64056 381.968 10.2963 383.378 11.6077C384.789 12.8992 385.495 14.7868 385.495 17.2706C385.495 18.3833 385.326 19.4165 384.988 20.3703C384.67 21.324 384.183 22.1586 383.527 22.8739C382.892 23.5693 382.097 24.1257 381.143 24.5429C380.189 24.9403 379.087 25.139 377.835 25.139C376.821 25.139 375.937 25.0297 375.182 24.8112C374.427 24.5926 373.642 24.1555 372.828 23.4998V31.6961H370.682V10.5049ZM372.828 21.2346C373.622 21.9301 374.417 22.4367 375.212 22.7547C376.027 23.0527 376.901 23.2017 377.835 23.2017C378.63 23.2017 379.365 23.0726 380.04 22.8143C380.716 22.5361 381.292 22.1486 381.769 21.6519C382.266 21.1353 382.643 20.5094 382.902 19.7742C383.18 19.039 383.319 18.2045 383.319 17.2706C383.319 16.2771 383.17 15.4227 382.872 14.7074C382.574 13.9722 382.156 13.3662 381.62 12.8893C381.083 12.4124 380.438 12.0547 379.683 11.8163C378.928 11.5779 378.093 11.4587 377.179 11.4587C376.285 11.4587 375.52 11.5083 374.884 11.6077C374.268 11.707 373.583 11.866 372.828 12.0846V21.2346Z" fill="#232323"/>
<path d="M365.922 12.2932C365.167 11.9753 364.442 11.7567 363.746 11.6375C363.051 11.5183 362.296 11.4587 361.481 11.4587C360.011 11.4587 358.958 11.6673 358.322 12.0846C357.686 12.4819 357.368 13.0085 357.368 13.6642C357.368 14.4789 357.746 15.0452 358.501 15.3631C359.256 15.6611 360.309 15.8996 361.66 16.0784C362.495 16.1976 363.259 16.3665 363.955 16.5851C364.67 16.7838 365.286 17.0719 365.803 17.4494C366.319 17.8071 366.727 18.2641 367.025 18.8204C367.323 19.3569 367.472 20.0027 367.472 20.7577C367.472 22.2877 366.836 23.4004 365.564 24.0959C364.313 24.7913 362.614 25.139 360.468 25.139C359.415 25.139 358.481 25.0695 357.666 24.9304C356.871 24.8112 356.067 24.5827 355.252 24.2449L355.818 22.3374C356.573 22.6752 357.308 22.9136 358.024 23.0527C358.759 23.1918 359.534 23.2613 360.349 23.2613C363.726 23.2613 365.415 22.4169 365.415 20.7279C365.415 19.8934 365.068 19.2774 364.372 18.88C363.677 18.4826 362.534 18.1945 360.945 18.0157C359.176 17.817 357.785 17.3799 356.772 16.7043C355.779 16.0287 355.282 15.0551 355.282 13.7834C355.282 13.2072 355.401 12.6707 355.639 12.174C355.898 11.6574 356.285 11.2202 356.802 10.8626C357.318 10.485 357.964 10.187 358.739 9.96842C359.534 9.74985 360.458 9.64056 361.511 9.64056C362.544 9.64056 363.448 9.70017 364.223 9.81939C364.998 9.93861 365.813 10.1671 366.667 10.5049L365.922 12.2932Z" fill="#232323"/>
<path d="M352.793 17.3898C352.793 18.582 352.575 19.655 352.137 20.6087C351.72 21.5625 351.134 22.3771 350.379 23.0527C349.644 23.7283 348.769 24.2449 347.756 24.6025C346.763 24.9602 345.69 25.139 344.537 25.139C343.385 25.139 342.302 24.9602 341.288 24.6025C340.295 24.2449 339.421 23.7283 338.666 23.0527C337.93 22.3771 337.344 21.5625 336.907 20.6087C336.49 19.655 336.281 18.582 336.281 17.3898C336.281 16.1976 336.49 15.1246 336.907 14.1709C337.344 13.2171 337.93 12.4025 338.666 11.7269C339.421 11.0513 340.295 10.5347 341.288 10.1771C342.302 9.81939 343.385 9.64056 344.537 9.64056C345.69 9.64056 346.763 9.81939 347.756 10.1771C348.769 10.5347 349.644 11.0513 350.379 11.7269C351.134 12.4025 351.72 13.2171 352.137 14.1709C352.575 15.1246 352.793 16.1976 352.793 17.3898ZM338.457 17.3898C338.457 18.2839 338.606 19.0986 338.904 19.8338C339.202 20.569 339.619 21.2048 340.156 21.7413C340.692 22.2579 341.328 22.6553 342.063 22.9335C342.818 23.2117 343.643 23.3507 344.537 23.3507C345.431 23.3507 346.246 23.2117 346.981 22.9335C347.736 22.6553 348.382 22.2579 348.918 21.7413C349.455 21.2048 349.872 20.569 350.17 19.8338C350.468 19.0986 350.617 18.2839 350.617 17.3898C350.617 16.4957 350.468 15.681 350.17 14.9458C349.872 14.2106 349.455 13.5847 348.918 13.0681C348.382 12.5316 347.736 12.1243 346.981 11.8461C346.246 11.5679 345.431 11.4288 344.537 11.4288C343.643 11.4288 342.818 11.5679 342.063 11.8461C341.328 12.1243 340.692 12.5316 340.156 13.0681C339.619 13.5847 339.202 14.2106 338.904 14.9458C338.606 15.681 338.457 16.4957 338.457 17.3898Z" fill="#232323"/>
<path d="M325.24 9.93861L325.419 12.6806C325.776 12.1442 326.174 11.6872 326.611 11.3096C327.068 10.9122 327.545 10.5943 328.042 10.3559C328.538 10.0976 329.045 9.91874 329.562 9.81939C330.098 9.70017 330.625 9.64056 331.141 9.64056C332.035 9.64056 332.83 9.78959 333.526 10.0876C334.241 10.3658 334.887 10.8725 335.463 11.6077L333.973 12.9787C333.555 12.482 333.079 12.1243 332.542 11.9057C332.006 11.6673 331.419 11.5481 330.784 11.5481C329.651 11.5481 328.658 11.8461 327.803 12.4422C326.949 13.0184 326.204 13.7934 325.568 14.767V24.841H323.422V9.93861H325.24Z" fill="#232323"/>
<path d="M307.603 17.8667C307.662 18.8006 307.861 19.6152 308.199 20.3107C308.556 20.9862 309.013 21.5426 309.57 21.9797C310.146 22.4169 310.792 22.7447 311.507 22.9633C312.242 23.162 313.017 23.2613 313.832 23.2613C314.865 23.2613 315.799 23.1819 316.633 23.0229C317.468 22.8441 318.263 22.556 319.018 22.1586L319.644 24.0363C318.73 24.4535 317.826 24.7416 316.931 24.9006C316.037 25.0595 314.964 25.139 313.712 25.139C312.381 25.139 311.199 24.9602 310.166 24.6025C309.132 24.2449 308.268 23.7283 307.573 23.0527C306.877 22.3771 306.341 21.5625 305.963 20.6087C305.606 19.655 305.427 18.5919 305.427 17.4196C305.427 16.2672 305.625 15.2141 306.023 14.2603C306.44 13.2867 307.006 12.4621 307.722 11.7865C308.457 11.1109 309.311 10.5844 310.285 10.2069C311.278 9.82933 312.351 9.64056 313.504 9.64056C314.676 9.64056 315.69 9.79952 316.544 10.1174C317.398 10.4155 318.104 10.8328 318.66 11.3692C319.236 11.9057 319.663 12.5515 319.942 13.3065C320.22 14.0417 320.359 14.8564 320.359 15.7505C320.359 16.1479 320.339 16.5155 320.299 16.8533C320.279 17.1712 320.22 17.509 320.12 17.8667H307.603ZM318.302 16.0486C318.302 14.3994 317.895 13.2271 317.08 12.5316C316.286 11.8362 315.014 11.4885 313.265 11.4885C312.59 11.4885 311.934 11.5878 311.298 11.7865C310.662 11.9852 310.086 12.2733 309.57 12.6508C309.053 13.0284 308.616 13.5052 308.258 14.0815C307.92 14.6577 307.712 15.3134 307.632 16.0486H318.302Z" fill="#232323"/>
<path d="M295.793 5.46869L304.138 24.8418H301.784L299.012 18.3145H289.802L287.09 24.8418H284.795L293.17 5.46869H295.793ZM290.577 16.4666H298.237L294.63 7.76365H294.213L290.577 16.4666Z" fill="#232323"/>
<path d="M261.303 17.8667C261.362 18.8006 261.561 19.6152 261.899 20.3107C262.256 20.9862 262.713 21.5426 263.27 21.9797C263.846 22.4169 264.492 22.7447 265.207 22.9633C265.942 23.162 266.717 23.2613 267.532 23.2613C268.565 23.2613 269.499 23.1819 270.334 23.0229C271.168 22.8441 271.963 22.556 272.718 22.1586L273.344 24.0363C272.43 24.4535 271.526 24.7416 270.632 24.9006C269.737 25.0595 268.664 25.139 267.413 25.139C266.081 25.139 264.899 24.9602 263.866 24.6025C262.833 24.2449 261.968 23.7283 261.273 23.0527C260.577 22.3771 260.041 21.5625 259.663 20.6087C259.306 19.655 259.127 18.5919 259.127 17.4196C259.127 16.2672 259.326 15.2141 259.723 14.2603C260.14 13.2867 260.707 12.4621 261.422 11.7865C262.157 11.1109 263.012 10.5844 263.985 10.2069C264.979 9.82933 266.052 9.64056 267.204 9.64056C268.376 9.64056 269.39 9.79952 270.244 10.1174C271.099 10.4155 271.804 10.8328 272.36 11.3692C272.936 11.9057 273.364 12.5515 273.642 13.3065C273.92 14.0417 274.059 14.8564 274.059 15.7505C274.059 16.1479 274.039 16.5155 274 16.8533C273.98 17.1712 273.92 17.509 273.821 17.8667H261.303ZM272.003 16.0486C272.003 14.3994 271.595 13.2271 270.781 12.5316C269.986 11.8362 268.714 11.4885 266.966 11.4885C266.29 11.4885 265.634 11.5878 264.998 11.7865C264.363 11.9852 263.786 12.2733 263.27 12.6508C262.753 13.0284 262.316 13.5052 261.958 14.0815C261.621 14.6577 261.412 15.3134 261.333 16.0486H272.003Z" fill="#232323"/>
<path d="M243.573 9.93861L243.812 12.621C244.507 11.5481 245.362 10.7831 246.375 10.3261C247.408 9.86907 248.561 9.64056 249.832 9.64056C251.819 9.64056 253.349 10.187 254.422 11.2798C255.515 12.3727 256.062 13.9921 256.062 16.138V24.841H253.916V16.1082C253.916 14.6378 253.588 13.5052 252.932 12.7105C252.276 11.8958 251.243 11.4885 249.832 11.4885C248.422 11.4885 247.259 11.7567 246.345 12.2932C245.431 12.8297 244.627 13.6642 243.931 14.7968V24.841H241.785V9.93861H243.573Z" fill="#232323"/>
<path d="M237.83 9.9374V24.8398H235.684V9.9374H237.83ZM236.757 3.58899C237.274 3.58899 237.681 3.75788 237.979 4.09567C238.297 4.43346 238.456 4.83085 238.456 5.28786C238.456 5.74487 238.297 6.14226 237.979 6.48005C237.681 6.81784 237.274 6.98673 236.757 6.98673C236.241 6.98673 235.824 6.81784 235.506 6.48005C235.208 6.14226 235.059 5.74487 235.059 5.28786C235.059 4.83085 235.208 4.43346 235.506 4.09567C235.824 3.75788 236.241 3.58899 236.757 3.58899Z" fill="#232323"/>
<path d="M223.427 9.93861L223.606 12.6806C223.964 12.1442 224.361 11.6872 224.798 11.3096C225.255 10.9122 225.732 10.5943 226.229 10.3559C226.726 10.0976 227.233 9.91874 227.749 9.81939C228.286 9.70017 228.812 9.64056 229.329 9.64056C230.223 9.64056 231.018 9.78959 231.713 10.0876C232.428 10.3658 233.074 10.8725 233.65 11.6077L232.16 12.9787C231.743 12.482 231.266 12.1243 230.73 11.9057C230.193 11.6673 229.607 11.5481 228.971 11.5481C227.839 11.5481 226.845 11.8461 225.991 12.4422C225.136 13.0184 224.391 13.7934 223.755 14.767V24.841H221.609V9.93861H223.427Z" fill="#232323"/>
<path d="M219.212 11.1606H215.367C216.122 11.6176 216.668 12.1541 217.006 12.7701C217.344 13.386 217.513 14.0715 217.513 14.8266C217.513 15.5618 217.364 16.2473 217.066 16.8831C216.787 17.4991 216.37 18.0455 215.814 18.5224C215.257 18.9794 214.572 19.347 213.757 19.6252C212.943 19.8835 212.019 20.0126 210.985 20.0126C210.23 20.0126 209.505 19.9431 208.81 19.804C208.114 19.6649 207.498 19.4563 206.962 19.1781C206.485 19.3768 206.137 19.645 205.919 19.9828C205.7 20.3007 205.591 20.6484 205.591 21.026C205.591 21.5426 205.809 22.0095 206.247 22.4268C206.684 22.8441 207.449 23.0527 208.541 23.0527H212.476C213.37 23.0527 214.204 23.0924 214.979 23.1719C215.774 23.2514 216.589 23.4004 217.423 23.619C217.781 24.076 218.069 24.5926 218.288 25.1688C218.506 25.7451 218.615 26.3511 218.615 26.9869C218.615 28.0798 218.337 28.9739 217.781 29.6693C217.244 30.3648 216.549 30.9112 215.695 31.3086C214.86 31.7259 213.936 32.014 212.923 32.1729C211.909 32.3319 210.946 32.4114 210.032 32.4114C207.866 32.4114 206.207 31.9941 205.054 31.1596C203.922 30.3449 203.355 29.2223 203.355 27.7916C203.355 26.2219 204.041 24.9801 205.412 24.0661C204.776 23.768 204.339 23.3706 204.101 22.8739C203.862 22.3573 203.743 21.8406 203.743 21.324C203.743 20.7279 203.902 20.1616 204.22 19.6252C204.558 19.0688 205.044 18.5919 205.68 18.1945C204.885 17.2606 204.488 16.138 204.488 14.8266C204.488 13.237 205.064 11.9753 206.217 11.0414C207.389 10.1075 209.058 9.64056 211.224 9.64056H219.212V11.1606ZM209.048 24.841C208.651 24.841 208.293 24.831 207.975 24.8112C207.677 24.7714 207.359 24.7317 207.021 24.692C205.849 25.2682 205.263 26.1921 205.263 27.4638C205.263 28.5765 205.71 29.3812 206.604 29.878C207.518 30.3946 208.76 30.6529 210.33 30.6529C210.886 30.6529 211.532 30.6032 212.267 30.5039C213.002 30.4244 213.698 30.2456 214.353 29.9674C215.009 29.7091 215.565 29.3514 216.022 28.8944C216.479 28.4374 216.708 27.8314 216.708 27.0763C216.708 26.7982 216.658 26.4902 216.559 26.1524C216.479 25.8146 216.33 25.4967 216.112 25.1986C215.476 25.0595 214.9 24.9602 214.383 24.9006C213.886 24.8608 213.33 24.841 212.714 24.841H209.048ZM206.425 14.8266C206.425 15.979 206.813 16.8533 207.588 17.4494C208.383 18.0256 209.515 18.3137 210.985 18.3137C212.297 18.3137 213.38 18.0356 214.234 17.4792C215.089 16.903 215.516 16.0188 215.516 14.8266C215.516 14.2305 215.397 13.7139 215.158 13.2767C214.92 12.8197 214.592 12.4422 214.175 12.1442C213.777 11.8461 213.3 11.6275 212.744 11.4885C212.207 11.3295 211.621 11.25 210.985 11.25C209.575 11.25 208.462 11.5679 207.647 12.2038C206.833 12.8197 206.425 13.694 206.425 14.8266Z" fill="#232323"/>
<path d="M188.37 17.8667C188.43 18.8006 188.628 19.6152 188.966 20.3107C189.324 20.9862 189.781 21.5426 190.337 21.9797C190.913 22.4169 191.559 22.7447 192.275 22.9633C193.01 23.162 193.785 23.2613 194.599 23.2613C195.633 23.2613 196.566 23.1819 197.401 23.0229C198.235 22.8441 199.03 22.556 199.785 22.1586L200.411 24.0363C199.497 24.4535 198.593 24.7416 197.699 24.9006C196.805 25.0595 195.732 25.139 194.48 25.139C193.149 25.139 191.967 24.9602 190.933 24.6025C189.9 24.2449 189.036 23.7283 188.34 23.0527C187.645 22.3771 187.108 21.5625 186.731 20.6087C186.373 19.655 186.194 18.5919 186.194 17.4196C186.194 16.2672 186.393 15.2141 186.79 14.2603C187.208 13.2867 187.774 12.4621 188.489 11.7865C189.224 11.1109 190.079 10.5844 191.053 10.2069C192.046 9.82933 193.119 9.64056 194.271 9.64056C195.444 9.64056 196.457 9.79952 197.312 10.1174C198.166 10.4155 198.871 10.8328 199.428 11.3692C200.004 11.9057 200.431 12.5515 200.709 13.3065C200.987 14.0417 201.127 14.8564 201.127 15.7505C201.127 16.1479 201.107 16.5155 201.067 16.8533C201.047 17.1712 200.987 17.509 200.888 17.8667H188.37ZM199.07 16.0486C199.07 14.3994 198.663 13.2271 197.848 12.5316C197.053 11.8362 195.782 11.4885 194.033 11.4885C193.357 11.4885 192.702 11.5878 192.066 11.7865C191.43 11.9852 190.854 12.2733 190.337 12.6508C189.821 13.0284 189.383 13.5052 189.026 14.0815C188.688 14.6577 188.479 15.3134 188.4 16.0486H199.07Z" fill="#232323"/>
<path d="M175.151 9.93861L175.33 12.6806C175.688 12.1442 176.085 11.6872 176.522 11.3096C176.979 10.9122 177.456 10.5943 177.953 10.3559C178.449 10.0976 178.956 9.91874 179.473 9.81939C180.009 9.70017 180.536 9.64056 181.052 9.64056C181.947 9.64056 182.741 9.78959 183.437 10.0876C184.152 10.3658 184.798 10.8725 185.374 11.6077L183.884 12.9787C183.467 12.482 182.99 12.1243 182.453 11.9057C181.917 11.6673 181.331 11.5481 180.695 11.5481C179.562 11.5481 178.569 11.8461 177.714 12.4422C176.86 13.0184 176.115 13.7934 175.479 14.767V24.841H173.333V9.93861H175.151Z" fill="#232323"/>
<path d="M157.512 17.8667C157.571 18.8006 157.77 19.6152 158.108 20.3107C158.465 20.9862 158.922 21.5426 159.479 21.9797C160.055 22.4169 160.701 22.7447 161.416 22.9633C162.151 23.162 162.926 23.2613 163.741 23.2613C164.774 23.2613 165.708 23.1819 166.543 23.0229C167.377 22.8441 168.172 22.556 168.927 22.1586L169.553 24.0363C168.639 24.4535 167.735 24.7416 166.841 24.9006C165.946 25.0595 164.873 25.139 163.622 25.139C162.29 25.139 161.108 24.9602 160.075 24.6025C159.042 24.2449 158.177 23.7283 157.482 23.0527C156.786 22.3771 156.25 21.5625 155.872 20.6087C155.515 19.655 155.336 18.5919 155.336 17.4196C155.336 16.2672 155.535 15.2141 155.932 14.2603C156.349 13.2867 156.916 12.4621 157.631 11.7865C158.366 11.1109 159.22 10.5844 160.194 10.2069C161.188 9.82933 162.261 9.64056 163.413 9.64056C164.585 9.64056 165.599 9.79952 166.453 10.1174C167.308 10.4155 168.013 10.8328 168.569 11.3692C169.145 11.9057 169.573 12.5515 169.851 13.3065C170.129 14.0417 170.268 14.8564 170.268 15.7505C170.268 16.1479 170.248 16.5155 170.209 16.8533C170.189 17.1712 170.129 17.509 170.03 17.8667H157.512ZM168.212 16.0486C168.212 14.3994 167.804 13.2271 166.99 12.5316C166.195 11.8362 164.923 11.4885 163.175 11.4885C162.499 11.4885 161.843 11.5878 161.207 11.7865C160.572 11.9852 159.995 12.2733 159.479 12.6508C158.962 13.0284 158.525 13.5052 158.167 14.0815C157.83 14.6577 157.621 15.3134 157.541 16.0486H168.212Z" fill="#232323"/>
<path d="M146.065 5.46869C147.138 5.46869 148.131 5.60778 149.045 5.88596C149.959 6.14426 150.754 6.53173 151.43 7.04834C152.105 7.54509 152.632 8.16105 153.009 8.89623C153.407 9.63142 153.605 10.4759 153.605 11.4296C153.605 12.4033 153.417 13.2676 153.039 14.0226C152.662 14.7777 152.135 15.4135 151.46 15.9302C150.784 16.4468 149.989 16.8442 149.075 17.1223C148.161 17.3807 147.158 17.5098 146.065 17.5098H141.743V24.8418H139.508V5.46869H146.065ZM141.743 15.5725H145.618C147.486 15.5725 148.906 15.2546 149.88 14.6187C150.873 13.9829 151.37 12.9199 151.37 11.4296C151.37 10.0586 150.873 9.04526 149.88 8.38955C148.906 7.71398 147.486 7.37619 145.618 7.37619H141.743V15.5725Z" fill="#232323"/>
</svg>
