<svg width="195" height="120" viewBox="0 0 195 120" fill="none" xmlns="http://www.w3.org/2000/svg">
<path d="M67.3125 57.375H88.3125C88.4849 57.375 88.6556 57.3411 88.8148 57.2752C88.9741 57.2092 89.1188 57.1126 89.2407 56.9907C89.3626 56.8688 89.4592 56.7241 89.5252 56.5648C89.5911 56.4056 89.625 56.2349 89.625 56.0625V40.3125C89.625 40.1401 89.5911 39.9694 89.5252 39.8102C89.4592 39.6509 89.3626 39.5062 89.2407 39.3843C89.1188 39.2624 88.9741 39.1658 88.8148 39.0998C88.6556 39.0339 88.4849 39 88.3125 39H67.3125C67.1401 39 66.9694 39.0339 66.8102 39.0998C66.6509 39.1658 66.5062 39.2624 66.3843 39.3843C66.2624 39.5062 66.1658 39.6509 66.0998 39.8102C66.0339 39.9694 66 40.1401 66 40.3125V56.0625C66 56.2349 66.0339 56.4056 66.0998 56.5648C66.1658 56.7241 66.2624 56.8688 66.3843 56.9907C66.5062 57.1126 66.6509 57.2092 66.8102 57.2752C66.9694 57.3411 67.1401 57.375 67.3125 57.375ZM68.625 41.625H87V54.75H68.625V41.625ZM110.625 65.25H80.4375C80.0894 65.25 79.7556 65.1117 79.5094 64.8656C79.2633 64.6194 79.125 64.2856 79.125 63.9375C79.125 63.5894 79.2633 63.2556 79.5094 63.0094C79.7556 62.7633 80.0894 62.625 80.4375 62.625H110.625C110.973 62.625 111.307 62.7633 111.553 63.0094C111.799 63.2556 111.938 63.5894 111.938 63.9375C111.938 64.2856 111.799 64.6194 111.553 64.8656C111.307 65.1117 110.973 65.25 110.625 65.25ZM66 63.9375C66 63.7651 66.0339 63.5944 66.0998 63.4352C66.1658 63.2759 66.2624 63.1312 66.3843 63.0093C66.5062 62.8874 66.6509 62.7908 66.8102 62.7248C66.9694 62.6589 67.1401 62.625 67.3125 62.625H75.1875C75.5356 62.625 75.8694 62.7633 76.1156 63.0094C76.3617 63.2556 76.5 63.5894 76.5 63.9375C76.5 64.2856 76.3617 64.6194 76.1156 64.8656C75.8694 65.1117 75.5356 65.25 75.1875 65.25H67.3125C67.1401 65.25 66.9694 65.2161 66.8102 65.1502C66.6509 65.0842 66.5062 64.9876 66.3843 64.8657C66.2624 64.7438 66.1658 64.5991 66.0998 64.4398C66.0339 64.2806 66 64.1099 66 63.9375ZM81.75 78.375C82.0981 78.375 82.4319 78.5133 82.6781 78.7594C82.9242 79.0056 83.0625 79.3394 83.0625 79.6875C83.0625 80.0356 82.9242 80.3694 82.6781 80.6156C82.4319 80.8617 82.0981 81 81.75 81H67.3125C66.9644 81 66.6306 80.8617 66.3844 80.6156C66.1383 80.3694 66 80.0356 66 79.6875C66 79.3394 66.1383 79.0056 66.3844 78.7594C66.6306 78.5133 66.9644 78.375 67.3125 78.375H81.75ZM94.875 78.375C95.2231 78.375 95.5569 78.5133 95.8031 78.7594C96.0492 79.0056 96.1875 79.3394 96.1875 79.6875C96.1875 80.0356 96.0492 80.3694 95.8031 80.6156C95.5569 80.8617 95.2231 81 94.875 81H87C86.6519 81 86.3181 80.8617 86.0719 80.6156C85.8258 80.3694 85.6875 80.0356 85.6875 79.6875C85.6875 79.3394 85.8258 79.0056 86.0719 78.7594C86.3181 78.5133 86.6519 78.375 87 78.375H94.875ZM117.188 57.375H96.1875C95.8394 57.375 95.5056 57.2367 95.2594 56.9906C95.0133 56.7444 94.875 56.4106 94.875 56.0625C94.875 55.7144 95.0133 55.3806 95.2594 55.1344C95.5056 54.8883 95.8394 54.75 96.1875 54.75H117.188C117.536 54.75 117.869 54.8883 118.116 55.1344C118.362 55.3806 118.5 55.7144 118.5 56.0625C118.5 56.4106 118.362 56.7444 118.116 56.9906C117.869 57.2367 117.536 57.375 117.188 57.375ZM121.125 40.3125C121.125 40.4849 121.091 40.6556 121.025 40.8148C120.959 40.9741 120.863 41.1188 120.741 41.2407C120.619 41.3626 120.474 41.4592 120.315 41.5252C120.156 41.5911 119.985 41.625 119.812 41.625H96.1875C95.8394 41.625 95.5056 41.4867 95.2594 41.2406C95.0133 40.9944 94.875 40.6606 94.875 40.3125C94.875 39.9644 95.0133 39.6306 95.2594 39.3844C95.5056 39.1383 95.8394 39 96.1875 39H119.812C119.985 39 120.156 39.0339 120.315 39.0998C120.474 39.1658 120.619 39.2624 120.741 39.3843C120.863 39.5062 120.959 39.6509 121.025 39.8102C121.091 39.9694 121.125 40.1401 121.125 40.3125ZM94.875 48.1875C94.875 48.0151 94.9089 47.8444 94.9748 47.6852C95.0408 47.5259 95.1374 47.3812 95.2593 47.2593C95.3812 47.1374 95.5259 47.0408 95.6852 46.9748C95.8444 46.9089 96.0151 46.875 96.1875 46.875H104.062C104.411 46.875 104.744 47.0133 104.991 47.2594C105.237 47.5056 105.375 47.8394 105.375 48.1875C105.375 48.5356 105.237 48.8694 104.991 49.1156C104.744 49.3617 104.411 49.5 104.062 49.5H96.1875C96.0151 49.5 95.8444 49.4661 95.6852 49.4002C95.5259 49.3342 95.3812 49.2376 95.2593 49.1157C95.1374 48.9938 95.0408 48.8491 94.9748 48.6898C94.9089 48.5306 94.875 48.3599 94.875 48.1875ZM119.812 49.5H109.312C108.964 49.5 108.631 49.3617 108.384 49.1156C108.138 48.8694 108 48.5356 108 48.1875C108 47.8394 108.138 47.5056 108.384 47.2594C108.631 47.0133 108.964 46.875 109.312 46.875H119.812C120.161 46.875 120.494 47.0133 120.741 47.2594C120.987 47.5056 121.125 47.8394 121.125 48.1875C121.125 48.5356 120.987 48.8694 120.741 49.1156C120.494 49.3617 120.161 49.5 119.812 49.5ZM102.75 73.125H67.3125C66.9644 73.125 66.6306 72.9867 66.3844 72.7406C66.1383 72.4944 66 72.1606 66 71.8125C66 71.4644 66.1383 71.1306 66.3844 70.8844C66.6306 70.6383 66.9644 70.5 67.3125 70.5H102.75C103.098 70.5 103.432 70.6383 103.678 70.8844C103.924 71.1306 104.062 71.4644 104.062 71.8125C104.062 72.1606 103.924 72.4944 103.678 72.7406C103.432 72.9867 103.098 73.125 102.75 73.125ZM66 27.1875C66 26.9279 66.077 26.6742 66.2212 26.4583C66.3654 26.2425 66.5704 26.0742 66.8102 25.9749C67.0501 25.8756 67.314 25.8496 67.5686 25.9002C67.8232 25.9509 68.057 26.0759 68.2406 26.2594C68.4241 26.443 68.5491 26.6768 68.5998 26.9314C68.6504 27.186 68.6244 27.4499 68.5251 27.6898C68.4258 27.9296 68.2575 28.1346 68.0417 28.2788C67.8258 28.423 67.5721 28.5 67.3125 28.5C66.9644 28.5 66.6306 28.3617 66.3844 28.1156C66.1383 27.8694 66 27.5356 66 27.1875ZM73.875 27.1875C73.875 26.9279 73.952 26.6742 74.0962 26.4583C74.2404 26.2425 74.4454 26.0742 74.6852 25.9749C74.9251 25.8756 75.189 25.8496 75.4436 25.9002C75.6982 25.9509 75.932 26.0759 76.1156 26.2594C76.2991 26.443 76.4241 26.6768 76.4748 26.9314C76.5254 27.186 76.4994 27.4499 76.4001 27.6898C76.3008 27.9296 76.1325 28.1346 75.9167 28.2788C75.7008 28.423 75.4471 28.5 75.1875 28.5C74.8394 28.5 74.5056 28.3617 74.2594 28.1156C74.0133 27.8694 73.875 27.5356 73.875 27.1875ZM81.75 27.1875C81.75 26.9279 81.827 26.6742 81.9712 26.4583C82.1154 26.2425 82.3204 26.0742 82.5602 25.9749C82.8001 25.8756 83.064 25.8496 83.3186 25.9002C83.5732 25.9509 83.807 26.0759 83.9906 26.2594C84.1741 26.443 84.2991 26.6768 84.3498 26.9314C84.4004 27.186 84.3744 27.4499 84.2751 27.6898C84.1758 27.9296 84.0075 28.1346 83.7917 28.2788C83.5758 28.423 83.3221 28.5 83.0625 28.5C82.7144 28.5 82.3806 28.3617 82.1344 28.1156C81.8883 27.8694 81.75 27.5356 81.75 27.1875ZM129 80.5488V82.3125C128.998 84.0524 128.306 85.7204 127.076 86.9506C125.845 88.1809 124.177 88.873 122.438 88.875H120.674C120.326 88.875 119.992 88.7367 119.746 88.4906C119.5 88.2444 119.361 87.9106 119.361 87.5625C119.361 87.2144 119.5 86.8806 119.746 86.6344C119.992 86.3883 120.326 86.25 120.674 86.25H122.438C123.481 86.2489 124.482 85.8336 125.22 85.0955C125.959 84.3573 126.374 83.3564 126.375 82.3125V80.5488C126.375 80.2007 126.513 79.8669 126.759 79.6208C127.006 79.3746 127.339 79.2363 127.688 79.2363C128.036 79.2363 128.369 79.3746 128.616 79.6208C128.862 79.8669 129 80.2007 129 80.5488ZM91.231 86.25H64.6875C63.6436 86.2489 62.6427 85.8336 61.9045 85.0955C61.1663 84.3573 60.7511 83.3564 60.75 82.3125V33.75H126.375V50.9003C126.375 51.2484 126.513 51.5822 126.759 51.8284C127.006 52.0745 127.339 52.2128 127.688 52.2128C128.036 52.2128 128.369 52.0745 128.616 51.8284C128.862 51.5822 129 51.2484 129 50.9003V27.1875C128.998 25.4476 128.306 23.7796 127.076 22.5494C125.845 21.3191 124.177 20.627 122.438 20.625H64.6875C62.9476 20.627 61.2796 21.3191 60.0494 22.5494C58.8191 23.7796 58.127 25.4476 58.125 27.1875V82.3125C58.127 84.0524 58.8191 85.7204 60.0494 86.9506C61.2796 88.1809 62.9476 88.873 64.6875 88.875H91.231C91.5791 88.875 91.9129 88.7367 92.1591 88.4906C92.4052 88.2444 92.5435 87.9106 92.5435 87.5625C92.5435 87.2144 92.4052 86.8806 92.1591 86.6344C91.9129 86.3883 91.5791 86.25 91.231 86.25ZM64.6875 23.25H122.438C123.481 23.2511 124.482 23.6663 125.22 24.4045C125.959 25.1427 126.374 26.1436 126.375 27.1875V31.125H60.75V27.1875C60.7511 26.1436 61.1663 25.1427 61.9045 24.4045C62.6427 23.6663 63.6436 23.2511 64.6875 23.25ZM134.587 57.0373C133.862 56.3121 133.001 55.7369 132.054 55.3444C131.106 54.952 130.091 54.75 129.065 54.75C128.04 54.75 127.024 54.952 126.077 55.3444C125.13 55.7369 124.269 56.3121 123.544 57.0373L96.5721 84.0096C96.4184 84.1632 96.3052 84.3526 96.2426 84.5607L92.3051 97.6857C92.2372 97.9127 92.232 98.1538 92.29 98.3835C92.348 98.6132 92.4671 98.8229 92.6346 98.9904C92.8021 99.158 93.0118 99.277 93.2415 99.335C93.4712 99.393 93.7124 99.3878 93.9393 99.3199L107.064 95.3824C107.273 95.3199 107.462 95.2067 107.615 95.0529L134.587 68.0807C135.312 67.3557 135.888 66.4949 136.28 65.5475C136.673 64.6 136.875 63.5845 136.875 62.559C136.875 61.5335 136.673 60.518 136.28 59.5705C135.888 58.6231 135.312 57.7623 134.587 57.0373ZM103.95 89.5312L127.031 66.4497L129.769 69.1872L106.687 92.2687L103.95 89.5312ZM102.094 87.6753L99.3563 84.9378L122.437 61.8557L125.175 64.5938L102.094 87.6753ZM98.1261 87.4195L104.206 93.4992L95.5197 96.1046L98.1261 87.4195ZM132.731 66.2248L131.625 67.3312L124.293 59.9997L125.4 58.8932C126.387 57.9501 127.7 57.4239 129.065 57.4239C130.431 57.4239 131.744 57.9501 132.731 58.8932C133.213 59.3746 133.595 59.946 133.855 60.575C134.116 61.204 134.25 61.8782 134.25 62.559C134.25 63.2398 134.116 63.914 133.855 64.543C133.595 65.172 133.213 65.7434 132.731 66.2248Z" fill="#37ED81"/>
</svg>
