<svg width="195" height="120" viewBox="0 0 195 120" fill="none" xmlns="http://www.w3.org/2000/svg">
<g clip-path="url(#clip0_759_4278)">
<path d="M71.6479 23.6426H60.832C58.5668 23.6426 56.7305 25.4789 56.7305 27.7441V33.835" stroke="#37ED81" stroke-width="2.46094" stroke-miterlimit="10" stroke-linecap="round" stroke-linejoin="round"/>
<path d="M138.27 33.835V27.7441C138.27 25.4789 136.433 23.6426 134.168 23.6426H77.3901" stroke="#37ED81" stroke-width="2.46094" stroke-miterlimit="10" stroke-linecap="round" stroke-linejoin="round"/>
<circle cx="133.173" cy="28.7388" r="1.23047" fill="#37ED81"/>
<circle cx="128.077" cy="28.7388" r="1.23047" fill="#37ED81"/>
<circle cx="122.981" cy="28.7388" r="1.23047" fill="#37ED81"/>
<path d="M61.8267 28.7388H66.9228" stroke="#37ED81" stroke-width="2.46094" stroke-miterlimit="10" stroke-linecap="round" stroke-linejoin="round"/>
<path d="M97.4999 74.6043C105.24 74.6043 111.514 68.3298 111.514 60.5897C111.514 52.8497 105.24 46.5752 97.4999 46.5752C89.7599 46.5752 83.4854 52.8497 83.4854 60.5897C83.4854 68.3298 89.7599 74.6043 97.4999 74.6043Z" stroke="#37ED81" stroke-width="2.46094" stroke-miterlimit="10" stroke-linecap="round" stroke-linejoin="round"/>
<path d="M100.26 54.4711C100.26 54.4711 98.6891 53.0222 96.2677 53.7517C94.0444 54.4214 93.4923 57.4636 95.0031 58.6486C95.8707 59.329 97.176 59.8884 98.9352 60.5104C102.873 61.9021 101.417 67.455 97.4119 67.4817C95.8489 67.4922 95.1182 67.393 93.7451 66.4947" stroke="#37ED81" stroke-width="2.46094" stroke-miterlimit="10" stroke-linecap="round" stroke-linejoin="round"/>
<path d="M97.4121 67.6455V69.5084" stroke="#37ED81" stroke-width="2.46094" stroke-miterlimit="10" stroke-linecap="round" stroke-linejoin="round"/>
<path d="M97.4121 51.6719V53.3824" stroke="#37ED81" stroke-width="2.46094" stroke-miterlimit="10" stroke-linecap="round" stroke-linejoin="round"/>
<path d="M109.677 45.8605C106.381 43.133 102.155 41.4902 97.5451 41.4795C86.9701 41.4551 78.389 50.0154 78.3892 60.5905C78.3892 64.6923 79.6815 68.4921 81.8811 71.6054C82.3632 72.2879 82.2459 73.2253 81.6177 73.7764L79.147 75.9435" stroke="#37ED81" stroke-width="2.46094" stroke-miterlimit="10" stroke-linecap="round" stroke-linejoin="round"/>
<path d="M83.4209 80.2167L85.8436 77.4545C86.3583 76.8678 87.2176 76.7202 87.8919 77.1131C90.7924 78.8033 94.1783 79.7519 97.7897 79.6984C108.117 79.5455 116.52 71.0884 116.61 60.7607C116.644 56.8414 115.499 53.1918 113.507 50.1455" stroke="#37ED81" stroke-width="2.46094" stroke-miterlimit="10" stroke-linecap="round" stroke-linejoin="round"/>
<path d="M75.3076 79.3105L63.8446 89.3648C62.7752 90.3027 62.7214 91.9493 63.7271 92.9551L66.4087 95.6367C67.4146 96.6426 69.0611 96.5886 69.9989 95.5193L80.0531 84.0562" stroke="#37ED81" stroke-width="2.46094" stroke-miterlimit="10" stroke-linecap="round" stroke-linejoin="round"/>
<path d="M79.1472 75.9434L75.3076 79.3109L80.0533 84.0566L83.4208 80.217L79.1472 75.9434Z" stroke="#37ED81" stroke-width="2.46094" stroke-miterlimit="10" stroke-linecap="round" stroke-linejoin="round"/>
<path d="M90.9683 89.8931H134.168C136.433 89.8931 138.27 88.0568 138.27 85.7916V33.835H56.7305V85.7916C56.7305 88.0568 58.5668 89.8931 60.832 89.8931H63.3908" stroke="#37ED81" stroke-width="2.46094" stroke-miterlimit="10" stroke-linecap="round" stroke-linejoin="round"/>
<path d="M74.9341 89.8931H85.2264" stroke="#37ED81" stroke-width="2.46094" stroke-miterlimit="10" stroke-linecap="round" stroke-linejoin="round"/>
</g>
<defs>
<clipPath id="clip0_759_4278">
<rect width="84" height="84" fill="white" transform="translate(55.5 18)"/>
</clipPath>
</defs>
</svg>
