<svg width="195" height="120" viewBox="0 0 195 120" fill="none" xmlns="http://www.w3.org/2000/svg">
<g clip-path="url(#clip0_759_4061)">
<mask id="mask0_759_4061" style="mask-type:luminance" maskUnits="userSpaceOnUse" x="55" y="18" width="85" height="85">
<path d="M55.5 18.002H139.5V102.002H55.5V18.002Z" fill="white"/>
</mask>
<g mask="url(#mask0_759_4061)">
<path d="M103.317 64.3953C103.792 63.2862 104.056 62.0667 104.056 60.7861C104.056 55.7029 99.9203 51.5674 94.8372 51.5674H91.9618C89.694 51.5674 87.8491 49.7224 87.8491 47.4547C87.8491 45.1868 89.694 43.342 91.9618 43.342H94.8372C97.105 43.342 98.9499 45.1868 98.9499 47.4547C98.9499 48.8646 100.093 50.0077 101.503 50.0077C102.913 50.0077 104.056 48.8646 104.056 47.4547C104.056 42.7492 100.511 38.8585 95.9525 38.3059V35.0086C95.9525 33.5986 94.8095 32.4554 93.3995 32.4554C91.9896 32.4554 90.8465 33.5986 90.8465 35.0086V38.3059C86.2877 38.8585 82.7432 42.7492 82.7432 47.4547C82.7432 52.5378 86.8787 56.6734 91.9618 56.6734H94.8372C97.105 56.6734 98.9499 58.5182 98.9499 60.7861C98.9499 63.0537 97.105 64.8986 94.8372 64.8986H91.9618C89.694 64.8986 87.8491 63.0537 87.8491 60.7861C87.8491 59.3761 86.7061 58.2331 85.2961 58.2331C83.8862 58.2331 82.7432 59.3761 82.7432 60.7861C82.7432 65.4915 86.2877 69.3821 90.8465 69.9349V73.2322C90.8465 74.6421 91.9896 75.7852 93.3995 75.7852C94.8095 75.7852 95.9525 74.6421 95.9525 73.2322V69.9349C97.2474 69.7778 98.4604 69.3508 99.5336 68.7129" stroke="#37ED81" stroke-width="2.46094" stroke-miterlimit="10" stroke-linecap="round" stroke-linejoin="round"/>
<path d="M120.336 97.2353L121.021 99.7935C121.21 100.497 121.933 100.915 122.637 100.727L127.632 99.3884C128.336 99.1997 128.754 98.4761 128.565 97.7721L125.283 85.5246C125.08 84.7655 125.631 84.0128 126.416 83.9777L135.226 83.5828C136.318 83.5337 136.881 82.2539 136.178 81.4162L115.095 56.2825C114.112 55.1101 112.207 55.6205 111.941 57.1277L106.25 89.4354C106.06 90.5121 107.187 91.3393 108.158 90.8357L115.985 86.7728C116.682 86.4107 117.536 86.7869 117.739 87.5461L118.849 91.6886" stroke="#37ED81" stroke-width="2.46094" stroke-miterlimit="10" stroke-linecap="round" stroke-linejoin="round"/>
<path d="M111.482 49.1065L112.289 52.1157" stroke="#37ED81" stroke-width="2.46094" stroke-miterlimit="10" stroke-linecap="round" stroke-linejoin="round"/>
<path d="M106.587 52.0711L109.285 53.6289" stroke="#37ED81" stroke-width="2.46094" stroke-miterlimit="10" stroke-linecap="round" stroke-linejoin="round"/>
<path d="M117.204 49.2258L115.646 51.9238" stroke="#37ED81" stroke-width="2.46094" stroke-miterlimit="10" stroke-linecap="round" stroke-linejoin="round"/>
<path d="M120.326 62.519C121.153 59.8665 121.598 57.0458 121.598 54.1212C121.598 38.5475 108.973 25.9228 93.3995 25.9228C87.8419 25.9228 82.6603 27.5314 78.2935 30.3073" stroke="#37ED81" stroke-width="2.46094" stroke-miterlimit="10" stroke-linecap="round" stroke-linejoin="round"/>
<path d="M73.7428 33.9053C68.4749 39.0287 65.2012 46.1916 65.2012 54.1204C65.2012 69.6941 77.8259 82.3188 93.3996 82.3188C98.8483 82.3188 103.935 80.7719 108.247 78.0956" stroke="#37ED81" stroke-width="2.46094" stroke-miterlimit="10" stroke-linecap="round" stroke-linejoin="round"/>
<path d="M125.247 68.3847C127.2 64.0301 128.288 59.2026 128.288 54.1207C128.288 34.8526 112.668 19.2327 93.3998 19.2327C74.1316 19.2327 58.5117 34.8526 58.5117 54.1207C58.5117 73.3889 74.1316 89.0088 93.3998 89.0088C98.1459 89.0088 102.67 88.0594 106.795 86.3426" stroke="#37ED81" stroke-width="2.46094" stroke-miterlimit="10" stroke-linecap="round" stroke-linejoin="round"/>
</g>
</g>
<defs>
<clipPath id="clip0_759_4061">
<rect width="84" height="84" fill="white" transform="translate(55.5 18)"/>
</clipPath>
</defs>
</svg>
