<svg width="195" height="120" viewBox="0 0 195 120" fill="none" xmlns="http://www.w3.org/2000/svg">
<path d="M60.75 45.5625H58.125V40.3125C58.127 38.5727 58.819 36.9046 60.0493 35.6743C61.2796 34.444 62.9476 33.752 64.6875 33.75H109.312V31.125H106.688C106.428 31.1251 106.174 31.0481 105.958 30.9039C105.742 30.7596 105.574 30.5547 105.475 30.3148C105.376 30.075 105.35 29.8111 105.4 29.5565C105.451 29.3019 105.576 29.068 105.759 28.8844L113.634 21.0094C113.756 20.8876 113.901 20.7909 114.06 20.7249C114.219 20.659 114.39 20.625 114.562 20.625C114.735 20.625 114.906 20.659 115.065 20.7249C115.224 20.7909 115.369 20.8876 115.491 21.0094L123.366 28.8844C123.549 29.068 123.674 29.3019 123.725 29.5565C123.775 29.8111 123.749 30.075 123.65 30.3148C123.551 30.5547 123.383 30.7596 123.167 30.9039C122.951 31.0481 122.697 31.1251 122.438 31.125H119.812V33.75H125.062C126.802 33.752 128.47 34.444 129.701 35.6743C130.931 36.9046 131.623 38.5727 131.625 40.3125V66.5625H129V40.3125C128.999 39.2686 128.584 38.2678 127.845 37.5297C127.107 36.7915 126.106 36.3763 125.062 36.375H119.812V60H117.188V29.8125C117.188 29.4645 117.326 29.1306 117.572 28.8845C117.818 28.6383 118.152 28.5 118.5 28.5H119.269L114.562 23.7936L109.856 28.5H110.625C110.973 28.5 111.307 28.6383 111.553 28.8845C111.799 29.1306 111.938 29.4645 111.938 29.8125V61.3125H109.312V36.375H64.6875C63.6436 36.3763 62.6428 36.7915 61.9046 37.5297C61.1664 38.2678 60.7512 39.2686 60.75 40.3125V45.5625ZM64.6875 86.2501H86.5483L83.3983 96.7501H80.4375V99.3751H109.312V96.7501H106.352L104.663 91.1227L102.149 91.8774L103.611 96.7501H86.1383L89.2883 86.2501H98.8125V83.625H64.6875C63.6436 83.6238 62.6428 83.2086 61.9046 82.4704C61.1664 81.7323 60.7512 80.7315 60.75 79.6875V78.375H97.5V75.75H60.75V48.1875H58.125V79.6875C58.127 81.4274 58.819 83.0955 60.0493 84.3258C61.2796 85.5561 62.9476 86.2481 64.6875 86.2501ZM104.062 63.9375V42.9375H98.8125V73.125H64.6875V70.5H69.9375V60C69.9375 59.652 70.0758 59.3181 70.3219 59.072C70.5681 58.8258 70.9019 58.6875 71.25 58.6875H79.125C79.4731 58.6875 79.8069 58.8258 80.0531 59.072C80.2992 59.3181 80.4375 59.652 80.4375 60V70.5H83.0625V50.8125C83.0625 50.4645 83.2008 50.1306 83.4469 49.8845C83.6931 49.6383 84.0269 49.5 84.375 49.5H92.25C92.5981 49.5 92.9319 49.6383 93.1781 49.8845C93.4242 50.1306 93.5625 50.4645 93.5625 50.8125V70.5H96.1875V41.625C96.1875 41.277 96.3258 40.9431 96.5719 40.697C96.8181 40.4508 97.1519 40.3125 97.5 40.3125H105.375C105.723 40.3125 106.057 40.4508 106.303 40.697C106.549 40.9431 106.688 41.277 106.688 41.625V63.9375H104.062ZM77.8125 61.3125H72.5625V70.5H77.8125V61.3125ZM90.9375 52.125H85.6875V70.5H90.9375V52.125ZM64.6875 39V41.625H67.3125V39H64.6875ZM72.5625 39H69.9375V41.625H72.5625V39ZM75.1875 39V41.625H77.8125V39H75.1875ZM135.721 92.6539C136.457 93.3938 136.872 94.394 136.875 95.4376C136.875 95.9548 136.774 96.467 136.576 96.9449C136.379 97.4229 136.089 97.8571 135.723 98.2228C135.357 98.5886 134.923 98.8786 134.445 99.0763C133.967 99.274 133.455 99.3755 132.938 99.3751C131.895 99.3659 130.897 98.9522 130.154 98.2212L123.871 91.9389C120.567 93.8883 116.665 94.5655 112.896 93.8434C109.128 93.1213 105.753 91.0496 103.403 88.0167C101.053 84.9838 99.8901 81.1979 100.132 77.3688C100.374 73.5397 102.004 69.9304 104.717 67.2174C107.43 64.5044 111.04 62.8741 114.869 62.6321C118.698 62.3902 122.484 63.5531 125.517 65.903C128.55 68.2529 130.621 71.6283 131.343 75.3965C132.065 79.1647 131.388 83.0669 129.439 86.3715L135.721 92.6539ZM129 78.375C129 75.7792 128.23 73.2416 126.788 71.0832C125.346 68.9248 123.296 67.2425 120.898 66.2491C118.499 65.2557 115.86 64.9958 113.314 65.5022C110.768 66.0087 108.43 67.2587 106.594 69.0943C104.759 70.9298 103.509 73.2685 103.002 75.8145C102.496 78.3605 102.756 80.9995 103.749 83.3978C104.742 85.7961 106.425 87.8459 108.583 89.2881C110.742 90.7303 113.279 91.5001 115.875 91.5001C119.355 91.4961 122.691 90.112 125.151 87.6515C127.612 85.1909 128.996 81.8548 129 78.375ZM133.865 94.5103L127.895 88.5402C127.329 89.2085 126.708 89.829 126.04 90.3951L132.01 96.3648C132.131 96.4918 132.276 96.5933 132.436 96.6635C132.596 96.7336 132.769 96.7709 132.944 96.7732C133.119 96.7755 133.293 96.7427 133.455 96.6767C133.617 96.6108 133.765 96.513 133.889 96.3892C134.012 96.2654 134.11 96.1181 134.176 95.9559C134.242 95.7937 134.275 95.62 134.272 95.4449C134.27 95.2699 134.233 95.097 134.163 94.9366C134.093 94.7762 133.991 94.6315 133.864 94.5109L133.865 94.5103ZM126.375 78.375C126.375 80.4518 125.759 82.4818 124.605 84.2085C123.452 85.9352 121.812 87.2811 119.893 88.0758C117.975 88.8705 115.863 89.0784 113.827 88.6733C111.79 88.2682 109.919 87.2681 108.45 85.7997C106.982 84.3312 105.982 82.4603 105.577 80.4235C105.172 78.3867 105.38 76.2755 106.174 74.3569C106.969 72.4383 108.315 70.7984 110.042 69.6446C111.768 68.4909 113.798 67.875 115.875 67.875C118.659 67.8782 121.328 68.9854 123.296 70.9539C125.265 72.9223 126.372 75.5912 126.375 78.375ZM123.75 78.375C123.75 76.8175 123.288 75.295 122.423 73.9999C121.558 72.7049 120.328 71.6955 118.889 71.0995C117.45 70.5035 115.866 70.3475 114.339 70.6514C112.811 70.9552 111.408 71.7052 110.307 72.8066C109.205 73.9079 108.455 75.3111 108.151 76.8387C107.847 78.3663 108.003 79.9497 108.599 81.3887C109.195 82.8277 110.205 84.0576 111.5 84.9229C112.795 85.7882 114.317 86.2501 115.875 86.2501C117.963 86.2477 119.965 85.4173 121.441 83.941C122.917 82.4646 123.748 80.4629 123.75 78.375ZM110.625 78.375H113.25C113.251 77.6791 113.528 77.0119 114.02 76.5198C114.512 76.0277 115.179 75.7509 115.875 75.75V73.125C114.483 73.1266 113.149 73.6802 112.164 74.6645C111.18 75.6487 110.627 76.9831 110.625 78.375ZM127.688 28.5H130.312C130.31 26.4122 129.48 24.4105 128.003 22.9341C126.527 21.4578 124.525 20.6273 122.438 20.625V23.25C123.829 23.2516 125.164 23.8052 126.148 24.7895C127.132 25.7737 127.686 27.1081 127.688 28.5Z" fill="#37ED81"/>
</svg>
