<svg width="195" height="120" viewBox="0 0 195 120" fill="none" xmlns="http://www.w3.org/2000/svg">
<path d="M73.1538 20.623C71.0465 20.623 69.3125 22.3994 69.3125 24.558V66.5581C69.3125 68.3098 71.8775 68.3098 71.8775 66.5581V33.7532H123.12V66.5581C123.081 68.3478 125.722 68.3478 125.682 66.5581V24.558C125.682 22.3994 123.951 20.623 121.844 20.623H73.1538ZM73.1538 23.2507H121.844C122.576 23.2507 123.12 23.8082 123.12 24.558V31.1256H71.8775V24.558C71.8775 23.8082 72.4218 23.2507 73.1538 23.2507ZM75.7187 25.8731C75.0111 25.8731 74.4375 26.4608 74.4375 27.1856C74.4375 27.9105 75.0111 28.498 75.7187 28.498C76.4263 28.498 77 27.9105 77 27.1856C77 26.4608 76.4263 25.8731 75.7187 25.8731ZM80.8437 25.8731C80.1362 25.8731 79.5625 26.4608 79.5625 27.1856C79.5625 27.9105 80.1362 28.498 80.8437 28.498C81.5514 28.498 82.125 27.9105 82.125 27.1856C82.125 26.4608 81.5514 25.8731 80.8437 25.8731ZM85.9687 25.8731C85.2612 25.8731 84.6875 26.4608 84.6875 27.1856C84.6875 27.9105 85.2612 28.498 85.9687 28.498C86.6764 28.498 87.25 27.9105 87.25 27.1856C87.25 26.4608 86.6764 25.8731 85.9687 25.8731ZM103.841 25.8757C102.111 25.9962 102.229 28.5441 103.901 28.5007H119.281C120.952 28.4611 120.952 25.9137 119.281 25.8757H103.841ZM62.9113 28.5007C60.804 28.5007 59.0625 30.2745 59.0625 32.4332V79.6855C59.0625 81.8443 60.804 83.6205 62.9113 83.6205H132.096C134.204 83.6205 135.937 81.8443 135.937 79.6855V32.433C135.937 30.2743 134.204 28.5006 132.096 28.5006H129.534C127.787 28.4609 127.787 31.1653 129.534 31.1256H132.096C132.828 31.1256 133.372 31.6832 133.372 32.433V70.5006H61.625V32.433C61.625 31.6832 62.1793 31.1256 62.9113 31.1256H65.4637C67.2104 31.1653 67.2104 28.4609 65.4637 28.5006L62.9113 28.5007ZM101.359 38.9776C100.796 38.9737 100.296 39.3473 100.128 39.898L92.4376 63.5204C91.8954 65.1815 94.3277 66.0146 94.8699 64.3534L102.56 40.7234C102.85 39.8735 102.238 38.9835 101.359 38.9776ZM106.929 46.5655L113.436 52.1257L106.929 57.6782C105.539 58.7931 107.256 60.8969 108.573 59.6932L116.253 53.1331C116.867 52.6084 116.867 51.6431 116.253 51.1183L108.573 44.5482C108.344 44.3468 108.052 44.235 107.685 44.2355C106.474 44.3442 106.035 45.824 106.929 46.5655ZM87.2175 44.238C86.9289 44.2479 86.652 44.357 86.4317 44.548L78.7442 51.1182C78.1309 51.6429 78.1309 52.6083 78.7442 53.133L86.4317 59.693C87.7539 60.9544 89.5196 58.7805 88.0683 57.6781L81.562 52.1255L88.0683 46.5654C89.015 45.7713 88.4405 44.1998 87.2175 44.238ZM61.625 73.1282H133.372V79.6855C133.372 80.4354 132.828 80.9929 132.096 80.9929H62.9113C62.1793 80.9929 61.625 80.4354 61.625 79.6855V73.1282ZM100.133 75.7507L94.8749 75.7533C93.2418 75.9532 93.3514 78.3232 94.935 78.368H100.062C101.822 78.5273 101.969 75.7869 100.133 75.7507ZM90.313 86.1429C89.7987 86.133 89.3277 86.4366 89.1168 86.9171C88.4998 88.2728 87.3945 89.8558 85.4858 91.4955H83.4062C81.299 91.4955 79.5675 93.2821 79.5675 95.4408V98.0555C79.5649 98.7804 80.1362 99.3702 80.8437 99.373H114.154C114.865 99.3757 115.443 98.7844 115.44 98.0555V95.4408C115.44 93.2821 113.699 91.4955 111.591 91.4955H109.514C107.606 89.8559 106.5 88.2727 105.883 86.9171C105.666 86.424 105.177 86.1179 104.649 86.1455C103.734 86.1951 103.162 87.1817 103.561 88.0272C104.06 89.1246 104.823 90.3017 105.851 91.4955H89.1493C90.1769 90.3017 90.9396 89.1246 91.4391 88.0272C91.8459 87.1665 91.2464 86.1633 90.313 86.1429ZM83.4062 94.1231H111.591C112.323 94.1231 112.877 94.6909 112.877 95.4408V96.7482H82.13V95.4408C82.13 94.6909 82.6743 94.1231 83.4062 94.1231Z" fill="#37ED81"/>
</svg>
