<svg width="171" height="44" viewBox="0 0 171 44" fill="none" xmlns="http://www.w3.org/2000/svg">
<path fill-rule="evenodd" clip-rule="evenodd" d="M78.2079 11.8314H77.4054C77.194 11.8314 77.0236 11.6664 76.9309 11.4728C76.9222 11.4552 76.9136 11.4376 76.905 11.42C76.8381 11.299 76.754 11.1956 76.6504 11.1098C76.5469 11.024 76.4283 10.9602 76.2924 10.914C76.1586 10.8678 76.0141 10.8458 75.8566 10.8458C75.5741 10.8458 75.326 10.9184 75.1168 11.0614C74.9054 11.2022 74.7436 11.409 74.6271 11.6818C74.5969 11.7522 74.571 11.8292 74.5473 11.9084L73.3458 11.915C73.4018 11.6202 73.4925 11.354 73.6176 11.1164C73.8419 10.6896 74.146 10.3662 74.5322 10.1418C74.9161 9.91738 75.3497 9.80518 75.8308 9.80518C76.1478 9.80518 76.4434 9.85138 76.713 9.94158C76.9848 10.0318 77.2264 10.1638 77.4378 10.3398C77.6492 10.5114 77.8196 10.7226 77.9512 10.9734C78.0849 11.2242 78.1712 11.5102 78.2079 11.8336V11.8314ZM72.3147 11.9216C72.3211 11.8512 72.3255 11.7764 72.3255 11.7016C72.3255 11.3342 72.2478 11.013 72.0925 10.7402C71.9393 10.4652 71.715 10.254 71.4216 10.1066C71.1304 9.95698 70.7767 9.87998 70.3625 9.87998H68.6282C68.3931 9.87998 68.2032 10.0736 68.2032 10.3134V11.948L69.3616 11.9414V10.8458H70.1425C70.3647 10.8458 70.5502 10.8788 70.6968 10.947C70.8457 11.013 70.9535 11.1076 71.0247 11.2352C71.0981 11.3628 71.1347 11.519 71.1347 11.7038C71.1347 11.7852 71.1283 11.8622 71.1132 11.9326L72.319 11.926L72.3147 11.9216ZM70.5804 12.4782L72.1874 12.4584C72.1594 12.5266 72.127 12.5926 72.0903 12.6564C71.9329 12.9204 71.7064 13.125 71.4087 13.2658C71.3914 13.2746 71.3763 13.2812 71.3591 13.2878L72.5218 15.4526H71.4993C71.3418 15.4526 71.1973 15.3646 71.124 15.2238L70.2072 13.477H69.3616V15.0192C69.3616 15.259 69.1718 15.4526 68.9366 15.4526H68.2032V12.5068L69.3616 12.4914V12.5288H70.1468C70.3129 12.5288 70.4574 12.5112 70.5825 12.476L70.5804 12.4782ZM66.1259 11.9612L65.4206 9.88218H63.9279L63.216 11.9788L64.3916 11.9722L64.6526 11.156H64.6958L64.9546 11.97L66.1238 11.9634L66.1259 11.9612ZM65.1272 12.5046L66.3158 12.5244L67.308 15.4548H66.3762C66.1928 15.4548 66.0289 15.3338 65.9706 15.1556L65.66 14.1832H63.6819L63.3713 15.1556C63.3152 15.3338 63.1513 15.4548 62.9658 15.4548H62.0339L63.0456 12.4716L64.2212 12.4914L63.9732 13.2658H65.3623L65.1207 12.5068L65.1272 12.5046ZM61.637 11.9876C61.5852 11.6862 61.4946 11.4134 61.3674 11.1692C61.1538 10.7534 60.8475 10.4344 60.4506 10.2144C60.0537 9.99218 59.5791 9.87998 59.0269 9.87998H57.4954C57.2603 9.87998 57.0704 10.0736 57.0704 10.3134V12.0162L58.2288 12.0096V10.8898H58.9665C59.3095 10.8898 59.5964 10.9514 59.8294 11.0746C60.0623 11.1978 60.2392 11.3892 60.3557 11.651C60.4031 11.7544 60.4398 11.8688 60.4679 11.9942L61.6349 11.9876H61.637ZM60.5304 12.4276L61.6866 12.4474C61.6909 12.5178 61.6909 12.5882 61.6909 12.6608C61.6909 13.2416 61.5831 13.741 61.3674 14.1568C61.1538 14.5748 60.8454 14.8938 60.4441 15.1182C60.0451 15.3404 59.5662 15.4526 59.0118 15.4526H57.0704V12.3704L58.2288 12.3902V14.4428H58.9644C59.3073 14.4428 59.5942 14.3812 59.8272 14.258C60.0623 14.1326 60.2392 13.939 60.3557 13.6794C60.4743 13.4154 60.5347 13.0766 60.5347 12.6608C60.5347 12.5794 60.5326 12.5024 60.5283 12.4276H60.5304ZM53.3861 12.0404V10.8524H55.4936C55.7287 10.8524 55.9185 10.6588 55.9185 10.419V9.87998H52.2277V12.0448L53.3861 12.0382V12.0404ZM52.2277 12.2934L55.7287 12.3506V13.1514H53.3861V14.4824H55.5044C55.7395 14.4824 55.9293 14.676 55.9293 14.9158V15.4548H52.2277V12.2934ZM51.0413 12.0536V10.3134C51.0413 10.0736 50.8515 9.87998 50.6164 9.87998H49.6133L48.7311 12.0668L49.7794 12.0602L49.8722 11.8248H49.9175V12.0602L51.0413 12.0536ZM49.9196 12.256L51.0435 12.2736V15.4526H50.3467C50.1116 15.4526 49.9218 15.259 49.9218 15.0192V12.2538L49.9196 12.256ZM49.7061 12.2516L48.6664 12.234L48.1055 13.6244H48.0408L47.4735 12.2142L46.4251 12.1966L47.6374 15.2876C47.6698 15.369 47.7474 15.424 47.8359 15.424H48.3126C48.3989 15.424 48.4787 15.3712 48.511 15.2876L49.7082 12.2494L49.7061 12.2516ZM46.3798 12.0822L46.2741 11.8116H46.2288V12.0822L45.105 12.0888V10.3112C45.105 10.0714 45.2948 9.87778 45.5299 9.87778H46.533L47.4174 12.0734L46.3798 12.08V12.0822ZM45.105 12.1768L46.2288 12.1944V15.0192C46.2288 15.259 46.039 15.4526 45.8039 15.4526H45.1071V12.1768H45.105ZM73.2832 12.4452L74.4588 12.4298C74.4545 12.5068 74.4502 12.586 74.4502 12.6674C74.4502 13.0656 74.5084 13.3978 74.6249 13.6684C74.7436 13.939 74.9075 14.1436 75.1168 14.28C75.3281 14.4186 75.5697 14.4868 75.8458 14.4868C76.0012 14.4868 76.1435 14.467 76.2773 14.4252C76.411 14.3834 76.5297 14.3218 76.6332 14.2426C76.7367 14.1612 76.823 14.0622 76.8899 13.9456C76.9007 13.928 76.9115 13.9082 76.9201 13.8906C77.0172 13.7058 77.1833 13.5496 77.3903 13.5496L78.2057 13.554C78.1755 13.8092 78.1 14.0556 77.9792 14.2932C77.8606 14.5286 77.6988 14.7398 77.496 14.9268C77.2954 15.1116 77.0538 15.259 76.7734 15.3668C76.4951 15.4746 76.1802 15.5274 75.8286 15.5274C75.3411 15.5274 74.9032 15.4152 74.5192 15.1908C74.1353 14.9664 73.8333 14.6408 73.6111 14.214C73.3911 13.7872 73.2789 13.2724 73.2789 12.6652C73.2789 12.5904 73.2789 12.5156 73.2832 12.443V12.4452ZM79.2692 12.3704V15.4548H80.0026C80.2377 15.4548 80.4275 15.2612 80.4275 15.0214V13.1514H82.7788V15.0214C82.7788 15.2612 82.9686 15.4548 83.2037 15.4548H83.9328V12.3132L79.2692 12.3726V12.3704ZM83.9328 11.849V9.87998H83.2037C82.9686 9.87998 82.7788 10.0736 82.7788 10.3134V11.8556L83.935 11.849H83.9328ZM80.4275 11.871V10.3134C80.4275 10.0736 80.2377 9.87998 80.0026 9.87998H79.2692V11.8776L80.4275 11.871Z" fill="url(#paint0_linear_629_416)"/>
<path d="M19.8669 26.7437C18.3806 25.1993 16.8944 23.6571 15.406 22.1127C14.047 20.7047 12.688 19.2989 11.3291 17.8909V32.2195C11.3291 32.2195 11.6095 34.7275 9.40494 34.7275H6.36558C6.33969 21.8245 6.34832 12.4195 6.36558 11.3217C6.36989 11.0819 6.38499 10.5099 6.76896 10.1513C7.08605 9.85428 7.50884 9.83008 7.73965 9.83008C9.3165 9.84108 12.3774 9.83008 12.3774 9.83008C14.871 12.6791 17.369 15.5325 19.8669 18.3837C22.0844 15.5347 24.3062 12.6813 26.5237 9.83008C28.1631 9.83008 29.8003 9.83008 31.4397 9.83008C31.5692 9.87408 31.9165 10.0127 32.1645 10.3757C32.4126 10.7365 32.4234 11.1193 32.4277 11.2557C32.4277 11.2975 32.4277 11.3305 32.4277 11.3547C28.2408 16.4829 24.0538 21.6111 19.869 26.7415L19.8669 26.7437Z" fill="url(#paint1_linear_629_416)"/>
<path d="M32.4256 23.3292V34.7296H29.0454C28.7693 34.6724 28.3163 34.5316 27.9518 34.1466C27.5311 33.7 27.4427 33.1566 27.3995 32.8596V22.2402H31.3125C31.4419 22.2644 31.6469 22.3172 31.8626 22.4624C32.0028 22.5526 32.0891 22.645 32.1106 22.6692C32.3199 22.9002 32.3997 23.162 32.4277 23.3292H32.4256Z" fill="url(#paint2_linear_629_416)"/>
<path d="M25.9305 29.311C25.9348 31.1172 25.9391 32.9212 25.9434 34.7274C24.7397 34.7296 23.5382 34.7296 22.3346 34.7296C22.2375 34.7296 21.7263 34.7098 21.3186 34.283C20.9152 33.8584 20.9109 33.3414 20.9109 33.2424C20.9109 31.4912 20.9109 29.7422 20.9109 27.991C21.2043 27.991 22.3454 27.991 22.6387 27.991C23.0119 27.991 24.2393 27.991 24.6103 27.9888C24.7074 27.991 25.1669 28.0152 25.54 28.4002C25.8938 28.7654 25.924 29.2054 25.9283 29.311H25.9305Z" fill="url(#paint3_linear_629_416)"/>
<path d="M39.0802 12.934V34.7294H35.5879C35.4563 34.7382 35.2557 34.7316 35.027 34.6612C34.8588 34.6062 34.7272 34.5314 34.6323 34.4698C34.518 34.3928 34.3734 34.2718 34.2462 34.0958C34.2462 34.0958 34.0305 33.7922 33.9765 33.3698C33.9701 33.3368 33.9679 33.2642 33.9614 33.1608V11.4072C33.9636 10.888 33.9679 10.3622 33.9701 9.83204C34.1232 9.82544 36.688 9.75064 37.855 9.88704C38.0146 9.90464 38.3058 9.94424 38.5517 10.1598C38.8926 10.4568 38.9616 10.9012 38.9875 11.0684C39.0263 11.3258 39.0587 11.9704 39.0781 12.934H39.0802Z" fill="url(#paint4_linear_629_416)"/>
<path d="M60.9985 34.2631C60.9985 34.3357 60.9791 34.3995 60.9402 34.4567C60.9014 34.5139 60.8324 34.5601 60.7288 34.5953C60.6274 34.6305 60.4916 34.6591 60.3233 34.6811C60.155 34.7031 59.9415 34.7141 59.6805 34.7141C59.4195 34.7141 59.2167 34.7031 59.0484 34.6811C58.8802 34.6591 58.7465 34.6305 58.6472 34.5953C58.548 34.5601 58.479 34.5139 58.4358 34.4567C58.3927 34.3995 58.3733 34.3357 58.3733 34.2631V22.9507H58.3517L54.4021 34.2521C54.374 34.3445 54.3287 34.4215 54.2662 34.4831C54.2036 34.5447 54.1173 34.5931 54.0073 34.6283C53.8994 34.6635 53.7592 34.6877 53.591 34.6987C53.4227 34.7097 53.2178 34.7141 52.9805 34.7141C52.7432 34.7141 52.5383 34.7053 52.3701 34.6877C52.2018 34.6701 52.0638 34.6415 51.9537 34.6019C51.8459 34.5623 51.7596 34.5139 51.6949 34.4567C51.6323 34.3995 51.5892 34.3313 51.5676 34.2521L47.7539 22.9507H47.7323V34.2631C47.7323 34.3357 47.7129 34.3995 47.674 34.4567C47.6352 34.5139 47.564 34.5601 47.4583 34.5953C47.3526 34.6305 47.2167 34.6591 47.0528 34.6811C46.8867 34.7031 46.6753 34.7141 46.4165 34.7141C46.1576 34.7141 45.9527 34.7031 45.7844 34.6811C45.6162 34.6591 45.4803 34.6305 45.3789 34.5953C45.2775 34.5601 45.2063 34.5139 45.1675 34.4567C45.1287 34.3995 45.1093 34.3357 45.1093 34.2631V21.8771C45.1093 21.5119 45.2042 21.2325 45.394 21.0389C45.5838 20.8453 45.8362 20.7485 46.1533 20.7485H47.9653C48.2888 20.7485 48.5649 20.7749 48.7979 20.8299C49.0309 20.8849 49.2293 20.9729 49.3976 21.0983C49.5658 21.2237 49.706 21.3887 49.8182 21.5933C49.9304 21.7979 50.0296 22.0509 50.1137 22.3501L53.0625 30.6331H53.1056L56.1601 22.3721C56.2507 22.0707 56.3521 21.8177 56.4599 21.6087C56.5678 21.4019 56.6951 21.2325 56.8396 21.1049C56.9841 20.9751 57.1545 20.8849 57.3508 20.8299C57.5471 20.7771 57.7758 20.7485 58.0346 20.7485H59.8983C60.0882 20.7485 60.2521 20.7727 60.388 20.8233C60.5239 20.8739 60.6382 20.9465 60.7245 21.0433C60.813 21.1401 60.8798 21.2589 60.9251 21.3975C60.9704 21.5361 60.9942 21.6967 60.9942 21.8749V34.2609L60.9985 34.2631Z" fill="url(#paint5_linear_629_416)"/>
<path d="M71.8142 34.3181C71.8142 34.4193 71.7797 34.4963 71.7085 34.5535C71.6374 34.6107 71.5273 34.6525 71.3763 34.6767C71.2254 34.7009 71.0032 34.7141 70.7076 34.7141C70.3927 34.7141 70.1619 34.7009 70.0174 34.6767C69.8728 34.6525 69.7715 34.6107 69.7111 34.5535C69.6507 34.4963 69.6205 34.4171 69.6205 34.3181V33.5547C69.2343 33.9771 68.7943 34.3071 68.2982 34.5425C67.802 34.7779 67.2541 34.8967 66.6501 34.8967C66.1518 34.8967 65.6924 34.8307 65.2761 34.6987C64.8576 34.5667 64.4973 34.3687 64.191 34.1069C63.8847 33.8451 63.6496 33.5217 63.4792 33.1345C63.3088 32.7473 63.2268 32.2963 63.2268 31.7815C63.2268 31.2227 63.3347 30.7387 63.5482 30.3251C63.7618 29.9137 64.081 29.5727 64.506 29.3043C64.9309 29.0359 65.4594 28.8379 66.0914 28.7081C66.7235 28.5783 67.4569 28.5145 68.2938 28.5145H69.2106V27.9337C69.2106 27.6323 69.1804 27.3705 69.12 27.1439C69.0596 26.9173 68.9625 26.7303 68.8245 26.5807C68.6864 26.4311 68.5052 26.3189 68.2766 26.2485C68.0479 26.1759 67.7654 26.1407 67.4288 26.1407C66.9866 26.1407 66.5919 26.1913 66.2446 26.2903C65.8973 26.3915 65.5888 26.5015 65.3235 26.6225C65.056 26.7435 64.8339 26.8557 64.6548 26.9547C64.4758 27.0559 64.3291 27.1043 64.2169 27.1043C64.1393 27.1043 64.0702 27.0801 64.012 27.0295C63.9516 26.9789 63.9041 26.9085 63.8653 26.8139C63.8265 26.7215 63.7963 26.6071 63.7747 26.4707C63.7531 26.3343 63.7424 26.1847 63.7424 26.0197C63.7424 25.7975 63.7596 25.6215 63.7941 25.4939C63.8286 25.3641 63.8955 25.2497 63.9947 25.1441C64.094 25.0407 64.2644 24.9263 64.5103 24.8009C64.7562 24.6755 65.0431 24.5589 65.3731 24.4511C65.7032 24.3433 66.0634 24.2553 66.4517 24.1871C66.8421 24.1189 67.2433 24.0859 67.6575 24.0859C68.3952 24.0859 69.0251 24.1585 69.5471 24.3059C70.0691 24.4533 70.5006 24.6777 70.8371 24.9835C71.1736 25.2871 71.4195 25.6809 71.5748 26.1605C71.7301 26.6401 71.8056 27.2099 71.8056 27.8677V34.3137L71.8142 34.3181ZM69.2128 30.2151H68.2011C67.7718 30.2151 67.4073 30.2481 67.1053 30.3119C66.8033 30.3757 66.5574 30.4725 66.3676 30.6023C66.1777 30.7321 66.0397 30.8861 65.9512 31.0687C65.8628 31.2513 65.8196 31.4603 65.8196 31.6979C65.8196 32.0983 65.9448 32.4151 66.1928 32.6439C66.443 32.8727 66.7882 32.9871 67.2304 32.9871C67.6036 32.9871 67.9444 32.8903 68.2572 32.6967C68.57 32.5031 68.887 32.2215 69.2106 31.8475V30.2151H69.2128Z" fill="url(#paint6_linear_629_416)"/>
<path d="M80.4944 25.5951C80.4944 25.8525 80.4879 26.0637 80.4728 26.2287C80.4577 26.3937 80.4383 26.5213 80.4103 26.6159C80.3822 26.7083 80.3456 26.7743 80.3003 26.8095C80.255 26.8447 80.1967 26.8623 80.1255 26.8623C80.0694 26.8623 80.0069 26.8491 79.9357 26.8249C79.8645 26.8007 79.7869 26.7721 79.6984 26.7435C79.61 26.7149 79.5151 26.6885 79.4094 26.6621C79.3037 26.6379 79.1872 26.6247 79.0621 26.6247C78.9154 26.6247 78.7666 26.6555 78.6199 26.7171C78.4732 26.7787 78.32 26.8733 78.1626 27.0009C78.0051 27.1285 77.839 27.3023 77.6686 27.5157C77.496 27.7313 77.3127 27.9953 77.1164 28.3099V34.2829C77.1164 34.3555 77.0948 34.4171 77.0538 34.4699C77.0128 34.5227 76.9395 34.5689 76.8381 34.6041C76.7367 34.6393 76.6008 34.6679 76.4326 34.6855C76.2643 34.7031 76.0508 34.7119 75.7898 34.7119C75.5287 34.7119 75.3152 34.7031 75.1469 34.6855C74.9787 34.6679 74.8428 34.6415 74.7414 34.6041C74.64 34.5689 74.5667 34.5227 74.5257 34.4699C74.4847 34.4171 74.4631 34.3533 74.4631 34.2829V24.7019C74.4631 24.6293 74.4804 24.5677 74.5149 24.5149C74.5494 24.4621 74.6141 24.4159 74.7047 24.3807C74.7953 24.3455 74.914 24.3191 75.0585 24.2993C75.203 24.2817 75.3842 24.2729 75.5999 24.2729C75.8156 24.2729 76.0098 24.2817 76.1586 24.2993C76.3053 24.3169 76.4196 24.3433 76.5016 24.3807C76.5814 24.4159 76.6396 24.4621 76.6763 24.5149C76.7108 24.5677 76.7281 24.6315 76.7281 24.7019V25.8943C76.974 25.5357 77.2048 25.2409 77.4227 25.0077C77.6405 24.7745 77.8476 24.5897 78.0439 24.4555C78.2402 24.3191 78.4365 24.2245 78.6328 24.1717C78.8291 24.1189 79.0254 24.0903 79.2217 24.0903C79.3123 24.0903 79.4115 24.0947 79.5172 24.1057C79.6229 24.1167 79.7308 24.1343 79.8429 24.1585C79.9551 24.1827 80.0543 24.2113 80.1385 24.2443C80.2226 24.2773 80.2851 24.3103 80.3218 24.3455C80.3606 24.3807 80.3887 24.4203 80.406 24.4643C80.4232 24.5083 80.4383 24.5655 80.4534 24.6425C80.4663 24.7173 80.4771 24.8295 80.4858 24.9813C80.4922 25.1309 80.4966 25.3355 80.4966 25.5929L80.4944 25.5951Z" fill="url(#paint7_linear_629_416)"/>
<path d="M90.8593 34.296C90.8593 34.3686 90.8399 34.4302 90.801 34.483C90.7622 34.5358 90.6932 34.5798 90.5896 34.6128C90.4882 34.6458 90.348 34.67 90.1733 34.6876C89.9986 34.7052 89.7699 34.714 89.4895 34.714C89.2091 34.714 88.9675 34.7074 88.7884 34.692C88.6094 34.6766 88.4627 34.6546 88.3462 34.6216C88.2298 34.5886 88.1413 34.5446 88.0766 34.4874C88.0141 34.4302 87.958 34.3554 87.9084 34.2608L84.7806 29.2118V34.2828C84.7806 34.3554 84.759 34.417 84.718 34.4698C84.677 34.5226 84.6037 34.5688 84.5023 34.604C84.4009 34.6392 84.265 34.6678 84.0967 34.6854C83.9285 34.703 83.7149 34.7118 83.4539 34.7118C83.1929 34.7118 82.9794 34.703 82.8111 34.6854C82.6429 34.6678 82.507 34.6414 82.4056 34.604C82.3042 34.5688 82.2309 34.5226 82.1899 34.4698C82.1489 34.417 82.1273 34.3532 82.1273 34.2828V20.1566C82.1273 20.084 82.1489 20.0202 82.1899 19.963C82.233 19.9058 82.3042 19.8574 82.4056 19.8178C82.507 19.7782 82.6429 19.7474 82.8111 19.7254C82.9794 19.7034 83.1929 19.6924 83.4539 19.6924C83.7149 19.6924 83.9285 19.7034 84.0967 19.7254C84.265 19.7474 84.4009 19.7782 84.5023 19.8178C84.6037 19.8574 84.677 19.9058 84.718 19.963C84.7611 20.0202 84.7806 20.084 84.7806 20.1566V28.5672L87.5611 24.7546C87.6171 24.6688 87.6797 24.594 87.7509 24.528C87.8221 24.4642 87.9148 24.4136 88.0291 24.3784C88.1456 24.3432 88.288 24.3168 88.4606 24.297C88.6331 24.2794 88.851 24.2706 89.1185 24.2706C89.386 24.2706 89.5974 24.2794 89.7764 24.297C89.9554 24.3146 90.1 24.341 90.2078 24.3784C90.3157 24.4136 90.3912 24.4598 90.4343 24.5126C90.4775 24.5654 90.4969 24.6336 90.4969 24.7106C90.4969 24.8184 90.471 24.9328 90.4171 25.0538C90.3653 25.1748 90.2855 25.3046 90.1798 25.441L87.4316 28.62L90.6134 33.636C90.6975 33.779 90.76 33.9022 90.7967 34.0056C90.8355 34.109 90.855 34.2036 90.855 34.2894L90.8593 34.296Z" fill="url(#paint8_linear_629_416)"/>
<path d="M100.568 29.2141C100.568 29.5441 100.497 29.7861 100.353 29.9445C100.208 30.1029 100.01 30.1799 99.7573 30.1799H94.0389C94.0389 30.5891 94.0863 30.9587 94.1812 31.2909C94.2761 31.6231 94.4271 31.9069 94.6342 32.1401C94.8413 32.3733 95.1088 32.5493 95.4345 32.6725C95.7602 32.7935 96.1528 32.8551 96.608 32.8551C97.0631 32.8551 97.4794 32.8221 97.8289 32.7539C98.1805 32.6857 98.4847 32.6109 98.7392 32.5273C98.9959 32.4459 99.2073 32.3689 99.3755 32.3007C99.5438 32.2325 99.6818 32.1995 99.7854 32.1995C99.8479 32.1995 99.9019 32.2127 99.9429 32.2369C99.986 32.2611 100.021 32.3073 100.049 32.3711C100.077 32.4349 100.096 32.5273 100.107 32.6461C100.118 32.7649 100.122 32.9123 100.122 33.0927C100.122 33.2511 100.118 33.3853 100.111 33.4953C100.105 33.6053 100.094 33.7021 100.079 33.7791C100.064 33.8583 100.044 33.9243 100.016 33.9771C99.9882 34.0299 99.9515 34.0827 99.9062 34.1333C99.8609 34.1839 99.7358 34.2521 99.533 34.3379C99.3302 34.4237 99.0692 34.5073 98.7543 34.5909C98.4394 34.6745 98.077 34.7449 97.6693 34.8065C97.2616 34.8681 96.8258 34.8989 96.3642 34.8989C95.5294 34.8989 94.796 34.7911 94.1683 34.5777C93.5406 34.3621 93.0142 34.0365 92.5936 33.6009C92.173 33.1631 91.858 32.6131 91.651 31.9465C91.4439 31.2799 91.3403 30.4989 91.3403 29.6057C91.3403 28.7125 91.4482 27.9865 91.6661 27.3023C91.8839 26.6181 92.1989 26.0373 92.613 25.5621C93.0272 25.0869 93.5319 24.7217 94.1252 24.4709C94.7184 24.2201 95.3871 24.0947 96.1313 24.0947C96.9186 24.0947 97.5895 24.2135 98.1481 24.4489C98.7068 24.6843 99.1641 25.0121 99.5222 25.4323C99.8803 25.8525 100.143 26.3475 100.312 26.9195C100.48 27.4915 100.564 28.1163 100.564 28.7895V29.2185L100.568 29.2141ZM97.9993 28.4419C98.0209 27.6829 97.872 27.0867 97.5506 26.6533C97.2314 26.2199 96.7374 26.0043 96.0709 26.0043C95.7343 26.0043 95.441 26.0681 95.1908 26.1979C94.9405 26.3277 94.7335 26.5015 94.5695 26.7193C94.4034 26.9371 94.2783 27.1967 94.1899 27.4937C94.1014 27.7907 94.0518 28.1075 94.0367 28.4441H97.9971L97.9993 28.4419Z" fill="url(#paint9_linear_629_416)"/>
<path d="M111.777 24.3386C112.072 24.3386 112.277 24.4024 112.394 24.5322C112.51 24.662 112.568 24.8468 112.568 25.091V34.287C112.568 34.3596 112.547 34.4212 112.506 34.474C112.465 34.5268 112.394 34.573 112.294 34.6082C112.195 34.6434 112.061 34.672 111.889 34.6896C111.716 34.7072 111.505 34.716 111.253 34.716C111 34.716 110.776 34.7072 110.605 34.6896C110.433 34.672 110.299 34.6456 110.2 34.6082C110.101 34.573 110.032 34.5268 109.988 34.474C109.945 34.4212 109.926 34.3574 109.926 34.287V26.532H105.702V31.0332C105.702 31.5568 105.782 31.9484 105.944 32.2102C106.106 32.472 106.393 32.6018 106.807 32.6018C106.947 32.6018 107.074 32.5886 107.186 32.5644C107.299 32.5402 107.398 32.5116 107.486 32.4786C107.575 32.4456 107.648 32.417 107.708 32.3928C107.769 32.3686 107.823 32.3554 107.872 32.3554C107.915 32.3554 107.954 32.3686 107.993 32.3928C108.032 32.417 108.062 32.4676 108.084 32.5424C108.105 32.6172 108.125 32.7206 108.142 32.8482C108.159 32.978 108.168 33.1408 108.168 33.3432C108.168 33.6578 108.151 33.8954 108.116 34.0582C108.082 34.2188 108.032 34.3376 107.969 34.4124C107.907 34.4872 107.812 34.551 107.685 34.606C107.557 34.661 107.413 34.7072 107.247 34.7446C107.081 34.7842 106.902 34.815 106.71 34.837C106.516 34.859 106.321 34.87 106.125 34.87C105.599 34.87 105.141 34.8018 104.755 34.6654C104.369 34.529 104.05 34.32 103.798 34.0362C103.545 33.7524 103.36 33.396 103.239 32.967C103.12 32.538 103.06 32.0298 103.06 31.4424V26.5342H101.934C101.8 26.5342 101.699 26.4506 101.628 26.2812C101.556 26.114 101.522 25.8324 101.522 25.4386C101.522 25.2318 101.53 25.0558 101.548 24.9128C101.565 24.7698 101.591 24.6576 101.628 24.574C101.662 24.4926 101.707 24.4332 101.759 24.3958C101.811 24.3606 101.873 24.343 101.942 24.343H103.06V22.2046C103.06 22.132 103.079 22.0682 103.118 22.011C103.157 21.9538 103.226 21.9054 103.329 21.8658C103.431 21.8262 103.569 21.7976 103.739 21.78C103.912 21.7624 104.123 21.7536 104.376 21.7536C104.628 21.7536 104.852 21.7624 105.023 21.78C105.195 21.7976 105.329 21.8262 105.428 21.8658C105.528 21.9054 105.597 21.9538 105.64 22.011C105.683 22.0682 105.702 22.132 105.702 22.2046V24.343H111.779L111.777 24.3386ZM112.778 21.4588C112.778 22.0022 112.67 22.3784 112.452 22.5874C112.234 22.7942 111.831 22.8998 111.24 22.8998C110.649 22.8998 110.241 22.7986 110.034 22.5984C109.827 22.3982 109.723 22.0352 109.723 21.5138C109.723 20.9924 109.831 20.592 110.045 20.3808C110.258 20.1696 110.664 20.064 111.261 20.064C111.859 20.064 112.251 20.1652 112.463 20.3698C112.674 20.5744 112.778 20.9374 112.778 21.461V21.4588Z" fill="url(#paint10_linear_629_416)"/>
<path d="M124.204 34.2851C124.204 34.3577 124.182 34.4193 124.141 34.4721C124.1 34.5249 124.029 34.5711 123.93 34.6063C123.831 34.6415 123.697 34.6701 123.524 34.6877C123.352 34.7053 123.14 34.7141 122.888 34.7141C122.635 34.7141 122.411 34.7053 122.241 34.6877C122.068 34.6701 121.934 34.6437 121.835 34.6063C121.736 34.5711 121.667 34.5249 121.624 34.4721C121.581 34.4193 121.561 34.3555 121.561 34.2851V28.8181C121.561 28.3517 121.529 27.9865 121.462 27.7225C121.395 27.4585 121.298 27.2297 121.173 27.0405C121.046 26.8513 120.884 26.7039 120.683 26.6005C120.483 26.4971 120.25 26.4443 119.982 26.4443C119.646 26.4443 119.305 26.5697 118.96 26.8205C118.615 27.0713 118.257 27.4365 117.886 27.9161V34.2873C117.886 34.3599 117.864 34.4215 117.823 34.4743C117.782 34.5271 117.709 34.5733 117.607 34.6085C117.506 34.6437 117.37 34.6723 117.202 34.6899C117.033 34.7075 116.82 34.7163 116.559 34.7163C116.298 34.7163 116.084 34.7075 115.916 34.6899C115.748 34.6723 115.612 34.6459 115.511 34.6085C115.409 34.5733 115.336 34.5271 115.295 34.4743C115.254 34.4215 115.232 34.3577 115.232 34.2873V24.7063C115.232 24.6337 115.25 24.5721 115.284 24.5193C115.319 24.4665 115.383 24.4203 115.474 24.3851C115.564 24.3499 115.683 24.3235 115.828 24.3037C115.972 24.2861 116.153 24.2773 116.369 24.2773C116.585 24.2773 116.779 24.2861 116.928 24.3037C117.074 24.3213 117.189 24.3477 117.271 24.3851C117.351 24.4203 117.409 24.4665 117.445 24.5193C117.48 24.5721 117.497 24.6359 117.497 24.7063V25.8129C118.017 25.2409 118.546 24.8097 119.083 24.5237C119.62 24.2377 120.181 24.0947 120.763 24.0947C121.402 24.0947 121.941 24.2025 122.381 24.4159C122.819 24.6315 123.175 24.9219 123.444 25.2915C123.714 25.6611 123.91 26.0923 124.029 26.5851C124.148 27.0801 124.208 27.6741 124.208 28.3693V34.2873L124.204 34.2851Z" fill="url(#paint11_linear_629_416)"/>
<path d="M135.274 25.3682C135.274 25.7114 135.235 25.9666 135.158 26.1316C135.08 26.2966 134.985 26.378 134.873 26.378H133.766C133.922 26.5496 134.032 26.7454 134.098 26.9632C134.165 27.181 134.198 27.4098 134.198 27.6452C134.198 28.204 134.107 28.699 133.924 29.1324C133.74 29.5658 133.479 29.931 133.139 30.228C132.798 30.525 132.388 30.7516 131.907 30.9056C131.426 31.0596 130.891 31.1366 130.3 31.1366C129.998 31.1366 129.711 31.0992 129.437 31.0244C129.163 30.9496 128.952 30.8616 128.805 30.7604C128.721 30.8528 128.645 30.965 128.578 31.0926C128.512 31.2224 128.479 31.3654 128.479 31.5216C128.479 31.7284 128.57 31.9 128.749 32.032C128.928 32.164 129.178 32.2388 129.502 32.252L131.788 32.3378C132.321 32.3598 132.798 32.4368 133.216 32.5688C133.635 32.7008 133.984 32.8878 134.269 33.1276C134.554 33.3674 134.771 33.6556 134.922 33.9922C135.073 34.3288 135.149 34.7116 135.149 35.1406C135.149 35.6136 135.048 36.058 134.843 36.4782C134.64 36.8962 134.334 37.2614 133.926 37.5694C133.518 37.8774 133.007 38.1216 132.394 38.2998C131.78 38.478 131.061 38.5682 130.239 38.5682C129.418 38.5682 128.755 38.5044 128.19 38.3746C127.625 38.2448 127.161 38.0666 126.799 37.8378C126.436 37.609 126.173 37.334 126.009 37.015C125.843 36.696 125.761 36.3462 125.761 35.9678C125.761 35.7324 125.791 35.5058 125.852 35.2902C125.912 35.0746 125.999 34.87 126.115 34.672C126.231 34.4762 126.374 34.287 126.542 34.1088C126.71 33.9306 126.904 33.759 127.122 33.594C126.82 33.429 126.587 33.2046 126.421 32.923C126.255 32.6392 126.173 32.3312 126.173 31.9946C126.173 31.5722 126.268 31.1872 126.458 30.8396C126.648 30.492 126.894 30.1796 127.196 29.9002C126.95 29.6494 126.753 29.348 126.607 28.9982C126.46 28.6484 126.385 28.2106 126.385 27.687C126.385 27.1282 126.482 26.6288 126.674 26.1888C126.868 25.7488 127.135 25.377 127.48 25.0712C127.823 24.7676 128.235 24.5344 128.712 24.3738C129.189 24.2132 129.715 24.1318 130.291 24.1318C130.587 24.1318 130.869 24.1494 131.139 24.1846C131.409 24.2198 131.661 24.2704 131.892 24.3342H134.873C134.991 24.3342 135.089 24.4134 135.162 24.5696C135.235 24.728 135.272 24.992 135.272 25.3638L135.274 25.3682ZM132.494 35.2836C132.494 34.9624 132.366 34.7138 132.114 34.5422C131.862 34.3706 131.514 34.2782 131.072 34.2628L129.187 34.21C129.003 34.3464 128.859 34.4762 128.749 34.6016C128.641 34.727 128.553 34.848 128.486 34.9624C128.419 35.0768 128.376 35.189 128.354 35.2946C128.333 35.4002 128.322 35.5124 128.322 35.6268C128.322 35.9854 128.499 36.256 128.855 36.443C129.208 36.63 129.709 36.7224 130.356 36.7224C130.757 36.7224 131.094 36.6806 131.368 36.5992C131.641 36.5178 131.862 36.4078 132.032 36.2714C132.202 36.135 132.319 35.9832 132.39 35.8138C132.461 35.6466 132.496 35.4684 132.496 35.2814L132.494 35.2836ZM131.872 27.6364C131.872 27.1216 131.732 26.719 131.452 26.433C131.171 26.147 130.774 26.004 130.261 26.004C130.002 26.004 129.773 26.048 129.577 26.1382C129.381 26.2284 129.217 26.3494 129.087 26.5034C128.958 26.6574 128.861 26.8356 128.798 27.0402C128.736 27.2448 128.704 27.4582 128.704 27.6804C128.704 28.1666 128.844 28.5516 129.124 28.8354C129.405 29.1192 129.795 29.26 130.293 29.26C130.561 29.26 130.792 29.216 130.988 29.1302C131.184 29.0444 131.348 28.9256 131.478 28.776C131.607 28.6264 131.706 28.4526 131.773 28.2546C131.84 28.0566 131.872 27.852 131.872 27.6364Z" fill="url(#paint12_linear_629_416)"/>
<defs>
<linearGradient id="paint0_linear_629_416" x1="64.5189" y1="15.5912" x2="64.5189" y2="9.74798" gradientUnits="userSpaceOnUse">
<stop stop-color="#02579A"/>
<stop offset="1" stop-color="#218BDD"/>
</linearGradient>
<linearGradient id="paint1_linear_629_416" x1="6.35048" y1="22.2799" x2="32.4277" y2="22.2799" gradientUnits="userSpaceOnUse">
<stop stop-color="#02579A"/>
<stop offset="1" stop-color="#218BDD"/>
</linearGradient>
<linearGradient id="paint2_linear_629_416" x1="29.9104" y1="36.1024" x2="29.9104" y2="21.4438" gradientUnits="userSpaceOnUse">
<stop stop-color="#2C9400"/>
<stop offset="1" stop-color="#37ED81"/>
</linearGradient>
<linearGradient id="paint3_linear_629_416" x1="23.4282" y1="36.1024" x2="23.4282" y2="21.4438" gradientUnits="userSpaceOnUse">
<stop stop-color="#2C9400"/>
<stop offset="1" stop-color="#37ED81"/>
</linearGradient>
<linearGradient id="paint4_linear_629_416" x1="36.5219" y1="36.1022" x2="36.5219" y2="21.4436" gradientUnits="userSpaceOnUse">
<stop stop-color="#2C9400"/>
<stop offset="1" stop-color="#37ED81"/>
</linearGradient>
<linearGradient id="paint5_linear_629_416" x1="53.056" y1="34.3709" x2="53.056" y2="20.5527" gradientUnits="userSpaceOnUse">
<stop stop-color="#2C9400"/>
<stop offset="1" stop-color="#37ED81"/>
</linearGradient>
<linearGradient id="paint6_linear_629_416" x1="67.5238" y1="34.3709" x2="67.5238" y2="20.5527" gradientUnits="userSpaceOnUse">
<stop stop-color="#2C9400"/>
<stop offset="1" stop-color="#37ED81"/>
</linearGradient>
<linearGradient id="paint7_linear_629_416" x1="77.4766" y1="34.3709" x2="77.4766" y2="20.5527" gradientUnits="userSpaceOnUse">
<stop stop-color="#2C9400"/>
<stop offset="1" stop-color="#37ED81"/>
</linearGradient>
<linearGradient id="paint8_linear_629_416" x1="86.4933" y1="34.3708" x2="86.4933" y2="20.5526" gradientUnits="userSpaceOnUse">
<stop stop-color="#2C9400"/>
<stop offset="1" stop-color="#37ED81"/>
</linearGradient>
<linearGradient id="paint9_linear_629_416" x1="95.9565" y1="34.3709" x2="95.9565" y2="20.5527" gradientUnits="userSpaceOnUse">
<stop stop-color="#2C9400"/>
<stop offset="1" stop-color="#37ED81"/>
</linearGradient>
<linearGradient id="paint10_linear_629_416" x1="107.148" y1="34.3706" x2="107.148" y2="20.5524" gradientUnits="userSpaceOnUse">
<stop stop-color="#2C9400"/>
<stop offset="1" stop-color="#37ED81"/>
</linearGradient>
<linearGradient id="paint11_linear_629_416" x1="119.717" y1="34.3709" x2="119.717" y2="20.5527" gradientUnits="userSpaceOnUse">
<stop stop-color="#2C9400"/>
<stop offset="1" stop-color="#37ED81"/>
</linearGradient>
<linearGradient id="paint12_linear_629_416" x1="130.52" y1="34.3706" x2="130.52" y2="20.5524" gradientUnits="userSpaceOnUse">
<stop stop-color="#2C9400"/>
<stop offset="1" stop-color="#37ED81"/>
</linearGradient>
</defs>
</svg>
